<svg xmlns="http://www.w3.org/2000/svg" viewBox="99 94.3 601 422.3" xml:space="preserve"><g fill="#16B1B8"><path d="M225.3 395.8h89.4v-95.9h-28.9v67h-60.5v-9.7l-29.1 24.1 29.1 24.2zm281-95.9h-28.7v96.2h89.6v9.7l29.1-24.1-29.1-24.2v9.7h-60.9z"/><path d="M333.8 299.9v117.3H177.4v-9.7l-29.1 24.1 29.1 24.2v-9.7l185.1.7V299.9zm309.7 132.2L615 408.3v8.9H458.6V299.9h-29.1v147.2l185-.5v9.7zm-232-132.2h-28.9v187.7h-9.7l24.1 29 24.2-29h-9.7z"/><path d="m614.5 408 .5.3v-.3z"/></g><path fill="#3E3A36" d="M272.2 291.4H515c14.3-.9 37.6-7.6 37.6-52.4 0-49.8-40.1-51.2-40.1-51.2-3.4-18.7-29.8-16-29.8-16 0-41.5-13.9-77.5-78.9-77.5s-71.9 47.8-71.9 47.8h-22.1c-43.5 0-39.4 47.8-39.4 47.8-25.7 0-48.5 12.2-48.5 54.4 0 37.4 40.3 46.2 50.3 47.1z"/></svg>