<svg xmlns="http://www.w3.org/2000/svg" viewBox="0 0 34.98 49.23"><path d="M29.655 6.233H26.55a11.843 11.843 0 0 0-2.2-1.2c-1.793-.746-3.285-.928-3.313-1.516a3.709 3.709 0 0 0-7.411.07c-.01.294-1.186 1.1-2.906 1.623A7.599 7.599 0 0 0 8.7 6.23H5.321A5.326 5.326 0 0 0 0 11.549v32.356a5.326 5.326 0 0 0 5.32 5.32h24.337a5.326 5.326 0 0 0 5.319-5.32V11.552a5.326 5.326 0 0 0-5.32-5.32zM16.53 1.953a1.583 1.583 0 1 1-.008.004l.008-.004z" fill="#094f58"/><path d="M7.363 44.65c7-.5 14.694-2.608 22.72-4.336.913-.2 2.755-1.877 2.755-5.315V11.552a3.19 3.19 0 0 0-3.184-3.184h-1.138c.09.173.164.355.221.542a.529.529 0 0 1-.563.64c-1.178.008-20.281.014-21.655 0-.183 0-.357-.391-.28-.606.078-.202.177-.395.294-.576H5.318a3.189 3.189 0 0 0-3.184 3.184V41.04c0 2.97 3.477 3.736 5.23 3.61z" fill="#fff" stroke="#006ab5" stroke-width=".5"/><path d="M5.631 20.24l.351-.338a.408.408 0 0 1 .577.008l.001.002s1.965 1.9 2.724 2.615c2.59-2.962 7.707-8.021 7.707-8.021a.358.358 0 0 1 .463-.03l.291.23a.269.269 0 0 1 .019.412s-4.73 5.464-7.4 9.447c-.583.869-1.257 1.349-2.048-.115a15.478 15.478 0 0 0-2.7-3.632.41.41 0 0 1 .015-.577zm2.686 15.528a15.521 15.521 0 0 0-2.7-3.631.409.409 0 0 1 .01-.577l.351-.34a.407.407 0 0 1 .576.009l.002.003s1.965 1.9 2.724 2.614c2.59-2.96 7.707-8.021 7.707-8.021a.358.358 0 0 1 .463-.028l.291.23a.266.266 0 0 1 .019.409s-4.73 5.464-7.4 9.446c-.578.87-1.253 1.35-2.043-.114z" fill="#006ab5"/><path d="M28.156 36.034H17.831a1.007 1.007 0 1 1 0-2.013h10.325a1.007 1.007 0 1 1 0 2.013z" fill="#fff"/><path d="M28.156 21.453H17.831a1.007 1.007 0 1 1 0-2.015h10.325a1.007 1.007 0 1 1 0 2.015zm0 13H17.831a1.007 1.007 0 1 1 0-2.015h10.325a1.007 1.007 0 1 1 0 2.015z" fill="#107e8f"/><path d="M20.011 4.84c-.24.384-.573.702-.968.925a2.8 2.8 0 0 1-3.82-1.045c0-.003-.003-.006-.004-.008-.23-.405-.577.019-.825.226A9.49 9.49 0 0 1 11.42 6.38a6.852 6.852 0 0 0-2.266 1.312c-.25.208.146.644.634.644h4.756c2 0 12.687-.476 11.217-1.39a10.545 10.545 0 0 0-1.539-.783l-1.613-.581a5.911 5.911 0 0 1-1.708-.762c-.252-.182-.756-.197-.89.019z" fill="#3cb4c4"/></svg>