<svg xmlns="http://www.w3.org/2000/svg" viewBox="0 0 164.85 97.04"><path d="M112.464 43.159h2.38l5.686 14.043h-3.251l-1.125-2.976h-5.076l-1.09 2.976h-3.175l5.651-14.043zm1.105 4.086l-1.585 4.366h3.2l-1.615-4.366zm19.294 4.541c.01.78-.11 1.557-.35 2.3a5.11 5.11 0 0 1-1.045 1.825 4.78 4.78 0 0 1-1.725 1.21c-1.54.58-3.24.58-4.781 0a4.738 4.738 0 0 1-1.725-1.21 5.186 5.186 0 0 1-1.045-1.825 7.199 7.199 0 0 1-.35-2.3v-8.632h2.881v8.512c-.002.412.065.82.2 1.21.119.352.304.678.545.96.476.553 1.17.87 1.9.865.363.005.722-.074 1.05-.23.318-.151.601-.367.83-.635.241-.282.426-.608.545-.96a3.64 3.64 0 0 0 .2-1.21v-8.512h2.881l-.011 8.632zm2.661-8.627h4.321a11.53 11.53 0 0 1 2.981.375c.898.23 1.738.645 2.466 1.22a5.868 5.868 0 0 1 1.67 2.19 7.852 7.852 0 0 1 .62 3.271 7.099 7.099 0 0 1-.6 3.006 6.4 6.4 0 0 1-1.615 2.18 7.068 7.068 0 0 1-2.345 1.34 8.494 8.494 0 0 1-2.786.455h-4.706V43.159h-.006zm2.881 11.187h1.5a7.52 7.52 0 0 0 1.855-.22 3.82 3.82 0 0 0 1.485-.725c.434-.354.773-.811.985-1.33.257-.64.38-1.326.36-2.015a4.167 4.167 0 0 0-.36-1.8 3.547 3.547 0 0 0-.97-1.26 4.146 4.146 0 0 0-1.43-.745 5.973 5.973 0 0 0-1.725-.25h-1.7v8.345zm11.092-11.187h2.881v14.043h-2.881V43.159zm8.032 2.736h-3.731v-2.736h10.34v2.736h-3.731v11.307h-2.881V45.895h.003zM65.895 64.854h-4.006v-2.736h11.107v2.736H68.99v11.307h-3.1l.005-11.307zm8.787-2.741h9.54v2.86h-6.446v2.621h6.091v2.856h-6.091v2.856h6.806v2.856h-9.9V62.113zm12.382 0h4.68l3.236 9.167h.04l3.256-9.167h4.661v14.043h-3.1V65.384h-.04l-3.691 10.772h-2.36l-3.551-10.772h-.04v10.772h-3.1l.009-14.043zm18.724 0h5.216a10.07 10.07 0 0 1 2.06.2 4.6 4.6 0 0 1 1.7.685c.488.332.884.783 1.15 1.31.305.646.45 1.356.425 2.07a4.784 4.784 0 0 1-.4 2.065c-.244.53-.62.987-1.09 1.33a4.462 4.462 0 0 1-1.645.705 9.557 9.557 0 0 1-2.06.21h-2.26v5.476h-3.1l.004-14.051zm3.1 5.951h2.065c.27.001.54-.025.805-.08.248-.047.485-.138.7-.27a1.4 1.4 0 0 0 .5-.515c.135-.254.2-.538.19-.825a1.384 1.384 0 0 0-.25-.86 1.622 1.622 0 0 0-.635-.505 2.752 2.752 0 0 0-.865-.23 8.308 8.308 0 0 0-.91-.05h-1.585v3.336l-.015-.001zm9.518-5.951h3.1V73.3h5.731v2.856h-8.831V62.113zm15.153 0h2.561l6.111 14.043h-3.491l-1.21-2.976h-5.456l-1.17 2.976h-3.411l6.066-14.043zm1.19 4.091l-1.705 4.366h3.431l-1.726-4.366zm9.782-1.35h-4.006v-2.736h11.107v2.736h-4.006v11.307h-3.1l.005-11.307zm8.787-2.741h9.542v2.86h-6.442v2.621h6.091v2.856h-6.091v2.856h6.8v2.856h-9.9V62.113z" fill="#005191"/><path d="M92.71 31.321h1.69c.224.001.448.02.67.055.217.032.425.108.61.225.183.118.334.28.44.47.124.248.183.523.17.8.004.283-.09.558-.265.78a1.32 1.32 0 0 1-.785.44v.015c.183.012.363.058.53.135a1.3 1.3 0 0 1 .685.745c.155.456.12.956-.1 1.385-.12.204-.289.375-.49.5-.195.12-.41.205-.635.25a3.27 3.27 0 0 1-.64.065h-1.87v-5.865h-.01zm.545 2.536h1.135c.233.01.465-.025.685-.1a1.3 1.3 0 0 0 .415-.25.763.763 0 0 0 .2-.32c.032-.1.049-.205.05-.31a1.1 1.1 0 0 0-.105-.51.918.918 0 0 0-.275-.325 1.139 1.139 0 0 0-.405-.17 2.205 2.205 0 0 0-.49-.05h-1.21v2.035zm0 2.826h1.25c.263.008.526-.03.775-.115.17-.06.325-.16.45-.29a.9.9 0 0 0 .21-.37c.034-.114.052-.231.055-.35a1.138 1.138 0 0 0-.125-.555 1.08 1.08 0 0 0-.325-.375 1.43 1.43 0 0 0-.45-.21 1.982 1.982 0 0 0-.51-.065h-1.33v2.33zm8.827-1.746a3.52 3.52 0 0 1-.11.9 2.1 2.1 0 0 1-.36.76 1.877 1.877 0 0 1-.66.53 2.626 2.626 0 0 1-2.01 0 1.792 1.792 0 0 1-.66-.53 2.017 2.017 0 0 1-.36-.76 3.765 3.765 0 0 1-.11-.9v-3.616h.545v3.476c.001.225.021.449.06.67.037.232.115.455.23.66.117.205.281.378.48.505.25.143.537.213.825.2.289.014.575-.056.825-.2.199-.127.364-.3.48-.505.114-.205.192-.428.23-.66.039-.221.059-.445.06-.67v-3.476h.545v3.616h-.01zm1.5-3.616h.545v5.856h-.545v-5.856zm2.151 0h.545v5.361h2.731v.5h-3.276v-5.861zm4.061 0h1.81a3.84 3.84 0 0 1 1.29.185c.318.107.616.267.88.475a2.3 2.3 0 0 1 .555.64c.125.213.226.44.3.675.06.19.1.386.12.585.015.175.025.3.025.37s-.01.2-.025.37c-.02.199-.06.395-.12.585a3.258 3.258 0 0 1-.3.675 2.301 2.301 0 0 1-.555.64c-.263.208-.561.37-.88.475a3.91 3.91 0 0 1-1.29.185h-1.81v-5.86zm.545 5.361h1.125c.367.002.732-.047 1.085-.145.32-.087.617-.238.875-.445.25-.203.45-.462.585-.755a2.871 2.871 0 0 0 0-2.18 2.1 2.1 0 0 0-.585-.755 2.538 2.538 0 0 0-.875-.445 3.79 3.79 0 0 0-1.085-.145h-1.125v4.87zM116 31.321h.545v5.856H116v-5.856zm2.15 0h.705l3.566 5.131h.015v-5.131h.545v5.856h-.705l-3.566-5.126h-.015v5.131h-.545v-5.861zm11.273 5.481c-.332.19-.69.33-1.065.41-.368.08-.743.12-1.12.12a3.19 3.19 0 0 1-1.23-.23 2.8 2.8 0 0 1-.955-.635 2.98 2.98 0 0 1-.62-.975 3.5 3.5 0 0 1 0-2.47 2.814 2.814 0 0 1 1.575-1.61c.39-.158.809-.236 1.23-.23a2.842 2.842 0 0 1 2.11.81l-.4.415a1.701 1.701 0 0 0-.325-.3 2.504 2.504 0 0 0-1.385-.435 2.526 2.526 0 0 0-1.03.2c-.294.127-.56.312-.78.545-.22.237-.39.516-.5.82a3.062 3.062 0 0 0 0 2.04c.11.304.28.583.5.82.219.234.485.42.78.545a2.6 2.6 0 0 0 1.03.2 4.95 4.95 0 0 0 .885-.075c.266-.046.522-.14.755-.275v-1.97h-1.405v-.5h1.95v2.78zm3.755-5.481h3.581v.5h-3.036v2.085h2.846v.5h-2.846v2.285h3.171v.5h-3.716v-5.87zm4.906 0h.705l3.566 5.131h.015v-5.131h.545v5.856h-.705l-3.566-5.126h-.015v5.131h-.545v-5.861zm6.437 0h3.581v.5h-3.036v2.085h2.845v.5h-2.846v2.285h3.171v.5h-3.715v-5.87zm4.906 0h1.54c.075 0 .18.005.315.01a2.886 2.886 0 0 1 .9.18 1.317 1.317 0 0 1 .745.705c.09.203.133.423.125.645.01.242-.04.482-.145.7a1.325 1.325 0 0 1-.365.44 1.445 1.445 0 0 1-.485.25 2.903 2.903 0 0 1-.505.115l1.705 2.816h-.62l-1.645-2.781h-1.02v2.781h-.545v-5.861zm.545 2.586h1.16a1.85 1.85 0 0 0 .7-.11c.158-.057.301-.147.42-.265a.9.9 0 0 0 .205-.34 1.018 1.018 0 0 0 0-.66.838.838 0 0 0-.205-.34 1.144 1.144 0 0 0-.42-.265 1.946 1.946 0 0 0-.7-.105h-1.16v2.085zm9.192 2.895c-.332.19-.69.33-1.065.41-.368.08-.743.12-1.12.12a3.19 3.19 0 0 1-1.23-.23 2.757 2.757 0 0 1-.955-.635 2.93 2.93 0 0 1-.62-.975 3.5 3.5 0 0 1 0-2.47 2.815 2.815 0 0 1 1.575-1.61c.39-.158.809-.236 1.23-.23a2.842 2.842 0 0 1 2.11.81l-.4.415a1.701 1.701 0 0 0-.325-.3 2.504 2.504 0 0 0-1.385-.435 2.526 2.526 0 0 0-1.03.2c-.294.127-.56.312-.78.545-.22.237-.39.516-.5.82a3.062 3.062 0 0 0 0 2.04c.11.304.28.583.5.82.219.234.485.42.78.545a2.6 2.6 0 0 0 1.03.2 4.95 4.95 0 0 0 .885-.075c.266-.046.522-.14.755-.275v-1.97h-1.405v-.5h1.95v2.78zm2.905-2.145l-2.15-3.336h.655l1.77 2.781 1.81-2.781h.615l-2.15 3.336v2.526h-.545v-2.526h-.005zM17.8 76.945H0V61.982l8.9-6.671 8.9 6.671v14.963zm17.528.001H19.38v-47.97l15.948 10.387v37.583z" fill="#8295a1"/><path d="M58.413 15.873h-4.511v-3.956h-2.846V7.96h-2.285V0h-2.225v7.96h-2.285v3.956h-2.846v3.956h-4.511v61.073h21.509V15.873z" fill="#3ba6dd"/><path d="M1.571 90.499v3.906c0 .208.027.414.08.615.055.211.146.41.27.59.13.183.302.334.5.44a1.762 1.762 0 0 0 1.51 0c.198-.106.37-.257.5-.44a1.81 1.81 0 0 0 .27-.59c.052-.2.08-.407.08-.615v-3.906h.865v4.041c.004.346-.06.69-.19 1.01-.12.295-.297.563-.52.79a2.329 2.329 0 0 1-.785.515 2.7 2.7 0 0 1-1.94 0 2.3 2.3 0 0 1-.785-.515 2.386 2.386 0 0 1-.52-.79 2.634 2.634 0 0 1-.19-1.01v-4.041h.855zm7.367 6.426a.59.59 0 0 1-.42-.175.555.555 0 0 1-.175-.42.582.582 0 0 1 .175-.42.591.591 0 0 1 .84 0c.114.11.177.262.175.42a.582.582 0 0 1-.175.42.555.555 0 0 1-.42.175zm3.61-1.385c.147.226.355.407.6.52.235.108.491.164.75.165.304-.004.6-.098.85-.27.124-.088.226-.202.3-.335.08-.14.12-.299.115-.46a.683.683 0 0 0-.235-.56 2.066 2.066 0 0 0-.58-.325c-.23-.09-.485-.17-.755-.25a3.212 3.212 0 0 1-.755-.335 1.685 1.685 0 0 1-.815-1.565 1.681 1.681 0 0 1 .505-1.175c.193-.188.42-.335.67-.435a2.53 2.53 0 0 1 .985-.175c.339 0 .675.048 1 .145.332.104.623.309.835.585l-.7.64a1.139 1.139 0 0 0-.46-.405 1.492 1.492 0 0 0-.675-.155 1.607 1.607 0 0 0-.6.1 1.134 1.134 0 0 0-.385.245.9.9 0 0 0-.205.32.966.966 0 0 0-.06.315.807.807 0 0 0 .235.62 1.8 1.8 0 0 0 .58.35c.247.094.5.176.755.245.264.066.518.167.755.3.229.13.427.306.58.52.17.27.252.586.235.905.003.286-.057.57-.175.83-.11.238-.27.45-.47.62a2.068 2.068 0 0 1-.7.385c-.28.091-.571.137-.865.135-.397.003-.79-.07-1.16-.215a1.946 1.946 0 0 1-.875-.665l.72-.62zm6.597 1.385a.59.59 0 0 1-.42-.175.555.555 0 0 1-.175-.42.582.582 0 0 1 .175-.42.591.591 0 0 1 .84 0c.114.11.177.262.175.42a.582.582 0 0 1-.175.42.555.555 0 0 1-.42.175zm7.131-6.426h2.225c.4-.007.8.045 1.185.155.313.089.61.227.88.41.237.162.446.361.62.59.16.21.29.44.39.685.093.226.161.46.205.7a3.22 3.22 0 0 1-.16 1.835c-.15.38-.376.726-.665 1.015-.316.309-.69.552-1.1.715-.48.188-.994.28-1.51.27h-2.08v-6.375h.01zm.865 5.566h1.09a3.56 3.56 0 0 0 1.04-.15 2.6 2.6 0 0 0 .86-.445c.247-.201.446-.454.585-.74.15-.326.224-.681.215-1.04a3.167 3.167 0 0 0-.1-.715 2.12 2.12 0 0 0-.375-.78 2.166 2.166 0 0 0-.76-.625 2.715 2.715 0 0 0-1.26-.255h-1.3v4.751l.005-.001zm7.302-5.566h4.116v.81h-3.251v1.9h3.026v.81h-3.026v2.045h3.411v.81h-4.276v-6.375zm6.846 0h2.24c.344-.011.687.045 1.01.165.238.092.452.237.625.425.15.164.26.361.32.575.058.2.088.407.09.615a2.234 2.234 0 0 1-.09.615c-.06.214-.17.41-.32.575a1.79 1.79 0 0 1-.625.425c-.323.12-.666.176-1.01.165h-1.375v2.811h-.865v-6.371zm.865 2.811h1.135c.167 0 .335-.014.5-.04a1.24 1.24 0 0 0 .44-.15.8.8 0 0 0 .31-.31 1.03 1.03 0 0 0 .115-.525 1.075 1.075 0 0 0-.115-.525.8.8 0 0 0-.31-.31 1.472 1.472 0 0 0-.44-.15 2.774 2.774 0 0 0-.5-.04h-1.135v2.05zm7.157-2.811h.785l2.726 6.371h-1.01l-.64-1.575h-3.037l-.63 1.575h-1.01l2.816-6.371zm1.55 4.046l-1.19-2.926h-.02l-1.205 2.926h2.415zm4.141-4.046h2.24c.344-.011.687.045 1.01.165.238.092.452.237.625.425.15.164.26.361.32.575.058.2.088.407.09.615.001.202-.036.402-.11.59a1.649 1.649 0 0 1-.81.9 1.758 1.758 0 0 1-.65.2l1.81 2.906h-1.08l-1.62-2.811h-.965v2.811h-.865v-6.376h.005zm.865 2.811h1.135c.167 0 .335-.014.5-.04a1.24 1.24 0 0 0 .44-.15.8.8 0 0 0 .31-.31 1.03 1.03 0 0 0 .115-.525 1.075 1.075 0 0 0-.115-.525.8.8 0 0 0-.31-.31 1.472 1.472 0 0 0-.44-.15 2.774 2.774 0 0 0-.5-.04h-1.135v2.05zm7.156-2.001h-2.05v-.81h4.971v.81h-2.05v5.561h-.865v-5.561h-.006zm5.122-.81h1.285l2.025 4.826h.035l2.005-4.826h1.285v6.371h-.865v-5.241h-.02l-2.15 5.241h-.575l-2.15-5.241H69v5.241h-.865v-6.371h.01zm9.567 0h4.116v.81h-3.251v1.9h3.026v.81h-3.026v2.045h3.415v.81h-4.28v-6.375zm6.851 0h1.135l3.511 5.241h.02v-5.241h.865v6.371h-1.1l-3.546-5.241h-.02v5.241h-.865v-6.371zm9.847.81h-2.05v-.81h4.971v.81h-2.05v5.561h-.865v-5.561h-.006zm11.963 5.726a3.442 3.442 0 0 1-1.34-.255 3.132 3.132 0 0 1-1.05-.705 3.31 3.31 0 0 1-.685-1.06 3.637 3.637 0 0 1 0-2.651c.157-.395.39-.755.685-1.06a3.081 3.081 0 0 1 1.05-.705 3.65 3.65 0 0 1 2.681 0 3.13 3.13 0 0 1 1.05.705c.294.306.527.666.685 1.06a3.637 3.637 0 0 1 0 2.651c-.157.395-.39.755-.685 1.06a3.081 3.081 0 0 1-1.05.705c-.426.173-.882.26-1.341.255zm0-.81c.34.004.679-.066.99-.205a2.3 2.3 0 0 0 .755-.545c.213-.234.377-.508.485-.805a2.94 2.94 0 0 0 0-1.97 2.373 2.373 0 0 0-.485-.805 2.3 2.3 0 0 0-.755-.545 2.354 2.354 0 0 0-.99-.205 2.278 2.278 0 0 0-.99.205 2.3 2.3 0 0 0-.755.545 2.424 2.424 0 0 0-.485.805 2.94 2.94 0 0 0 0 1.97 2.336 2.336 0 0 0 2.23 1.555zm5.916-5.726h4.006v.81h-3.141v2h2.926v.81h-2.926v2.756h-.865v-6.376zm10.367 0h4.116v.81h-3.251v1.9h3.026v.81h-3.026v2.045h3.411v.81h-4.276v-6.375zm6.852 0h1.135l3.511 5.241h.02v-5.241h.865v6.371h-1.1l-3.546-5.241h-.02v5.241h-.865v-6.371zm8.516 0h4.116v.81h-3.251v1.9h3.026v.81h-3.026v2.045h3.415v.81h-4.28v-6.375zm6.852 0h2.24a2.65 2.65 0 0 1 1.01.165c.239.09.453.236.625.425.15.164.26.361.32.575.058.2.088.407.09.615.001.202-.036.402-.11.59a1.649 1.649 0 0 1-.81.9 1.758 1.758 0 0 1-.65.2l1.81 2.906h-1.08l-1.62-2.811h-.965v2.811h-.865l.005-6.376zm.865 2.811h1.135c.167 0 .335-.014.5-.04a1.24 1.24 0 0 0 .44-.15.8.8 0 0 0 .31-.31 1.03 1.03 0 0 0 .115-.525 1.075 1.075 0 0 0-.115-.525.8.8 0 0 0-.31-.31 1.475 1.475 0 0 0-.44-.15 2.774 2.774 0 0 0-.5-.04h-1.135v2.05zm11.412 0v3.144a2.892 2.892 0 0 1-.53.25 5.726 5.726 0 0 1-1.265.3c-.204.023-.41.035-.615.035a3.668 3.668 0 0 1-1.445-.27 3.094 3.094 0 0 1-1.735-1.795 3.562 3.562 0 0 1-.23-1.28 3.509 3.509 0 0 1 .25-1.325c.157-.395.39-.755.685-1.06a3.081 3.081 0 0 1 1.05-.705c.425-.173.88-.26 1.34-.255a4 4 0 0 1 1.44.22c.351.133.67.34.935.605l-.61.655a2.333 2.333 0 0 0-.835-.525 2.85 2.85 0 0 0-.925-.15 2.278 2.278 0 0 0-.99.205 2.3 2.3 0 0 0-.755.545 2.424 2.424 0 0 0-.485.805 2.8 2.8 0 0 0-.17.985c-.002.344.062.685.19 1.005.119.3.295.573.52.805.223.23.49.411.785.535.31.134.643.202.98.2.292 0 .583-.028.87-.085.245-.044.482-.129.7-.25v-1.775h-1.415v-.81h2.265l-.005-.009zm4.427.845l-2.411-3.656h1.105l1.735 2.8 1.79-2.8h1.055l-2.41 3.656v2.721h-.865v-2.721h.001z" fill="#8295a1"/><path fill="none" stroke="#8295a1" stroke-miterlimit="10" d="M0 84.25h164.72"/><path fill="#fff" d="M43.77 26.9h22.84v28.82H43.77z"/><g fill="#005191"><path d="M66.57 25.395h-2.845v1.5h2.881v28.821h-22.84V26.895h2.881v-1.5h-2.841c-.853 0-1.544.692-1.545 1.545v28.735c0 .853.692 1.545 1.545 1.545h22.76a1.546 1.546 0 0 0 1.549-1.543V26.935a1.545 1.545 0 0 0-1.545-1.54z"/><path d="M61.444 23.57h-2.506a3.751 3.751 0 1 0-7.492 0H48.94a1.052 1.052 0 0 0-1.115.975v2.51a1.052 1.052 0 0 0 1.115.976h12.5c.576.036 1.074-.4 1.115-.975v-2.507a1.055 1.055 0 0 0-1.111-.979zm-6.251-.305a1.15 1.15 0 1 1 1.15-1.15 1.15 1.15 0 0 1-1.15 1.15zm-4.36 8.512l-2.651 2.651-.755-.755a.682.682 0 0 0-.964-.005l-.006.005a.682.682 0 0 0-.005.965l.005.005.755.755.815.815a.22.22 0 0 0 .31 0l.815-.815 2.651-2.651a.682.682 0 0 0 .006-.964l-.006-.006a.682.682 0 0 0-.964-.005l-.006.005zm0 7.651l-2.651 2.651-.755-.755a.682.682 0 0 0-.964-.005l-.006.005a.682.682 0 0 0-.005.965l.005.005.755.755.815.815a.22.22 0 0 0 .31 0l.815-.815 2.651-2.651a.682.682 0 0 0 .006-.964l-.006-.006a.691.691 0 0 0-.97 0zm0 7.867l-2.651 2.651-.755-.755a.682.682 0 0 0-.964-.005l-.006.005a.682.682 0 0 0-.005.965l.005.005.755.755.815.815a.22.22 0 0 0 .31 0l.815-.815 2.651-2.651a.682.682 0 0 0 .006-.964l-.006-.006a.682.682 0 0 0-.964-.005l-.006.005zm4.141-6.196h8.99v1.99h-8.99zm0 7.87h8.99v1.99h-8.99zm0-15.52h8.99v1.99h-8.99z"/></g></svg>