<svg id="Layer_1" data-name="Layer 1" xmlns="http://www.w3.org/2000/svg" viewBox="0 0 239.72 141.11"><defs><style>.cls-1{fill:#fff;}.cls-2{fill:none;stroke:#fff;stroke-miterlimit:10;stroke-width:0.73px;}.cls-3{fill:#005191;}</style></defs><path class="cls-1" d="M176.9,68.44h3.46l8.27,20.42H183.9l-1.64-4.32h-7.38l-1.58,4.32h-4.62Zm1.6,6-2.3,6.34h4.65Z" transform="translate(-13.36 -5.68)"/><path class="cls-1" d="M206.56,81a10.45,10.45,0,0,1-.51,3.34A7.37,7.37,0,0,1,204.53,87,6.9,6.9,0,0,1,202,88.75a9.9,9.9,0,0,1-7,0A6.9,6.9,0,0,1,192.56,87,7.52,7.52,0,0,1,191,84.33a10.45,10.45,0,0,1-.51-3.34V68.44h4.19V80.81a5.46,5.46,0,0,0,.28,1.76,4.27,4.27,0,0,0,.8,1.4,3.55,3.55,0,0,0,1.22.92,3.62,3.62,0,0,0,1.54.34,3.43,3.43,0,0,0,1.53-.34A3.71,3.71,0,0,0,201.3,84a4.25,4.25,0,0,0,.79-1.4,5.2,5.2,0,0,0,.28-1.76V68.44h4.19Z" transform="translate(-13.36 -5.68)"/><path class="cls-1" d="M210.43,68.44h6.28a17,17,0,0,1,4.34.55,9.7,9.7,0,0,1,3.58,1.77A8.61,8.61,0,0,1,227.06,74a11.36,11.36,0,0,1,.9,4.76,10.36,10.36,0,0,1-.87,4.37,9.38,9.38,0,0,1-2.35,3.17,10.36,10.36,0,0,1-3.41,2,12.46,12.46,0,0,1-4.05.66h-6.84V68.44Zm4.19,16.27h2.17a11,11,0,0,0,2.7-.32,5.59,5.59,0,0,0,2.16-1,4.9,4.9,0,0,0,1.43-1.94,7.27,7.27,0,0,0,.53-2.93,6,6,0,0,0-.53-2.61A5.16,5.16,0,0,0,221.67,74,6.05,6.05,0,0,0,219.59,73a8.66,8.66,0,0,0-2.51-.37h-2.47V84.71Z" transform="translate(-13.36 -5.68)"/><path class="cls-1" d="M230.75,68.44h4.19V88.86h-4.19Z" transform="translate(-13.36 -5.68)"/><path class="cls-1" d="M242.43,72.42H237v-4h15v4h-5.42V88.86h-4.19V72.42Z" transform="translate(-13.36 -5.68)"/><path class="cls-1" d="M109.18,100h-5.83V96H119.5v4h-5.82v16.44h-4.5V100Z" transform="translate(-13.36 -5.68)"/><path class="cls-1" d="M122,96h13.87v4.15h-9.37V104h8.85v4.15h-8.85v4.15h9.89v4.16H122V96Z" transform="translate(-13.36 -5.68)"/><path class="cls-1" d="M140,96h6.81l4.7,13.33h.06L156.27,96H163v20.42h-4.5V100.76h-.06l-5.36,15.67h-3.44l-5.16-15.67h-.06v15.67H140Z" transform="translate(-13.36 -5.68)"/><path class="cls-1" d="M167.19,96h7.58a14.41,14.41,0,0,1,3,.29,6.7,6.7,0,0,1,2.46,1,5.19,5.19,0,0,1,1.68,1.91,6.55,6.55,0,0,1,.62,3,6.86,6.86,0,0,1-.58,3,5,5,0,0,1-1.58,1.94,6.44,6.44,0,0,1-2.4,1,13.45,13.45,0,0,1-3,.31h-3.29v8h-4.5Zm4.5,8.65h3a5.59,5.59,0,0,0,1.17-.12,3,3,0,0,0,1-.39,2.05,2.05,0,0,0,.71-.75,2.29,2.29,0,0,0,.28-1.2,2,2,0,0,0-.36-1.25,2.32,2.32,0,0,0-.93-.73,3.78,3.78,0,0,0-1.25-.34,12.5,12.5,0,0,0-1.33-.07h-2.3v4.85Z" transform="translate(-13.36 -5.68)"/><path class="cls-1" d="M185.54,96H190v16.26h8.33v4.16H185.54Z" transform="translate(-13.36 -5.68)"/><path class="cls-1" d="M207.57,96h3.72l8.89,20.42h-5.07l-1.76-4.33h-7.94l-1.7,4.33h-5ZM209.3,102l-2.48,6.35h5Z" transform="translate(-13.36 -5.68)"/><path class="cls-1" d="M223.53,100H217.7V96h16.15v4H228v16.44h-4.5V100Z" transform="translate(-13.36 -5.68)"/><path class="cls-1" d="M236.3,96h13.88v4.15h-9.37V104h8.85v4.15h-8.85v4.15h9.89v4.16H236.3Z" transform="translate(-13.36 -5.68)"/><path class="cls-1" d="M148.17,51.23h2.46a6.35,6.35,0,0,1,1,.08,2.22,2.22,0,0,1,.89.33,2,2,0,0,1,.64.68,2.34,2.34,0,0,1,.25,1.17,1.76,1.76,0,0,1-.39,1.13,1.91,1.91,0,0,1-1.14.64v0a2.13,2.13,0,0,1,.77.2,2,2,0,0,1,.61.43,2.34,2.34,0,0,1,.39.65,2.39,2.39,0,0,1,.14.82,2.32,2.32,0,0,1-.29,1.2,2.13,2.13,0,0,1-.71.72,2.82,2.82,0,0,1-.92.37,5.21,5.21,0,0,1-.93.09h-2.72V51.23Zm.79,3.69h1.66a2.53,2.53,0,0,0,1-.16,1.7,1.7,0,0,0,.6-.36,1.18,1.18,0,0,0,.3-.46,1.6,1.6,0,0,0,.07-.45,1.67,1.67,0,0,0-.15-.75,1.54,1.54,0,0,0-.4-.47,1.65,1.65,0,0,0-.59-.25,3.32,3.32,0,0,0-.72-.07H149ZM149,59h1.82a3.16,3.16,0,0,0,1.13-.17,1.78,1.78,0,0,0,.65-.42,1.24,1.24,0,0,0,.31-.54,2.05,2.05,0,0,0,.08-.51,1.73,1.73,0,0,0-.18-.81,1.67,1.67,0,0,0-.48-.54,2.06,2.06,0,0,0-.65-.31,3.12,3.12,0,0,0-.74-.09H149Z" transform="translate(-13.36 -5.68)"/><path class="cls-1" d="M161.8,56.49a5.11,5.11,0,0,1-.16,1.31,3.19,3.19,0,0,1-.52,1.1,2.71,2.71,0,0,1-1,.77,3.85,3.85,0,0,1-2.93,0,2.54,2.54,0,0,1-1-.77,3,3,0,0,1-.52-1.1,5.59,5.59,0,0,1-.16-1.31V51.23h.79v5.05a5.67,5.67,0,0,0,.09,1,3.12,3.12,0,0,0,.33,1,2,2,0,0,0,.7.73,2.22,2.22,0,0,0,1.2.29,2.13,2.13,0,0,0,1.2-.29,2,2,0,0,0,.7-.73,2.74,2.74,0,0,0,.33-1,5.67,5.67,0,0,0,.09-1V51.23h.79v5.26Z" transform="translate(-13.36 -5.68)"/><path class="cls-1" d="M164,51.23h.79v8.52H164Z" transform="translate(-13.36 -5.68)"/><path class="cls-1" d="M167.11,51.23h.79V59h4v.72h-4.76Z" transform="translate(-13.36 -5.68)"/><path class="cls-1" d="M173,51.23h2.64a5.64,5.64,0,0,1,1.87.27,4.08,4.08,0,0,1,1.28.69,3.52,3.52,0,0,1,.81.93,4.88,4.88,0,0,1,.44,1,4.55,4.55,0,0,1,.17.85c0,.26,0,.43,0,.54s0,.29,0,.54a4.4,4.4,0,0,1-.17.85,4.88,4.88,0,0,1-.44,1,3.37,3.37,0,0,1-.81.93,4,4,0,0,1-1.28.69,5.43,5.43,0,0,1-1.87.27H173Zm.8,7.8h1.63a6.15,6.15,0,0,0,1.58-.21,3.47,3.47,0,0,0,1.27-.65,3,3,0,0,0,.85-1.1,4.09,4.09,0,0,0,0-3.17,3.1,3.1,0,0,0-.85-1.1,3.72,3.72,0,0,0-1.27-.65,5.75,5.75,0,0,0-1.58-.21h-1.63Z" transform="translate(-13.36 -5.68)"/><path class="cls-1" d="M182,51.23h.79v8.52H182Z" transform="translate(-13.36 -5.68)"/><path class="cls-1" d="M185.17,51.23h1l5.19,7.46h0V51.23h.79v8.52h-1L186,52.29h0v7.46h-.79Z" transform="translate(-13.36 -5.68)"/><path class="cls-1" d="M201.56,59.2a5.66,5.66,0,0,1-1.55.6,8.05,8.05,0,0,1-1.63.17,4.75,4.75,0,0,1-1.79-.33,4,4,0,0,1-1.39-.93,4.48,4.48,0,0,1-.9-1.41,5.07,5.07,0,0,1,0-3.6,4.48,4.48,0,0,1,.9-1.41,4.19,4.19,0,0,1,1.39-.93,4.71,4.71,0,0,1,1.79-.33,4.13,4.13,0,0,1,3.07,1.18l-.58.6a2.46,2.46,0,0,0-.47-.43,2.76,2.76,0,0,0-.61-.33,3.26,3.26,0,0,0-.69-.22,3.51,3.51,0,0,0-.71-.08,3.59,3.59,0,0,0-1.5.29,3.43,3.43,0,0,0-1.14.79A3.68,3.68,0,0,0,195,54a4.52,4.52,0,0,0-.25,1.49A4.46,4.46,0,0,0,195,57a3.58,3.58,0,0,0,.72,1.19,3.31,3.31,0,0,0,1.14.8,3.93,3.93,0,0,0,1.5.29,7.44,7.44,0,0,0,1.28-.11,3.61,3.61,0,0,0,1.1-.4V55.89h-2v-.72h2.83v4Z" transform="translate(-13.36 -5.68)"/><path class="cls-1" d="M207,51.23h5.21V52h-4.42v3H212v.72h-4.14V59h4.61v.72H207Z" transform="translate(-13.36 -5.68)"/><path class="cls-1" d="M214.15,51.23h1l5.18,7.46h0V51.23h.8v8.52h-1L215,52.29h0v7.46h-.8Z" transform="translate(-13.36 -5.68)"/><path class="cls-1" d="M223.51,51.23h5.21V52H224.3v3h4.14v.72H224.3V59h4.62v.72h-5.41Z" transform="translate(-13.36 -5.68)"/><path class="cls-1" d="M230.65,51.23h2.24l.45,0a3,3,0,0,1,.63.07,3.66,3.66,0,0,1,.68.19,1.83,1.83,0,0,1,.63.38,2,2,0,0,1,.64,1.58,2.13,2.13,0,0,1-.21,1,2,2,0,0,1-.53.64,2.07,2.07,0,0,1-.71.36,4.24,4.24,0,0,1-.73.17l2.48,4.1h-.91l-2.39-4h-1.48v4h-.79V51.23Zm.79,3.76h1.69a2.64,2.64,0,0,0,1-.16,1.46,1.46,0,0,0,.61-.39,1.28,1.28,0,0,0,.3-.49,1.72,1.72,0,0,0,.08-.48,1.84,1.84,0,0,0-.08-.48,1.17,1.17,0,0,0-.3-.49,1.46,1.46,0,0,0-.61-.39,2.83,2.83,0,0,0-1-.15h-1.69Z" transform="translate(-13.36 -5.68)"/><path class="cls-1" d="M244.8,59.2a5.6,5.6,0,0,1-1.54.6,8.13,8.13,0,0,1-1.63.17,4.71,4.71,0,0,1-1.79-.33,3.86,3.86,0,0,1-1.39-.93,4.2,4.2,0,0,1-.9-1.41,5.07,5.07,0,0,1,0-3.6,4.31,4.31,0,0,1,.9-1.41,4.24,4.24,0,0,1,1.39-.93,4.68,4.68,0,0,1,1.79-.33,4.13,4.13,0,0,1,3.07,1.18l-.58.6a2.46,2.46,0,0,0-.47-.43,2.76,2.76,0,0,0-.61-.33,3.26,3.26,0,0,0-.69-.22,3.53,3.53,0,0,0-.72-.08,3.57,3.57,0,0,0-1.49.29,3.33,3.33,0,0,0-1.14.79,3.68,3.68,0,0,0-.72,1.19,4.28,4.28,0,0,0-.25,1.49,4.22,4.22,0,0,0,.25,1.48,3.58,3.58,0,0,0,.72,1.19,3.22,3.22,0,0,0,1.14.8,3.92,3.92,0,0,0,1.49.29,7.47,7.47,0,0,0,1.29-.11,3.71,3.71,0,0,0,1.1-.4V55.89h-2v-.72h2.83v4Z" transform="translate(-13.36 -5.68)"/><path class="cls-1" d="M249,56.08l-3.13-4.85h1l2.57,4,2.63-4h.9l-3.13,4.85v3.67H249V56.08Z" transform="translate(-13.36 -5.68)"/><polygon class="cls-1" points="25.88 111.89 0 111.89 0 90.13 12.95 80.43 25.88 90.13 25.88 111.89"/><polygon class="cls-1" points="51.37 111.89 28.18 111.89 28.18 42.13 51.37 57.24 51.37 111.89"/><polygon class="cls-1" points="84.94 23.08 78.38 23.08 78.38 17.33 74.24 17.33 74.24 11.58 70.92 11.58 70.92 0 67.68 0 67.68 11.58 64.36 11.58 64.36 17.33 60.22 17.33 60.22 23.08 53.66 23.08 53.66 111.89 84.94 111.89 84.94 23.08"/><path class="cls-1" d="M15.64,137.28V143a3.57,3.57,0,0,0,.11.9,2.73,2.73,0,0,0,.39.85,2.11,2.11,0,0,0,.72.64,2.21,2.21,0,0,0,1.1.25,2.18,2.18,0,0,0,1.1-.25,1.94,1.94,0,0,0,.72-.64,2.63,2.63,0,0,0,.39-.85,3.66,3.66,0,0,0,.12-.9v-5.68h1.26v5.88a3.85,3.85,0,0,1-.28,1.47,3.58,3.58,0,0,1-.75,1.15,3.47,3.47,0,0,1-1.15.75,3.84,3.84,0,0,1-1.41.26,3.88,3.88,0,0,1-1.41-.26,3.41,3.41,0,0,1-1.9-1.9,3.89,3.89,0,0,1-.27-1.47v-5.88Z" transform="translate(-13.36 -5.68)"/><path class="cls-1" d="M26.35,146.63a.87.87,0,0,1-.61-.26.81.81,0,0,1-.25-.61.88.88,0,0,1,.25-.61.82.82,0,0,1,.61-.25.86.86,0,0,1,.62,1.47A.82.82,0,0,1,26.35,146.63Z" transform="translate(-13.36 -5.68)"/><path class="cls-1" d="M31.61,144.61a2.06,2.06,0,0,0,.87.76,2.62,2.62,0,0,0,1.09.24,2.08,2.08,0,0,0,.64-.1,2.22,2.22,0,0,0,.6-.29,1.45,1.45,0,0,0,.43-.49,1.24,1.24,0,0,0,.17-.67,1,1,0,0,0-.34-.81,3,3,0,0,0-.85-.48c-.33-.13-.7-.24-1.09-.36a4.39,4.39,0,0,1-1.1-.49,2.62,2.62,0,0,1-.85-.84,2.7,2.7,0,0,1-.34-1.43,2.42,2.42,0,0,1,.18-.87,2.34,2.34,0,0,1,.56-.84,3,3,0,0,1,1-.63,3.62,3.62,0,0,1,1.43-.25,5.05,5.05,0,0,1,1.46.21,2.48,2.48,0,0,1,1.21.85l-1,.93a1.65,1.65,0,0,0-.66-.59,2.28,2.28,0,0,0-1-.22,2.42,2.42,0,0,0-.87.13,1.74,1.74,0,0,0-.56.36,1.34,1.34,0,0,0-.3.47,1.3,1.3,0,0,0-.08.45,1.18,1.18,0,0,0,.34.91,2.57,2.57,0,0,0,.84.5,10.14,10.14,0,0,0,1.1.36,4.44,4.44,0,0,1,1.1.44,2.74,2.74,0,0,1,.84.75,2.23,2.23,0,0,1,.34,1.32,3,3,0,0,1-.25,1.21,2.67,2.67,0,0,1-.69.9,2.93,2.93,0,0,1-1,.56,4,4,0,0,1-1.26.19,4.53,4.53,0,0,1-1.69-.31,2.8,2.8,0,0,1-1.27-1Z" transform="translate(-13.36 -5.68)"/><path class="cls-1" d="M41.2,146.63a.83.83,0,0,1-.61-.26.78.78,0,0,1-.26-.61.85.85,0,0,1,.26-.61.81.81,0,0,1,.61-.25.85.85,0,0,1,.61.25.87.87,0,0,1,0,1.22A.8.8,0,0,1,41.2,146.63Z" transform="translate(-13.36 -5.68)"/><path class="cls-1" d="M51.57,137.28H54.8a6,6,0,0,1,1.73.23,4.58,4.58,0,0,1,1.28.59,4.1,4.1,0,0,1,.9.86,4.58,4.58,0,0,1,.57,1,4.88,4.88,0,0,1,.29,1,5.48,5.48,0,0,1,.1.94,4.67,4.67,0,0,1-.33,1.73,4.33,4.33,0,0,1-1,1.47,4.72,4.72,0,0,1-1.59,1,5.74,5.74,0,0,1-2.19.39h-3v-9.27Zm1.26,8.1h1.58a5.35,5.35,0,0,0,1.51-.22,3.8,3.8,0,0,0,1.25-.65,3.33,3.33,0,0,0,.86-1.07,3.44,3.44,0,0,0,.31-1.52,4.33,4.33,0,0,0-.15-1,2.94,2.94,0,0,0-.54-1.13,3.16,3.16,0,0,0-1.11-.91,3.89,3.89,0,0,0-1.83-.37H52.83v6.91Z" transform="translate(-13.36 -5.68)"/><path class="cls-1" d="M63.44,137.28h6v1.18H64.7v2.76h4.4v1.18H64.7v3h5v1.17H63.44Z" transform="translate(-13.36 -5.68)"/><path class="cls-1" d="M73.4,137.28h3.26a3.9,3.9,0,0,1,1.47.24,2.44,2.44,0,0,1,.9.62,2.07,2.07,0,0,1,.47.84,3.14,3.14,0,0,1,.13.89,3.21,3.21,0,0,1-.13.9,2,2,0,0,1-.47.83,2.56,2.56,0,0,1-.9.62,3.9,3.9,0,0,1-1.47.24h-2v4.09H73.4Zm1.26,4.09h1.65a4.37,4.37,0,0,0,.72-.06,1.62,1.62,0,0,0,.64-.22,1.17,1.17,0,0,0,.46-.45,1.53,1.53,0,0,0,.16-.76,1.65,1.65,0,0,0-.16-.76,1.27,1.27,0,0,0-.46-.46,2,2,0,0,0-.64-.21,3.5,3.5,0,0,0-.72-.06H74.66Z" transform="translate(-13.36 -5.68)"/><path class="cls-1" d="M85.06,137.28h1.15l4,9.27H88.7l-.93-2.29H83.35l-.91,2.29H81Zm2.26,5.89-1.73-4.26h0l-1.75,4.26Z" transform="translate(-13.36 -5.68)"/><path class="cls-1" d="M93.34,137.28H96.6a3.9,3.9,0,0,1,1.47.24,2.57,2.57,0,0,1,.91.62,2.17,2.17,0,0,1,.46.84,3.14,3.14,0,0,1,.13.89,2.47,2.47,0,0,1-.61,1.61,2.68,2.68,0,0,1-.72.56,2.45,2.45,0,0,1-.94.28l2.63,4.23H98.36L96,142.46H94.6v4.09H93.34v-9.27Zm1.26,4.09h1.65a4.4,4.4,0,0,0,.73-.06,1.68,1.68,0,0,0,.64-.22,1.21,1.21,0,0,0,.45-.45,1.88,1.88,0,0,0,0-1.52,1.32,1.32,0,0,0-.45-.46,2.09,2.09,0,0,0-.64-.21,3.54,3.54,0,0,0-.73-.06H94.6Z" transform="translate(-13.36 -5.68)"/><path class="cls-1" d="M105,138.46h-3v-1.18h7.23v1.18h-3v8.09H105v-8.09Z" transform="translate(-13.36 -5.68)"/><path class="cls-1" d="M112.45,137.28h1.87l2.94,7h.06l2.91-7h1.87v9.27h-1.26v-7.62h0l-3.12,7.62h-.84l-3.13-7.62h0v7.62h-1.25v-9.27Z" transform="translate(-13.36 -5.68)"/><path class="cls-1" d="M126.36,137.28h6v1.18h-4.73v2.76H132v1.18h-4.4v3h5v1.17h-6.22v-9.27Z" transform="translate(-13.36 -5.68)"/><path class="cls-1" d="M136.33,137.28H138l5.1,7.62h0v-7.62h1.26v9.27h-1.6l-5.16-7.62h0v7.62h-1.25v-9.27Z" transform="translate(-13.36 -5.68)"/><path class="cls-1" d="M150.64,138.46h-3v-1.18h7.23v1.18h-3v8.09h-1.26v-8.09Z" transform="translate(-13.36 -5.68)"/><path class="cls-1" d="M168,146.79a5.13,5.13,0,0,1-1.95-.37,4.54,4.54,0,0,1-1.53-1,4.85,4.85,0,0,1-1-1.54,5.14,5.14,0,0,1-.37-1.93,5.05,5.05,0,0,1,.37-1.92,4.78,4.78,0,0,1,1-1.55,4.56,4.56,0,0,1,1.53-1,5.32,5.32,0,0,1,3.9,0,4.77,4.77,0,0,1,1.53,1,4.89,4.89,0,0,1,1,1.55,5.05,5.05,0,0,1,.37,1.92,5.14,5.14,0,0,1-.37,1.93,4.74,4.74,0,0,1-1,1.54,4.64,4.64,0,0,1-1.53,1A5.21,5.21,0,0,1,168,146.79Zm0-1.18a3.37,3.37,0,0,0,1.44-.3,3.35,3.35,0,0,0,1.8-2,4.24,4.24,0,0,0,0-2.87,3.44,3.44,0,0,0-.7-1.17,3.51,3.51,0,0,0-1.1-.79,3.61,3.61,0,0,0-2.88,0,3.35,3.35,0,0,0-1.8,2,4.24,4.24,0,0,0,0,2.87,3.44,3.44,0,0,0,.7,1.17,3.51,3.51,0,0,0,1.1.79A3.37,3.37,0,0,0,168,145.61Z" transform="translate(-13.36 -5.68)"/><path class="cls-1" d="M176.64,137.28h5.83v1.18H177.9v2.91h4.25v1.18H177.9v4h-1.26Z" transform="translate(-13.36 -5.68)"/><path class="cls-1" d="M191.72,137.28h6v1.18H193v2.76h4.4v1.18H193v3h5v1.17h-6.22v-9.27Z" transform="translate(-13.36 -5.68)"/><path class="cls-1" d="M201.68,137.28h1.65l5.11,7.62h0v-7.62h1.25v9.27h-1.6L203,138.93h0v7.62h-1.26v-9.27Z" transform="translate(-13.36 -5.68)"/><path class="cls-1" d="M214.07,137.28h6v1.18h-4.73v2.76h4.4v1.18h-4.4v3h5v1.17h-6.21v-9.27Z" transform="translate(-13.36 -5.68)"/><path class="cls-1" d="M224,137.28h3.26a3.9,3.9,0,0,1,1.47.24,2.36,2.36,0,0,1,.9.62,2.07,2.07,0,0,1,.47.84,3.19,3.19,0,0,1,.13.89,2.47,2.47,0,0,1-.61,1.61,2.68,2.68,0,0,1-.72.56,2.45,2.45,0,0,1-1,.28l2.64,4.23h-1.57l-2.36-4.09h-1.4v4.09H224v-9.27Zm1.26,4.09h1.65a4.37,4.37,0,0,0,.72-.06,1.62,1.62,0,0,0,.64-.22,1.17,1.17,0,0,0,.46-.45,1.53,1.53,0,0,0,.16-.76,1.65,1.65,0,0,0-.16-.76,1.27,1.27,0,0,0-.46-.46,2,2,0,0,0-.64-.21,3.5,3.5,0,0,0-.72-.06h-1.65Z" transform="translate(-13.36 -5.68)"/><path class="cls-1" d="M241.88,141.37v4.57a4.58,4.58,0,0,1-.77.36,9.13,9.13,0,0,1-.89.27c-.32.07-.63.13-.95.17s-.62,0-.89,0a5.22,5.22,0,0,1-2.11-.4,4.53,4.53,0,0,1-2.52-2.61,5.24,5.24,0,0,1-.33-1.86,5,5,0,0,1,.36-1.92,4.55,4.55,0,0,1,2.52-2.57,5,5,0,0,1,1.95-.37,5.87,5.87,0,0,1,2.1.32,3.9,3.9,0,0,1,1.36.88l-.89,1a3.4,3.4,0,0,0-1.21-.76,4.07,4.07,0,0,0-1.35-.22,3.41,3.41,0,0,0-2.54,1.09,3.44,3.44,0,0,0-.7,1.17,4,4,0,0,0-.25,1.43,3.69,3.69,0,0,0,.28,1.46,3.48,3.48,0,0,0,1.89,2,3.55,3.55,0,0,0,1.43.29,6.4,6.4,0,0,0,1.26-.13,3.39,3.39,0,0,0,1-.36v-2.58h-2.06v-1.18Z" transform="translate(-13.36 -5.68)"/><path class="cls-1" d="M248.32,142.6l-3.51-5.32h1.61l2.52,4.08,2.61-4.08h1.53l-3.5,5.32v4h-1.26v-4Z" transform="translate(-13.36 -5.68)"/><line class="cls-2" y1="122.51" x2="239.52" y2="122.51"/><rect class="cls-1" x="63.65" y="39.11" width="33.21" height="41.91"/><path class="cls-3" d="M110.16,42.61H106v2.18h4.19V86.7H77V44.79h4.18V42.61H77.06a2.25,2.25,0,0,0-2.24,2.25V86.65a2.24,2.24,0,0,0,2.24,2.24h33.1a2.24,2.24,0,0,0,2.25-2.24V44.85A2.25,2.25,0,0,0,110.16,42.61Z" transform="translate(-13.36 -5.68)"/><path class="cls-3" d="M102.71,40H99.06c-.16-3.2-2.54-5.75-5.44-5.75A5.77,5.77,0,0,0,88.17,40H84.53a1.53,1.53,0,0,0-1.63,1.42V45a1.54,1.54,0,0,0,1.63,1.42h18.18A1.54,1.54,0,0,0,104.33,45V41.38A1.54,1.54,0,0,0,102.71,40Zm-9.09-.44a1.68,1.68,0,1,1,1.67-1.68A1.68,1.68,0,0,1,93.62,39.52Z" transform="translate(-13.36 -5.68)"/><path class="cls-3" d="M87.28,51.89l-3.85,3.86-1.1-1.1a1,1,0,0,0-1.41,0h0a1,1,0,0,0,0,1.41l1.1,1.1,1.18,1.18a.31.31,0,0,0,.45,0l1.19-1.18,3.85-3.86a1,1,0,0,0,0-1.41h0A1,1,0,0,0,87.28,51.89Z" transform="translate(-13.36 -5.68)"/><path class="cls-3" d="M87.28,63l-3.85,3.85-1.1-1.09a1,1,0,0,0-1.41,0h0a1,1,0,0,0,0,1.41L82,68.28l1.18,1.19a.33.33,0,0,0,.45,0l1.19-1.19,3.85-3.85a1,1,0,0,0,0-1.41h0A1,1,0,0,0,87.28,63Z" transform="translate(-13.36 -5.68)"/><path class="cls-3" d="M87.28,74.46l-3.85,3.85-1.1-1.1a1,1,0,0,0-1.41,0h0a1,1,0,0,0,0,1.42L82,79.72l1.18,1.19a.33.33,0,0,0,.45,0l1.19-1.19,3.85-3.85a1,1,0,0,0,0-1.41h0A1,1,0,0,0,87.28,74.46Z" transform="translate(-13.36 -5.68)"/><rect class="cls-3" x="79.94" y="59.77" width="13.08" height="2.89"/><rect class="cls-3" x="79.94" y="71.2" width="13.08" height="2.89"/><rect class="cls-3" x="79.94" y="48.64" width="13.08" height="2.89"/></svg>