<svg xmlns="http://www.w3.org/2000/svg" viewBox="0 0 239.72 128.12"><g style="isolation:isolate"><path d="M125.131,66.1c-2.036,1.48-4.9,2.082-8.19,2.082H103.9V36.257h10.872c2.915,0,5.737.232,7.866,1.342a7.22,7.22,0,0,1,4.07,6.709,7.428,7.428,0,0,1-4.672,7.032v.092c3.979.972,6.615,3.655,6.615,7.588A8.093,8.093,0,0,1,125.131,66.1Zm-7.357-23.641a5.623,5.623,0,0,0-3.331-.648h-3.1v7.357h2.915c1.665,0,2.637-.093,3.516-.7a3.367,3.367,0,0,0,1.573-3.053A3.16,3.16,0,0,0,117.774,42.457Zm1.665,12.769a6.449,6.449,0,0,0-3.978-.879h-4.118V62.49h4.118a6.449,6.449,0,0,0,3.978-.879,3.954,3.954,0,0,0,0-6.385Z" style="fill:#fff"/><path d="M153.817,68.18h-21.1V36.257H153.4v5.969H140.169v6.523H152.66v5.968H140.169v7.4h13.648Z" style="fill:#fff"/><path d="M181.579,64.386c-2.637,2.22-6.755,3.794-12.307,3.794H158.447V36.257h10.825c5.552,0,9.67,1.574,12.307,3.841,2.684,2.22,5.182,5.922,5.182,12.121S184.263,62.12,181.579,64.386Zm-5.227-19.662a9.611,9.611,0,0,0-6.663-2.267H165.9V61.842h3.793a9.4,9.4,0,0,0,6.663-2.313c1.341-1.249,2.822-3.378,2.822-7.31A9.886,9.886,0,0,0,176.352,44.724Z" style="fill:#fff"/><path d="M212.071,68.18h-21.1V36.257h20.679v5.969H198.423v6.523h12.491v5.968H198.423v7.4h13.648Z" style="fill:#fff"/><path d="M234.512,66.1a13.576,13.576,0,0,1-8.652,2.636,17.308,17.308,0,0,1-11.335-4.81l3.7-5.46c2.313,2.407,5.876,4.026,8.328,4.026,2.405,0,4.256-1.157,4.256-3.285,0-2.174-2.36-3.007-3.748-3.516s-3.793-1.342-4.858-1.8a12.464,12.464,0,0,1-3.793-2.313,7.875,7.875,0,0,1-2.5-6.153,8.992,8.992,0,0,1,3.331-6.986c1.805-1.527,4.719-2.545,8.42-2.545A15.727,15.727,0,0,1,237.8,39.82L234.6,45.048a11.015,11.015,0,0,0-7.125-3.239c-2.405,0-4.164.926-4.164,2.869s1.805,2.683,3.24,3.239c1.387.554,3.747,1.387,4.764,1.8a12.823,12.823,0,0,1,4.442,2.591,8.351,8.351,0,0,1,2.5,6.153A9.669,9.669,0,0,1,234.512,66.1Z" style="fill:#fff"/></g><g style="isolation:isolate"><g style="isolation:isolate"><path d="M108.029,83.854a2.924,2.924,0,0,1-1.992.506H103.9V76.6h1.76a3.06,3.06,0,0,1,1.853.393,1.721,1.721,0,0,1,.753,1.552,1.784,1.784,0,0,1-1.263,1.7,1.955,1.955,0,0,1,1.877,1.923A2.02,2.02,0,0,1,108.029,83.854Zm-1.043-6.466a2.518,2.518,0,0,0-1.273-.237H104.52v2.913H105.6a2.419,2.419,0,0,0,1.389-.281,1.345,1.345,0,0,0,.638-1.215A1.213,1.213,0,0,0,106.986,77.388Zm.522,3.543a3.1,3.1,0,0,0-1.679-.327H104.52V83.81h1.309a3.1,3.1,0,0,0,1.679-.316,1.438,1.438,0,0,0,.7-1.293A1.39,1.39,0,0,0,107.508,80.931Z" style="fill:#fff"/><path d="M116.018,81.234a3.4,3.4,0,0,1-.568,2.305,3.173,3.173,0,0,1-4.54,0,3.392,3.392,0,0,1-.567-2.305V76.6h.625V81.29a3,3,0,0,0,.405,1.822,2.4,2.4,0,0,0,3.613,0,2.993,2.993,0,0,0,.406-1.822V76.6h.626Z" style="fill:#fff"/><path d="M118.551,84.36h-.625V76.6h.625Z" style="fill:#fff"/><path d="M123.994,84.36H120.52V76.6h.625V83.81h2.849Z" style="fill:#fff"/><path d="M130.211,83.292a4.216,4.216,0,0,1-2.919,1.068h-2.2V76.6h2.2a4.216,4.216,0,0,1,2.919,1.068,3.858,3.858,0,0,1,0,5.623Zm-.545-5.308a3.579,3.579,0,0,0-2.432-.833h-1.517V83.81h1.517a3.577,3.577,0,0,0,2.432-.822,3.371,3.371,0,0,0,0-5Z" style="fill:#fff"/><path d="M133.531,84.36h-.625V76.6h.625Z" style="fill:#fff"/><path d="M142.021,84.36h-.568l-5.328-6.8v6.8H135.5V76.6h.625l5.27,6.691V76.6h.626Z" style="fill:#fff"/><path d="M150.818,83.292a4.292,4.292,0,0,1-3.3,1.2,4.007,4.007,0,1,1,3.15-6.657l-.429.45a3.388,3.388,0,0,0-2.756-1.249,3.221,3.221,0,0,0-3.324,3.441,3.275,3.275,0,0,0,3.416,3.442,3.446,3.446,0,0,0,2.63-.855v-2.1h-2.456v-.551h3.069Z" style="fill:#fff"/><path d="M159.408,84.36h-4.424V76.6h4.343v.55h-3.718v2.812h3.51v.552h-3.51v3.3h3.8Z" style="fill:#fff"/><path d="M167.467,84.36H166.9l-5.328-6.8v6.8h-.625V76.6h.625l5.27,6.691V76.6h.626Z" style="fill:#fff"/><path d="M173.856,84.36h-4.423V76.6h4.342v.55h-3.717v2.812h3.509v.552h-3.509v3.3h3.8Z" style="fill:#fff"/><path d="M180.2,84.36h-.8l-2.362-3.6H176.02v3.6H175.4V76.6h1.853c1.5,0,2.489.787,2.489,2.081a2.06,2.06,0,0,1-1.968,2.057Zm-1.715-6.882a2.546,2.546,0,0,0-1.586-.327h-.88v3.06h.88a2.63,2.63,0,0,0,1.586-.315,1.356,1.356,0,0,0,.591-1.214A1.325,1.325,0,0,0,178.486,77.478Z" style="fill:#fff"/></g><g style="isolation:isolate"><path d="M188,83.292a4.293,4.293,0,0,1-3.3,1.2,4.007,4.007,0,1,1,3.151-6.657l-.429.45a3.39,3.39,0,0,0-2.756-1.249,3.221,3.221,0,0,0-3.324,3.441,3.275,3.275,0,0,0,3.416,3.442,3.446,3.446,0,0,0,2.63-.855v-2.1h-2.456v-.551H188Z" style="fill:#fff"/></g><g style="isolation:isolate"><path d="M194.768,76.6l-2.791,4.442V84.36h-.625V81.043L188.571,76.6h.719l2.374,3.879,2.374-3.879Z" style="fill:#fff"/></g><g style="isolation:isolate"><path d="M203.238,83.292a4.214,4.214,0,0,1-2.919,1.068h-2.2V76.6h2.2a4.214,4.214,0,0,1,2.919,1.068,3.858,3.858,0,0,1,0,5.623Zm-.545-5.308a3.576,3.576,0,0,0-2.431-.833h-1.518V83.81h1.518a3.574,3.574,0,0,0,2.431-.822,3.369,3.369,0,0,0,0-5Z" style="fill:#fff"/></g><g style="isolation:isolate"><path d="M211.954,84.36h-.729l-.985-2.328h-3.81l-1,2.328h-.661l3.417-7.782h.348ZM210,81.47l-1.668-3.97-1.668,3.97Z" style="fill:#fff"/><path d="M215.415,77.151h-2.374V84.36h-.625V77.151h-2.374V76.6h5.373Z" style="fill:#fff"/></g><g style="isolation:isolate"><path d="M222.769,84.36h-.73l-.984-2.328h-3.811l-1,2.328h-.66l3.417-7.782h.348Zm-1.957-2.89-1.668-3.97-1.668,3.97Z" style="fill:#fff"/></g><g style="isolation:isolate"><path d="M108.318,96.92H103.9V89.16h4.342v.551H104.52v2.811h3.509v.552H104.52v3.3h3.8Z" style="fill:#fff"/></g><g style="isolation:isolate"><path d="M114.978,96.92h-.753l-2.27-3.565-2.27,3.565h-.753l2.629-3.992-2.432-3.768h.729l2.1,3.352,2.1-3.352h.729l-2.431,3.768Z" style="fill:#fff"/></g><g style="isolation:isolate"><path d="M122.04,95.852a4.039,4.039,0,1,1-2.953-6.8,4.017,4.017,0,0,1,2.895,1.125l-.405.449a3.286,3.286,0,0,0-2.49-1.023,3.442,3.442,0,0,0,0,6.882,3.4,3.4,0,0,0,2.548-1.023Z" style="fill:#fff"/><path d="M129.565,96.92h-.626V93.04h-4.945v3.88h-.625V89.16h.625v3.329h4.945V89.16h.626Z" style="fill:#fff"/><path d="M137.785,96.92h-.729l-.985-2.328h-3.81l-1,2.328H130.6l3.417-7.782h.348Zm-1.957-2.891L134.16,90.06l-1.668,3.969Z" style="fill:#fff"/><path d="M145.345,96.92h-.568l-5.328-6.8v6.8h-.625V89.16h.625l5.27,6.692V89.16h.626Z" style="fill:#fff"/><path d="M154.144,95.852a4.3,4.3,0,0,1-3.3,1.2,4.007,4.007,0,1,1,3.15-6.658l-.429.451a3.388,3.388,0,0,0-2.755-1.249,3.221,3.221,0,0,0-3.325,3.441,3.274,3.274,0,0,0,3.416,3.441,3.445,3.445,0,0,0,2.63-.854v-2.1h-2.456v-.55h3.07Z" style="fill:#fff"/><path d="M160.417,96.92h-4.424V89.16h4.343v.551h-3.718v2.811h3.51v.552h-3.51v3.3h3.8Z" style="fill:#fff"/><path d="M166.251,97.055a2.749,2.749,0,0,1-2.443-1.4l.486-.337a2.354,2.354,0,0,0,2.015,1.2,1.689,1.689,0,0,0,1.865-1.63c0-1.012-1.066-1.395-1.529-1.575s-.985-.393-1.309-.562a2.02,2.02,0,0,1-1.158-1.8,2.094,2.094,0,0,1,2.351-1.912,2.533,2.533,0,0,1,2.084,1.012l-.439.371a2.023,2.023,0,0,0-1.692-.843c-.926,0-1.668.472-1.668,1.35a1.56,1.56,0,0,0,1.194,1.461c.567.237,1.459.6,1.644.7a2.054,2.054,0,0,1,1.159,1.8A2.309,2.309,0,0,1,166.251,97.055Z" style="fill:#fff"/><path d="M173.985,92.759a2.749,2.749,0,0,1-1.84.54h-1.206V96.92h-.625V89.16h1.831a2.749,2.749,0,0,1,1.84.54,1.966,1.966,0,0,1,0,3.059Zm-.486-2.7a2.266,2.266,0,0,0-1.331-.349h-1.229v3.037h1.229A2.266,2.266,0,0,0,173.5,92.4a1.424,1.424,0,0,0,.557-1.17A1.406,1.406,0,0,0,173.5,90.06Z" style="fill:#fff"/><path d="M180.526,96.92H176.1V89.16h4.342v.551h-3.717v2.811h3.509v.552h-3.509v3.3h3.8Z" style="fill:#fff"/><path d="M188.55,95.852a4.039,4.039,0,1,1-2.953-6.8,4.019,4.019,0,0,1,2.895,1.125l-.405.449A3.286,3.286,0,0,0,185.6,89.6a3.442,3.442,0,0,0,0,6.882,3.4,3.4,0,0,0,2.548-1.023Z" style="fill:#fff"/><path d="M190.5,96.92h-.625V89.16h.625Z" style="fill:#fff"/><path d="M196.526,89.711H193.1v3.048h3.219v.551H193.1v3.61h-.625V89.16h4.053Z" style="fill:#fff"/><path d="M198.6,96.92h-.625V89.16h.625Z" style="fill:#fff"/><path d="M207.05,95.852a4.039,4.039,0,1,1-2.953-6.8,4.019,4.019,0,0,1,2.895,1.125l-.405.449A3.286,3.286,0,0,0,204.1,89.6a3.442,3.442,0,0,0,0,6.882,3.4,3.4,0,0,0,2.548-1.023Z" style="fill:#fff"/></g><g style="isolation:isolate"><path d="M214.6,96.92h-.73l-.984-2.328h-3.811l-1,2.328h-.66l3.417-7.782h.348Zm-1.957-2.891-1.668-3.969-1.668,3.969Z" style="fill:#fff"/></g><g style="isolation:isolate"><path d="M219.1,89.711H216.73V96.92h-.625V89.711h-2.374V89.16H219.1Z" style="fill:#fff"/><path d="M220.828,96.92H220.2V89.16h.625Z" style="fill:#fff"/><path d="M226.352,97.055a4,4,0,1,1,4.053-4A3.911,3.911,0,0,1,226.352,97.055Zm0-7.467a3.447,3.447,0,1,0,3.405,3.452A3.29,3.29,0,0,0,226.352,89.588Z" style="fill:#fff"/><path d="M238.4,96.92h-.567l-5.328-6.8v6.8h-.625V89.16h.625l5.269,6.692V89.16h.626Z" style="fill:#fff"/></g></g><path d="M64.08,0h3.24V10.46h2.71v5h3.61v5h5.57V36.3c-9.07,8.94-18,18-27.06,27a21.831,21.831,0,0,1-.12-3.43V20.54h5.76v-5H61.4v-5h2.71Q64.07,5.23,64.08,0Z" style="fill:#fff"/><path d="M94.96,20.2h8.75v8.67c-1-.89-1.92-1.85-2.85-2.82-3.38,3.25-6.66,6.59-10,9.93h8.31v8.81c-1-.84-1.92-1.81-2.85-2.75l-10,10h8.31v8.72c-1-.91-1.94-1.9-2.92-2.83-3.29,3.31-6.62,6.59-9.9,9.92h8.3v9c-1-.93-1.93-1.9-2.89-2.86-3.29,3.31-6.63,6.58-9.9,9.92,2.76.08,5.52,0,8.28,0v8.71l-2.89-2.86c-2.68,2.61-5.24,5.34-8,7.89-1-1-1.92-2-2.91-2.9,2.53-2.74,5.26-5.3,7.88-8-.86-.92-1.77-1.79-2.63-2.7-2.68,2.61-5.3,5.29-8,7.92-.92-.93-1.84-1.86-2.78-2.79v8.35H51.87V88.69h8.54c-.92-.93-1.86-1.86-2.79-2.77q15.51-15.54,31.06-31c-.89-.9-1.78-1.8-2.68-2.68-10.32,10.37-20.71,20.66-31,31-1.06-1-2.08-2-3.1-3.08Q72.641,59.621,93.23,39.03c-.89-.91-1.78-1.81-2.7-2.69Q71.26,55.54,52.03,74.8c-.06-2,0-4,0-5.93Q74.92,45.95,97.85,23.06C96.86,22.1,95.9,21.17,94.96,20.2ZM71.87,77.81a32.363,32.363,0,0,1-2.67,2.81c-1-.88-1.85-1.8-2.76-2.72v8.14h8.14c-.91-.91-1.84-1.82-2.73-2.75,4-4.23,8.27-8.29,12.38-12.44l-2.69-2.67C78.3,71.38,75.1,74.62,71.87,77.81Z" style="fill:#fff"/><path d="M30,36.92c4.61,3,9.16,6.07,13.74,9.11,2.14,1.51,4.47,2.79,6.46,4.5.08,4.88,0,9.77.06,14.65-1.94,2-3.89,4-5.95,5.91-.92-.91-1.83-1.82-2.76-2.72v8.14h8.11a30.457,30.457,0,0,1-2.65-2.89,42.749,42.749,0,0,1,3.17-3c.08,2,0,4,0,6-3.9,3.81-7.67,7.74-11.6,11.51-.86-.9-1.73-1.78-2.63-2.63v8.11h8.11c-.8-1-2.08-1.73-2.57-2.89,2.87-2.87,5.65-5.86,8.67-8.55.07,5.14,0,10.28,0,15.43H30.03C30.01,77.36,30.07,57.14,30,36.92Z" style="fill:#fff"/><path d="M5.33,78.55q5.7-4.189,11.3-8.47c3.88,2.72,7.59,5.69,11.43,8.47v19H5.36C5.32,91.24,5.37,84.89,5.33,78.55Z" style="fill:#fff"/><path d="M2.28,118.62v5.68a3.472,3.472,0,0,0,.11.89,2.668,2.668,0,0,0,.39.86,2.336,2.336,0,0,0,.72.64,2.214,2.214,0,0,0,1.1.25,2.18,2.18,0,0,0,1.1-.25,2.127,2.127,0,0,0,.72-.64,2.668,2.668,0,0,0,.39-.86,3.561,3.561,0,0,0,.12-.89v-5.68H8.19v5.87a3.835,3.835,0,0,1-.28,1.47,3.567,3.567,0,0,1-.75,1.15,3.482,3.482,0,0,1-1.15.75,3.843,3.843,0,0,1-1.41.26,3.885,3.885,0,0,1-1.41-.26,3.471,3.471,0,0,1-1.14-.75,3.658,3.658,0,0,1-.76-1.15,3.852,3.852,0,0,1-.27-1.47v-5.87Z" style="fill:#fff"/><path d="M12.99,127.91a.9.9,0,0,1-.61-.25.819.819,0,0,1-.25-.61.9.9,0,0,1,.25-.62.861.861,0,0,1,.61-.25.9.9,0,0,1,.62.25.88.88,0,0,1,.03,1.19A.842.842,0,0,1,12.99,127.91Z" style="fill:#fff"/><path d="M18.25,125.9a2,2,0,0,0,.87.75,2.631,2.631,0,0,0,1.09.24,2.077,2.077,0,0,0,.64-.1,1.973,1.973,0,0,0,.6-.29,1.446,1.446,0,0,0,.43-.49,1.221,1.221,0,0,0,.17-.67,1,1,0,0,0-.34-.81,2.985,2.985,0,0,0-.85-.47c-.33-.13-.7-.25-1.09-.37a4.379,4.379,0,0,1-1.1-.48,2.758,2.758,0,0,1-.85-.85,2.686,2.686,0,0,1-.34-1.43,2.425,2.425,0,0,1,.18-.87,2.219,2.219,0,0,1,.56-.83,2.718,2.718,0,0,1,1-.63,3.627,3.627,0,0,1,1.43-.26,5.05,5.05,0,0,1,1.46.21,2.484,2.484,0,0,1,1.21.85l-1,.93a1.728,1.728,0,0,0-.66-.59,2.287,2.287,0,0,0-1-.22,2.209,2.209,0,0,0-.87.14,1.728,1.728,0,0,0-.56.35,1.3,1.3,0,0,0-.38.93,1.151,1.151,0,0,0,.34.9,2.6,2.6,0,0,0,.84.51c.34.13.71.24,1.1.35a4.845,4.845,0,0,1,1.1.44,2.657,2.657,0,0,1,.84.76,2.187,2.187,0,0,1,.34,1.31,2.948,2.948,0,0,1-.25,1.21,2.577,2.577,0,0,1-.69.9,2.922,2.922,0,0,1-1,.56,4.055,4.055,0,0,1-1.26.2,4.541,4.541,0,0,1-1.69-.31,3,3,0,0,1-1.27-1Z" style="fill:#fff"/><path d="M27.84,127.91a.861.861,0,0,1-.61-.25.8.8,0,0,1-.26-.61.87.87,0,0,1,.26-.62.849.849,0,0,1,.61-.25.9.9,0,0,1,.61.25.88.88,0,0,1,0,1.23A.819.819,0,0,1,27.84,127.91Z" style="fill:#fff"/><path d="M38.21,118.62h3.23a6.019,6.019,0,0,1,1.73.22,4.6,4.6,0,0,1,1.28.6,4.081,4.081,0,0,1,.9.86,4.543,4.543,0,0,1,.57,1,5.044,5.044,0,0,1,.29,1,5.5,5.5,0,0,1,.1,1,4.647,4.647,0,0,1-.33,1.72,4.364,4.364,0,0,1-1,1.48,5,5,0,0,1-1.59,1,5.735,5.735,0,0,1-2.19.39h-3v-9.27Zm1.26,8h1.58a5.014,5.014,0,0,0,1.51-.22,3.468,3.468,0,0,0,1.25-.65,3.226,3.226,0,0,0,.83-1.03,3.418,3.418,0,0,0,.31-1.51,4.334,4.334,0,0,0-.15-1,2.991,2.991,0,0,0-.54-1.14,3.261,3.261,0,0,0-1.11-.91,4,4,0,0,0-1.83-.37H39.47Z" style="fill:#fff"/><path d="M50.08,118.62h6v1.17H51.34v2.77h4.4v1.18h-4.4v3h5v1.18H50.08Z" style="fill:#fff"/><path d="M60.04,118.62H63.3a3.9,3.9,0,0,1,1.47.24,2.419,2.419,0,0,1,.9.61,2.13,2.13,0,0,1,.47.84,3.194,3.194,0,0,1,.13.89,3.15,3.15,0,0,1-.13.9,2.13,2.13,0,0,1-.47.84,2.548,2.548,0,0,1-.9.61,3.9,3.9,0,0,1-1.47.24h-2v4.09H60.04Zm1.26,4h1.65a4.415,4.415,0,0,0,.69,0,1.612,1.612,0,0,0,.64-.21,1.321,1.321,0,0,0,.46-.45,1.589,1.589,0,0,0,.16-.77,1.676,1.676,0,0,0-.16-.76,1.171,1.171,0,0,0-.46-.45,1.993,1.993,0,0,0-.64-.22,4.345,4.345,0,0,0-.72-.06H61.3Z" style="fill:#fff"/><path d="M71.7,118.62h1.15l4,9.26H75.34l-.93-2.29H69.99l-.91,2.29H67.64Zm2.26,5.88-1.73-4.25h0l-1.75,4.25Z" style="fill:#fff"/><path d="M79.98,118.62h3.26a3.9,3.9,0,0,1,1.47.24,2.552,2.552,0,0,1,.91.61,2.244,2.244,0,0,1,.46.84,3.194,3.194,0,0,1,.13.89,2.263,2.263,0,0,1-.16.86,2.234,2.234,0,0,1-.45.75,2.5,2.5,0,0,1-.72.56,2.652,2.652,0,0,1-.94.29l2.63,4.22H85l-2.36-4.14h-1.4v4.09H79.98Zm1.26,4h1.65a4.472,4.472,0,0,0,.75,0,1.672,1.672,0,0,0,.64-.21,1.382,1.382,0,0,0,.45-.45,1.589,1.589,0,0,0,.16-.77,1.55,1.55,0,0,0-.16-.76,1.214,1.214,0,0,0-.45-.45,2.1,2.1,0,0,0-.64-.22,4.457,4.457,0,0,0-.73-.06H81.24Z" style="fill:#fff"/><path d="M91.64,119.74h-3v-1.12h7.23v1.17h-3v8.09H91.64v-8.14Z" style="fill:#fff"/><path d="M99.09,118.62h1.87l2.94,7h.06l2.91-7h1.87v9.26h-1.26v-7.62h0l-3.12,7.62h-.84l-3.13-7.62h0v7.62H99.14v-9.26Z" style="fill:#fff"/><path d="M113,118.62h6v1.17h-4.73v2.77h4.37v1.18h-4.4v3h5v1.18h-6.22v-9.3Z" style="fill:#fff"/><path d="M122.97,118.62h1.67l5.1,7.62h0v-7.62H131v9.26h-1.6l-5.16-7.62h0v7.62h-1.25v-9.26Z" style="fill:#fff"/><path d="M137.28,119.74h-3v-1.12h7.23v1.17h-3v8.09h-1.26v-8.09Z" style="fill:#fff"/><path d="M154.64,128.07a5.013,5.013,0,0,1-1.95-.37,4.528,4.528,0,0,1-1.53-1,4.729,4.729,0,0,1-1-1.54,5.186,5.186,0,0,1,0-3.85,4.629,4.629,0,0,1,1-1.54,4.44,4.44,0,0,1,1.53-1,5.317,5.317,0,0,1,3.9,0,4.66,4.66,0,0,1,1.53,1,4.729,4.729,0,0,1,1,1.54,5.186,5.186,0,0,1,0,3.85,4.548,4.548,0,0,1-2.52,2.57A5.009,5.009,0,0,1,154.64,128.07Zm0-1.18a3.372,3.372,0,0,0,1.44-.3,3.22,3.22,0,0,0,1.1-.79,3.436,3.436,0,0,0,.7-1.17,4.207,4.207,0,0,0,0-2.86,3.256,3.256,0,0,0-.7-1.17,3.4,3.4,0,0,0-1.1-.8,3.534,3.534,0,0,0-1.44-.3,3.391,3.391,0,0,0-3.24,2.27,4.207,4.207,0,0,0,0,2.86,3.436,3.436,0,0,0,.7,1.17,3.367,3.367,0,0,0,1.1.79A3.237,3.237,0,0,0,154.64,126.89Z" style="fill:#fff"/><path d="M163.28,118.62h5.83v1.17h-4.57v2.83h4.25v1.18h-4.25v4h-1.26Z" style="fill:#fff"/><path d="M178.36,118.62h6v1.17h-4.72v2.77h4.4v1.18h-4.4v3h5v1.18h-6.22v-9.3Z" style="fill:#fff"/><path d="M188.32,118.62h1.65l5.11,7.62h0v-7.62h1.25v9.26h-1.6l-5.09-7.67h0v7.62h-1.26v-9.21Z" style="fill:#fff"/><path d="M200.71,118.62h6v1.17h-4.73v2.77h4.4v1.18h-4.4v3h5v1.18h-6.21v-9.3Z" style="fill:#fff"/><path d="M210.64,118.62h3.26a3.9,3.9,0,0,1,1.47.24,2.342,2.342,0,0,1,.9.61,2.13,2.13,0,0,1,.47.84,3.194,3.194,0,0,1,.13.89,2.263,2.263,0,0,1-.16.86,2.234,2.234,0,0,1-.45.75,2.5,2.5,0,0,1-.72.56,2.638,2.638,0,0,1-1,.29l2.64,4.22h-1.57l-2.36-4.09h-1.4v4.09h-1.21Zm1.26,4.08h1.65a4.345,4.345,0,0,0,.72-.06,1.612,1.612,0,0,0,.64-.21,1.321,1.321,0,0,0,.46-.45,1.589,1.589,0,0,0,.16-.77,1.676,1.676,0,0,0-.16-.76,1.171,1.171,0,0,0-.46-.45,1.993,1.993,0,0,0-.64-.22,4.345,4.345,0,0,0-.72-.06H211.9Z" style="fill:#fff"/><path d="M228.52,122.62v4.57a3.912,3.912,0,0,1-.77.36,6.912,6.912,0,0,1-.89.27,7.843,7.843,0,0,1-.95.17,6.955,6.955,0,0,1-.89,0,5.406,5.406,0,0,1-2.11-.39,4.531,4.531,0,0,1-2.52-2.61,5.316,5.316,0,0,1-.33-1.86,5.06,5.06,0,0,1,.36-1.93,4.633,4.633,0,0,1,2.52-2.57,5.013,5.013,0,0,1,1.95-.37,5.879,5.879,0,0,1,2.1.32,3.907,3.907,0,0,1,1.36.88l-.89,1a3.526,3.526,0,0,0-1.21-.76,4.077,4.077,0,0,0-1.35-.22,3.36,3.36,0,0,0-3.24,2.3,4,4,0,0,0-.25,1.44,3.709,3.709,0,0,0,.28,1.46,3.5,3.5,0,0,0,3.32,2.23,6.42,6.42,0,0,0,1.26-.12,3.4,3.4,0,0,0,1-.37v-2.58h-2.06v-1.22Z" style="fill:#fff"/><path d="M234.96,123.88l-3.51-5.26h1.61l2.52,4.07,2.61-4.07h1.53l-3.5,5.31v4h-1.26v-4.05Z" style="fill:#fff"/><line y1="109.49" x2="239.52" y2="109.49" style="fill:none;stroke:#fff;stroke-miterlimit:10;stroke-width:0.7300000190734863px"/></svg>