<svg id="Layer_1" data-name="Layer 1" xmlns="http://www.w3.org/2000/svg" viewBox="0 0 239.72 128.08"><defs><style>.cls-1{font-size:46.27px;font-family:Gibson-SemiBold, Gibson;font-weight:600;}.cls-1,.cls-2,.cls-8{fill:#fff;}.cls-2{font-size:11.24px;font-family:Gibson-Light, Gibson;font-weight:300;}.cls-3{letter-spacing:-0.03em;}.cls-4{letter-spacing:0em;}.cls-5{letter-spacing:-0.02em;}.cls-6{letter-spacing:-0.09em;}.cls-7{letter-spacing:-0.04em;}.cls-9{fill:none;stroke:#fff;stroke-miterlimit:10;stroke-width:0.73px;}</style></defs><text class="cls-1" transform="translate(100.98 68.18)">BEDES</text><text class="cls-2" transform="translate(102.91 84.36) scale(1.03 1)">BUILDING ENER<tspan class="cls-3" x="75.02" y="0">G</tspan><tspan class="cls-4" x="83.11" y="0">Y </tspan><tspan class="cls-5" x="91.48" y="0">D</tspan><tspan class="cls-6" x="98.84" y="0">AT</tspan><tspan x="109.34" y="0">A</tspan><tspan x="0" y="12.56">E</tspan><tspan class="cls-7" x="5.79" y="12.56">X</tspan><tspan x="11.32" y="12.56">CHANGE SPECIFIC</tspan><tspan class="cls-6" x="101.41" y="12.56">A</tspan><tspan x="107.48" y="12.56">TION</tspan></text><path class="cls-8" d="M77.44,3.38h3.24q0,5.24,0,10.46h2.71v5H87c0,1.67,0,3.35,0,5,1.86,0,3.72,0,5.57,0,0,5.28,0,10.56,0,15.84-9.07,8.94-18,18-27.06,27a21.78,21.78,0,0,1-.12-3.43V23.92h5.76v-5h3.61v-5h2.71Q77.43,8.61,77.44,3.38Z" transform="translate(-13.36 -3.38)"/><path class="cls-8" d="M108.32,23.58c2.92,0,5.84,0,8.75,0,0,2.89,0,5.78,0,8.67-1-.89-1.92-1.85-2.85-2.82-3.38,3.25-6.66,6.59-10,9.93,2.77,0,5.54,0,8.31,0,0,2.94,0,5.88,0,8.81-1-.84-1.92-1.81-2.85-2.75q-5,5-10,10,4.15,0,8.31,0c0,2.91,0,5.81,0,8.72-1-.91-1.94-1.9-2.92-2.83-3.29,3.31-6.62,6.59-9.9,9.92,2.76,0,5.53,0,8.3,0,0,3,0,6,0,9-1-.93-1.93-1.9-2.89-2.86-3.29,3.31-6.63,6.58-9.9,9.92,2.76.08,5.52,0,8.28,0V96l-2.89-2.86c-2.68,2.61-5.24,5.34-8,7.89-1-1-1.92-2-2.91-2.9,2.53-2.74,5.26-5.3,7.88-8-.86-.92-1.77-1.79-2.63-2.7-2.68,2.61-5.3,5.29-8,7.92-.92-.93-1.84-1.86-2.78-2.79,0,2.79,0,5.57,0,8.35-4.8,0-9.6,0-14.4,0,0-2.94,0-5.89,0-8.84,2.85,0,5.7,0,8.54,0-.92-.93-1.86-1.86-2.79-2.77q15.51-15.54,31.06-31c-.89-.9-1.78-1.8-2.68-2.68-10.32,10.37-20.71,20.66-31,31-1.06-1-2.08-2-3.1-3.08Q86,63,106.59,42.41c-.89-.91-1.78-1.81-2.7-2.69q-19.27,19.2-38.5,38.46c-.06-2,0-4,0-5.93q22.89-22.92,45.82-45.81C110.22,25.48,109.26,24.55,108.32,23.58ZM85.23,81.19A32.36,32.36,0,0,1,82.56,84c-1-.88-1.85-1.8-2.76-2.72,0,2.72,0,5.43,0,8.14,2.71,0,5.42,0,8.14,0-.91-.91-1.84-1.82-2.73-2.75,4-4.23,8.27-8.29,12.38-12.44l-2.69-2.67C91.66,74.76,88.46,78,85.23,81.19Z" transform="translate(-13.36 -3.38)"/><path class="cls-8" d="M43.36,40.3c4.61,3,9.16,6.07,13.74,9.11,2.14,1.51,4.47,2.79,6.46,4.5.08,4.88,0,9.77.06,14.65-1.94,2-3.89,4-5.95,5.91-.92-.91-1.83-1.82-2.76-2.72,0,2.72,0,5.43,0,8.14,2.7,0,5.4,0,8.11,0A30.47,30.47,0,0,1,60.37,77c1.07-1,2-2.11,3.17-3,.08,2,0,4,0,6-3.9,3.81-7.67,7.74-11.6,11.51-.86-.9-1.73-1.78-2.63-2.63,0,2.7,0,5.4,0,8.11,2.7,0,5.41,0,8.11,0-.8-1-2.08-1.73-2.57-2.89,2.87-2.87,5.65-5.86,8.67-8.55.07,5.14,0,10.28,0,15.43H43.39C43.37,80.74,43.43,60.52,43.36,40.3Z" transform="translate(-13.36 -3.38)"/><path class="cls-8" d="M18.69,81.93q5.7-4.19,11.3-8.47c3.88,2.72,7.59,5.69,11.43,8.47q0,9.51,0,19c-7.57,0-15.14,0-22.7,0C18.68,94.62,18.73,88.27,18.69,81.93Z" transform="translate(-13.36 -3.38)"/><path class="cls-8" d="M15.64,122v5.68a3.5,3.5,0,0,0,.11.89,2.68,2.68,0,0,0,.39.86,2.34,2.34,0,0,0,.72.64,2.21,2.21,0,0,0,1.1.25,2.18,2.18,0,0,0,1.1-.25,2.13,2.13,0,0,0,.72-.64,2.68,2.68,0,0,0,.39-.86,3.58,3.58,0,0,0,.12-.89V122h1.26v5.87a3.85,3.85,0,0,1-.28,1.47,3.58,3.58,0,0,1-.75,1.15,3.47,3.47,0,0,1-1.15.75,3.84,3.84,0,0,1-1.41.26,3.88,3.88,0,0,1-1.41-.26,3.48,3.48,0,0,1-1.14-.75,3.66,3.66,0,0,1-.76-1.15,3.85,3.85,0,0,1-.27-1.47V122Z" transform="translate(-13.36 -3.38)"/><path class="cls-8" d="M26.35,131.29a.9.9,0,0,1-.61-.25.82.82,0,0,1-.25-.61.9.9,0,0,1,.25-.62.86.86,0,0,1,.61-.25.9.9,0,0,1,.62.25A.88.88,0,0,1,27,131,.84.84,0,0,1,26.35,131.29Z" transform="translate(-13.36 -3.38)"/><path class="cls-8" d="M31.61,129.28a2,2,0,0,0,.87.75,2.62,2.62,0,0,0,1.09.24,2.08,2.08,0,0,0,.64-.1,2,2,0,0,0,.6-.29,1.45,1.45,0,0,0,.43-.49,1.22,1.22,0,0,0,.17-.67,1,1,0,0,0-.34-.81,3,3,0,0,0-.85-.47c-.33-.13-.7-.25-1.09-.37a4.37,4.37,0,0,1-1.1-.48,2.76,2.76,0,0,1-.85-.85,2.68,2.68,0,0,1-.34-1.43,2.42,2.42,0,0,1,.18-.87,2.22,2.22,0,0,1,.56-.83,2.72,2.72,0,0,1,1-.63,3.62,3.62,0,0,1,1.43-.26,5.05,5.05,0,0,1,1.46.21,2.48,2.48,0,0,1,1.21.85l-1,.93a1.73,1.73,0,0,0-.66-.59,2.28,2.28,0,0,0-1-.22,2.2,2.2,0,0,0-.87.14,1.73,1.73,0,0,0-.56.35,1.3,1.3,0,0,0-.38.93,1.15,1.15,0,0,0,.34.9,2.59,2.59,0,0,0,.84.51c.34.13.71.24,1.1.35a4.86,4.86,0,0,1,1.1.44,2.65,2.65,0,0,1,.84.76,2.19,2.19,0,0,1,.34,1.31,2.94,2.94,0,0,1-.25,1.21,2.58,2.58,0,0,1-.69.9,2.93,2.93,0,0,1-1,.56,4.05,4.05,0,0,1-1.26.2,4.53,4.53,0,0,1-1.69-.31,3,3,0,0,1-1.27-1Z" transform="translate(-13.36 -3.38)"/><path class="cls-8" d="M41.2,131.29a.86.86,0,0,1-.61-.25.8.8,0,0,1-.26-.61.87.87,0,0,1,.26-.62.85.85,0,0,1,.61-.25.9.9,0,0,1,.61.25.88.88,0,0,1,0,1.23A.82.82,0,0,1,41.2,131.29Z" transform="translate(-13.36 -3.38)"/><path class="cls-8" d="M51.57,122H54.8a6,6,0,0,1,1.73.22,4.59,4.59,0,0,1,1.28.6,4.1,4.1,0,0,1,.9.86,4.52,4.52,0,0,1,.57,1,5.06,5.06,0,0,1,.29,1,5.49,5.49,0,0,1,.1,1,4.65,4.65,0,0,1-.33,1.72,4.37,4.37,0,0,1-1,1.48,5,5,0,0,1-1.59,1,5.74,5.74,0,0,1-2.19.39h-3V122ZM52.83,130h1.58a5,5,0,0,0,1.51-.22,3.46,3.46,0,0,0,1.25-.65A3.23,3.23,0,0,0,58,128.1a3.42,3.42,0,0,0,.31-1.51,4.33,4.33,0,0,0-.15-1,3,3,0,0,0-.54-1.14,3.27,3.27,0,0,0-1.11-.91,4,4,0,0,0-1.83-.37H52.83V130Z" transform="translate(-13.36 -3.38)"/><path class="cls-8" d="M63.44,122h6v1.17H64.7v2.77h4.4v1.18H64.7v3h5v1.18H63.44Z" transform="translate(-13.36 -3.38)"/><path class="cls-8" d="M73.4,122h3.26a3.9,3.9,0,0,1,1.47.24,2.42,2.42,0,0,1,.9.61,2.13,2.13,0,0,1,.47.84,3.19,3.19,0,0,1,.13.89,3.16,3.16,0,0,1-.13.9,2.13,2.13,0,0,1-.47.84,2.55,2.55,0,0,1-.9.61,3.9,3.9,0,0,1-1.47.24h-2v4.09H73.4ZM74.66,126h1.65A4.37,4.37,0,0,0,77,126a1.61,1.61,0,0,0,.64-.21,1.32,1.32,0,0,0,.46-.45,1.6,1.6,0,0,0,.16-.77,1.68,1.68,0,0,0-.16-.76,1.17,1.17,0,0,0-.46-.45,2,2,0,0,0-.64-.22,4.37,4.37,0,0,0-.72-.06H74.66Z" transform="translate(-13.36 -3.38)"/><path class="cls-8" d="M85.06,122h1.15l4,9.26H88.7l-.93-2.29H83.35l-.91,2.29H81Zm2.26,5.88-1.73-4.25h0l-1.75,4.25Z" transform="translate(-13.36 -3.38)"/><path class="cls-8" d="M93.34,122H96.6a3.9,3.9,0,0,1,1.47.24,2.55,2.55,0,0,1,.91.61,2.24,2.24,0,0,1,.46.84,3.19,3.19,0,0,1,.13.89,2.27,2.27,0,0,1-.16.86,2.21,2.21,0,0,1-.45.75,2.49,2.49,0,0,1-.72.56,2.65,2.65,0,0,1-.94.29l2.63,4.22H98.36L96,127.12H94.6v4.09H93.34V122ZM94.6,126h1.65A4.4,4.4,0,0,0,97,126a1.67,1.67,0,0,0,.64-.21,1.38,1.38,0,0,0,.45-.45,1.6,1.6,0,0,0,.16-.77,1.56,1.56,0,0,0-.16-.76,1.21,1.21,0,0,0-.45-.45,2.1,2.1,0,0,0-.64-.22,4.4,4.4,0,0,0-.73-.06H94.6Z" transform="translate(-13.36 -3.38)"/><path class="cls-8" d="M105,123.12h-3V122h7.23v1.17h-3v8.09H105v-8.09Z" transform="translate(-13.36 -3.38)"/><path class="cls-8" d="M112.45,122h1.87l2.94,7h.06l2.91-7h1.87v9.26h-1.26v-7.62h0l-3.12,7.62h-.84l-3.13-7.62h0v7.62h-1.25V122Z" transform="translate(-13.36 -3.38)"/><path class="cls-8" d="M126.36,122h6v1.17h-4.73v2.77H132v1.18h-4.4v3h5v1.18h-6.22V122Z" transform="translate(-13.36 -3.38)"/><path class="cls-8" d="M136.33,122H138l5.1,7.62h0V122h1.26v9.26h-1.6l-5.16-7.62h0v7.62h-1.25V122Z" transform="translate(-13.36 -3.38)"/><path class="cls-8" d="M150.64,123.12h-3V122h7.23v1.17h-3v8.09h-1.26v-8.09Z" transform="translate(-13.36 -3.38)"/><path class="cls-8" d="M168,131.45a5,5,0,0,1-1.95-.37,4.54,4.54,0,0,1-1.53-1,4.74,4.74,0,0,1-1-1.54,5.19,5.19,0,0,1,0-3.85,4.64,4.64,0,0,1,1-1.54,4.44,4.44,0,0,1,1.53-1,5.32,5.32,0,0,1,3.9,0,4.64,4.64,0,0,1,1.53,1,4.74,4.74,0,0,1,1,1.54,5.19,5.19,0,0,1,0,3.85,4.55,4.55,0,0,1-2.52,2.57A5,5,0,0,1,168,131.45Zm0-1.18a3.37,3.37,0,0,0,1.44-.3,3.22,3.22,0,0,0,1.1-.79,3.44,3.44,0,0,0,.7-1.17,4.21,4.21,0,0,0,0-2.86,3.26,3.26,0,0,0-.7-1.17,3.39,3.39,0,0,0-1.1-.8,3.53,3.53,0,0,0-1.44-.3,3.39,3.39,0,0,0-3.24,2.27,4.21,4.21,0,0,0,0,2.86,3.44,3.44,0,0,0,.7,1.17,3.36,3.36,0,0,0,1.1.79A3.23,3.23,0,0,0,168,130.27Z" transform="translate(-13.36 -3.38)"/><path class="cls-8" d="M176.64,122h5.83v1.17H177.9V126h4.25v1.18H177.9v4h-1.26Z" transform="translate(-13.36 -3.38)"/><path class="cls-8" d="M191.72,122h6v1.17H193v2.77h4.4v1.18H193v3h5v1.18h-6.22V122Z" transform="translate(-13.36 -3.38)"/><path class="cls-8" d="M201.68,122h1.65l5.11,7.62h0V122h1.25v9.26h-1.6L203,123.59h0v7.62h-1.26V122Z" transform="translate(-13.36 -3.38)"/><path class="cls-8" d="M214.07,122h6v1.17h-4.73v2.77h4.4v1.18h-4.4v3h5v1.18h-6.21V122Z" transform="translate(-13.36 -3.38)"/><path class="cls-8" d="M224,122h3.26a3.9,3.9,0,0,1,1.47.24,2.34,2.34,0,0,1,.9.61,2.13,2.13,0,0,1,.47.84,3.19,3.19,0,0,1,.13.89,2.27,2.27,0,0,1-.16.86,2.21,2.21,0,0,1-.45.75,2.49,2.49,0,0,1-.72.56,2.64,2.64,0,0,1-1,.29l2.64,4.22h-1.57l-2.36-4.09h-1.4v4.09H224V122Zm1.26,4.08h1.65a4.37,4.37,0,0,0,.72-.06,1.61,1.61,0,0,0,.64-.21,1.32,1.32,0,0,0,.46-.45,1.6,1.6,0,0,0,.16-.77,1.68,1.68,0,0,0-.16-.76,1.17,1.17,0,0,0-.46-.45,2,2,0,0,0-.64-.22,4.37,4.37,0,0,0-.72-.06h-1.65Z" transform="translate(-13.36 -3.38)"/><path class="cls-8" d="M241.88,126v4.57a3.91,3.91,0,0,1-.77.36,7,7,0,0,1-.89.27,7.89,7.89,0,0,1-.95.17,7.13,7.13,0,0,1-.89,0,5.4,5.4,0,0,1-2.11-.39,4.53,4.53,0,0,1-2.52-2.61,5.32,5.32,0,0,1-.33-1.86,5.06,5.06,0,0,1,.36-1.93,4.63,4.63,0,0,1,2.52-2.57,5,5,0,0,1,1.95-.37,5.87,5.87,0,0,1,2.1.32,3.9,3.9,0,0,1,1.36.88l-.89,1a3.54,3.54,0,0,0-1.21-.76,4.07,4.07,0,0,0-1.35-.22,3.37,3.37,0,0,0-1.44.3,3.35,3.35,0,0,0-1.8,2,4,4,0,0,0-.25,1.44,3.72,3.72,0,0,0,.28,1.46,3.56,3.56,0,0,0,.75,1.17,3.61,3.61,0,0,0,1.14.78,3.54,3.54,0,0,0,1.43.28,6.41,6.41,0,0,0,1.26-.12,3.39,3.39,0,0,0,1-.37v-2.58h-2.06V126Z" transform="translate(-13.36 -3.38)"/><path class="cls-8" d="M248.32,127.26,244.81,122h1.61l2.52,4.07,2.61-4.07h1.53l-3.5,5.31v4h-1.26v-4Z" transform="translate(-13.36 -3.38)"/><line class="cls-9" y1="109.49" x2="239.52" y2="109.49"/></svg>