<svg xmlns="http://www.w3.org/2000/svg" viewBox="0 0 217.574 103.731" style="enable-background:new 0 0 217.5744 103.7315" xml:space="preserve"><path style="fill:#00303c" d="M0 0h99.999v70.946H0z"/><path style="fill:#fff" d="M86.794 70.97h-1.908V37.276l-5.007-6.809-5.006 6.809V70.97h-1.908V36.65l6.914-9.402 6.915 9.402zM13.068 45.419h3.376v-1.266H9.95v4.646h3.118zm8.95 0h3.376v-1.266H18.9v4.646h3.118zm8.95 0h3.376v-1.266H27.85v4.646h3.118zm8.95 0h3.376v-1.266H36.8v4.646h3.118zm8.95 0h3.376v-1.266H45.75v4.646h3.118zm8.95 0h3.376v-1.266H54.7v4.646h3.118zM34.682 16.897l-.848-.488-.865.498-7.071 3.826v2.638l7.937-4.296 7.935 4.296v-2.638z"/><path style="fill:#fff" d="M62.03 36.814c-7.822-7.538-18.093-11.685-28.977-11.685-8.544 0-16.758 2.561-23.754 7.406l-1.036.72v2.833l2.356-1.646c6.607-4.575 14.365-6.993 22.434-6.993 10.43 0 20.265 4.03 27.69 11.35.217.214.509.334.814.334h4.11V70.97h2.32V36.813H62.03zm15.143 4.07h2.077v7.915h-2.077zm3.538 0h2.077v7.915h-2.077z"/><path style="fill:#00303c" d="M9.61 83.613c1.584 0 3.226 0 4.604.88 1.613 1.027 2.463 2.492 2.463 4.399 0 2.288-1.525 3.812-3.636 4.34v.059c2.493.498 4.194 2.404 4.194 5.015 0 1.76-1.056 3.314-2.464 4.34-1.466 1.085-3.431 1.085-5.161 1.085H.606V83.613H9.61zM5.299 91.59h3.196c.822 0 1.79.058 2.493-.469.557-.411.85-1.144.85-1.818 0-.734-.351-1.438-.996-1.819-.675-.381-1.907-.294-2.699-.294H5.298v4.4zm0 8.417h3.255c.85 0 1.935.058 2.669-.44.674-.44 1.055-1.261 1.055-2.083 0-.761-.469-1.553-1.143-1.935-.675-.381-1.613-.381-2.376-.381h-3.46v4.839zm20.737-12.493v4.076h7.625v3.783h-7.625v4.458h9.678v3.9h-14.37V83.614h14.37v3.9h-9.678zm18.568 16.217H39.91V83.614h8.476c1.789 0 3.607.03 5.162 1.027 1.642 1.085 2.551 3.05 2.551 5.014 0 2.287-1.32 4.4-3.49 5.192l3.725 8.885h-5.22l-3.08-7.947h-3.431v7.947zm0-11.408h2.58c.969 0 2.024.088 2.875-.41.762-.47 1.173-1.408 1.173-2.288 0-.792-.47-1.642-1.144-2.053-.792-.499-2.141-.381-3.02-.381h-2.464v5.132zm20.708.763 6.305-9.473h4.517l-4.839 7.185 6.041 12.933h-5.19l-3.99-8.71-2.844 4.077v4.634h-4.575v-20.12h4.575v9.473zm20.268-5.572v4.076h7.626v3.783H85.58v4.458h9.678v3.9h-14.37V83.614h14.37v3.9H85.58zm26.457 12.229v3.989H99.251v-20.12h4.692v16.13h8.094zm8.156-12.229v4.076h7.625v3.783h-7.625v4.458h9.678v3.9h-14.37V83.614h14.37v3.9h-9.678zm23.142 7.742v8.475h-4.692v-8.475l-6.365-11.643h5.456l3.87 7.655 3.813-7.655h4.223l-6.305 11.643zm32.646 4.487v3.989h-12.786v-20.12h4.692v16.13h8.094zm21.207 3.988h-5.074l-1.232-4.134h-6.51l-1.261 4.135h-4.136l6.452-20.119h5.456l6.305 20.118zm-7.391-7.83-2.14-7.068-2.142 7.068h4.282zm20.152-12.288c1.584 0 3.226 0 4.604.88 1.613 1.027 2.464 2.492 2.464 4.399 0 2.288-1.525 3.812-3.636 4.34v.059c2.492.498 4.193 2.404 4.193 5.015 0 1.76-1.056 3.314-2.463 4.34-1.467 1.085-3.432 1.085-5.162 1.085h-9.003V83.613h9.003zm-4.311 7.977h3.197c.82 0 1.789.058 2.492-.469.557-.411.85-1.144.85-1.818 0-.734-.351-1.438-.996-1.819-.675-.381-1.906-.294-2.698-.294h-2.845v4.4zm0 8.417h3.255c.85 0 1.936.058 2.67-.44.673-.44 1.055-1.261 1.055-2.083 0-.761-.47-1.553-1.144-1.935-.674-.381-1.613-.381-2.376-.381h-3.46v4.839z"/></svg>