<svg id="Layer_1" data-name="Layer 1" xmlns="http://www.w3.org/2000/svg" viewBox="0 0 239.72 121.2"><defs><style>.cls-1{fill:#fff;}.cls-2{fill:#bbbdbf;stroke:#3face1;stroke-width:8.04px;opacity:0.62;}.cls-2,.cls-3{stroke-miterlimit:10;}.cls-3{fill:none;stroke:#fff;stroke-width:0.73px;}</style></defs><polygon class="cls-1" points="22.51 91.67 0 91.67 0 55.57 11.36 47.46 22.51 55.57 22.51 91.67"/><polygon class="cls-1" points="47.05 49.28 24.54 34.04 24.54 91.67 47.05 91.67 47.05 49.28"/><path class="cls-2" d="M108.86,80.43" transform="translate(-13.36 -6.82)"/><path class="cls-2" d="M111.32,76.37" transform="translate(-13.36 -6.82)"/><path class="cls-1" d="M91.08,93.28c-.56,0-1.12,0-1.68,0l.26-8c.39,0,1,0,1.42,0a18.22,18.22,0,0,0,14.3-6.88l6.28,5A26.22,26.22,0,0,1,91.08,93.28Z" transform="translate(-13.36 -6.82)"/><path class="cls-1" d="M84.05,28.11V22.84H80.29V17.56H77.63V6.82h-3V17.56H72v5.28H68.23v5.27H62.55V98.49H89.73V28.11ZM64.74,66.94a26.34,26.34,0,0,1,13-22.71l-1.9-5.43,12.44,6-6,12.45L80.47,52a18.33,18.33,0,0,0-6,22.61L67.18,78A26.14,26.14,0,0,1,64.74,66.94ZM89.61,93.21c-5.65-.33-7.87-1.31-11-3L75,94.63,73.65,80.88l13.74-1.37L83.9,83.78a18.23,18.23,0,0,0,5.76,1.41Z" transform="translate(-13.36 -6.82)"/><path class="cls-2" d="M89.32,44.68" transform="translate(-13.36 -6.82)"/><path class="cls-1" d="M117.42,67.36v-.42a26.36,26.36,0,0,0-23-26.14l-1,8a18.31,18.31,0,0,1,16,16.84L104,64.47l7.5,11.6,11.6-7.5Z" transform="translate(-13.36 -6.82)"/><path class="cls-1" d="M125.34,34.54h7.29a7.62,7.62,0,0,1,5.45,1.82,4.85,4.85,0,0,1,1.4,3.55V40a4.86,4.86,0,0,1-2.83,4.55c2.23.87,3.72,2.24,3.72,5v.15c0,3.75-3,5.72-7.53,5.72h-7.5Zm9.88,6.14c0-1.52-1.07-2.32-2.92-2.32h-3.22v4.7h3c1.91,0,3.13-.77,3.13-2.35Zm-2.35,6h-3.79v4.88H133c1.93,0,3.15-.83,3.15-2.44v0C136.11,47.62,135,46.7,132.87,46.7Z" transform="translate(-13.36 -6.82)"/><path class="cls-1" d="M142.23,47.29V34.54h4.47V47.32c0,3,1.45,4.41,3.77,4.41s3.76-1.43,3.76-4.32V34.54h4.44V47.2c0,5.75-3.27,8.52-8.26,8.52S142.23,52.92,142.23,47.29Z" transform="translate(-13.36 -6.82)"/><path class="cls-1" d="M161.39,34.54h4.32V55.4h-4.32Z" transform="translate(-13.36 -6.82)"/><path class="cls-1" d="M169.37,34.54h4.32v16.9h6.59v4H169.37Z" transform="translate(-13.36 -6.82)"/><path class="cls-1" d="M181.44,34.31h6.73c6.05,0,10.87,4.17,10.87,10.28v.27c0,6.1-4.82,10.3-10.87,10.3h-6.73Zm4.32,3.9V51.72h2.38c3.28,0,6.11-2,6.44-6.89v-.15a6.27,6.27,0,0,0-6.44-6.47Z" transform="translate(-13.36 -6.82)"/><path class="cls-1" d="M201.36,34.43h4.32V55.28h-4.32Z" transform="translate(-13.36 -6.82)"/><path class="cls-1" d="M208.73,34.78h4.39L222,46.93V34.78h4.69V55.63h-4.1L213.42,43v12.6h-4.69Z" transform="translate(-13.36 -6.82)"/><path class="cls-1" d="M229.47,45.12v-.27c0-6.16,4.46-10.77,10.65-10.6,6,.16,7.1,2.17,9.18,3.78l-3,3.15c-1.64-1.75-3.15-2.92-6.22-2.91-3.25,0-5.73,2.71-5.73,6.55v.24c0,4.29,2.57,6.7,5.93,6.7,1.33,0,3.92-.3,4.77-.86V47.2H239.5V43.45h10V53.1A19,19,0,0,1,240,55.69C233.9,55.69,229.47,51.64,229.47,45.12Z" transform="translate(-13.36 -6.82)"/><path class="cls-1" d="M145.55,67.74a8.9,8.9,0,0,0-3-2.63,9.29,9.29,0,0,0-4.45-1,9.57,9.57,0,0,0-2.71.4,7.85,7.85,0,0,0-2.5,1.26,6.44,6.44,0,0,0-1.82,2.12,6.22,6.22,0,0,0-.69,3,5.46,5.46,0,0,0,.67,2.86,6.27,6.27,0,0,0,1.75,1.92,10.19,10.19,0,0,0,2.5,1.3c.94.35,1.91.69,2.93,1,1.26.41,2.52.85,3.8,1.33a13.39,13.39,0,0,1,3.44,1.86,9.16,9.16,0,0,1,2.5,2.91,9.32,9.32,0,0,1,1,4.48,9.65,9.65,0,0,1-3.72,7.92,11.24,11.24,0,0,1-3.77,1.89,15.3,15.3,0,0,1-4.27.61,16.49,16.49,0,0,1-3.27-.33,14.38,14.38,0,0,1-3.12-1,12.49,12.49,0,0,1-5-4l3.17-2.35a9.75,9.75,0,0,0,3.3,3.24,9.29,9.29,0,0,0,5,1.3,9.6,9.6,0,0,0,2.81-.43,7.72,7.72,0,0,0,2.58-1.33,7.29,7.29,0,0,0,1.89-2.2,6.74,6.74,0,0,0,0-6.18,6.66,6.66,0,0,0-2-2.1,12.09,12.09,0,0,0-2.81-1.4c-1.06-.38-2.17-.75-3.33-1.13s-2.36-.8-3.52-1.27a11.92,11.92,0,0,1-3.12-1.87,8.66,8.66,0,0,1-2.22-2.84,10.3,10.3,0,0,1,.2-8.63,9.48,9.48,0,0,1,2.74-3.12,11.2,11.2,0,0,1,3.73-1.79,14.89,14.89,0,0,1,4-.56,13.92,13.92,0,0,1,6.29,1.3,10.86,10.86,0,0,1,3.94,3.09Z" transform="translate(-13.36 -6.82)"/><path class="cls-1" d="M166.46,98.1h-3.68V82.51L149.23,61.92h4.6l10.89,17.53,11-17.53H180L166.46,82.51Z" transform="translate(-13.36 -6.82)"/><path class="cls-1" d="M208.88,92.74h.1V61.92h3.68V98.1h-4.6L187,67h-.1V98.1h-3.68V61.92h4.6Z" transform="translate(-13.36 -6.82)"/><path class="cls-1" d="M251.14,92.22a14.93,14.93,0,0,1-2.22,2.61,14.2,14.2,0,0,1-3,2.17,17.2,17.2,0,0,1-3.78,1.48,17.9,17.9,0,0,1-4.52.54A19.5,19.5,0,0,1,230,97.59a17.65,17.65,0,0,1-6-4,18,18,0,0,1-3.91-6,21.16,21.16,0,0,1,0-15.24,18,18,0,0,1,9.94-10A19.44,19.44,0,0,1,237.6,61a18.87,18.87,0,0,1,3.91.41,18.51,18.51,0,0,1,3.6,1.17,15.23,15.23,0,0,1,3.07,1.81,10.55,10.55,0,0,1,2.3,2.38L247.41,69a9,9,0,0,0-1.51-1.74,10.13,10.13,0,0,0-2.22-1.53,14,14,0,0,0-2.78-1.07,12.11,12.11,0,0,0-3.25-.41,15,15,0,0,0-6.31,1.27A14.29,14.29,0,0,0,226.61,69a15.05,15.05,0,0,0-3,5,17.45,17.45,0,0,0-1,6,17.23,17.23,0,0,0,1,6,15.47,15.47,0,0,0,3,5,14.29,14.29,0,0,0,4.73,3.44,14.87,14.87,0,0,0,6.26,1.27,14.06,14.06,0,0,0,5.93-1.28,11.25,11.25,0,0,0,4.7-4.08Z" transform="translate(-13.36 -6.82)"/><path class="cls-1" d="M15.64,118.51v5.68a3.44,3.44,0,0,0,.11.89,2.68,2.68,0,0,0,.39.86,2.34,2.34,0,0,0,.72.64,2.21,2.21,0,0,0,1.1.25,2.18,2.18,0,0,0,1.1-.25,2.13,2.13,0,0,0,.72-.64,2.68,2.68,0,0,0,.39-.86,3.58,3.58,0,0,0,.12-.89v-5.68h1.26v5.87a3.81,3.81,0,0,1-.28,1.47,3.47,3.47,0,0,1-.75,1.15,3.32,3.32,0,0,1-1.15.75A3.84,3.84,0,0,1,18,128a3.88,3.88,0,0,1-1.41-.26,3.33,3.33,0,0,1-1.14-.75,3.55,3.55,0,0,1-.76-1.15,3.85,3.85,0,0,1-.27-1.47v-5.87Z" transform="translate(-13.36 -6.82)"/><path class="cls-1" d="M26.35,127.85a.9.9,0,0,1-.61-.25.82.82,0,0,1-.25-.61.86.86,0,0,1,.25-.61.83.83,0,0,1,.61-.26.87.87,0,0,1,.62.26.85.85,0,0,1,.25.61.88.88,0,0,1-.25.61A.84.84,0,0,1,26.35,127.85Z" transform="translate(-13.36 -6.82)"/><path class="cls-1" d="M31.61,125.84a2,2,0,0,0,.87.75,2.62,2.62,0,0,0,1.09.24,2.08,2.08,0,0,0,.64-.1,2,2,0,0,0,.6-.29,1.45,1.45,0,0,0,.43-.49,1.22,1.22,0,0,0,.17-.67,1,1,0,0,0-.34-.81,3,3,0,0,0-.85-.47c-.33-.13-.7-.25-1.09-.37a4.37,4.37,0,0,1-1.1-.48,2.45,2.45,0,0,1-1.19-2.28A2.42,2.42,0,0,1,31,120a2.22,2.22,0,0,1,.56-.83,2.72,2.72,0,0,1,1-.63,3.62,3.62,0,0,1,1.43-.26,5.05,5.05,0,0,1,1.46.21,2.48,2.48,0,0,1,1.21.85l-1,.93a1.73,1.73,0,0,0-.66-.59,2.28,2.28,0,0,0-1-.22,2.2,2.2,0,0,0-.87.14,1.73,1.73,0,0,0-.56.35,1.3,1.3,0,0,0-.38.93,1.15,1.15,0,0,0,.34.9,2.59,2.59,0,0,0,.84.51,10.15,10.15,0,0,0,1.1.35,4.86,4.86,0,0,1,1.1.44,2.65,2.65,0,0,1,.84.76,2.19,2.19,0,0,1,.34,1.31,2.94,2.94,0,0,1-.25,1.21,2.58,2.58,0,0,1-.69.9,2.93,2.93,0,0,1-1,.56,4.05,4.05,0,0,1-1.26.2,4.53,4.53,0,0,1-1.69-.31,2.8,2.8,0,0,1-1.27-1Z" transform="translate(-13.36 -6.82)"/><path class="cls-1" d="M41.2,127.85a.86.86,0,0,1-.61-.25.8.8,0,0,1-.26-.61.83.83,0,0,1,.26-.61.82.82,0,0,1,.61-.26.87.87,0,0,1,.61.26.81.81,0,0,1,.25.61.84.84,0,0,1-.25.61A.82.82,0,0,1,41.2,127.85Z" transform="translate(-13.36 -6.82)"/><path class="cls-1" d="M51.57,118.51H54.8a6,6,0,0,1,1.73.22,4.59,4.59,0,0,1,1.28.6,4.1,4.1,0,0,1,.9.86,4.52,4.52,0,0,1,.57,1,5.06,5.06,0,0,1,.29,1,5.59,5.59,0,0,1,.1,1,4.65,4.65,0,0,1-.33,1.72,4.37,4.37,0,0,1-1,1.48,4.88,4.88,0,0,1-1.59,1,5.74,5.74,0,0,1-2.19.39h-3v-9.27Zm1.26,8.09h1.58a5,5,0,0,0,1.51-.22,3.61,3.61,0,0,0,1.25-.64,3.37,3.37,0,0,0,.86-1.08,3.42,3.42,0,0,0,.31-1.51,4.33,4.33,0,0,0-.15-1,3.05,3.05,0,0,0-.54-1.14,3.27,3.27,0,0,0-1.11-.91,4,4,0,0,0-1.83-.37H52.83v6.91Z" transform="translate(-13.36 -6.82)"/><path class="cls-1" d="M63.44,118.51h6v1.17H64.7v2.77h4.4v1.18H64.7v3h5v1.18H63.44Z" transform="translate(-13.36 -6.82)"/><path class="cls-1" d="M73.4,118.51h3.26a3.9,3.9,0,0,1,1.47.24,2.42,2.42,0,0,1,.9.61,2.13,2.13,0,0,1,.47.84,3.21,3.21,0,0,1,.13.9,3.14,3.14,0,0,1-.13.89,2.07,2.07,0,0,1-.47.84,2.55,2.55,0,0,1-.9.61,3.9,3.9,0,0,1-1.47.24h-2v4.09H73.4Zm1.26,4.08h1.65a5.81,5.81,0,0,0,.72,0,1.79,1.79,0,0,0,.64-.22,1.24,1.24,0,0,0,.46-.45,1.57,1.57,0,0,0,.16-.77,1.68,1.68,0,0,0-.16-.76,1.17,1.17,0,0,0-.46-.45,2,2,0,0,0-.64-.22,4.37,4.37,0,0,0-.72-.06H74.66Z" transform="translate(-13.36 -6.82)"/><path class="cls-1" d="M85.06,118.51h1.15l4,9.26H88.7l-.93-2.29H83.35l-.91,2.29H81Zm2.26,5.88-1.73-4.25h0l-1.75,4.25Z" transform="translate(-13.36 -6.82)"/><path class="cls-1" d="M93.34,118.51H96.6a3.9,3.9,0,0,1,1.47.24,2.55,2.55,0,0,1,.91.61,2.24,2.24,0,0,1,.46.84,3.21,3.21,0,0,1,.13.9,2.25,2.25,0,0,1-.16.85,2.21,2.21,0,0,1-.45.75,2.49,2.49,0,0,1-.72.56,2.46,2.46,0,0,1-.94.29l2.63,4.22H98.36L96,123.68H94.6v4.09H93.34v-9.26Zm1.26,4.08h1.65a5.84,5.84,0,0,0,.73,0,1.87,1.87,0,0,0,.64-.22,1.29,1.29,0,0,0,.45-.45,1.91,1.91,0,0,0,0-1.53,1.21,1.21,0,0,0-.45-.45,2.1,2.1,0,0,0-.64-.22,4.4,4.4,0,0,0-.73-.06H94.6Z" transform="translate(-13.36 -6.82)"/><path class="cls-1" d="M105,119.68h-3v-1.17h7.23v1.17h-3v8.09H105v-8.09Z" transform="translate(-13.36 -6.82)"/><path class="cls-1" d="M112.45,118.51h1.87l2.94,7h.06l2.91-7h1.87v9.26h-1.26v-7.62h0l-3.12,7.62h-.84l-3.13-7.62h0v7.62h-1.25v-9.26Z" transform="translate(-13.36 -6.82)"/><path class="cls-1" d="M126.36,118.51h6v1.17h-4.73v2.77H132v1.18h-4.4v3h5v1.18h-6.22v-9.27Z" transform="translate(-13.36 -6.82)"/><path class="cls-1" d="M136.33,118.51H138l5.1,7.62h0v-7.62h1.26v9.26h-1.6l-5.16-7.62h0v7.62h-1.25v-9.26Z" transform="translate(-13.36 -6.82)"/><path class="cls-1" d="M150.64,119.68h-3v-1.17h7.23v1.17h-3v8.09h-1.26v-8.09Z" transform="translate(-13.36 -6.82)"/><path class="cls-1" d="M168,128a5,5,0,0,1-1.95-.37,4.66,4.66,0,0,1-1.53-1,4.89,4.89,0,0,1-1-1.55,5.05,5.05,0,0,1-.37-1.92,5.14,5.14,0,0,1,.37-1.93,4.64,4.64,0,0,1,1-1.54,4.44,4.44,0,0,1,1.53-1,5.32,5.32,0,0,1,3.9,0,4.64,4.64,0,0,1,1.53,1,4.74,4.74,0,0,1,1,1.54,5.14,5.14,0,0,1,.37,1.93,5.05,5.05,0,0,1-.37,1.92,4.47,4.47,0,0,1-2.52,2.57A5,5,0,0,1,168,128Zm0-1.18a3.53,3.53,0,0,0,1.44-.29,3.39,3.39,0,0,0,1.1-.8,3.44,3.44,0,0,0,.7-1.17,4.21,4.21,0,0,0,0-2.86,3.35,3.35,0,0,0-.7-1.17,3.39,3.39,0,0,0-1.1-.8,3.53,3.53,0,0,0-1.44-.3,3.37,3.37,0,0,0-2.54,1.1,3.44,3.44,0,0,0-.7,1.17,4.21,4.21,0,0,0,0,2.86,3.35,3.35,0,0,0,.7,1.17,3.54,3.54,0,0,0,1.1.8A3.37,3.37,0,0,0,168,126.83Z" transform="translate(-13.36 -6.82)"/><path class="cls-1" d="M176.64,118.51h5.83v1.17H177.9v2.91h4.25v1.18H177.9v4h-1.26Z" transform="translate(-13.36 -6.82)"/><path class="cls-1" d="M191.72,118.51h6v1.17H193v2.77h4.4v1.18H193v3h5v1.18h-6.22v-9.27Z" transform="translate(-13.36 -6.82)"/><path class="cls-1" d="M201.68,118.51h1.65l5.11,7.62h0v-7.62h1.25v9.26h-1.6L203,120.15h0v7.62h-1.26v-9.26Z" transform="translate(-13.36 -6.82)"/><path class="cls-1" d="M214.07,118.51h6v1.17h-4.73v2.77h4.4v1.18h-4.4v3h5v1.18h-6.21v-9.27Z" transform="translate(-13.36 -6.82)"/><path class="cls-1" d="M224,118.51h3.26a3.9,3.9,0,0,1,1.47.24,2.34,2.34,0,0,1,.9.61,2.13,2.13,0,0,1,.47.84,3.21,3.21,0,0,1,.13.9,2.25,2.25,0,0,1-.16.85,2.21,2.21,0,0,1-.45.75,2.49,2.49,0,0,1-.72.56,2.46,2.46,0,0,1-1,.29l2.64,4.22h-1.57l-2.36-4.09h-1.4v4.09H224v-9.26Zm1.26,4.08h1.65a5.81,5.81,0,0,0,.72,0,1.79,1.79,0,0,0,.64-.22,1.24,1.24,0,0,0,.46-.45,1.57,1.57,0,0,0,.16-.77,1.68,1.68,0,0,0-.16-.76,1.17,1.17,0,0,0-.46-.45,2,2,0,0,0-.64-.22,4.37,4.37,0,0,0-.72-.06h-1.65Z" transform="translate(-13.36 -6.82)"/><path class="cls-1" d="M241.88,122.59v4.57a3.91,3.91,0,0,1-.77.36,7,7,0,0,1-.89.27,7.89,7.89,0,0,1-.95.17,7.13,7.13,0,0,1-.89,0,5.4,5.4,0,0,1-2.11-.39,4.53,4.53,0,0,1-2.52-2.61,5.32,5.32,0,0,1-.33-1.86,5.14,5.14,0,0,1,.36-1.93,4.63,4.63,0,0,1,2.52-2.57,5,5,0,0,1,1.95-.37,5.87,5.87,0,0,1,2.1.32,3.9,3.9,0,0,1,1.36.88l-.89,1a3.54,3.54,0,0,0-1.21-.76,4.07,4.07,0,0,0-1.35-.22,3.37,3.37,0,0,0-1.44.3,3.35,3.35,0,0,0-1.8,2,4,4,0,0,0-.25,1.44,3.72,3.72,0,0,0,.28,1.46,3.56,3.56,0,0,0,.75,1.17,3.61,3.61,0,0,0,1.14.78,3.54,3.54,0,0,0,1.43.28,6.41,6.41,0,0,0,1.26-.12,3.39,3.39,0,0,0,1-.37v-2.58h-2.06v-1.18Z" transform="translate(-13.36 -6.82)"/><path class="cls-1" d="M248.32,123.82l-3.51-5.31h1.61l2.52,4.07,2.61-4.07h1.53l-3.5,5.31v4h-1.26v-4Z" transform="translate(-13.36 -6.82)"/><line class="cls-3" y1="102.61" x2="239.52" y2="102.61"/></svg>