<svg xmlns="http://www.w3.org/2000/svg" viewBox="0 0 793.05 339.66"><path d="M227.837.05c4-.04 8.01-.05 12.02-.05-.01 13.02-.01 26.04-.01 39.06h10.04c.01 6.45 0 12.91.02 19.36h13.72c.05 6.48-.02 12.96.08 19.44 7.22-.04 14.44-.06 21.67.01.02 55.51 0 111.02.05 166.54-26.77-.12-54.13-3.27-78.78-14.32-8.22-3.38-15.3-8.86-22.97-13.26-.03-46.33 0-92.66-.02-139 6.88-.01 13.76.01 20.64-.01.01-6.47-.03-12.93.06-19.39 4.48 0 8.96 0 13.44-.03-.02-6.44 0-12.87-.02-19.31 3.35-.02 6.7-.03 10.05-.02.06-13.01.03-26.01.01-39.02zM91.927 77.71c28.03 18.7 56.02 37.44 84.04 56.14.01 25.96.06 51.91-.02 77.86-10.26-6.81-20.68-13.39-31.34-19.56-16.05-9.37-33.88-16.71-52.71-17.13.02-32.44-.04-64.87.03-97.31zM.007 151.4c13.98-10.69 28.16-21.11 42.24-31.67 14.09 10.51 28.26 20.93 42.21 31.64-.05 7.89-.05 15.78.01 23.67-18.53 1.58-37.04 7.4-51.83 18.95-11.28 8.73-20.45 20.08-27.04 32.71-1.82 3.49-3.44 7.09-5.39 10.52-.43-28.6-.03-57.22-.2-85.82z" fill="#8295a1"/><path d="M320.347 77.18c23.96.02 47.91-.03 71.87.03 11.99.27 24.22 1.4 35.52 5.72 12.49 4.81 23.33 14.87 27.26 27.89 3.75 12.63 2.54 26.96-4.28 38.36-4.89 8.48-12.71 15.14-21.83 18.68 14.57 2.53 28.45 11.5 35.25 24.85 5.45 10.72 5.6 23.42 2.94 34.94-3.52 15.43-15.76 27.77-30.08 33.8-14.12 5.91-29.7 6.76-44.82 6.49h-71.83V77.18zm44.67 33.59c.03 14.51.01 29.03 0 43.55 8.78-.01 17.58.26 26.35-.16 7.94-.36 15.77-4.79 19.4-11.99 2.76-6.05 2.88-13.31.26-19.43-3.25-7.14-11.07-11.38-18.71-11.85-9.07-.67-18.22-.65-27.3-.12zm.01 74.4c-.01 16.1.02 32.21-.01 48.32 8.05.63 16.15.15 24.22.31 8.39-.1 17.52-.37 24.54-5.58 10.05-6.51 11.93-21.33 6.11-31.23-4.8-7.59-13.88-11.35-22.6-11.67-10.75-.37-21.51-.1-32.26-.15zm111.7 82.77V77.18c24.81.03 49.63-.06 74.44.05 15.51.65 31.85 4.08 44.06 14.25 6.08 6.49 12.06 13.43 15.08 21.95 5.3 14.63 5.46 31.07.71 45.87-2.83 9.21-9.42 16.5-15.68 23.55-12.39 10.51-29.17 13.79-44.98 14.4-9.5.23-19 .04-28.5.11 0 23.52.01 47.05-.01 70.58-15.04-.01-30.08 0-45.12 0zm44.96-156.03c.02 17.01 0 34.02.01 51.03 7.52-.04 15.04.12 22.56-.06 8.15-.44 17.1-3.36 21.51-10.74 7.05-11.53 5.01-29.61-7.6-36.45-11.28-5.74-24.34-3.23-36.48-3.78zm100.83 156.03c-.01-63.59-.01-127.17 0-190.76 23.56.03 47.11-.05 70.67.04 19.84.67 40 4.91 57.22 15.14 14.29 8.68 26.23 21.46 33.13 36.76 8.57 18.78 10.17 40.1 7.57 60.38-2.49 18.88-10.7 37.22-24.36 50.65-12.13 12.42-28.38 20.06-45.11 24.05-11.94 2.81-24.24 3.91-36.49 3.74-20.88 0-41.75-.01-62.63 0zm44.93-153.64c-.06 38.54-.04 77.09-.01 115.63 15.85-.34 32.42 1.65 47.47-4.57 15.86-6.06 27.24-21.16 30.25-37.69 3.51-18.44 1.13-39.1-10.61-54.31-7.03-9.36-17.96-15.04-29.26-17.38-12.45-2.59-25.23-1.41-37.84-1.68z" fill="#005191"/><path d="M32.377 204.72c16.11-14.68 38.21-21.93 59.84-21.45 18.6.3 35.91 8.42 51.58 17.8 17.18 9.9 33.1 21.8 50.37 31.55 7.49 4.85 15.95 7.91 24.36 10.77 21.57 7.06 44.38 8.76 66.92 9.48-.02 5.03-.01 10.07-.01 15.1-28.06-.31-56.6-3.37-82.79-14-23.39-10.39-43.7-26.23-65.7-39.12-13.42-8.01-27.92-15.46-43.83-16.29-18.63-.74-37.68 5.8-51.27 18.72-14.12 13.37-22.25 31.89-26.23 50.67-5.13-.02-10.27 0-15.4-.03 4-23.58 14.25-46.89 32.16-63.2z" fill="#3ba6dd"/><path d="M18.73 336.76c-2.139 1.783-4.686 2.292-8.76 2.292H.547v-35.145h7.742c3.464 0 6.112.255 8.149 1.783 2.037 1.528 3.311 3.464 3.311 7.029s-2.394 6.774-5.552 7.691c4.94.815 8.251 3.871 8.251 8.709 0 3.566-1.528 5.858-3.718 7.641zm-4.584-29.287c-1.375-.764-2.903-1.069-5.603-1.069H3.297v13.192h4.737c2.801 0 4.788-.306 6.112-1.273 1.375-.968 2.801-2.445 2.801-5.501s-1.375-4.585-2.801-5.349zm2.292 16.044c-2.037-1.375-4.839-1.477-7.385-1.477H3.297v14.516h5.756c2.547 0 5.348-.051 7.385-1.426 2.037-1.426 3.056-3.209 3.056-5.857 0-2.7-1.018-4.33-3.056-5.756zm37.434 1.375c0 3.973-.153 7.487-2.496 10.441-2.292 2.853-5.654 4.33-9.983 4.33s-7.691-1.477-9.983-4.33c-2.343-2.954-2.496-6.468-2.496-10.441v-20.985h2.75v21.24c0 2.648.051 5.857 1.783 8.251 1.681 2.292 4.38 3.718 7.946 3.718s6.265-1.426 7.946-3.718c1.732-2.394 1.783-5.603 1.783-8.251v-21.24h2.75v20.985zm11.151 14.16h-2.75v-35.145h2.75v35.145zm23.938 0h-15.28v-35.145h2.75v32.649h12.53v2.496zm27.349-4.839c-2.292 2.292-6.723 4.839-12.835 4.839h-9.677v-35.145h9.677c6.112 0 10.543 2.547 12.835 4.839s5.348 6.367 5.348 12.733-3.055 10.442-5.348 12.734zm-2.393-24.04c-2.241-2.088-5.857-3.769-10.696-3.769h-6.672v30.153h6.672c4.839 0 8.455-1.63 10.696-3.718s4.89-5.755 4.89-11.358c-.001-5.604-2.649-9.22-4.89-11.308zm17.008 28.879h-2.75v-35.145h2.75v35.145zm37.333 0h-2.496l-23.429-30.815v30.815h-2.75v-35.145h2.75l23.175 30.306v-30.306h2.75v35.145zm38.706-4.839s-4.329 5.45-14.516 5.45c-10.187 0-17.725-7.742-17.725-18.184s7.538-18.082 17.572-18.082c8.812 0 12.683 4.584 14.007 6.112l-1.884 2.037c-2.547-3.056-6.112-5.653-12.123-5.653-8.251 0-14.618 5.908-14.618 15.585 0 9.678 6.621 15.586 15.025 15.586s11.562-3.871 11.562-3.871v-9.524h-10.798v-2.496h13.497v13.04h.001zm34.479-14.007c-2.038 1.783-4.788 2.445-8.099 2.445h-5.297v16.401h-2.75v-35.145h8.047c3.311 0 6.061.662 8.099 2.445 2.037 1.783 3.208 3.871 3.208 6.927s-1.171 5.145-3.208 6.927zm-2.14-12.224c-1.426-1.019-3.311-1.579-5.857-1.579h-5.399v13.752h5.399c2.546 0 4.431-.56 5.857-1.579 1.375-1.019 2.444-2.903 2.444-5.297.001-2.444-1.069-4.278-2.444-5.297zm30.915 31.07h-19.457v-35.145h19.1v2.496h-16.35v12.733h15.433v2.496h-15.433v14.924h16.707v2.496zm27.909 0h-3.514l-10.391-16.299h-4.482v16.299h-2.75v-35.145h8.149c6.621 0 10.951 3.565 10.951 9.423s-4.228 8.659-8.659 9.321l10.696 16.401zm-7.538-31.171c-1.885-1.426-4.177-1.477-6.978-1.477h-3.871v13.854h3.871c2.801 0 5.093-.051 6.978-1.426 1.936-1.426 2.598-3.209 2.598-5.501s-.662-4.075-2.598-5.45zm29.692-1.477h-15.077v13.803h14.16v2.496h-14.16v16.35h-2.75v-35.145h17.827v2.496zm21.237 33.259c-9.524 0-17.827-6.927-17.827-18.133 0-11.205 8.302-18.132 17.827-18.132 9.576 0 17.827 6.927 17.827 18.132 0 11.206-8.251 18.133-17.827 18.133zm0-33.82c-7.997 0-14.923 5.756-14.923 15.637 0 9.779 6.978 15.586 14.923 15.586 8.048 0 14.975-5.807 14.975-15.586 0-9.83-6.927-15.637-14.975-15.637zm45.48 33.209h-3.514l-10.391-16.299h-4.482v16.299h-2.75v-35.145h8.149c6.621 0 10.951 3.565 10.951 9.423s-4.228 8.659-8.659 9.321l10.696 16.401zm-7.538-31.171c-1.885-1.426-4.177-1.477-6.978-1.477h-3.871v13.854h3.871c2.801 0 5.093-.051 6.978-1.426 1.936-1.426 2.598-3.209 2.598-5.501s-.662-4.075-2.598-5.45zm47.774 31.171h-2.75l-3.005-30.509-12.988 31.121h-.255l-13.039-31.172-2.903 30.561h-2.75l3.565-35.145h3.158l12.071 30 12.122-30h3.209l3.565 35.144zm34.376 0h-3.208l-4.33-10.543h-16.757l-4.38 10.543h-2.903l15.025-35.246h1.528l15.025 35.246zm-8.607-13.09l-7.335-17.98-7.334 17.98h14.669zm41.864 13.09h-2.496l-23.43-30.815v30.815h-2.75v-35.145h2.75l23.175 30.306v-30.306h2.75v35.145h.001zm37.178-4.839c-2.547 2.802-6.622 5.45-12.988 5.45-10.187 0-17.725-7.437-17.725-18.133 0-10.696 7.793-18.132 17.725-18.132 6.112 0 10.187 2.547 12.733 5.093l-1.783 2.038c-1.783-2.292-5.857-4.635-10.951-4.635-8.659 0-14.771 6.367-14.771 15.535s6.112 15.637 14.771 15.637c4.839 0 8.659-1.833 11.206-4.635l1.783 1.782zm25.31 4.839h-19.457v-35.145h19.1v2.496h-16.35v12.733h15.433v2.496h-15.433v14.924h16.707v2.496zm39.471-4.839c-2.292 2.292-6.724 4.839-12.835 4.839h-9.677v-35.145h9.677c6.112 0 10.543 2.547 12.835 4.839s5.348 6.367 5.348 12.733-3.056 10.442-5.348 12.734zm-2.394-24.04c-2.241-2.088-5.857-3.769-10.696-3.769h-6.672v30.153h6.672c4.839 0 8.455-1.63 10.696-3.718s4.89-5.755 4.89-11.358c-.001-5.604-2.649-9.22-4.89-11.308zm40.744 28.879h-3.208l-4.33-10.543h-16.757l-4.38 10.543h-2.903l15.025-35.246h1.528l15.025 35.246zm-8.608-13.09l-7.334-17.98-7.335 17.98h14.669zm28.419-19.558h-10.441v32.648h-2.75v-32.648h-10.441v-2.496h23.633v2.496h-.001zm27.757 32.648h-3.208l-4.33-10.543h-16.757l-4.38 10.543h-2.903l15.025-35.246h1.528l15.025 35.246zm-8.608-13.09l-7.335-17.98-7.334 17.98h14.669zm31.372 10.798c-2.139 1.783-4.686 2.292-8.761 2.292h-9.422v-35.145h7.742c3.463 0 6.112.255 8.149 1.783 2.038 1.528 3.311 3.464 3.311 7.029s-2.394 6.774-5.552 7.691c4.941.815 8.251 3.871 8.251 8.709 0 3.566-1.528 5.858-3.718 7.641zm-4.584-29.287c-1.375-.764-2.903-1.069-5.603-1.069h-5.247v13.192h4.737c2.801 0 4.788-.306 6.112-1.273 1.375-.968 2.801-2.445 2.801-5.501s-1.374-4.585-2.8-5.349zm2.292 16.044c-2.037-1.375-4.839-1.477-7.385-1.477h-5.756v14.516h5.756c2.546 0 5.348-.051 7.385-1.426 2.038-1.426 3.056-3.209 3.056-5.857 0-2.7-1.018-4.33-3.056-5.756zm40.235 15.535h-3.208l-4.33-10.543h-16.757l-4.38 10.543h-2.903l15.025-35.246h1.528l15.025 35.246zm-8.608-13.09l-7.335-17.98-7.334 17.98h14.669zm20.88 13.701c-6.825 0-9.983-4.89-10.747-6.316l2.139-1.528c1.273 2.343 4.33 5.45 8.863 5.45 4.533 0 8.2-2.801 8.2-7.385s-4.686-6.316-6.723-7.131c-2.038-.815-4.33-1.783-5.756-2.547-1.375-.764-5.093-3.056-5.093-8.149s4.431-8.659 10.34-8.659c5.908 0 8.862 4.075 9.168 4.584l-1.936 1.681c-1.324-1.681-3.362-3.82-7.437-3.82s-7.334 2.139-7.334 6.112 2.75 5.552 5.246 6.621c2.496 1.07 6.418 2.7 7.233 3.158s5.093 2.801 5.093 8.149-4.43 9.78-11.256 9.78zm37.332-.611h-19.457v-35.145h19.1v2.496h-16.35v12.733h15.433v2.496h-15.433v14.924h16.707v2.496z" fill="#58666f"/></svg>