<svg xmlns="http://www.w3.org/2000/svg" viewBox="0 0 700 108"><path fill="#67b23c" d="M0 0h262v108H0z"/><path d="M69.81 26.1c1.42.22 2.87.35 4.24.84.84 1.89 1.02 4.27-.25 6.01-1.31.31-2.62.57-3.95.78-.03-2.55-.03-5.09-.04-7.63zm24.7.06c1.35.12 2.71.25 4.07.38l-.45 2.67c-.9.05-2.7.14-3.6.19-.01-1.08-.02-2.16-.02-3.24zm23.31-.17c2.08.2 4.17.58 5.9 1.86-1.79.62-3.61 1.13-5.43 1.62-.12-.87-.35-2.61-.47-3.48zm81.53.21c4.54-1.46 5.92 6.45 1.66 7.3-4.17 1.11-5.32-6.08-1.66-7.3zm-92.2 1.87c1.38-.16 1.8 1.95 1.1 2.85-.45-.02-1.35-.07-1.8-.09-.53-1.13-.3-2.05.7-2.76zm33.55 23.97c3.66 0 7.34.05 10.98.5-.08 1.81.84 4.08-.87 5.39-3.33.65-6.74.42-10.11.46v-6.35z" fill="#67b23c"/><path d="M34.184 67.046h18.068v-9.47H34.184v-5.311h19.419v-9.496H23.83v40.97h30.46v-9.47H34.184zm45.506-3.154L67.392 42.77H57.89v40.97h9.838V63.17l12.081 20.57h9.718V42.77H79.69zm25.241 3.154H123v-9.47h-18.068v-5.311h19.418v-9.496H94.578v40.97h30.459v-9.47H104.93zm50.181.585a16.09 16.09 0 0 0-1.487-1.466c1.946-.718 3.53-1.783 4.732-3.186 1.826-2.131 2.752-4.838 2.752-8.045 0-2.513-.603-4.789-1.792-6.766-1.222-2.03-2.887-3.468-4.947-4.272-1.941-.758-4.867-1.127-8.944-1.127h-16.838v40.97h10.354V67.925c1.888.005 2.722.209 3.052.33.527.195 1.056.585 1.57 1.16.432.48 1.42 1.801 3.678 5.367l5.708 8.957h12.25l-5.777-9.717c-1.802-3.06-3.212-5.15-4.311-6.39zm-16.17-15.366h4.127c3.664 0 4.744.068 5.06.11.799.145 1.384.453 1.788.944.416.503.618 1.192.618 2.105 0 .83-.164 1.504-.489 2.004-.308.476-.709.79-1.261.988-.316.112-1.533.375-6.01.375h-3.833v-6.526zm43.124 17.546h8.323v2.501c-.858.615-1.859 1.159-2.983 1.621-1.337.55-2.68.827-3.992.827-2.624 0-4.679-.923-6.284-2.825-1.648-1.95-2.483-5.02-2.483-9.12 0-3.762.815-6.591 2.424-8.41 1.58-1.788 3.68-2.657 6.416-2.657 1.76 0 3.168.424 4.3 1.295 1.136.874 1.892 2.048 2.312 3.589l.378 1.386 10.156-2-.316-1.527c-.793-3.83-2.612-6.885-5.407-9.08-2.779-2.181-6.622-3.288-11.423-3.288-3.681 0-6.829.698-9.35 2.072-3.293 1.78-5.83 4.374-7.539 7.709-1.676 3.272-2.526 7.047-2.526 11.22 0 3.842.757 7.452 2.25 10.731 1.534 3.37 3.864 6.001 6.925 7.82 3.028 1.798 6.605 2.71 10.633 2.71 3.15 0 6.298-.634 9.36-1.884 3.071-1.255 5.471-2.75 7.134-4.444l.442-.45V60.34h-18.75v9.47zM227.07 42.77l-7.401 13.369-7.555-13.37h-12.148l14.368 23.91v17.06h10.329V66.732L239.08 42.77zM25.537 34.675c.583.244 1.44.366 2.569.366.935 0 1.693-.112 2.274-.336.58-.223 1.044-.523 1.39-.9.348-.377.586-.84.714-1.387.13-.548.194-1.485.194-2.811v-5.804h-2.387v6.113c0 .874-.035 1.5-.105 1.876-.07.377-.277.695-.62.954-.345.259-.856.388-1.533.388-.667 0-1.192-.137-1.577-.411a1.778 1.778 0 0 1-.73-1.09c-.059-.28-.088-.896-.088-1.846v-5.984H23.25v5.894c0 1.236.078 2.17.234 2.804.107.427.33.835.669 1.224.338.39.8.706 1.383.95zM36 32.73h2.27v2.12H36zm11.47-.022c-.389.304-.968.456-1.737.456-.726 0-1.302-.17-1.73-.512-.427-.342-.71-.877-.85-1.606l-2.323.211c.156 1.236.634 2.177 1.435 2.823.801.645 1.949.968 3.444.968 1.027 0 1.884-.134 2.572-.403.689-.269 1.22-.68 1.597-1.232a3.103 3.103 0 0 0 .565-1.779c0-.698-.158-1.285-.472-1.76-.315-.475-.75-.849-1.306-1.123s-1.416-.539-2.577-.795-1.893-.503-2.194-.739c-.237-.186-.355-.41-.355-.67 0-.287.127-.515.38-.686.392-.267.935-.4 1.629-.4.671 0 1.176.125 1.511.373.336.249.556.657.658 1.225l2.387-.098c-.038-1.015-.431-1.826-1.182-2.434-.75-.608-1.866-.912-3.35-.912-.909 0-1.685.128-2.327.384-.642.256-1.134.63-1.476 1.12a2.708 2.708 0 0 0-.512 1.578c0 .874.363 1.616 1.089 2.224.516.432 1.414.796 2.693 1.093.995.23 1.632.391 1.912.482.408.136.695.295.859.478a.966.966 0 0 1 .246.667c0 .407-.195.763-.585 1.067zm5.79.022h2.27v2.12h-2.27zm17.442 1.889c.704-.211 1.263-.505 1.678-.882.548-.498.97-1.148 1.266-1.952.241-.658.362-1.442.362-2.352 0-1.035-.128-1.905-.386-2.611a4.78 4.78 0 0 0-1.13-1.79 4.013 4.013 0 0 0-1.782-1.018c-.516-.14-1.266-.21-2.25-.21h-4.363v11.048h4.492c.882 0 1.587-.077 2.113-.233zm-4.218-1.628v-7.319h1.073c.973 0 1.626.035 1.96.106.446.09.814.264 1.105.52s.516.613.677 1.07c.161.457.242 1.113.242 1.967 0 .854-.08 1.529-.242 2.024-.161.495-.37.85-.625 1.066-.256.216-.577.37-.964.46-.296.07-.777.105-1.443.105h-1.782zm19.366-.001h-6.604v-3.007h5.935v-1.861h-5.935v-2.45h6.379v-1.869h-8.766v11.05h8.992zm10.967-2.988a3.1 3.1 0 0 0 1.004-1.089c.263-.462.395-1.032.395-1.71 0-.88-.229-1.597-.685-2.153a3.12 3.12 0 0 0-1.702-1.081c-.44-.11-1.387-.166-2.839-.166h-3.83v11.05h2.387v-4.168h1.556c1.081 0 1.906-.053 2.476-.159.42-.085.832-.26 1.238-.524zm-2.077-1.368c-.317.116-.946.174-1.887.174h-1.306v-3.136H92.7c.86 0 1.433.025 1.718.076.387.065.706.228.96.49.252.261.378.593.378.994 0 .327-.09.614-.27.86-.18.246-.429.427-.746.542zm7.411 3.709h4.726l1.033 2.51h2.596l-4.733-11.05h-2.524l-4.605 11.05h2.532l.975-2.51zm2.331-5.962l1.63 4.1h-3.227l1.597-4.1zm10.512 3.859h.484c.548 0 .949.041 1.201.124.253.083.492.236.718.46.226.223.645.765 1.258 1.624l1.726 2.404h2.855l-1.444-2.155c-.57-.86-1.023-1.457-1.359-1.794a5.53 5.53 0 0 0-1.278-.927c1.038-.14 1.817-.481 2.339-1.021.521-.54.782-1.225.782-2.054 0-.653-.172-1.234-.516-1.741a2.688 2.688 0 0 0-1.375-1.06c-.573-.198-1.49-.297-2.754-.297h-5.024v11.05h2.386V30.24zm0-4.568h1.863c.967 0 1.548.013 1.741.038.388.06.687.205.9.433.212.23.318.53.318.901 0 .332-.08.608-.242.83a1.281 1.281 0 0 1-.669.467c-.285.09-1 .135-2.145.135h-1.766v-2.804zm15.406 9.18v-9.18h3.5v-1.869h-9.395v1.87h3.508v9.18zm8.052-8.697l2.339 8.697h2.298l2.347-8.697v8.697h2.218V23.803h-3.581l-2.121 7.537-2.145-7.537h-3.573v11.05h2.218zm21.39 6.835h-6.605v-3.007h5.936v-1.861h-5.936v-2.45h6.38v-1.869h-8.767v11.05h8.992zm5.092-5.343l4.766 7.205h2.395V23.803h-2.217v7.379l-4.839-7.379h-2.323v11.05h2.218zm13.173 7.205h2.387v-9.18h3.5v-1.869H174.6v1.87h3.508zm18.933.188c1.737 0 3.124-.503 4.162-1.51 1.038-1.008 1.556-2.403 1.556-4.187 0-1.799-.523-3.203-1.568-4.213-1.046-1.01-2.44-1.515-4.181-1.515-.963 0-1.812.145-2.55.437a4.63 4.63 0 0 0-1.527.995 5.198 5.198 0 0 0-1.101 1.515c-.36.763-.54 1.708-.54 2.833 0 1.76.518 3.14 1.556 4.142 1.038 1.003 2.435 1.504 4.194 1.504zm-2.386-8.573c.602-.63 1.395-.945 2.379-.945.983 0 1.772.311 2.367.934.594.623.89 1.568.89 2.834 0 1.281-.305 2.242-.915 2.883-.61.64-1.39.96-2.342.96-.952 0-1.737-.322-2.355-.968-.619-.645-.928-1.594-.928-2.845 0-1.271.302-2.222.904-2.853zm13.196 3.69h4.936v-1.87h-4.936v-2.615h5.718v-1.869h-8.105v11.05h2.387z" fill="#fff"/><path fill="#007936" d="M262 0h438v108H262z"/><path d="M288.265 47.903c1.103.716 2.404 1.073 3.906 1.073 1.502 0 2.878-.355 4.13-1.065 1.251-.711 2.292-1.786 3.123-3.228.83-1.44 1.363-3.262 1.597-5.463.213-2.17.051-3.982-.487-5.433-.538-1.45-1.36-2.54-2.468-3.265-1.108-.725-2.412-1.088-3.914-1.088-1.502 0-2.878.359-4.13 1.073-1.251.716-2.287 1.8-3.107 3.25-.82 1.45-1.337 3.272-1.55 5.463-.223 2.182-.071 3.995.456 5.44.527 1.447 1.342 2.528 2.444 3.243zm-.567-8.683c.256-2.451.935-4.34 2.037-5.666 1.102-1.326 2.5-1.988 4.194-1.988 1.682 0 2.955.662 3.818 1.988s1.166 3.215.91 5.666c-.255 2.491-.942 4.38-2.06 5.666-1.12 1.285-2.52 1.929-4.202 1.929-1.672 0-2.937-.644-3.794-1.929-.858-1.286-1.159-3.175-.903-5.666zm23.653-11.167a8.013 8.013 0 0 0-1.167-.09c-.713 0-1.384.146-2.012.436s-1.15.737-1.566 1.343c-.415.605-.67 1.393-.767 2.364l-.223 2.191h-2.237l-.16 1.622h2.237l-1.246 12.727h2.237l1.278-12.727h2.843l.16-1.622h-2.844l.224-2.16c.074-.622.221-1.096.44-1.427.218-.33.478-.56.782-.69a2.3 2.3 0 0 1 .918-.195c.277 0 .562.035.855.104a4.7 4.7 0 0 1 .839.285l.607-1.86a6.378 6.378 0 0 0-1.198-.3zm8.089-.09c-.713 0-1.384.146-2.012.436s-1.15.737-1.566 1.343c-.415.605-.67 1.393-.767 2.364l-.224 2.191h-2.236l-.16 1.622h2.237l-1.246 12.727h2.236l1.278-12.727h2.844l.16-1.622h-2.844l.224-2.16c.074-.622.22-1.096.44-1.427.217-.33.478-.56.782-.69a2.3 2.3 0 0 1 .918-.195c.277 0 .562.035.855.104a4.7 4.7 0 0 1 .839.285l.607-1.86a6.375 6.375 0 0 0-1.198-.3 8.028 8.028 0 0 0-1.167-.09zm6.183 2.942c.447 0 .823-.13 1.127-.39.303-.26.476-.62.519-1.08.042-.441-.056-.802-.296-1.081-.24-.28-.594-.42-1.062-.42-.48 0-.86.147-1.142.442a1.75 1.75 0 0 0-.488 1.058c-.032.44.069.796.303 1.065.235.271.58.406 1.039.406zm.783 3.362h-2.269L322.7 48.646h2.268zm5.792 4.203c.448-.8.99-1.406 1.63-1.816.639-.41 1.314-.615 2.028-.615.778 0 1.422.239 1.933.72.512.48.847 1.13 1.007 1.95l2.3-.21a6.086 6.086 0 0 0-.479-1.74 4.811 4.811 0 0 0-.999-1.457 4.667 4.667 0 0 0-1.51-.998c-.585-.245-1.256-.367-2.012-.367-1.14 0-2.218.295-3.235.886-1.017.59-1.872 1.443-2.564 2.558-.693 1.117-1.119 2.47-1.278 4.06-.15 1.552.01 2.892.48 4.022.468 1.131 1.155 2 2.06 2.605s1.922.908 3.051.908c1.086 0 2.064-.223 2.932-.668.867-.445 1.57-1.059 2.108-1.839s.85-1.666.935-2.656h-2.332c-.075.97-.421 1.723-1.04 2.259-.617.535-1.405.802-2.364.802-.81 0-1.496-.222-2.06-.668-.565-.445-.972-1.075-1.222-1.89-.25-.816-.322-1.774-.216-2.874.118-1.18.4-2.172.847-2.973zm21.546-2.755c-.41-.555-.938-.99-1.582-1.305s-1.408-.473-2.292-.473c-1.193 0-2.287.303-3.283.908s-1.819 1.474-2.468 2.604c-.65 1.13-1.055 2.481-1.215 4.052-.159 1.551-.026 2.885.4 4s1.08 1.974 1.964 2.574c.885.6 1.928.9 3.132.9a6.63 6.63 0 0 0 2.667-.532 5.74 5.74 0 0 0 2.102-1.546c.58-.675.992-1.493 1.237-2.454h-2.332c-.213.85-.629 1.499-1.246 1.944-.618.445-1.357.668-2.22.668-.959 0-1.713-.245-2.26-.735-.55-.49-.915-1.159-1.095-2.004-.151-.709-.189-1.49-.124-2.334h9.405a10.45 10.45 0 0 0 .288-2.041 7.453 7.453 0 0 0-.192-2.312 5.41 5.41 0 0 0-.886-1.914zm-6.263.796c.634-.455 1.388-.683 2.261-.683.904 0 1.584.233 2.036.698.453.466.737 1.071.856 1.816.103.664.095 1.377.005 2.124h-7.346c.132-.764.343-1.484.67-2.14.379-.754.885-1.36 1.518-1.815zm26.575-1.704c-.906-.58-1.98-.87-3.227-.87-1.236 0-2.367.285-3.396.856-1.027.57-1.874 1.413-2.54 2.529-.665 1.115-1.084 2.499-1.253 4.15-.171 1.63-.038 3.004.399 4.12.436 1.115 1.113 1.958 2.03 2.529.914.57 1.995.855 3.241.855s2.378-.285 3.396-.855c1.017-.57 1.858-1.414 2.523-2.53.666-1.115 1.084-2.489 1.255-4.12.17-1.63.035-3.004-.408-4.12-.441-1.115-1.115-1.963-2.02-2.544zm.127 6.664c-.181 1.692-.687 3.025-1.517 4-.831.976-1.912 1.464-3.243 1.464-.884 0-1.6-.223-2.149-.668-.549-.445-.93-1.078-1.142-1.898-.213-.822-.261-1.786-.144-2.898.18-1.73.673-3.079 1.478-4.045.803-.964 1.866-1.448 3.187-1.448 1.331 0 2.297.488 2.9 1.464.601.975.811 2.318.63 4.03zm7.57 7.175l1.277-12.727h2.844l.16-1.622h-2.844l.224-2.16c.074-.622.22-1.096.44-1.427.217-.33.479-.56.783-.69.302-.13.609-.195.918-.195.277 0 .561.035.854.104.293.07.572.165.839.285l.607-1.86a6.375 6.375 0 0 0-1.198-.3 8.021 8.021 0 0 0-1.166-.09c-.714 0-1.385.145-2.012.435a3.82 3.82 0 0 0-1.567 1.343c-.415.605-.67 1.393-.766 2.364l-.224 2.191h-2.236l-.16 1.622h2.237l-1.246 12.727h2.236zm26.949-3.106h-9.019v-5.16h8.476v-3.076h-8.476v-5.157h9.02V29.07h-12.58v19.575h12.58zm8.369-10.807l8.898 13.913h3.619V29.071h-3.559V42.61l-8.626-13.54h-3.89v19.576h3.558zM447.48 45.54h-9.018v-5.16h8.475v-3.076h-8.475v-5.157h9.018V29.07h-12.578v19.575h12.578zm14.828-4.86c1.045-.268 1.938-.69 2.64-1.302 1.251-1.09 1.877-2.525 1.877-4.305 0-1.81-.626-3.262-1.878-4.358-1.25-1.095-3.049-1.644-5.39-1.644h-7.24v19.575h3.56v-7.63h2.71l4.317 7.63h4.645l-5.24-7.965zm-6.431-8.532h3.68c1.185 0 2.085.299 2.699.896.613.599.92 1.386.92 2.36 0 .956-.337 1.733-1.011 2.33-.674.6-1.664.898-2.97.898h-3.318v-6.484zm27.661 13.337l.376 3.161h2.895V38.602h-7.811v2.262l4.403.09v.122c0 .995-.193 1.844-.58 2.548a4.064 4.064 0 0 1-1.584 1.62c-.669.379-1.425.567-2.27.567-.994 0-1.87-.287-2.623-.86-.754-.573-1.34-1.372-1.757-2.398s-.626-2.222-.626-3.589c0-1.458.236-2.715.709-3.77s1.105-1.867 1.9-2.436a4.436 4.436 0 0 1 2.639-.851c.845 0 1.6.217 2.27.655s1.26 1.073 1.772 1.908l3.65-.845c-.695-1.709-1.663-2.96-2.904-3.754-1.242-.794-2.777-1.192-4.607-1.192-1.317 0-2.539.234-3.665.701s-2.106 1.149-2.94 2.043c-.835.896-1.486 1.976-1.953 3.244-.468 1.266-.701 2.699-.701 4.297 0 2.021.379 3.788 1.139 5.301.758 1.513 1.78 2.692 3.068 3.536s2.73 1.267 4.328 1.267c1.276 0 2.322-.327 3.137-.98.773-.62 1.347-1.494 1.735-2.603zm18.216-16.415l-4.502 7.804-4.335-7.803h-4.223l6.727 11.492v8.083h3.558v-8.083l6.967-11.492zm28.306 16.47h-9.02v-5.16h8.476v-3.076h-8.475v-5.157h9.018V29.07h-12.578v19.575h12.578zm8.396-5.189h8.022v-3.046h-8.022v-5.157h8.776V29.07h-12.336v19.575h3.56zm16.076 0h8.023v-3.046h-8.023v-5.157h8.776V29.07h-12.336v19.575h3.56zM567.05 29.07h3.56v19.58h-3.56zm20.505 19.183c1.166-.543 2.063-1.324 2.691-2.344.629-1.02.942-2.26.942-3.718h-3.8c0 1.056-.349 1.923-1.047 2.601-.7.68-1.687 1.02-2.964 1.02-.995 0-1.84-.283-2.533-.846-.695-.563-1.225-1.367-1.591-2.413-.367-1.046-.551-2.292-.551-3.74 0-1.538.209-2.82.626-3.846s.978-1.792 1.682-2.3a3.954 3.954 0 0 1 2.367-.76c.995 0 1.835.316 2.518.95.684.633 1.182 1.462 1.494 2.487l3.8-.693c-.362-1.77-1.184-3.207-2.465-4.314-1.283-1.105-3.065-1.658-5.347-1.658-1.648 0-3.114.385-4.396 1.154-1.282.77-2.288 1.905-3.016 3.408s-1.093 3.36-1.093 5.572c0 2.142.352 3.977 1.056 5.505.703 1.528 1.691 2.702 2.963 3.521s2.767 1.229 4.486 1.229c1.619 0 3.01-.272 4.178-.815zM595.3 29.07h3.56v19.58h-3.56zm8.894 19.576h12.578V45.54h-9.018v-5.16h8.475v-3.076h-8.475v-5.157h9.018V29.07h-12.578zm29.904-6.036l-8.625-13.54h-3.891v19.576h3.558V34.733l8.898 13.913h3.62V29.071h-3.56zm13.954-9.943a3.954 3.954 0 0 1 2.367-.76c.995 0 1.835.316 2.518.949.684.634 1.182 1.463 1.494 2.488l3.8-.693c-.362-1.77-1.184-3.207-2.465-4.314-1.283-1.105-3.065-1.658-5.347-1.658-1.648 0-3.114.385-4.396 1.153-1.282.77-2.288 1.906-3.016 3.409s-1.093 3.36-1.093 5.572c0 2.142.352 3.977 1.056 5.505.703 1.528 1.691 2.702 2.963 3.521s2.767 1.229 4.486 1.229c1.619 0 3.01-.272 4.178-.815 1.166-.543 2.063-1.324 2.691-2.344.629-1.02.942-2.26.942-3.718h-3.8c0 1.056-.349 1.923-1.047 2.601-.7.68-1.687 1.02-2.964 1.02-.995 0-1.84-.283-2.533-.846-.695-.563-1.225-1.367-1.591-2.413-.367-1.046-.551-2.292-.551-3.74 0-1.538.209-2.82.626-3.846s.977-1.792 1.682-2.3zm24.49-3.597l-4.502 7.804-4.335-7.803h-4.223l6.727 11.492v8.083h3.559v-8.083l6.966-11.492zm-365.92 47.333a1.686 1.686 0 0 1-1.245.527c-.462 0-.852-.083-1.168-.248a5.964 5.964 0 0 1-1.033-.717l-.515-.464a17.04 17.04 0 0 0 1.276-1.836c.8-1.322 1.47-2.787 2.014-4.395l-2.383-1.327a23.463 23.463 0 0 1-1.765 3.536 15.49 15.49 0 0 1-1.437 1.951l-3.8-3.429c.934-.36 1.741-.757 2.418-1.19.884-.57 1.547-1.213 1.99-1.932.442-.718.664-1.53.664-2.435a3.97 3.97 0 0 0-.77-2.368c-.512-.713-1.249-1.282-2.209-1.704-.96-.422-2.119-.633-3.476-.633-1.407 0-2.604.214-3.59.64-.985.428-1.734 1.001-2.246 1.72s-.77 1.52-.77 2.405c0 .815.204 1.594.612 2.337a7.51 7.51 0 0 0 1.56 1.976l.49.443c-1.483.253-2.695.678-3.634 1.277-1.262.803-1.893 1.98-1.893 3.528 0 .854.209 1.646.626 2.375.417.73.998 1.365 1.742 1.908.744.543 1.604.965 2.579 1.267s2.02.452 3.136.452c1.428 0 2.763-.259 4.004-.777a11.247 11.247 0 0 0 2.726-1.63c.874.777 1.704 1.372 2.485 1.766.844.428 1.754.64 2.73.64 1.528 0 2.678-.484 3.453-1.454.774-.97 1.181-2.275 1.222-3.913h-3.228c-.03.784-.219 1.352-.565 1.704zm-13.438-12.947c.458-.427 1.124-.641 1.999-.641.754 0 1.365.196 1.832.588.468.392.701.89.701 1.493 0 .523-.138.995-.414 1.418-.277.422-.704.817-1.282 1.184-.393.25-.868.495-1.412.737l-.692-.624c-.483-.443-.84-.87-1.07-1.282a2.64 2.64 0 0 1-.348-1.312c0-.613.229-1.134.687-1.561zm3.763 12.712c-.955.449-1.995.672-3.121.672-.885 0-1.64-.135-2.263-.407s-1.1-.63-1.432-1.078a2.461 2.461 0 0 1-.498-1.5c0-.805.344-1.451 1.033-1.938.568-.403 1.44-.676 2.584-.836l4.875 4.414a8.91 8.91 0 0 1-1.178.673zm38.192-5.79c1.25-1.09 1.877-2.526 1.877-4.305 0-1.81-.626-3.263-1.877-4.359-1.252-1.095-3.05-1.643-5.392-1.643h-7.238v19.574h3.559v-7.63h2.71l4.317 7.63h4.645l-5.24-7.965c1.045-.269 1.937-.69 2.639-1.302zm-9.071-7.231h3.679c1.186 0 2.086.299 2.7.897.612.598.92 1.385.92 2.36 0 .956-.338 1.732-1.01 2.33-.675.599-1.665.897-2.972.897h-3.317v-6.484zm15.412 16.498h12.577v-3.106h-9.018V71.38h8.475v-3.076h-8.475v-5.157h9.018v-3.076h-12.578zm29.904-6.036l-8.626-13.538h-3.89v19.574h3.558V65.732l8.897 13.913h3.62V60.071h-3.56zm8.873 6.036h12.578v-3.106h-9.019V71.38h8.476v-3.076h-8.476v-5.157h9.019v-3.076h-12.578zm39.487-19.575l-4.581 14.91-4.438-13.612h-2.413l-4.206 13.623-4.298-14.92h-3.982l6.394 19.574h3.74l3.665-11.051 3.664 11.051h3.74l6.726-19.574zm10.483 0l-6.666 19.575h3.77l1.389-4.223h7.268l1.358 4.223h3.74l-6.395-19.574h-4.464zm-.603 12.668l2.775-8.415 2.744 8.415h-5.52zm27.953-2.156a5.321 5.321 0 0 0-1.976-.83c1.117-.322 1.984-.875 2.602-1.659s.928-1.73.928-2.835c0-.955-.247-1.825-.74-2.61-.493-.783-1.236-1.41-2.232-1.876-.995-.468-2.247-.701-3.755-.701h-7.902v19.574h7.932c1.377 0 2.521-.163 3.431-.49.91-.326 1.63-.759 2.157-1.297.528-.538.9-1.123 1.116-1.757a5.793 5.793 0 0 0 .324-1.885c0-.794-.168-1.498-.505-2.111s-.797-1.121-1.38-1.523zm-9.516-7.435h4.223c1.056 0 1.852.233 2.39.701s.806 1.088.806 1.862c0 .815-.273 1.456-.821 1.923s-1.35.702-2.405.702h-4.193v-5.188zm6.779 12.705c-.527.458-1.36.687-2.496.687h-4.282V71.44h4.282c1.106 0 1.93.234 2.473.701.543.468.815 1.089.815 1.862 0 .775-.264 1.391-.792 1.848zm12.63-15.782h-3.56v19.575h11.612v-3.106h-8.052zm11.342 19.575h12.578v-3.106h-9.018V71.38h8.476v-3.076h-8.476v-5.157h9.018v-3.076h-12.578zm26.225 0h12.578v-3.106h-9.018V71.38h8.475v-3.076h-8.475v-5.157h9.018v-3.076h-12.578zm29.905-6.036l-8.626-13.538h-3.89v19.574h3.558V65.732l8.898 13.913h3.619V60.071h-3.559zm8.873 6.036h12.578v-3.106h-9.018V71.38h8.476v-3.076h-8.476v-5.157h9.018v-3.076h-12.578zm30.045-9.267c1.251-1.09 1.877-2.526 1.877-4.305 0-1.81-.626-3.263-1.878-4.359-1.25-1.095-3.049-1.643-5.39-1.643h-7.24v19.574h3.56v-7.63h2.71l4.317 7.63h4.645l-5.24-7.965c1.044-.269 1.937-.69 2.638-1.302zm-9.071-7.231h3.68c1.185 0 2.085.299 2.699.897.613.598.92 1.385.92 2.36 0 .956-.337 1.732-1.011 2.33-.674.599-1.664.897-2.97.897h-3.318v-6.484zm20.694.61a4.436 4.436 0 0 1 2.639-.851c.845 0 1.6.219 2.27.656.668.437 1.26 1.073 1.772 1.907l3.65-.844c-.695-1.71-1.663-2.961-2.904-3.755-1.242-.794-2.777-1.192-4.607-1.192-1.317 0-2.538.234-3.664.701s-2.107 1.149-2.942 2.044c-.834.895-1.485 1.976-1.952 3.242-.468 1.267-.701 2.7-.701 4.298 0 2.02.379 3.788 1.139 5.301.758 1.514 1.78 2.692 3.068 3.536s2.73 1.267 4.328 1.267c1.277 0 2.322-.326 3.137-.98.773-.62 1.347-1.494 1.735-2.603l.376 3.161h2.896V69.601h-7.812v2.263l4.403.09v.12c0 .996-.193 1.845-.58 2.55-.387.703-.915 1.244-1.584 1.62s-1.424.566-2.27.566c-.994 0-1.87-.287-2.623-.86-.754-.573-1.34-1.372-1.757-2.398s-.626-2.222-.626-3.589c0-1.458.236-2.714.709-3.77s1.105-1.867 1.9-2.436zm20.681 4.117l-4.335-7.803h-4.223l6.727 11.491v8.083h3.558v-8.083l6.967-11.491h-4.192z" fill="#fff"/></svg>