<svg xmlns="http://www.w3.org/2000/svg" viewBox="0 0 52.5 37.59"><g fill="#3cb4c4"><path d="M18.953 14.849l-4.65 3.723v6.283c.03.201.215.342.417.319h5.646a.378.378 0 0 0 .417-.319v-9.638l-1.3-.368h-.53zm11.502 2.921h-5.649a.375.375 0 0 0-.415.319v6.766c.03.202.213.344.415.321h5.648a.376.376 0 0 0 .415-.321v-6.761a.375.375 0 0 0-.415-.319l.001-.005zm8.207-6.893l-1.025-.659-3.711 3.115v11.522c.03.2.213.341.415.319h5.648a.378.378 0 0 0 .417-.319V10.988c-.024.01-.046.024-.07.032a1.892 1.892 0 0 1-1.672-.138l-.002-.005z"/><path d="M12.923 18.093a.976.976 0 0 0 .6-.2l5.313-4.255 9.3 2.633c.31.09.644.028.9-.168L37.6 8.915l2 1.289a.4.4 0 0 0 .348.028.238.238 0 0 0 .17-.237l-.436-3.735a.3.3 0 0 0-.343-.221l-4.856.335a.308.308 0 0 0-.271.169.169.169 0 0 0-.013.094c.01.069.05.129.11.163l2.008 1.293-8.134 6.827-9.287-2.628a1.017 1.017 0 0 0-.889.157l-5.684 4.554a.542.542 0 0 0 .024.906c.168.12.37.182.576.179v.005z"/></g><path d="M52.5 33.638V0H0v33.638h21.43V35.8h-11.2v1.789h31.366V35.8H30.63v-2.162H52.5zM3.84 28.68V3.844h44.818v24.838L3.84 28.68z" fill="#094f58"/></svg>