<svg xmlns="http://www.w3.org/2000/svg" viewBox="0 0 352.27 147.76"><path fill="#005191" d="M149.104 54.85h16.44c5.355 0 9.32.673 11.894 2.017 1.824.957 3.31 2.273 4.461 3.948s1.727 3.743 1.727 6.203c0 2.53-.696 4.769-2.086 6.717-1.39 1.948-3.053 3.264-4.99 3.948v.136c3.076.752 5.514 2.12 7.314 4.102 1.801 1.982 2.701 4.432 2.701 7.348 0 4.558-1.777 8.135-5.332 10.733-2.848 2.097-6.972 3.144-12.373 3.144h-19.756V54.85zm15.688 19.517c1.413 0 2.496-.062 3.248-.188s1.435-.404 2.05-.837c1.595-1.14 2.393-2.69 2.393-4.649 0-2.005-.798-3.497-2.392-4.477-.639-.41-1.3-.673-1.983-.786s-1.698-.171-3.043-.171h-4.681v11.108h4.408zm1.812 20.166c1.412 0 2.575-.085 3.487-.256a6.388 6.388 0 0 0 2.529-1.077c1.64-1.094 2.46-2.7 2.46-4.82 0-2.05-.82-3.656-2.46-4.818a6.385 6.385 0 0 0-2.53-1.077c-.911-.17-2.074-.256-3.486-.256h-6.22v12.304h6.22zm26.08-39.683h31.274v9.024h-19.995v9.878h18.902v9.023h-18.902v11.211h20.645v9.16h-31.924V54.85zm38.896 0h16.373c7.883 0 14.093 1.937 18.627 5.811 5.218 4.307 7.828 10.414 7.828 18.32 0 7.907-2.61 14.048-7.828 18.423-4.58 3.828-10.789 5.742-18.627 5.742H231.58V54.85zm17.022 38.692c4.306 0 7.668-1.162 10.083-3.486 2.849-2.666 4.272-6.358 4.272-11.075 0-4.785-1.423-8.556-4.272-11.313-2.461-2.301-5.822-3.452-10.083-3.452h-5.742v29.326h5.742zm32.162-38.692h31.274v9.024h-19.995v9.878h18.902v9.023h-18.902v11.211h20.645v9.16h-31.924V54.85zm41.221 33.6c1.709 1.777 3.76 3.236 6.152 4.374 2.393 1.14 4.534 1.71 6.426 1.71s3.44-.44 4.648-1.316c1.208-.878 1.812-2.091 1.812-3.64a3.72 3.72 0 0 0-.428-1.744c-.284-.547-.592-.985-.922-1.315-.331-.331-.82-.667-1.47-1.01a20.932 20.932 0 0 0-1.419-.7 44.182 44.182 0 0 0-1.435-.564l-3.384-1.23c-2.005-.729-3.327-1.23-3.965-1.504-.068-.023-.296-.12-.683-.29s-.684-.308-.889-.41-.519-.263-.94-.479a11.51 11.51 0 0 1-1.094-.633c-.307-.205-.655-.455-1.042-.752s-.752-.604-1.094-.923c-2.53-2.37-3.794-5.48-3.794-9.33 0-2.188.467-4.182 1.401-5.982s2.154-3.327 3.658-4.58c3.03-2.575 7.268-3.863 12.714-3.863 2.757 0 5.583.576 8.477 1.727s5.184 2.569 6.87 4.255l-4.82 7.895c-1.435-1.435-3.15-2.608-5.144-3.52-1.993-.912-3.879-1.367-5.656-1.367-1.892 0-3.412.37-4.562 1.11-1.152.741-1.727 1.818-1.727 3.23 0 .684.137 1.3.41 1.846s.701 1.02 1.281 1.419c.582.399 1.078.695 1.488.888s.98.439 1.709.735c.774.32 2.067.815 3.88 1.487 1.81.673 2.922 1.088 3.332 1.248 2.917 1.048 5.16 2.358 6.733 3.93 2.507 2.507 3.76 5.606 3.76 9.297 0 2.28-.501 4.427-1.504 6.444s-2.38 3.72-4.136 5.11c-3.327 2.665-7.69 3.998-13.09 3.998-3.236 0-6.346-.694-9.332-2.085-2.985-1.39-5.593-3.121-7.827-5.195l5.606-8.272z"/><path fill="#58666F" d="M155.327 126.853c-.731.595-1.603.765-2.997.765h-3.224V115.89h2.65c1.184 0 2.09.085 2.787.594.697.51 1.133 1.157 1.133 2.346s-.82 2.26-1.9 2.566c1.69.273 2.823 1.292 2.823 2.908 0 1.19-.522 1.955-1.272 2.55zm-1.568-9.774c-.47-.255-.993-.356-1.917-.356h-1.794v4.402h1.62c.958 0 1.638-.103 2.091-.425.47-.323.959-.816.959-1.836s-.471-1.53-.959-1.785zm.784 5.355c-.697-.46-1.655-.494-2.527-.494h-1.968v4.845h1.968c.872 0 1.83-.017 2.527-.476.697-.476 1.046-1.07 1.046-1.955 0-.9-.349-1.445-1.046-1.92zm12.808.458c0 1.327-.052 2.5-.854 3.485-.784.952-1.934 1.445-3.415 1.445s-2.63-.493-3.415-1.445c-.802-.986-.854-2.158-.854-3.485v-7.002h.94v7.088c0 .883.018 1.955.61 2.753.576.765 1.5 1.242 2.72 1.242 1.22 0 2.143-.477 2.718-1.242.592-.798.61-1.87.61-2.753v-7.088h.94v7.002zm3.817 4.726h-.941V115.89h.941v11.728zm8.19 0h-5.228V115.89h.942v10.895h4.286v.833zm9.358-1.615c-.784.765-2.3 1.615-4.391 1.615h-3.311V115.89h3.31c2.092 0 3.608.85 4.392 1.614.784.765 1.83 2.125 1.83 4.25s-1.046 3.484-1.83 4.249zm-.82-8.023c-.766-.697-2.003-1.257-3.658-1.257h-2.283v10.062h2.283c1.655 0 2.892-.544 3.659-1.241.766-.696 1.673-1.92 1.673-3.79s-.906-3.077-1.673-3.774zm5.821 9.638h-.94V115.89h.94v11.728zm12.773 0h-.854l-8.015-10.284v10.284h-.94V115.89h.94l7.928 10.113V115.89h.942v11.728zm13.245-1.615s-1.482 1.82-4.967 1.82-6.064-2.585-6.064-6.07 2.579-6.033 6.012-6.033c3.015 0 4.34 1.529 4.792 2.039l-.645.68c-.871-1.02-2.091-1.886-4.147-1.886-2.823 0-5.002 1.971-5.002 5.2s2.266 5.202 5.14 5.202c2.877 0 3.957-1.292 3.957-1.292v-3.179h-3.694v-.833h4.618v4.352zm12.93 1.615h-6.656V115.89h6.534v.833h-5.593v4.249h5.28v.833h-5.28v4.98h5.715v.833zm12.129 0h-.854l-8.016-10.284v10.284h-.94V115.89h.94l7.929 10.113V115.89h.941v11.728zm9.619 0h-6.656V115.89h6.534v.833h-5.593v4.249h5.28v.833h-5.28v4.98h5.715v.833zm9.55 0h-1.202l-3.554-5.44h-1.535v5.44h-.94V115.89h2.788c2.265 0 3.746 1.19 3.746 3.144s-1.446 2.89-2.962 3.11l3.66 5.474zm-2.579-10.403c-.644-.476-1.428-.492-2.387-.492h-1.325v4.623h1.324c.96 0 1.744-.017 2.388-.476.662-.477.889-1.071.889-1.836s-.227-1.36-.889-1.82zm14.342 8.788s-1.481 1.82-4.967 1.82-6.064-2.585-6.064-6.07 2.579-6.033 6.012-6.033c3.014 0 4.34 1.529 4.792 2.039l-.645.68c-.871-1.02-2.09-1.886-4.147-1.886-2.823 0-5.002 1.971-5.002 5.2s2.266 5.202 5.141 5.202 3.956-1.292 3.956-1.292v-3.179h-3.694v-.833h4.618v4.352zm10.195-10.113l-4.2 6.714v5.014h-.94v-5.014l-4.183-6.714h1.081l3.572 5.864 3.572-5.864h1.098zm12.756 10.113c-.784.765-2.3 1.615-4.392 1.615h-3.31V115.89h3.31c2.091 0 3.608.85 4.392 1.614.784.765 1.83 2.125 1.83 4.25s-1.046 3.484-1.83 4.249zm-.82-8.023c-.766-.697-2.003-1.257-3.658-1.257h-2.284v10.062h2.284c1.655 0 2.892-.544 3.659-1.241.766-.696 1.673-1.92 1.673-3.79s-.907-3.077-1.673-3.774zm13.941 9.638h-1.097l-1.482-3.518h-5.732l-1.5 3.518h-.993l5.141-11.763h.523l5.14 11.763zm-2.944-4.368l-2.51-6.001-2.509 6h5.019zm9.723-6.527h-3.572v10.895h-.941v-10.895h-3.573v-.833h8.086v.833zm9.498 10.895h-1.098l-1.481-3.518h-5.733l-1.499 3.518h-.993l5.14-11.763h.523l5.14 11.763zm-2.945-4.368l-2.51-6.001-2.508 6h5.018zm-169.367 23.368h-6.657V134.89h6.535v.833h-5.593v4.249h5.28v.833h-5.28v4.98h5.715v.833zm10.02 0h-1.132l-3.416-5.389-3.415 5.39h-1.133l3.956-6.035-3.66-5.694h1.098l3.154 5.065 3.154-5.065h1.098l-3.66 5.694 3.956 6.034zm10.63-1.615c-.87.935-2.265 1.82-4.443 1.82-3.485 0-6.064-2.482-6.064-6.053 0-3.569 2.666-6.05 6.064-6.05 2.091 0 3.486.85 4.357 1.699l-.61.68c-.61-.765-2.004-1.546-3.747-1.546-2.962 0-5.053 2.124-5.053 5.183 0 3.06 2.09 5.219 5.053 5.219 1.655 0 2.962-.611 3.833-1.547l.61.595zm11.327 1.615h-.94v-5.864h-7.44v5.864h-.942V134.89h.941v5.03h7.44v-5.03h.942v11.728zm12.373 0h-1.098l-1.481-3.518H191.8l-1.499 3.518h-.993l5.14-11.763h.523l5.14 11.763zm-2.945-4.368l-2.51-6.001-2.508 6h5.018zm14.325 4.368h-.855l-8.015-10.284v10.284h-.94V134.89h.94l7.928 10.113V134.89h.942v11.728zm13.244-1.615s-1.482 1.82-4.967 1.82-6.065-2.585-6.065-6.07 2.58-6.033 6.013-6.033c3.015 0 4.339 1.529 4.792 2.039l-.645.68c-.872-1.02-2.091-1.886-4.147-1.886-2.823 0-5.002 1.971-5.002 5.2s2.266 5.202 5.14 5.202c2.877 0 3.957-1.292 3.957-1.292v-3.179h-3.695v-.833h4.619v4.352zm9.445 1.615h-6.656V134.89h6.534v.833h-5.594v4.249h5.28v.833h-5.28v4.98h5.716v.833zm8.783.204a4.14 4.14 0 0 1-3.677-2.108l.732-.51c.435.782 1.481 1.82 3.032 1.82s2.806-.936 2.806-2.465c0-1.53-1.604-2.109-2.3-2.38-.697-.272-1.481-.595-1.97-.85-.47-.255-1.742-1.02-1.742-2.72 0-1.7 1.516-2.89 3.537-2.89s3.032 1.36 3.137 1.53l-.662.562c-.453-.562-1.15-1.276-2.544-1.276-1.395 0-2.51.714-2.51 2.04s.941 1.853 1.795 2.21 2.196.9 2.475 1.054c.279.153 1.742.934 1.742 2.72s-1.516 3.263-3.85 3.263zm11.641-6.493c-.697.595-1.638.815-2.77.815h-1.813v5.474h-.94V134.89h2.752c1.133 0 2.074.22 2.77.815s1.099 1.292 1.099 2.311c0 1.021-.4 1.717-1.098 2.313zm-.732-4.08c-.488-.34-1.132-.526-2.003-.526h-1.848v4.588h1.848c.87 0 1.515-.186 2.003-.526.471-.34.836-.969.836-1.768 0-.816-.365-1.428-.836-1.768zm10.578 10.369h-6.657V134.89h6.534v.833h-5.593v4.249h5.28v.833h-5.28v4.98h5.715v.833zm12.076-1.615c-.871.935-2.265 1.82-4.444 1.82-3.485 0-6.064-2.482-6.064-6.053 0-3.569 2.667-6.05 6.064-6.05 2.091 0 3.486.85 4.357 1.699l-.61.68c-.61-.765-2.005-1.546-3.747-1.546-2.962 0-5.054 2.124-5.054 5.183 0 3.06 2.092 5.219 5.054 5.219 1.655 0 2.963-.611 3.834-1.547l.61.595zm2.945 1.615h-.94V134.89h.94v11.728zm9.061-10.895h-5.158v4.606h4.845v.833h-4.845v5.456h-.94V134.89h6.098v.833zm3.12 10.895h-.94V134.89h.94v11.728zm12.72-1.615c-.87.935-2.264 1.82-4.443 1.82-3.485 0-6.064-2.482-6.064-6.053 0-3.569 2.666-6.05 6.064-6.05 2.09 0 3.485.85 4.356 1.699l-.61.68c-.61-.765-2.004-1.546-3.746-1.546-2.962 0-5.054 2.124-5.054 5.183 0 3.06 2.092 5.219 5.054 5.219 1.655 0 2.962-.611 3.834-1.547l.61.595zm11.414 1.615h-1.097l-1.482-3.518h-5.732l-1.499 3.518h-.993l5.14-11.763h.523l5.14 11.763zm-2.944-4.368l-2.51-6.001-2.508 6h5.018zm9.724-6.527h-3.573v10.895h-.941v-10.895h-3.572v-.833h8.086v.833zm2.596 10.895h-.94V134.89h.94v11.728zm8.313.204c-3.259 0-6.1-2.311-6.1-6.052 0-3.739 2.841-6.05 6.1-6.05 3.275 0 6.099 2.311 6.099 6.05 0 3.74-2.824 6.052-6.1 6.052zm0-11.287c-2.736 0-5.106 1.921-5.106 5.219 0 3.264 2.387 5.201 5.106 5.201 2.753 0 5.123-1.937 5.123-5.201 0-3.281-2.37-5.219-5.123-5.219zm18.141 11.083h-.855l-8.015-10.284v10.284h-.94V134.89h.94l7.928 10.113V134.89h.942v11.728z"/><path fill="#3BA6DD" d="M88.87.006c1.631 0 3.27 0 4.907-.006.018 5.279.012 10.558 0 15.837 1.367.006 2.728.012 4.095.012v7.617h5.473c.006 2.534.012 5.067-.006 7.595 2.837 0 5.59.03 8.431.03-.053 7.988.041 15.977-.047 23.966-13.722 13.528-27.39 27.379-41.077 40.941 0-1.827-.047-3.594-.047-5.326V31.078c2.905 0 5.81.006 8.72 0-.006-2.539-.006-5.072-.006-7.612h5.462c.006-2.539 0-5.078.006-7.617 1.36 0 2.721-.006 4.088-.006-.005-5.28-.005-10.558 0-15.837zm46.726 30.554c4.413 0 8.826-.065 13.239.035-.036 4.372-.018 8.737-.012 13.11-1.509-1.344-2.905-2.8-4.301-4.255-5.114 4.908-10.087 9.969-15.071 15.012 4.189.06 8.384-.047 12.573.053-.065 4.442.035 8.89-.06 13.333-1.531-1.284-2.904-2.751-4.318-4.16a2267.028 2267.028 0 0 0-15.053 15.048c4.19.006 8.378.011 12.573-.012.065 4.395-.012 8.79.047 13.185-1.526-1.378-2.928-2.869-4.413-4.283-4.978 5.014-10.016 9.975-14.982 15.006 4.183.077 8.372.006 12.56.006.036 4.519 0 9.038.018 13.557-1.49-1.414-2.928-2.881-4.377-4.336-4.979 5.02-10.034 9.962-14.977 15.017 4.172.112 8.349.018 12.52.053 0 4.401.006 8.808 0 13.21-1.461-1.438-2.905-2.887-4.36-4.325-4.059 3.942-7.93 8.077-12.06 11.942a135.14 135.14 0 0 0-4.413-4.4c3.842-4.137 7.972-8.007 11.93-12.043-1.307-1.379-2.674-2.705-3.982-4.083-4.047 3.96-8.012 8-12.036 11.983-1.403-1.402-2.793-2.816-4.207-4.212-.03 4.212.006 8.42-.018 12.632-7.258.006-14.523-.03-21.781.017-.077-4.46-.018-8.914-.036-13.374 4.307-.006 8.62.012 12.927-.017a567.54 567.54 0 0 0-4.23-4.201c15.648-15.672 31.355-31.285 46.991-46.968a239.403 239.403 0 0 0-4.06-4.048c-15.606 15.684-31.325 31.255-46.932 46.939-1.608-1.508-3.152-3.081-4.696-4.654 20.786-20.768 41.536-41.566 62.37-62.28-1.338-1.374-2.681-2.74-4.072-4.06-19.448 19.366-38.838 38.79-58.256 58.18-.083-2.993-.024-5.986-.042-8.98 23.09-23.112 46.256-46.154 69.316-69.303-1.444-1.437-2.905-2.857-4.319-4.324zm-34.931 87.167c-1.415 1.36-2.475 3.063-4.048 4.265-1.432-1.337-2.799-2.734-4.177-4.118-.03 4.106-.012 8.207-.012 12.313 4.1-.03 8.207.006 12.313-.023-1.378-1.373-2.775-2.74-4.118-4.148 6.104-6.404 12.496-12.543 18.724-18.83-1.361-1.343-2.71-2.686-4.065-4.03-4.896 4.838-9.727 9.734-14.617 14.57zM67.877 76.444c.124 7.388-.064 14.782.095 22.17-2.934 3.046-5.886 6.086-9.003 8.938-1.39-1.373-2.769-2.757-4.177-4.107.053 4.1-.035 8.207.053 12.314 4.095-.047 8.184-.018 12.272-.018-1.478-1.479-2.692-2.975-4.07-4.354 1.471-1.472 3.739-3.498 4.807-4.566 0 3.206.053 5.931.053 9.097-5.892 5.762-11.6 11.713-17.545 17.41-1.302-1.355-2.616-2.693-3.983-3.977-.041 4.089-.012 8.177-.018 12.272 4.536 0 7.92-.035 12.278-.035-2.064-2.064-2.334-2.345-4.125-4.135 13.115-12.938 8.814-8.637 13.352-13.175 0 7.878.047 15.447.047 23.349-10.18.006-20.368 0-30.548 0-.024-30.59.059-61.185-.041-91.774M0 118.834a1173.703 1173.703 0 0 0 17.098-12.814c5.868 4.124 11.47 8.608 17.28 12.814.012 9.598-.006 19.195.006 28.793-11.448.011-22.901-.012-34.349.011-.047-9.603.018-19.206-.035-28.804z"/></svg>