<svg xmlns="http://www.w3.org/2000/svg" viewBox="0 0 208.38 66.78"><path d="M33.6 40.516c-1.2.8-2.5 1.4-3.8 2h12.6v-12.6c-.5 1.3-1.2 2.6-2 3.8l-2.5-2.5c-.8 1.4-1.8 2.7-3 3.8-1.1 1.2-2.4 2.1-3.8 3l2.5 2.5zm.1-13.4c-1.4 3-3.8 5.4-6.8 6.8l3.4 3.4c1.4-.8 2.7-1.8 3.8-3 1.2-1.1 2.1-2.4 3-3.8l-3.4-3.4zm7.9-1c.7-3.2.7-6.4 0-9.6h-1.7c.8 3.1.8 6.4 0 9.6h1.7zm-2.6 0c.8-3.1.8-6.5 0-9.6h-4.8c1.2 3.1 1.2 6.5 0 9.6H39zm1.4-17.2c.8 1.2 1.4 2.5 2 3.8V.216H29.8c1.3.6 2.6 1.2 3.8 2l-2.6 2.5c1.4.8 2.7 1.8 3.8 3 1.2 1.1 2.2 2.4 3 3.8l2.6-2.6zm-13.4-.2c1.5.7 2.9 1.6 4 2.8 1.2 1.2 2.1 2.5 2.8 4l3.4-3.4c-.8-1.4-1.8-2.7-2.9-3.8-1.1-1.1-2.4-2.1-3.8-3l-3.5 3.4zm-1.1-7.9c-3.2-.7-6.4-.7-9.6 0v1.7c3.2-.8 6.4-.8 9.6 0v-1.7zm0 2.7c-3.1-.8-6.4-.8-9.6 0v4.8c3.1-1.2 6.5-1.2 9.6 0v-4.8zm-21.4 7.9c.8-1.4 1.8-2.7 3-3.8 1.1-1.2 2.4-2.1 3.8-3l-2.5-2.5c1.2-.8 2.5-1.4 3.8-2L0 .216v12.6c.5-1.3 1.2-2.6 2-3.8l2.5 2.4zm7.4-6.1c-1.4.8-2.7 1.8-3.8 2.9-1.1 1.2-2.1 2.4-3 3.8l3.4 3.4c.7-1.5 1.6-2.9 2.8-4s2.5-2.1 4-2.8l-3.4-3.3zm-8.6 11.2c-.8 3.1-.8 6.5 0 9.6h4.8c-1.2-3.1-1.2-6.5 0-9.6H3.3zm-2.6 0c-.7 3.2-.7 6.4 0 9.6h1.7c-.8-3.1-.8-6.4 0-9.6H.7zm1.3 17.2c-.8-1.2-1.4-2.5-2-3.8v12.6h12.6c-1.3-.5-2.6-1.2-3.8-2l2.5-2.5c-1.4-.8-2.7-1.8-3.8-3-1.2-1.1-2.1-2.4-3-3.8l-2.5 2.5zm3.2-3.2c.8 1.4 1.8 2.7 3 3.8 1.1 1.1 2.4 2.1 3.8 2.9l3.4-3.4c-1.5-.7-2.9-1.6-4-2.8-1.2-1.2-2.1-2.5-2.8-4l-3.4 3.5zm11.1 3.8c3.1 1.1 6.5 1.1 9.6 0v4.8c-3.1.8-6.5.8-9.6 0v-4.8zm.1 5.7c3.2.8 6.4.8 9.6 0v1.7c-3.2.7-6.4.7-9.6 0v-1.7zM52.2 0h6.5l21.2 29.5V0h6.9v42.6H81L59 12.3v30.3h-6.9V0h.1zm54.3 21.1h6c5.2 0 8.4-2.8 8.4-7.1v-.1c0-4.5-3.1-7-8.5-7h-10.5v35.8h-7.2V0H113c5.2 0 9.2 1.6 11.9 4.2 2.3 2.5 3.5 5.8 3.4 9.2v.1c0 7-4.1 11.2-9.8 12.9l11 16.1H121l-14.5-21.4zM135.7 0h32.4v6.7h-24.3v11h19.8v6.7h-19.8v11.5h24.7v6.7h-32.7L135.7 0zm41.2 0h8.1v35.8h22.5v6.8h-30.6V0z" fill="#0079c2"/><path d="M142.96 58.967h5.701v-1.85h-5.7v-3.05h6.8v-1.85h-8.75v11.65h8.738l.124-1.75h-6.912zm16.834 1.419l-6.3-8.018-.153-.151h-1.747v11.75h1.95V55.59l6.588 8.212.053.065h1.56v-11.65h-1.951zm4.303 3.479l8.749.104v-1.852h-6.8v-3.15h5.7v-1.85h-5.7v-3.05h6.8v-1.85h-8.75zm20.032-7.973c0-.909-.364-1.837-.96-2.431-1-.89-2.248-1.347-3.415-1.244h-5.074v11.65h1.947l.1-9.8h3.128c1.54 0 2.424.664 2.424 1.825 0 1.17-.99 1.925-2.525 1.925h-1.848l4.507 6.08.053.07h2.44l-3.449-4.565a3.63 3.63 0 0 0 2.672-3.51zm7.041 3.359h3.4v2.138c-.817.613-1.742.912-2.825.912h-.485a3.867 3.867 0 0 1-3.54-4.225v-.108c-.045-.99.31-1.95 1-2.703a4.048 4.048 0 0 1 2.825-1.314c1.216 0 2.345.41 3.176 1.149l.236.235 1.225-1.47-.225-.223c-1.312-1.092-2.848-1.64-4.313-1.54h-.205a5.957 5.957 0 0 0-4.158 1.84 5.826 5.826 0 0 0-1.611 4.234v.506a5.54 5.54 0 0 0 1.772 3.885 5.919 5.919 0 0 0 4.205 1.583 7.2 7.2 0 0 0 4.62-1.65l.153-.15V57.4h-5.25v1.85zm14.889-7.034l-3.508 5.164-3.507-5.164h-2.428l4.96 7.13v4.52h1.95v-4.521l4.856-7.13z" fill="#61a40e"/><path d="M60.166 52.61h-7.955l-.257 1.55h3.094l-1.8 9.5h1.757l1.8-9.5h3.103zm2.994 4.55h.15l.236-1.537-.063-.062c-.152-.15-.406-.148-.557-.148a3.361 3.361 0 0 0-2.115 1.414l.016-.17c.028-.307.051-.573.104-.838l.042-.209h-1.565l-.021.15c-.028.196-.056.414-.086.65-.08.62-.17 1.324-.312 2.041l-.94 5.109h1.758l.625-3.544c.293-1.658 1.36-2.956 2.426-2.956a.41.41 0 0 1 .074.032c.06.03.137.068.228.068zm5.2-1.65h-.106c-3.013.104-5.472 2.706-5.369 5.675v.185a2.267 2.267 0 0 0 .604 1.715 2.415 2.415 0 0 0 1.782.774h.001a3.667 3.667 0 0 0 2.81-1.667 9.64 9.64 0 0 0-.097 1.293v.175h1.55v-.175c0-1.103.103-2.303.297-3.466l.831-4.158-.155-.044a7.818 7.818 0 0 0-2.148-.307zm.5 1.401l-.372 2.14c-.395 2.075-1.672 3.36-2.628 3.36-.747 0-1.125-.515-1.125-1.526 0-2.182 1.569-4.026 3.425-4.026.242 0 .474 0 .7.052zm7.686-1.401h-.002c-1.038.095-2.009.607-2.64 1.37l.156-1.17h-1.575v.175c0 .715-.107 1.5-.297 2.168l-1.042 5.625 1.661-.13.726-3.836c.29-1.837 1.62-2.853 2.427-2.853.719 0 1.025.337 1.025 1.126 0 .39 0 .671-.096.966l-.942 4.71h1.656l.932-4.676c0-.19.024-.378.048-.579a4.86 4.86 0 0 0 .052-.62v-.3c0-1.127-.891-1.975-2.09-1.975zm6.814 0h-.088c-1.48-.095-2.778 1.044-2.887 2.575 0 .894.546 1.68 1.497 2.156.835.42 1.003.786 1.005 1.22a1.27 1.27 0 0 1-.463.788 1.13 1.13 0 0 1-.864.26c-.451 0-1.016-.177-1.51-.475l-.182-.11-.526 1.448.14.07c.718.358 1.327.518 1.978.518 1.899 0 3.175-1.075 3.174-2.694-.107-.961-.755-1.823-1.587-2.133-.708-.404-.912-.661-.912-1.148 0-.593.515-1.025 1.267-1.03.409-.1.988.19 1.18.286l.186.094.398-1.33-.116-.07c-.49-.294-1.012-.425-1.69-.425zm7.213 0h-1.672l.032-.099c.207-1.347.815-2.151 1.627-2.151.275 0 .559 0 .722.08l.186.094.407-1.363-.16-.052c-.309-.103-.627-.208-1.055-.208-.79 0-1.419.245-1.932.758-.796.912-1.248 1.853-1.338 2.774l-.067.267h-1.007l-.27 1.35h.997l-1.4 6.5h1.661l1.3-6.6h1.7l.27-1.35zm3.987-.1c-2.453 0-4.375 2.23-4.375 5.075v.3c0 .806.345 1.591.946 2.157a3.022 3.022 0 0 0 2.234.818c1.154-.001 2.193-.45 3.005-1.295.911-.95 1.422-2.33 1.365-3.68v-.4c0-.806-.345-1.591-.946-2.156a2.994 2.994 0 0 0-2.229-.819zm1.525 3.375c0 1.715-1.037 3.625-2.525 3.625-.972 0-1.625-.773-1.625-1.925 0-1.714 1.037-3.626 2.525-3.626h.084c.45.041.856.255 1.144.603.3.363.444.839.397 1.323zm7.525-1.625l.237-1.537-.063-.062c-.152-.15-.405-.147-.558-.148a3.361 3.361 0 0 0-2.115 1.414l.016-.169c.027-.307.052-.573.104-.839l.042-.209h-1.565l-.021.15c-.028.196-.056.415-.086.65-.08.621-.17 1.325-.312 2.041l-.73 5.109h1.648l.625-3.544c.288-1.63 1.332-2.956 2.326-2.956.013.002.05.02.073.03.061.032.137.07.229.07h.15zm9.75-1.55c-1.052 0-2.011.505-2.691 1.402a1.957 1.957 0 0 0-.654-1.023 1.713 1.713 0 0 0-1.255-.379c-.988 0-1.912.463-2.555 1.261l.155-1.161h-1.575v.175c0 .715-.107 1.499-.297 2.168l-1.042 5.626 1.562-.131.723-3.93c.276-1.466 1.276-2.658 2.229-2.658.69 0 1.025.368 1.025 1.125 0 .135-.023.273-.048.42a2.525 2.525 0 0 0-.05.446l-.94 4.71h1.556l.829-4.046c.276-1.564 1.395-2.655 2.228-2.655.728 0 1.025.326 1.025 1.125 0 .283 0 .672-.097.969l-.838 4.606h1.65l1.035-4.575c0-.19.025-.415.049-.632.025-.225.05-.459.05-.668v-.2c0-1.07-.95-1.975-2.074-1.975zm6.575-2.125c0-.523-.504-.875-.975-.875-.52 0-.975.502-.975 1.075v.1c0 .524.504.875.975.875.315 0 .603-.13.79-.36a.85.85 0 0 0 .185-.715v-.1zm-3.687 10.175h1.557l1.567-8.05h-1.557zm8.997-8.15c-1.039.095-2.01.607-2.642 1.37l.157-1.17h-1.574v.175c0 .714-.108 1.498-.298 2.168l-1.042 5.625 1.662-.13.724-3.836c.291-1.837 1.62-2.853 2.428-2.853.719 0 1.025.337 1.025 1.126 0 .284 0 .671-.097.966l-.942 4.71h1.658l.925-4.633c.106-.421.106-.838.106-1.243v-.3c0-1.126-.892-1.974-2.09-1.974zm10.677.41c-.944-.353-1.734-.51-2.568-.51-2.842.105-5.07 2.519-4.97 5.375v.187c-.05.653.176 1.284.634 1.779a2.524 2.524 0 0 0 1.842.809c1.001 0 1.936-.449 2.524-1.18l-.094.564c-.538 2.261-1.632 2.566-2.63 2.566-.817 0-1.422-.15-1.902-.47l-.158-.106-.687 1.236.178.076c.784.335 1.6.513 2.346.513h.005c.132.013.262.02.392.02.858 0 1.677-.289 2.45-.87.907-.908 1.444-2.122 1.548-3.491l1.228-6.445-.138-.052zm-1.56 1.064l-.474 2.467c-.288 1.444-1.446 2.759-2.428 2.759-1.095 0-1.325-.938-1.325-1.725 0-1.761 1.283-3.725 3.125-3.725.41 0 .755.07 1.102.224z" fill="#404040"/></svg>