<svg xmlns="http://www.w3.org/2000/svg" viewBox="0 0 1205.52 300"><path d="M.022 65.72C.025 45.055.019 24.393.025 3.728h29.44V11.1c-6.772.002-13.542 0-20.311.002-.003 6.287 0 12.576-.003 18.862 6.333.008 12.665 0 18.998.003 0 2.4 0 4.801-.002 7.202-6.33.003-12.663-.002-18.996.003.002 7.058 0 14.116.002 21.174 6.963.005 13.923-.003 20.885.005 0 2.458.003 4.915 0 7.372-10.005 0-20.01.003-30.016-.003zm38.94-61.992c4.657-.003 9.316 0 13.976 0 5.595 17.862 11.182 35.724 16.78 53.586.003-17.862-.003-35.724.003-53.586h8.219c.002 20.665.002 41.33.002 61.995H63.961C58.366 47.863 52.781 30 47.183 12.142c-.002 17.86 0 35.719 0 53.578-2.742.003-5.482.003-8.224.003 0-20.665-.003-41.33.003-61.995zM90.49 65.72c.002-20.665-.003-41.327.002-61.992h29.44V11.1c-6.771.002-13.541 0-20.31.002-.003 6.287-.003 12.576-.003 18.862 6.332.005 12.663.003 18.995.003.005 2.4 0 4.801.003 7.202-6.333.003-12.665-.002-18.998.003.002 7.058 0 14.116.002 21.174 6.96.005 13.923 0 20.885.005v7.372c-10.005 0-20.01.003-30.016-.003zm38.94-61.992c4.644-.003 9.29 0 13.934 0 3.172.013 6.367-.102 9.502.474 3.2.518 6.47 1.973 8.36 4.832 2.203 3.3 2.56 7.494 2.478 11.404-.095 3.588-.748 7.439-3.125 10.196-1.714 2.023-4.164 3.167-6.639 3.791 1.871.185 3.822.574 5.354 1.782 1.357 1.032 2.143 2.675 2.58 4.328.573 2.181.725 4.453.851 6.701.167 6.172.183 12.39 1.241 18.484-3.204.003-6.412.003-9.617.003a55.203 55.203 0 0 1-.655-8.025c-.039-4.044-.178-8.087-.548-12.115-.223-1.892-.503-3.939-1.747-5.431-1.319-1.485-3.365-1.809-5.205-1.964-2.516-.142-5.037-.049-7.556-.073-.003 9.202-.003 18.404 0 27.605-3.071.006-6.14.003-9.211.003 0-20.665-.003-41.33.002-61.995zm9.208 7.291c-.002 6.6-.002 13.203 0 19.805 2.768-.046 5.546.126 8.304-.182 1.953-.241 4.043-.82 5.382-2.428 1.496-1.849 1.799-4.378 1.91-6.707.087-2.594.002-5.44-1.525-7.618-1.434-2.03-3.965-2.685-6.258-2.821-2.603-.105-5.21-.027-7.813-.049zm43.175-6.506c3.38-1.67 7.194-2.042 10.887-1.972 4.138.107 8.533.903 11.825 3.709 2.725 2.296 4.18 5.844 4.693 9.386.296 1.873.353 3.776.34 5.67-3.097.003-6.194 0-9.291 0 .013-2.803-.093-5.793-1.545-8.248-1.056-1.816-2.991-2.907-4.978-3.18-2.58-.373-5.449-.08-7.551 1.66-1.925 1.59-2.912 4.069-3.477 6.49-.784 3.514-.928 7.134-1.005 10.725-.044 4.649-.07 9.298.113 13.941.162 3.342.388 6.72 1.285 9.95.617 2.186 1.72 4.37 3.624 5.61 2.06 1.367 4.608 1.483 6.977 1.327 2.21-.147 4.424-.587 6.472-1.49-.003-5.916 0-11.833-.003-17.747-2.958-.005-5.919 0-8.877-.002-.005-2.43-.002-4.858-.002-7.289 5.975 0 11.953-.003 17.929 0v31.04c-6.24 2.002-12.805 3.095-19.34 2.75-4.251-.257-8.75-1.361-11.897-4.54-3.144-3.143-4.398-7.72-5.002-12.087-.817-6.404-.678-12.883-.668-19.33.136-6.046.224-12.276 2.305-18.002 1.288-3.593 3.807-6.76 7.186-8.37zm31.916-.783c3.398-.005 6.793 0 10.19-.005 3.573 9.859 7.127 19.722 10.697 29.58 3.65-9.858 7.289-19.719 10.939-29.577h9.455c-5.261 12.27-10.53 24.537-15.793 36.807-.216.624-.66 1.195-.653 1.88.002 7.769 0 15.537 0 23.308-3.071 0-6.143 0-9.211-.003-.021-7.9.038-15.801-.031-23.7-5.171-12.774-10.404-25.524-15.593-38.29zm76.62-.675c3.742-.723 7.633-.712 11.362.092 3.262.68 6.449 2.51 8.189 5.554 2.043 3.449 2.19 7.64 2.112 11.573-3.07.006-6.14.003-9.208.003-.005-2.604.085-5.423-1.28-7.725-.992-1.694-2.889-2.546-4.724-2.73-2.375-.3-5.02.096-6.826 1.86-1.933 1.85-2.498 4.777-2.247 7.405.175 2.147 1.154 4.165 2.591 5.695 2.061 2.229 4.76 3.622 7.232 5.278 3.344 2.208 6.88 4.156 9.867 6.898 1.966 1.798 3.55 4.094 4.32 6.717.928 3.146 1.013 6.512.643 9.762-.445 3.842-2.133 7.658-5.171 9.998-3.76 2.95-8.664 3.577-13.239 3.472-3.945-.123-8.152-.729-11.373-3.306-2.585-2.056-3.988-5.317-4.577-8.578-.473-2.43-.54-4.917-.553-7.39 3.154-.008 6.305-.003 9.458-.003.018 2.924.031 6.035 1.427 8.666.915 1.755 2.67 2.915 4.546 3.221 2.46.415 5.197.263 7.31-1.251 1.642-1.177 2.552-3.184 2.842-5.196.35-2.38.17-4.93-.979-7.064-1.067-2.039-2.853-3.529-4.708-4.748-3.208-2.109-6.42-4.212-9.63-6.318-1.977-1.284-3.86-2.76-5.41-4.585-2.293-2.642-3.655-6.09-3.933-9.633-.35-4.103.224-8.51 2.593-11.919 2.18-3.183 5.747-5.03 9.366-5.748zm25.904.673h36.68V11.1c-4.577.002-9.157.002-13.734.002-.003 18.205.003 36.413 0 54.62-3.071 0-6.143 0-9.211-.002V11.102c-4.578-.002-9.155.003-13.732-.002-.005-2.457-.003-4.915-.003-7.372zm54.641.002c3.893-.005 7.784-.002 11.678-.002 5.564 20.665 11.131 41.33 16.696 61.995h-9.458c-1.265-4.944-2.52-9.89-3.786-14.834h-19.16c-1.29 4.94-2.58 9.885-3.863 14.831-3.043.008-6.089.003-9.132.003L370.893 3.73zM368.84 43.6c5.07 0 10.142 0 15.213-.002l-7.65-31.721c-2.52 10.573-5.044 21.147-7.563 31.723zm37.133-39.872c4.554-.003 9.111 0 13.668 0 2.888.016 5.793-.088 8.669.3 2.398.322 4.824.957 6.857 2.372 1.596 1.093 2.847 2.69 3.631 4.501 1.113 2.565 1.427 5.416 1.463 8.202.007 2.758-.203 5.577-1.177 8.168-.697 1.876-1.88 3.57-3.437 4.767-1.518 1.195-3.33 1.91-5.163 2.387 2.102.196 4.343.7 5.919 2.275 1.406 1.426 2.017 3.46 2.362 5.421.691 4.078.504 8.235.699 12.356.164 3.762.38 7.537 1.046 11.243a5712.5 5712.5 0 0 1-9.62 0c-.388-2.567-.63-5.163-.648-7.765-.054-4.298-.167-8.602-.611-12.878-.252-1.938-.645-4.105-2.182-5.408-1.553-1.243-3.604-1.42-5.488-1.527-2.261-.059-4.52-.019-6.78-.027-.002 9.202-.002 18.403 0 27.605-3.07.006-6.142.003-9.21.003 0-20.665-.003-41.33.002-61.995zm9.209 7.291c-.003 6.6 0 13.2-.003 19.802 2.257-.013 4.516.046 6.772-.048 2.239-.137 4.67-.46 6.433-2.05 1.784-1.677 2.216-4.32 2.367-6.696.124-2.698.121-5.654-1.385-7.977-1.293-1.983-3.662-2.752-5.85-2.94-2.775-.187-5.559-.053-8.334-.09zM457.65.055a15.727 15.727 0 0 1 9.355 2.163c3.397 2.012 5.987 5.339 7.101 9.128 1.013 3.394.86 7.126-.45 10.417a15.84 15.84 0 0 1-6.869 7.901c-3.338 1.916-7.392 2.533-11.151 1.714-3.56-.76-6.814-2.813-9.07-5.663-2.164-2.703-3.408-6.132-3.442-9.596-.065-3.725 1.271-7.439 3.646-10.304 2.668-3.264 6.667-5.427 10.88-5.76zm.552 2.688c-2.984.177-5.876 1.46-8.043 3.514-2.642 2.445-4.217 6-4.23 9.602a13.099 13.099 0 0 0 2.03 7.007 13.253 13.253 0 0 0 5.672 4.974c2.305 1.053 4.931 1.428 7.432.986 4.512-.686 8.5-3.953 10.102-8.22.976-2.524 1.152-5.354.456-7.972-1.009-4.056-4.08-7.53-7.984-9.024a12.992 12.992 0 0 0-5.435-.867z" fill="#00aeef"/><path d="M452.478 7.399c2.38.013 4.763-.028 7.142.024 1.598.075 3.268.263 4.663 1.11a3.981 3.981 0 0 1 1.86 2.656c.227 1.194.15 2.538-.587 3.55-.567.793-1.46 1.265-2.355 1.594 1.088.454 2.133 1.248 2.466 2.431.505 1.791.042 3.756.848 5.482a1793.09 1793.09 0 0 0-3.74 0c-.383-.976-.473-2.03-.493-3.069-.035-.746-.028-1.558-.465-2.201-.44-.617-1.21-.86-1.923-.979-1.214-.191-2.447-.12-3.672-.133v6.38c-1.248.002-2.497 0-3.744 0V7.4zm3.744 2.894c.002 1.56-.001 3.117.002 4.677 1.712-.07 3.515.227 5.145-.434 1.204-.485 1.587-2.144.9-3.189-.486-.678-1.357-.879-2.137-.98-1.299-.131-2.607-.056-3.91-.074z" fill="#00aeef"/><g fill="#005476"><path d="M0 87.317c14.042-.029 28.084-.078 42.126.03 8.997.382 18.56 1.341 26.308 7.627 6.663 5.345 10.49 14.764 11.904 24.26 1.43 9.703 1.336 19.689.393 29.46-.95 9.232-3.677 18.65-9.303 25.064-4.487 4.924-10.263 7.714-16.117 8.9-10.058 2.055-20.289 1.624-30.449 1.673-.008 23.331 0 46.672 0 70.012H.008C0 198.665.016 142.986 0 87.317zm24.87 74.369c6.868-.137 13.908.607 20.587-1.83 3.859-1.362 7.293-4.71 8.911-9.341 2.436-6.853 2.468-14.627 1.863-21.95-.582-6.766-3.63-13.59-8.903-16.155-7.15-3.407-14.977-2.232-22.466-2.477-.008 17.251-.008 34.502.008 51.753zm85.658-25.926c10.191-1.233 21.404-1.262 30.386 5.728 7.418 5.669 10.741 16.615 11.732 26.924 1.445 16.213 1.304 32.622.14 48.864-.895 11.494-3.543 23.958-11.086 31.506-6.57 6.863-15.504 8.351-23.794 8.322-8.353-.05-17.342-1.341-24.092-8.048-7.159-6.794-9.98-18.288-10.836-29.019-1.131-15.342-1.265-30.86.165-46.191 1.037-10.594 3.921-21.647 10.514-28.921 4.636-5.268 10.694-8.224 16.87-9.164zm2.9 19.19c-2.437 1.243-4.205 3.897-5.423 6.726-2.79 6.834-2.6 14.715-2.718 22.176.054 11.758-.134 23.516.14 35.265.292 6.628 1.973 14.186 6.877 17.75 4.541 2.565 10.93 2.252 14.16-3.045 3.645-5.776 3.685-13.54 3.818-20.54.032-13.423.165-26.836-.18-40.249-.275-5.336-.928-11.122-3.874-15.273-3.12-4.425-8.62-4.71-12.8-2.81zm85.418-15.958c4.447-2.556 9.413-3.163 14.262-3.202v25.612c-6.169-.89-13.304-.411-18.09 5.13-4.29 5.6-5.46 13.736-5.625 21.216-.047 22.195 0 44.39-.024 66.595h-22.992c-.188-38.82.409-77.648-.377-116.448h22.065c.07 4.984.133 9.967.18 14.94 2.39-5.698 5.705-11.259 10.6-13.843z"/><path d="M224.35 118.02c7.66-3.926 15.314-7.861 22.984-11.778.015 10.545 0 21.099.008 31.643 4.88.02 9.759 0 14.639.01.007 6.237.007 12.473 0 18.71-4.88.01-9.76 0-14.64 0 .024 21.813-.047 43.626.032 65.44.102 4.121.189 9.232 3.3 11.748 3.796 2.888 8.455 1.625 12.612 1.145v19.64a67.118 67.118 0 0 1-21.31.558c-5.084-.705-10.553-2.849-13.579-8.351-3.512-6.325-3.881-14.343-4.039-21.784-.039-22.802-.008-45.594-.015-68.396-4.15 0-8.282.01-12.424 0-.007-6.237-.007-12.473 0-18.71 4.142-.01 8.275 0 12.416 0 .016-6.628-.008-13.247.016-19.875zm64.27-30.673c7.56-2.526 15.528-1.713 23.244-.999.016 6.52-.008 13.041.016 19.562-3.552-.226-7.355-.274-10.585 1.85-2.931 2.027-3.52 6.618-3.882 10.388-.385 6.57-.11 13.168-.188 19.747 4.699 0 9.39-.01 14.089 0 .008 6.237.008 12.473 0 18.71-4.7.01-9.39 0-14.09 0-.007 32.582 0 65.155-.007 97.738h-22.992v-97.728c-3.748.01-7.489-.069-11.229.049-.189-6.247-.031-12.503-.086-18.759 3.771-.03 7.543 0 11.315-.02.29-11.807-.935-23.937 1.705-35.46 1.674-7.442 6.758-13.13 12.69-15.078zm55.244 48.306c9.972-1.067 20.894-1.028 29.663 5.806 6.192 4.69 9.634 13.285 11.08 21.881 1.28 8.019 1.493 16.233 1.69 24.379.093 11.827-.08 23.712-1.478 35.422-1.305 9.76-4.353 19.904-10.899 26.072-6.773 6.755-15.833 7.989-24.226 7.881-8.062-.137-16.682-1.547-23.188-7.999-7.19-6.794-10.019-18.318-10.883-29.068-1.124-15.4-1.257-30.977.188-46.348 1.038-10.319 3.811-21.03 10.082-28.275 4.848-5.766 11.37-8.89 17.971-9.751zm2.192 19.307c-5.445 3.133-7.3 11.17-7.802 18.053-.59 11.406-.205 22.851-.315 34.277.134 7.157-.448 14.627 1.713 21.441 1.32 4.151 3.858 8.214 7.552 9.164 3.968 1.087 8.824.607 11.574-3.574 3.992-5.786 4.023-13.912 4.157-21.118.031-13.413.173-26.835-.18-40.239-.284-5.296-.936-11.043-3.851-15.175-3.12-4.454-8.652-4.748-12.848-2.83zm53.201-67.672c7.66.02 15.322-.03 22.991.02-.015 55.678 0 111.356-.007 167.035h-22.992c0-55.688-.016-111.367.007-167.055zM438.82 137.9h23v116.45h-23zm.005-48.762c7.685.079 15.378-.156 23.055.128-.142 8.194-.032 16.389-.063 24.593-7.63.079-15.26-.107-22.882.089-.26-8.264-.055-16.537-.11-24.81zm64.284 46.632c8.337-1.155 17.044-1.028 25.066 2.37 6.177 2.731 11.551 8.518 14.066 16.144 3.182 8.636 3.497 18.299 3.905 27.629.377 13.04.205 26.14-1.068 39.103-1.156 10.486-4.15 21.569-11.166 28.197-6.554 6.54-15.284 7.91-23.425 7.89-8.313-.058-17.271-1.35-23.998-8.017-6.97-6.59-9.853-17.682-10.78-28.119-1.187-14.98-1.328-30.135-.103-45.114.716-9.086 2.656-18.289 6.955-25.808 4.785-8.195 12.54-13.149 20.548-14.274zm2.923 19.2c-5.422 3.142-7.276 11.141-7.771 18.004-.605 11.769-.212 23.576-.322 35.373.11 7.94-.503 16.585 3.04 23.635 3.757 8.556 15.426 8.762 19.142.058 2.916-6.256 2.696-13.765 2.837-20.746-.016-12.757.15-25.504-.204-38.251-.275-5.326-.928-11.112-3.859-15.264-3.135-4.454-8.667-4.738-12.863-2.81z"/></g><g fill="#00aeef"><path d="M563.89 87.533c8.543.01 17.086 0 25.63 0 10.746 48.987 21.484 97.974 32.223 146.96 10.69-48.986 21.365-97.963 32.048-146.95 8.647-.02 17.293-.01 25.932-.01.016 55.61.008 111.21.008 166.81h-15.377c-.056-50.737.104-101.464-.088-152.201-11.33 50.776-22.946 101.444-34.355 152.19-5.877.01-11.753.03-17.63-.019-11.408-50.687-22.97-101.325-34.346-152.022-.192 50.687-.032 101.364-.088 152.052h-14.052c-.328-49.385 0-98.8-.128-148.194.08-6.205-.287-12.43.224-18.616zm142.157 59.558c5.573-8.353 14.666-11.019 23.01-11.476 7.106-.249 14.714.259 20.902 5.082 4.247 3.281 7.058 8.87 8.335 14.797 2.196 10.163 1.597 20.784 1.693 31.186.088 22.554-.383 45.148.918 67.663h-14.26c-.055-5.072-.143-10.134-.167-15.195-4.096 7.289-9.565 14.18-16.783 16.16-7.768 2.088-16.75 1.71-23.21-4.734-6.307-6.166-8.766-16.488-9.053-26.115-.232-9.129.622-19.143 5.573-26.352 5.022-7.986 13.054-11.815 20.854-13.515 7.162-1.402 14.435-1.67 21.677-1.78-.128-6.673.207-13.425-.655-20.039-.759-5.718-3.673-11.356-8.296-13.136-5.956-2.069-13.022-.875-17.596 4.624-2.81 3.371-3.513 8.443-3.505 13.097-4.87 0-9.74.02-14.62-.01-.087-7.21 1.239-14.748 5.183-20.257zm15.409 53.144c-4.934 3.132-8.367 9.497-8.71 16.408-.64 8.722.439 19.501 7.161 24.275 7.194 4.485 16.759.885 20.95-7.648 5.845-11.167 4.503-25.1 4.679-37.75-8.104.11-16.71-.118-24.08 4.715zm72.626-46.282c4.215-9.18 11.457-16.956 20.151-18.09 6.643-.865 13.9-.139 19.521 4.764 4.224 3.65 6.795 9.606 7.929 15.742 1.213 6.365 1.34 12.948 1.301 19.462-.008 26.174 0 52.338 0 78.512h-14.643c-.024-25.498.056-50.986-.032-76.484-.135-7.965.248-16.935-4.104-23.459-3.073-4.823-8.51-5.529-13.093-4.743-5.022.815-9.134 5.39-11.545 10.73-3.457 7.677-4.567 16.647-4.56 25.348.017 22.863 0 45.735.009 68.608H780.38c0-29.496-.008-58.981 0-88.477a556.25 556.25 0 0 0-.75-27.795c4.822-.01 9.636-.01 14.459 0-.008 5.29.016 10.591-.008 15.882zm73.292-7.329c5.597-8.006 14.475-10.532 22.643-11.009 7.122-.249 14.746.249 20.95 5.092 4.231 3.271 7.042 8.83 8.32 14.747 2.203 10.194 1.604 20.854 1.7 31.286.088 22.534-.375 45.108.918 67.603h-14.26c-.055-5.072-.143-10.134-.167-15.195-4.088 7.27-9.533 14.14-16.727 16.14-7.784 2.108-16.782 1.74-23.257-4.704-6.324-6.176-8.783-16.518-9.062-26.154-.232-9.12.623-19.114 5.565-26.314 5.046-8.015 13.102-11.843 20.926-13.544 7.146-1.382 14.395-1.65 21.613-1.76-.168-7.011.303-14.141-.83-21.053-.919-5.549-4.033-10.82-8.575-12.291-6.02-1.87-13.142-.508-17.533 5.31-2.523 3.371-3.106 8.155-3.114 12.58-4.87-.01-9.749.02-14.619-.01-.12-7.419 1.35-15.175 5.51-20.724zm15.074 53.61c-4.926 3.133-8.351 9.488-8.703 16.38-.479 7.855.072 17.134 5.246 22.603 3.585 4.097 8.918 4.137 13.405 2.824 5.964-1.9 10.244-8.492 12.128-15.543 2.659-9.994 1.972-20.685 1.94-31.047-8.08.259-16.67-.07-24.016 4.784zm66.736-57.588c6.467-7.697 16.343-8.185 24.655-6.036 6.459 1.63 11.217 8.005 14.291 14.916.008-4.485 0-8.97.008-13.455 4.878-.01 9.757-.01 14.635 0a954.148 954.148 0 0 0-.55 41.678c-.017 26.84.023 53.67-.025 80.501-.12 10.382-1.5 21.759-7.489 29.575-6.132 7.787-15.321 9.815-23.729 10.144-8.263.268-17.349-.955-23.864-7.926-5.828-6.345-7.385-16.508-7.52-25.707 5.189-.01 10.37 0 15.552 0 .16 6.235.958 13.216 4.759 17.731 4.311 4.217 10.331 3.938 15.44 2.715 5.638-1.432 9.694-7.687 10.731-14.539 1.685-10.81.95-21.898 1.15-32.847-3.553 6.186-8.615 11.347-14.762 12.7-8.216 1.79-17.797 1.223-24.264-6.116-6.395-6.772-8.942-17.383-9.924-27.417-1.214-15.235-1.182-30.65.176-45.865 1.133-10.959 3.928-22.455 10.73-30.052zm16.567 7.03c-4.918 1.154-8.168 6.574-10.036 11.964-3.665 11.078-3.082 23.32-3.305 35.054.2 10.77-.408 22.057 3.018 32.22 1.756 5.043 5.014 9.826 9.564 10.83 5.206 1.243 11.402.408 15.13-4.773 5.046-6.822 6.65-16.369 7.178-25.349.375-11.247.447-22.544-.216-33.781-.607-7.757-2.1-16.021-6.634-21.749-3.69-4.923-9.67-5.688-14.7-4.415zm65.565-5.916c5.605-6.425 13.51-8.215 20.886-8.224 7.018-.05 14.595 1.263 20.104 7.15 6.587 6.483 9.334 17.084 10.212 27.118.695 9.617.766 19.283.774 28.939-16.295.01-32.59 0-48.886.01.096 9.765-.32 19.71 1.485 29.297 1.19 6.583 4.806 13.027 10.307 14.658 5.925 1.63 13.126 1.074 17.462-4.873 3.952-5.39 4.207-13.067 4.638-19.949 4.815.01 9.637-.01 14.451.01-.558 9.537-1.668 19.81-6.77 27.397-5.182 7.846-13.549 11.088-21.461 11.456-7.873.458-16.48-.397-22.907-6.692-6.722-6.136-9.932-16.439-11.057-26.403-1.717-15.842-1.262-31.902-.288-47.794 1.022-11.645 3.61-24.185 11.05-32.1zm8.471 11.545c-5.134 8.94-5.11 20.446-5.381 30.968 11.353.02 22.715.01 34.076 0 .056-9.13.08-18.637-2.834-27.189-1.909-5.53-6.18-9.746-11.05-10.233-5.302-.666-11.561.647-14.81 6.454zm84.193-15.951c4.343-2.884 9.341-3.69 14.212-3.63.295 5.808.223 11.635 0 17.453-6.475-1.134-13.701.716-18.324 6.812-4.439 5.748-5.756 14.042-5.836 21.759-.024 24.195 0 48.39-.008 72.595-4.942 0-9.884 0-14.826-.01v-93.469c.024-7.607-.088-15.215-.527-22.802 4.806.01 9.612 0 14.419 0a3189.4 3189.4 0 0 1 0 15.185c2.539-5.728 6.14-10.91 10.89-13.893zm48.331-7.666c6.292-.532 12.738.944 18.152 4.197 6.59 3.905 11.616 10.36 13.777 17.71 1.966 6.586 1.67 13.827-.874 20.214-2.533 6.426-7.318 11.925-13.326 15.33-6.477 3.717-14.342 4.914-21.637 3.325-6.908-1.475-13.22-5.458-17.598-10.989-4.2-5.244-6.614-11.896-6.678-18.619-.127-7.228 2.466-14.432 7.073-19.991 5.177-6.333 12.937-10.53 21.111-11.177zm1.07 5.216c-5.788.343-11.401 2.835-15.606 6.817-5.125 4.744-8.182 11.642-8.208 18.632-.005 4.78 1.37 9.56 3.94 13.594 2.633 4.19 6.502 7.597 11.006 9.653 4.473 2.043 9.568 2.77 14.42 1.912 8.755-1.332 16.493-7.67 19.602-15.947 1.893-4.899 2.233-10.39.884-15.47-1.958-7.87-7.916-14.61-15.492-17.51a25.204 25.204 0 0 0-10.545-1.681z"/><path d="M1162.277 145.937c4.617.026 9.24-.054 13.857.047 3.1.147 6.34.51 9.046 2.153 1.86 1.11 3.212 3.021 3.61 5.154.44 2.317.29 4.925-1.139 6.888-1.1 1.54-2.832 2.455-4.57 3.093 2.112.882 4.14 2.422 4.785 4.718.98 3.474.082 7.287 1.645 10.635-2.42-.003-4.839-.003-7.256 0-.743-1.893-.918-3.939-.957-5.954-.067-1.447-.054-3.023-.903-4.271-.853-1.197-2.347-1.667-3.73-1.899-2.355-.371-4.749-.232-7.124-.258 0 4.128.002 8.255 0 12.38-2.422.002-4.845 0-7.264 0-.003-10.894-.003-21.79 0-32.686zm7.264 5.616c.002 3.026-.003 6.049.002 9.075 3.323-.137 6.82.44 9.983-.841 2.337-.942 3.08-4.161 1.746-6.189-.941-1.315-2.63-1.705-4.145-1.9-2.52-.256-5.058-.11-7.586-.145z"/></g></svg>