<svg xmlns="http://www.w3.org/2000/svg" viewBox="0 0 1291.08 734.4"><path d="M353 0h18.5c.01 20-.02 40 .01 59.99 5.16.01 10.32.01 15.49.01.01 10-.01 20 0 30 7 .01 14-.01 21 0 .01 10-.01 20 0 30 11.17.03 22.35-.05 33.52.04-.02 65.32-.04 130.64 0 195.96-6.01 0-12.02-.02-18.03.03.02 8.98.01 17.96 0 26.94 6.01.05 12.02.03 18.03.03-.02 27.83-.05 55.67.02 83.5-6.01 0-12.02-.01-18.03.01-.02 6.16-.02 12.32 0 18.49H442v26c-5.51 0-11.01-.02-16.52.03.03 7.65.02 15.29 0 22.94 5.51.04 11.01.03 16.52.03 0 8.66.01 17.33 0 26-9.18-.01-18.35.04-27.52-.04.03-5.99.02-11.97.01-17.95-4.5-.02-9-.02-13.49-.01v-15c-6.51 0-13.01-.03-19.52.03.02 4.99.02 9.98.02 14.97-12.01.02-24.01-.05-36.01.04.02 7.14.01 14.28.01 21.43-7.82.08-15.64 0-23.46.05-.08-7.17-.02-14.35-.04-21.52-7.52-.01-15.04 0-22.56.01.18-6.33-.01-12.66.08-18.98-5.51-.05-11.01-.04-16.52-.03v-77.5c4.5.01 8.99 0 13.49-.01.02-5.33.02-10.65 0-15.98-4.5-.01-9-.02-13.49-.01V120c11-.01 22 .01 33 0 .01-10-.01-20 0-30 7.16-.01 14.32.01 21.49-.01.02-9.98.01-19.97-.01-29.95 5.17-.05 10.34-.05 15.52-.04.01-20 0-40 0-60zm22.51 337c-.02 5.16-.02 10.33 0 15.49 5.16.02 10.32.02 15.49 0V337c-5.17-.01-10.33 0-15.49 0zm-64.04 23.04c.06 11.82 0 23.63.04 35.45 11.99.02 23.99.02 35.98 0 .04-11.82-.02-23.63.03-35.45-12.01-.07-24.03-.07-36.05 0zm85 6c.04 8.97.04 17.95.01 26.92 9.17.09 18.34.02 27.52.04v-27c-9.18.02-18.35-.05-27.53.04zM372 391.51v11.98c4.16.02 8.33.02 12.49 0 .02-4 .02-7.99 0-11.98-4.16-.02-8.33-.02-12.49 0zm-1.52 24.53c.03 6.97.03 13.94-.01 20.92 7.18.08 14.35.02 21.53.04v-21c-7.18.01-14.35-.05-21.52.04zm-77.01 3c.06 8.82 0 17.63.04 26.45 9.15.03 18.3-.02 27.45.04.09-8.85.02-17.69.04-26.53-9.18.02-18.35-.05-27.53.04zm103.17 32.99c-.19 3.98-.19 7.96-.01 11.94 4.11.07 8.22.07 12.34 0 .07-3.98.07-7.96 0-11.94-4.12-.08-8.23-.07-12.33 0zm-38.16 17.93c5.33.07 10.67.04 16.01.04.02-5.17.02-10.33 0-15.49-5.32-.02-10.64-.01-15.96-.02-.06 5.16-.02 10.31-.05 15.47zm-37.94-1.42c-.07 6.15-.08 12.3 0 18.46 6.15 0 12.3.01 18.45-.01.02-6.15.01-12.3.01-18.45-6.16-.08-12.31-.07-18.46 0zm205.3-329.69c14.11-13.7 34.04-19.33 53.19-20.92 20.78-2.13 41.83 2.68 60.55 11.62 8.64 4.4 17.13 9.48 23.84 16.57-7.9 12.62-15.43 25.48-23.36 38.08-8.12-8.14-18.02-14.38-28.63-18.73-9.3-3.58-19.45-6.01-29.44-4.42-6.37.77-13.06 2.55-17.68 7.27-6.72 6.16-6.91 17.55-1.11 24.4 4.14 4.92 10.19 7.66 15.99 10.11 14.37 5.7 28.97 10.77 43.32 16.51 12.47 5.1 24.33 12.64 32.39 23.63 7.74 10.28 11.65 23.21 11.64 36.03.44 15.49-4.67 31.04-14.05 43.36-11.01 14.63-27.71 24.35-45.35 28.62-9.19 2.37-18.69 3.15-28.13 3.55-29.74.29-58.37-12.67-80.57-31.92-1.16-1.04-2.21-2.2-3.23-3.36 9.02-13.07 17.92-26.22 26.74-39.42 13.89 13.5 31.15 24.04 50.25 28.02 9.53 2.16 19.9 1.31 28.64-3.22 7.73-3.99 12.71-12.87 11.52-21.58-.92-5.51-4.23-10.53-8.76-13.77-6.26-4.78-13.87-7.18-21.15-9.89-14.22-5.26-28.78-9.78-42.28-16.78-12.86-6.3-24.07-16.61-29.92-29.82-3.47-8.1-5.1-16.99-4.77-25.79-.83-18.05 7.26-35.9 20.36-48.15zM688 120c49.84.03 99.69-.06 149.53.05-.07 14.48 0 28.96-.04 43.44-31.83.04-63.66-.01-95.49.03V210c30 .01 60-.01 90 0-.03 14.51.06 29.02-.05 43.53-29.98-.06-59.97-.03-89.95-.02v52.97c32.83.04 65.66-.01 98.49.03.02 14.66.02 29.32 0 43.98-50.81.05-101.63-.03-152.44.04-.11-76.84-.02-153.68-.05-230.53zm178.47.05c49.84-.11 99.68-.02 149.53-.05-.03 14.51.06 29.02-.05 43.53-31.81-.05-63.62-.03-95.44-.02-.02 15.5-.02 30.99.01 46.49 30 .03 60-.07 90.01.05-.07 14.48 0 28.96-.04 43.44-29.99.04-59.98-.01-89.98.02-.02 17.66-.02 35.32 0 52.98 32.82 0 65.63.04 98.44-.02.08 14.69.08 29.37 0 44.06-50.81-.07-101.63.01-152.44-.04-.05-76.81.03-153.63-.04-230.44zM1045 120c26-.02 52 .03 78-.02 13.69.44 27.45 1.37 40.82 4.6 17.5 4.13 34.49 11.57 48.26 23.31 10.99 9.14 20.01 20.65 26.13 33.57 7.71 16.68 11.28 35.19 10.79 53.54.54 20.52-3.66 41.42-13.54 59.52-8.57 15.4-21.08 28.64-36.29 37.6-22.86 13.63-49.9 18.12-76.17 18.4-25.98-.02-51.97-.04-77.95.01-.11-76.84-.02-153.69-.05-230.53zm54 45.51v138.98c13-.13 26.05.54 39-.96 10.92-1.55 21.83-4.96 30.76-11.62 7.91-6.28 14.79-14.1 18.88-23.42 4.49-10.19 6.5-21.38 6.38-32.49.3-13.11-2.22-26.43-8.14-38.19-4.22-7.63-9.47-14.98-16.71-20.01-12.42-8.88-28.02-12.77-43.17-12.3-9 .02-18-.02-27 .01zm-957.56 28.5c43.47 28.73 86.56 58.03 130.03 86.76.09 25.58-.01 51.15.04 76.72-9.16.01-18.32.02-27.48-.01-.07 9.84-.02 19.68-.03 29.52h27.52c-.07 43.84.05 87.67-.06 131.51-5.32-.01-10.63 0-15.95-.02-.02-4.82-.03-9.63.02-14.44-5.51-.1-11.02-.03-16.53-.06 0-3.33-.01-6.66 0-9.99-7.17 0-14.34-.03-21.52.03.02 3.31.01 6.62.02 9.93-8.67.06-17.33.06-26 0 0-3.31 0-6.62.02-9.92-5.35-.06-10.69-.06-16.04-.01.02 3.31.02 6.62.02 9.93-11.34.06-22.69.08-34.03-.01.02-103.31.09-206.62-.03-309.94zm51.07 187.5c-.02 5.16-.02 10.32 0 15.49H208v-15.49c-5.17-.02-10.33-.02-15.49 0zm-33.51 19v14.98c5.16.02 10.33.02 15.49 0 .02-5 .02-9.99 0-14.98-5.16-.02-10.33-.02-15.49 0zm54.47 10.53c.06 7.15.01 14.3.04 21.45 7.33.01 14.66.04 22-.02-.02-7.16.01-14.31-.02-21.47-7.34.02-14.68-.05-22.02.04zm-24.44 24.99a362 362 0 0 0 0 12.33c4.11.19 8.23.19 12.34.01.18-4.12.18-8.23-.01-12.34a362 362 0 0 0-12.33 0zm-1.56 45.93c7.18.08 14.35.02 21.53.04v-21.49c-7.16-.03-14.31 0-21.47-.02-.08 7.16.01 14.31-.06 21.47zm53.04-13.45c-.02 6.16-.02 12.32 0 18.49H259v-18.49c-6.17-.02-12.33-.02-18.49 0zm-81.5 4.5c-.02 2.99-.02 5.98 0 8.98 2.99.02 5.99.02 8.98 0 .02-3 .02-5.99 0-8.98-2.99-.03-5.99-.03-8.98 0zM11.04 308.93c17.99-13.31 35.73-26.95 53.78-40.17 21.25 15.88 42.56 31.7 63.74 47.66.28.26.82.78 1.1 1.04.66 3.12.29 6.36.35 9.53-.03 28.67 0 57.34-.01 86.01-6.33 0-12.67-.01-19 0v27h19c-.02 25.84.05 51.68-.04 77.52-7.82-.05-15.64.03-23.47-.06.01-4.47 0-8.95.02-13.42-7.17-.08-14.34-.03-21.51-.04.01-3.34 0-6.67 0-10-5.34-.01-10.67-.01-16 0 0 3.33-.01 6.66 0 10H50.5c0-5.66-.01-11.31.01-16.97-6.67-.05-13.35-.05-20.03 0 .03 5.66.02 11.31.02 16.97H13v-13c-4.34-.01-8.67-.01-13 0v-51.5c3.33 0 6.66-.01 9.99-.01.02-3.83.02-7.66.01-11.49-3.34 0-6.67-.01-10 0V317.22c3.55-2.93 7.34-5.57 11.04-8.29zm54.47 105.58c-.02 3.99-.02 7.98 0 11.98 4.16.02 8.32.02 12.49 0v-11.98c-4.16-.02-8.33-.02-12.49 0zm-55.51 25V461h22v-21.49c-7.33-.02-14.67-.02-22 0zm39.01 17.5c-.03 3.66-.03 7.32 0 10.98 3.66.02 7.32.02 10.98 0 .03-3.66.03-7.32 0-10.98-3.66-.03-7.32-.03-10.98 0zm49.99 2.5v11.98c4.16.02 8.33.02 12.49 0 .02-4 .02-7.99 0-11.98-4.16-.02-8.33-.02-12.49 0zm-28.97 7.52c-.07 4.11-.07 8.22 0 12.34 4.11.18 8.23.18 12.34 0 .18-4.12.18-8.23-.01-12.34a362 362 0 0 0-12.33 0zm-48.98 49.44c6.63.04 13.27.04 19.9 0 .1 6.51.04 13.02.05 19.53H21c.02-6.51-.05-13.02.05-19.53zM0 532.99c3.51-.01 7.01.02 10.52.05-.01 3.64-.01 7.28 0 10.92-3.51.03-7.01.05-10.52.04v-11.01zm283.05 6.48c6.48.05 12.96 0 19.44.04.03 6.48-.02 12.96.04 19.44-6.51.1-13.02.03-19.53.05.01-6.51-.05-13.02.05-19.53zm-117.58 1.58c4.67-.08 9.35-.06 14.02-.05.02 4.5.02 8.99 0 13.49-4.65.02-9.3.01-13.95.02-.06-4.49-.04-8.98-.07-13.46zm152.58 7.42c3.63.03 7.26.03 10.9 0 .07 3.68.07 7.37 0 11.06-3.64-.04-7.27-.04-10.9 0-.07-3.69-.07-7.38 0-11.06z" fill="#005191"/><path d="M423.49 316.03c6.01-.05 12.02-.03 18.03-.03H449v27c-2.5 0-4.99-.01-7.48 0-6.01 0-12.02.02-18.03-.03.01-8.98.02-17.96 0-26.94zM375.51 337c5.16 0 10.32-.01 15.49 0v15.49c-5.17.02-10.33.02-15.49 0-.02-5.16-.02-10.33 0-15.49zm-131.48 20.48c9.16.03 18.32.02 27.48.01h2.47c.04 9.83.01 19.67.02 29.51h-30c.01-9.84-.04-19.68.03-29.52zm67.44 2.56c12.02-.07 24.04-.07 36.05 0-.05 11.82.01 23.63-.03 35.45-11.99.02-23.99.02-35.98 0-.04-11.82.02-23.63-.04-35.45zm85 6c9.18-.09 18.35-.02 27.53-.04v27c-9.18-.02-18.35.05-27.52-.04.03-8.97.03-17.95-.01-26.92zm-203.96 15.47c5.16-.02 10.32-.02 15.49 0V397h-15.49c-.02-5.17-.02-10.33 0-15.49zm88.5 7.98c.49 0 1.49 0 1.99.01 4.49-.01 8.99 0 13.49.01.02 5.33.02 10.65 0 15.98-4.5.01-8.99.02-13.49.01-.5.01-1.5.01-1.99.01-.01-5.34-.01-10.68 0-16.02zm90.99 2.02c4.16-.02 8.33-.02 12.49 0 .02 3.99.02 7.98 0 11.98-4.16.02-8.33.02-12.49 0v-11.98zm-213 9c5.16-.02 10.33-.02 15.49 0 .02 4.99.02 9.98 0 14.98-5.16.02-10.33.02-15.49 0v-14.98zm54.47 10.53c7.34-.09 14.68-.02 22.02-.04.03 7.16 0 14.31.02 21.47-7.34.06-14.67.03-22 .02-.03-7.15.02-14.3-.04-21.45zM111 413c6.33-.01 12.67 0 19 0 2.83-.01 5.67 0 8.51.01-.01 8.99-.01 17.99 0 26.98-2.84 0-5.68.01-8.51.01h-19v-27zm-45.49 1.51c4.16-.02 8.33-.02 12.49 0v11.98c-4.17.02-8.33.02-12.49 0-.02-4-.02-7.99 0-11.98zm304.97 1.53c7.17-.09 14.34-.03 21.52-.04v21c-7.18-.02-14.35.04-21.53-.04.04-6.98.04-13.95.01-20.92zm-77.01 3c9.18-.09 18.35-.02 27.53-.04-.02 8.84.05 17.68-.04 26.53-9.15-.06-18.3-.01-27.45-.04-.04-8.82.02-17.63-.04-26.45zm130.04 7.47c6.01-.02 12.02-.01 18.03-.01 2.48 0 4.96-.01 7.45-.01.02 6.17.01 12.34.01 18.51-2.34 0-4.67-.01-7 0h-18.49c-.02-6.17-.02-12.33 0-18.49zM10 439.51c7.33-.02 14.67-.02 22 0V461H10v-21.49zm348.48 30.45c.03-5.16-.01-10.31.05-15.47 5.32.01 10.64 0 15.96.02.02 5.16.02 10.32 0 15.49-5.34 0-10.68.03-16.01-.04zM99 459.51c4.16-.02 8.33-.02 12.49 0 .02 3.99.02 7.98 0 11.98-4.16.02-8.33.02-12.49 0v-11.98zm88.47 22.45c.07-7.16-.02-14.31.06-21.47 7.16.02 14.31-.01 21.47.02V482c-7.18-.02-14.35.04-21.53-.04zm53.04-13.45c6.16-.02 12.32-.02 18.49 0V487h-18.49c-.02-6.17-.02-12.33 0-18.49zm184.97 2.52c5.51-.05 11.01-.03 16.52-.03h7v23c-2.34-.01-4.67-.01-7 0-5.51 0-11.01.01-16.52-.03.02-7.65.03-15.29 0-22.94zM278 483h5c5.51-.01 11.01-.02 16.52.03-.09 6.32.1 12.65-.08 18.98-.04.5-.12 1.51-.15 2.02-4.26-.04-8.52-.04-12.77-.03H278v-21zm-247.52 4.03c6.68-.05 13.36-.05 20.03 0-.02 5.66-.01 11.31-.01 16.97.01.5.01 1.49.01 1.99-6.67.01-13.35.01-20.02 0 0-.49 0-1.49.01-1.99 0-5.66.01-11.31-.02-16.97zm351 0c6.51-.06 13.01-.03 19.52-.03v15c0 1.33-.01 2.66 0 4-6.5 0-13.01.01-19.51-.01 0-1.34 0-2.67.01-3.99 0-4.99 0-9.98-.02-14.97zM69 494c5.33-.01 10.66-.01 16 0 0 3.33.01 6.66 0 10 0 1.83-.01 3.67-.01 5.51-5.33-.01-10.65-.01-15.98 0 0-1.84-.01-3.68-.01-5.51-.01-3.34 0-6.67 0-10zm106.48.03c5.35-.05 10.69-.05 16.04.01-.02 3.3-.02 6.61-.02 9.92v5.54h-16v-5.54c0-3.31 0-6.62-.02-9.93zm42 0c7.18-.06 14.35-.03 21.52-.03-.01 3.33 0 6.66 0 9.99v11.51h-21.5v-11.54c-.01-3.31 0-6.62-.02-9.93z" fill="#fff"/><path d="M499.04 394.12c1.49-2.89 4.87-4.02 7.92-4.16 3.41-.33 6.38 1.69 9.16 3.37-.64 1.03-1.32 2.05-2.01 3.05-2.2-1.32-4.43-3.15-7.15-2.94-2.49-.21-5.34 1.84-5 4.52-.02 1.31 1.01 2.37 1.97 3.14 3.07 2.07 6.94 2.66 9.88 4.96 3.59 3.25 3.48 9.39-.16 12.55-3.25 2.36-7.83 3.21-11.57 1.53-2.26-.85-3.9-2.68-5.59-4.32.86-.86 1.69-1.74 2.56-2.61 2.12 2.6 5.38 4.82 8.89 4.21 3.48-.33 6.34-5.13 3.41-7.85-2.99-2.62-7.37-2.87-10.46-5.36-2.95-2.32-3.9-6.9-1.85-10.09zm340.95-1.24c6.32-4.47 15.62-3.53 20.93 2.11-.91.9-1.82 1.8-2.7 2.71-1.71-1.37-3.35-2.94-5.47-3.6-4.88-1.83-11.13.32-13.39 5.12-2.89 5.67-1.52 13.99 4.53 17 4.29 2.45 9.6 1.25 13.63-1.17-.03-2.35-.03-4.7-.03-7.05-2.67 0-5.33-.01-7.98 0-.01-.87-.01-2.62-.01-3.49 3.99-.02 7.98-.02 11.98 0-.02 3.5.14 7-.01 10.51.23 1.58-1.16 2.5-2.28 3.26-6.16 3.74-14.75 3.73-20.36-1.04-6.77-6.29-6.43-18.84 1.16-24.36zm149 0c5.83-4.11 14.11-3.61 19.67.77-.65 1.24-1.19 2.53-1.75 3.81-3.51-4.14-10.11-5.28-14.69-2.27-6.22 3.87-7.03 13.58-2.15 18.82 4.5 5.08 12.97 4.33 17.39-.49.47 1.18.97 2.36 1.49 3.54-4.3 3.78-10.58 4.81-15.96 3.08-4.8-1.07-8.44-5.41-9.39-10.12-1.63-6.07.12-13.38 5.39-17.14zm97.12 2.24c2.62-3.23 6.77-4.76 10.82-5.09 3.95-.27 7.7 1.35 11.07 3.26-.44 1.32-.88 2.64-1.28 3.97-1.78-1.3-3.59-2.67-5.73-3.24-5.31-1.88-11.78 1.16-13.63 6.49-2.17 5.42-.57 12.6 4.76 15.57 4.78 2.76 10.94 1.3 14.79-2.41.51 1.12 1.04 2.25 1.59 3.38-6.92 6.1-19.77 5.15-24.17-3.51-2.79-5.8-2.49-13.4 1.78-18.42zm24.38-4.7c1.59.05 3.21.08 4.83.12 2.6 4.56 5.06 9.2 7.68 13.75 2.52-4.6 5.11-9.16 7.67-13.75 1.6-.04 3.21-.07 4.84-.12-3.05 5.06-6.06 10.15-9.16 15.18-.59 1.04-1.36 2.1-1.31 3.37-.17 3.84.01 7.68-.04 11.53-1.35-.01-2.68-.01-4 0-.06-3.85.12-7.69-.04-11.53.02-1.27-.75-2.33-1.31-3.37-3.11-5.03-6.11-10.12-9.16-15.18zm-590.99.09c7-.02 14-.02 21 0 0 .87 0 2.62-.01 3.49-2.83-.01-5.66.01-8.49 0-.01 8.83.01 17.67 0 26.5-1.34-.01-2.67-.01-4 0-.01-8.83.01-17.67 0-26.5-2.84.01-5.67-.01-8.49 0-.01-.87-.01-2.62-.01-3.49zm30.76-.02c1.24.01 2.49.01 3.75.01 4.16 10 8.21 20.04 12.4 30.03-1.58-.02-3.16-.03-4.72-.02-1.05-2.59-2.08-5.17-2.96-7.82-4.36-.32-8.73-.17-13.1-.2-1.04 2.56-2.01 5.14-2.89 7.77-1.55.16-3.1.29-4.65.39 3.86-10.13 8.24-20.06 12.17-30.16zm-3.4 18.51c3.44 0 6.89 0 10.35-.01-1.55-4.43-3.32-8.78-5.05-13.14-1.89 4.33-3.63 8.73-5.3 13.15zM571 390.53c1.37-.03 2.75-.07 4.14-.12 5.73 7.81 11.44 15.63 17.26 23.37.22-7.76.01-15.53.13-23.29h3.94c.04 10.06.07 20.12-.01 30.18-1.87-.22-4.26.15-5.25-1.87-5.42-7.29-10.67-14.71-16.18-21.92-.07 7.87-.01 15.74-.03 23.62-1.34-.01-2.67-.01-4 0-.01-9.99 0-19.98 0-29.97zm33-.01c6.49.04 13.76-.91 19.33 3.18 7.31 5.95 6.92 19.31-1.14 24.46-5.52 3.13-12.12 2.25-18.19 2.32v-29.96zm4 3.47v23.02c4.03.01 8.46.44 11.95-2.05 6.13-4.27 6.03-14.63-.01-18.92-3.48-2.49-7.91-2.07-11.94-2.05zm35.27-3.5c1.24 0 2.49.01 3.74.01 4.16 10 8.21 20.04 12.4 30.03-1.59-.02-3.16-.03-4.72-.02-1.05-2.58-2.08-5.17-2.95-7.81-4.37-.34-8.74-.18-13.11-.21-1.04 2.56-2.02 5.15-2.89 7.77-1.56.16-3.11.29-4.65.39 3.87-10.13 8.23-20.06 12.18-30.16zM639.86 409c3.44 0 6.89 0 10.35-.01-1.55-4.43-3.32-8.78-5.05-13.15-1.89 4.34-3.63 8.74-5.3 13.16zm23.67 11.53c-.05-10.01-.06-20.02 0-30.03 4.43.18 9.01-.6 13.33.71 4.69 1.45 6.43 7.53 4.23 11.66-.85 2.47-3.48 3.39-5.51 4.66 2.89 4.19 5.42 8.61 8.15 12.91-1.59.02-3.17.05-4.73.1-2.82-4.34-5.36-8.85-8.27-13.13l-3.22.12c-.01 4.32-.01 8.63-.01 12.95-1 .01-2.98.04-3.97.05zm3.98-26.55c-.02 3.35-.02 6.7 0 10.05 3.15.12 6.35 0 9.33-1.17.9-2.22 1.84-4.87.27-7.04-2.49-2.6-6.4-1.68-9.6-1.84zm21.02 26.52c-.06-10-.05-20 0-30 6.94.04 15.19-1 20.61 4.34 5.61 6.28 5.18 17.47-1.58 22.79-5.6 3.71-12.67 2.79-19.03 2.87zm3.98-26.51c-.02 7.67-.02 15.35 0 23.02 3.41-.07 7.06.44 10.24-1.12 5.52-2.34 7.69-9.57 5.38-14.88-1.19-3.98-5.11-6.56-9.12-6.93-2.17-.18-4.34-.1-6.5-.09zm36.49-3.48c5.83-.02 11.66-.02 17.5 0V394H733c-.01 3-.01 6 0 9h12.5v3.49c-4.16.02-8.31.02-12.46-.01-.05 3.5-.06 7.01-.04 10.52h13.49c.01.87.01 2.62.01 3.49-5.83.02-11.67.02-17.5 0v-29.98zm24 .02c1.37-.03 2.75-.07 4.14-.12 5.73 7.8 11.44 15.63 17.26 23.37.22-7.76.01-15.53.13-23.29h3.94c.04 10.06.07 20.12-.01 30.18-1.87-.23-4.26.15-5.25-1.87-5.42-7.29-10.66-14.71-16.18-21.92-.07 7.87-.01 15.75-.03 23.62-1.34-.01-2.67-.01-4 0-.01-9.99 0-19.98 0-29.97zm33.53 29.98c-.06-10.01-.05-20.01 0-30.02 5.82.01 11.64-.01 17.47.02V394h-13.49c-.02 3-.02 6 0 9 4.17 0 8.34-.01 12.52.01-.04 1.17-.07 2.34-.09 3.52-4.15-.04-8.29-.04-12.43-.02-.02 3.49-.02 6.99 0 10.49H804v3.49c-5.82.02-11.65 0-17.47.02zm24 .02c-.05-10.01-.06-20.02 0-30.03 4.43.18 9-.6 13.32.7 4.69 1.45 6.44 7.54 4.24 11.67-.84 2.47-3.48 3.39-5.51 4.65 2.88 4.2 5.42 8.62 8.15 12.92-1.59.02-3.17.05-4.74.09-2.81-4.34-5.36-8.84-8.25-13.12l-3.23.12c-.01 4.32-.01 8.63-.01 12.95-1 .01-2.98.04-3.97.05zm3.98-26.55c-.02 3.35-.02 6.7 0 10.05 3.15.13 6.36 0 9.34-1.17.89-2.22 1.83-4.88.26-7.04-2.5-2.6-6.4-1.68-9.6-1.84zm49.56-3.56l4.75.12c2.57 4.58 5.1 9.18 7.64 13.78 2.55-4.61 5.17-9.17 7.71-13.78l4.76-.12c-3.27 5.96-7.23 11.54-10.29 17.61-.37 4.14-.05 8.31-.14 12.48-1.35-.02-2.68-.02-4 0-.06-3.85.11-7.69-.04-11.53.02-1.49-.99-2.68-1.63-3.92-2.96-4.86-5.93-9.71-8.76-14.64zm39.46 30.09c-.06-10.01-.06-20.01 0-30.02 5.82.01 11.64-.01 17.47.02V394h-13.49c-.02 3-.02 6 0 9 4.17 0 8.34-.01 12.52.01-.04 1.17-.07 2.34-.09 3.52-4.15-.04-8.29-.04-12.43-.02-.02 3.49-.02 6.99 0 10.49H921v3.49c-5.83.02-11.65 0-17.47.02zm24 0c-.05-10.01-.06-20.01 0-30.02 5.49.01 10.98-.01 16.47.02V394h-12.49c-.02 3.33-.02 6.66 0 10 3.83 0 7.67 0 11.52.01-.04 1.17-.07 2.34-.09 3.52-3.81-.04-7.63-.04-11.43-.02-.01 4.33 0 8.67-.04 13h-3.94zm22.47-30c5.5-.02 11-.02 16.5 0V394H954c-.01 3.33-.01 6.66 0 10h11.49c.01.87.01 2.62.01 3.49-3.83.02-7.64.02-11.46-.01-.06 4.34-.05 8.68-.04 13.02-1.35-.01-2.68-.01-4 0-.01-10 0-20 0-29.99zm23-.01h4v30c-1.35-.01-2.68-.01-4 0-.01-10-.01-20 0-30zm41.53 30.01c-.05-10.01-.06-20.02 0-30.02h3.94c.05 10.01.05 20.01 0 30.02h-3.94zm12 0c-.06-10.01-.06-20.01 0-30.02 5.82.01 11.64-.01 17.47.02V394h-13.49c-.02 3-.02 6 0 9 4.17 0 8.34-.01 12.52.01-.05 1.17-.08 2.34-.09 3.52-4.15-.04-8.29-.04-12.43-.02-.02 3.5-.02 6.99 0 10.49H1044v3.49c-5.83.02-11.65 0-17.47.02zm24.47-29.98c1.37-.03 2.74-.07 4.13-.12 5.74 7.8 11.45 15.63 17.27 23.37.22-7.76.01-15.53.13-23.29h3.94c.04 10.06.07 20.12-.01 30.18-1.87-.22-4.26.15-5.25-1.87-5.42-7.28-10.66-14.71-16.18-21.92-.07 7.87-.01 15.75-.03 23.62-1.35-.01-2.68-.01-4 0-.01-9.99 0-19.98 0-29.97zm99-.01c6.49.04 13.75-.91 19.33 3.17 7.31 5.96 6.92 19.32-1.14 24.47-5.52 3.13-12.12 2.25-18.19 2.32v-29.96zm4 3.47c-.01 7.67 0 15.35 0 23.02 4.03.01 8.46.44 11.94-2.05 6.14-4.26 6.04-14.63.01-18.92-3.49-2.49-7.92-2.07-11.95-2.05zm34.84-3.59c1.27.09 2.56.2 3.86.32 3.93 10.02 8.14 19.91 12.21 29.87-1.62-.07-3.21-.12-4.8-.15-.99-2.66-2.06-5.29-3.09-7.93-4.33-.02-8.66-.03-12.99.04-.98 2.65-1.98 5.29-2.99 7.94-1.49 0-2.98.02-4.44.05 3.96-10.1 8.2-20.08 12.24-30.14zm1.71 5.3c-1.68 4.46-3.51 8.85-5.21 13.3 3.45 0 6.9 0 10.36-.03-1.56-4.48-3.34-8.88-5.15-13.27zm11.95-5.19c7-.02 14-.02 21 0 0 .87 0 2.62-.01 3.49-2.84-.01-5.67 0-8.49 0-.01 8.83.01 17.67 0 26.5-1.35-.01-2.68-.01-4 0-.01-8.83 0-17.67 0-26.5-2.84.01-5.67-.01-8.49 0-.01-.87-.01-2.62-.01-3.49zm30.76-.02c1.24.01 2.49.01 3.75.01 4.16 10 8.21 20.04 12.4 30.02-1.59-.01-3.17-.02-4.72-.01-1.05-2.58-2.09-5.17-2.96-7.81-4.36-.33-8.74-.18-13.1-.21-1.05 2.56-2.02 5.15-2.89 7.77-1.56.16-3.11.29-4.65.39 3.86-10.13 8.24-20.06 12.17-30.16zm-3.4 18.51c3.44 0 6.89 0 10.35-.01-1.56-4.43-3.33-8.79-5.06-13.15-1.88 4.34-3.62 8.74-5.29 13.16z" fill="#6b7f89"/><path d="M189.03 436.03a362 362 0 0 1 12.33 0c.19 4.11.19 8.22.01 12.34-4.11.18-8.23.18-12.34-.01a362 362 0 0 1 0-12.33zm207.61 16c4.1-.07 8.21-.08 12.33 0 .07 3.98.07 7.96 0 11.94-4.12.07-8.23.07-12.34 0-.18-3.98-.18-7.96.01-11.94zm553.92 7.63c18.58-2.78 38.73 3.22 51.81 16.95 9 9.05 14.39 21.34 15.95 33.94 2.34 16.83-1.72 34.92-12.57 48.22-3.31 3.66-6.73 7.3-10.8 10.12-16.51 11.61-38.83 14.1-57.63 6.96-13.07-4.55-23.92-14.5-30.43-26.6-11.14-22.09-8.86-50.91 7.25-70 9.18-10.75 22.43-17.75 36.42-19.59zm-.39 8.48a49.08 49.08 0 0 0-14.24 4.71c-13.1 6.52-22.44 19.6-25.16 33.88-3.35 15.97-.45 33.76 9.87 46.7 9.24 11.9 24.51 18.08 39.36 18.11 10.76-.31 21.59-3.58 30.21-10.14 8.26-5.94 13.87-14.99 16.92-24.58 4.44-15.61 3.05-33.32-5.71-47.21-8.36-13.35-23.71-21.77-39.4-22.14-3.96-.05-7.95-.09-11.85.67zm-454.13-7.66c10 .07 20-.02 30 .04 9.01.43 18.6 2.65 25.12 9.32 9.67 8.82 11.99 24.1 6.33 35.74-3.58 7.39-10.37 13.13-18.17 15.61-10.94 3.46-22.55 1.99-33.82 2.31 0 18.15-.03 36.31.02 54.46-3.18.03-6.35.04-9.52.03.04-39.17-.03-78.34.04-117.51zm9.46 8.51c-.01 15.34-.01 30.68 0 46.02 6.16.01 12.33-.01 18.49.02 6.33.06 12.88-1.18 18.19-4.79 11.63-8.07 11.86-27.73.52-36.17-5.15-3.55-11.49-5.15-17.7-5.1-6.5.02-13 .01-19.5.02zM687.49 460c1.73.01 3.46.05 5.2.11 16.73 39.31 33.36 78.65 50.23 117.89-3.59-.02-7.16-.02-10.74.01-4.91-11.63-9.69-23.32-14.44-35.01-17.59-.04-35.18.02-52.77-.04-1.25.21-3.31-.49-3.8 1.14-4.74 11.28-9.41 22.6-14.13 33.89-3.24-.01-6.47-.01-9.7.01 16.71-39.34 33.55-78.62 50.15-118zm2.02 14.23c-8.16 20.1-16.26 40.23-24.43 60.32 16.29-.08 32.58-.06 48.88-.01-4.72-12.31-9.91-24.43-14.72-36.69-3.4-7.81-6.18-15.87-9.73-23.62zm41.99-13.71c26.49-.05 52.97.02 79.46-.04.02 2.84.03 5.67.03 8.52-11.66-.02-23.33-.02-35-.01-.01 36.34-.01 72.67.01 109-3.18.01-6.35 0-9.52-.03.05-36.32.02-72.65.02-108.97-11.67-.01-23.33 0-34.99 0-.01-2.83-.02-5.65-.01-8.47zm96.54-.04c19.97.04 39.95.04 59.92 0 .02 2.84.03 5.67.04 8.51-16.83 0-33.67-.01-50.5 0-.01 15.34-.01 30.68 0 46.02 15.66.01 31.33 0 46.99 0 0 2.82 0 5.64.01 8.47-15.67.04-31.33-.01-47 .02 0 18.15-.03 36.31.02 54.46-3.18.03-6.35.04-9.52.03.04-39.17-.03-78.34.04-117.51zm214.47.03c9.84.01 19.69-.03 29.54.01 9.25.38 18.91 3.12 25.62 9.81 7.43 7.42 9.76 18.86 7.55 28.92-1.49 8.48-7.34 15.95-15.05 19.7-3.94 2.19-8.33 3.32-12.7 4.29 10.31 15.83 20.48 31.75 30.73 47.62 1.51 2.44 3.07 4.86 4.83 7.15-3.97-.03-7.94-.02-11.9-.03-11.31-18.22-22.92-36.25-34.21-54.47-4.99-.03-9.96-.02-14.93-.01 0 18.17-.01 36.33.01 54.49-3.18.01-6.35 0-9.52-.03.06-39.15 0-78.3.03-117.45zm9.48 8.48c-.01 15.34-.01 30.68 0 46.02 6.68-.02 13.36.05 20.05-.01 7.45-.18 15.41-2.65 20.13-8.76 4.26-5.34 5-12.64 3.97-19.19-.64-4.54-2.85-8.87-6.39-11.82-5.06-4.58-12.07-6.28-18.74-6.26-6.34.02-12.68.01-19.02.02zm174.36-8.55c3.48.09 6.98.08 10.47.01.69 4.09.97 8.24 1.4 12.37 3.6 35.06 7.05 70.14 10.73 105.19-3.13-.01-6.25-.02-9.37-.04-2.99-33.87-6.69-67.67-9.8-101.53-1.26 2.02-2.11 4.26-3.01 6.45-13.07 31.58-26.35 63.07-39.43 94.65-.43 1.02-1.08 1.91-1.74 2.78-14.58-34.73-29.04-69.5-43.62-104.22-.82 5.67-1.12 11.4-1.75 17.09-2.64 28.26-5.45 56.51-7.96 84.79-3.12.01-6.23.01-9.34.01 4.22-39.15 7.84-78.36 12.09-117.5 3.55-.02 7.11-.04 10.67.18 13.04 33.49 26.81 66.7 40.07 100.11 13.56-33.43 26.99-66.92 40.59-100.34zM582.48 577.96c.06-39.15-.01-78.31.04-117.46 3.15 0 6.31 0 9.47.01 0 36.33-.01 72.66 0 108.99 13.99 0 27.98.02 41.97-.02.02 2.84.03 5.67.03 8.52-17.17-.04-34.34.03-51.51-.04zm667.99-116.93c5.01-.03 10.03-.03 15.06 0l-.04 1.46c-2.17 0-4.32-.01-6.46-.01-.18 6.95.14 13.9-.14 20.84l-.9.39-.88-.39c-.29-6.95.03-13.9-.14-20.84-2.16 0-4.32.01-6.46.01l-.04-1.46zm19.02.21c1.73-1.19 2.33.94 2.91 2.19 2.22 5.61 4.4 11.24 6.74 16.8 2.51-6.27 4.92-12.59 7.54-18.82.54-.17 1.62-.53 2.16-.71.61 7.7 1.49 15.37 2.24 23.06-.47-.21-1.4-.61-1.87-.81-.54-6.32-1.13-12.63-1.85-18.93-2.66 6.75-5.7 13.36-8.22 20.17-2.9-6.84-5.68-13.73-8.62-20.55-.21 6.57-1.03 13.11-1.73 19.64-.44.1-1.32.31-1.76.41.98-7.47 1.42-15 2.46-22.45zM70.03 467.03a362 362 0 0 1 12.33 0c.19 4.11.19 8.22.01 12.34-4.11.18-8.23.18-12.34 0-.07-4.12-.07-8.23 0-12.34zM286.52 504c4.25-.01 8.51-.01 12.77.03-.4 3.8-.32 7.64-.3 11.46-4.16.01-8.32.01-12.48 0-.02-3.83-.02-7.66.01-11.49zm-95.04 11.03c7.51-.06 15.01-.02 22.52-.03-.01 7.51.03 15.01-.03 22.52-7.49-.04-14.98 0-22.46-.03-.03-7.49.01-14.97-.03-22.46zM50 535h12.49c.01 4.16.02 8.33 0 12.49-4.16.01-8.33.01-12.49 0V535zm300.51 2H364v13.49c-4.5.01-9 .01-13.49 0-.02-4.5-.02-8.99 0-13.49zm-233 3H130v12.49c-4.17.01-8.33.01-12.49 0-.02-4.16-.02-8.33 0-12.49zm301.52 15.48c7.65.03 15.29.03 22.94 0 .06 7.51.02 15.01.03 22.52h-23c.01-7.51-.04-15.02.03-22.52zM0 565h13v13H0v-13z" fill="#00a8e4"/><g fill="#9db2c0"><path d="M49.01 457.01c3.66-.03 7.32-.03 10.98 0 .03 3.66.03 7.32 0 10.98-3.66.02-7.32.02-10.98 0-.03-3.66-.03-7.32 0-10.98zm271.53 11.53c6.15-.07 12.3-.08 18.46 0 0 6.15.01 12.3-.01 18.45-6.15.02-12.3.01-18.45.01-.08-6.16-.07-12.31 0-18.46z"/><ellipse cx="163.5" cy="477.5" rx="6.34" ry="6.36"/><path d="M378.48 526.03c6.84-.06 13.68-.02 20.52-.03-.01 6.84.03 13.68-.03 20.52-6.82-.04-13.64-.01-20.47-.02-.02-6.83.02-13.65-.02-20.47zM230 538c7.17.01 14.35-.03 21.52.03-.04 7.15-.01 14.31-.02 21.47-7.16.01-14.32-.02-21.47.02-.06-7.18-.02-14.35-.03-21.52zM78 552c6.17.01 12.35-.03 18.52.03-.04 6.15-.01 12.31-.02 18.47-6.16.01-12.32-.02-18.47.02-.06-6.18-.02-12.35-.03-18.52z"/></g><g fill="#58666f"><path d="M77 518c4.5-.01 8.99-.01 13.49 0 .02 4.33.02 8.66 0 13H77c-.01-4.34-.01-8.67 0-13z"/><circle cx="214" cy="565" r="7.76"/><path d="M333 567.51c3.67-.02 7.33-.02 11 0V578h-11c-.01-3.5-.01-7 0-10.49z"/></g><path d="M11.853 684.814v29.563c0 1.561.213 3.113.61 4.619a14.236 14.236 0 0 0 2.042 4.471 11.1 11.1 0 0 0 3.751 3.335 13.354 13.354 0 0 0 11.446 0 11.11 11.11 0 0 0 3.751-3.335 13.758 13.758 0 0 0 2.042-4.471c.397-1.506.601-3.058.61-4.619v-29.563h6.559v30.616a20.14 20.14 0 0 1-1.441 7.696 18 18 0 0 1-3.945 5.95 17.086 17.086 0 0 1-5.95 3.899 20.497 20.497 0 0 1-14.698 0 17.441 17.441 0 0 1-5.95-3.899 18.303 18.303 0 0 1-3.945-5.95 20.02 20.02 0 0 1-1.441-7.696v-30.616h6.559zM67.7 733.5a4.47 4.47 0 0 1-3.178-1.33 4.348 4.348 0 0 1-1.33-3.187c0-1.201.471-2.347 1.33-3.178a4.204 4.204 0 0 1 3.178-1.33c1.201 0 2.347.48 3.187 1.33a4.341 4.341 0 0 1 1.33 3.178 4.43 4.43 0 0 1-1.33 3.187 4.322 4.322 0 0 1-3.187 1.33zm27.355-10.494a10.813 10.813 0 0 0 4.545 3.945 13.856 13.856 0 0 0 5.682 1.247 11.634 11.634 0 0 0 6.467-2.042 7.694 7.694 0 0 0 2.273-2.541 6.528 6.528 0 0 0 .868-3.483 5.174 5.174 0 0 0-1.783-4.241 15.716 15.716 0 0 0-4.397-2.467 76.545 76.545 0 0 0-5.719-1.894 24.3 24.3 0 0 1-5.719-2.541 13.895 13.895 0 0 1-4.397-4.398 13.77 13.77 0 0 1-1.783-7.465 12.73 12.73 0 0 1 3.843-8.869 15.53 15.53 0 0 1 5.081-3.298 19.267 19.267 0 0 1 7.465-1.33c2.568 0 5.118.37 7.576 1.099a12.794 12.794 0 0 1 6.328 4.435l-5.303 4.85a8.63 8.63 0 0 0-3.483-3.067 11.284 11.284 0 0 0-5.118-1.173 12.17 12.17 0 0 0-4.545.721 8.599 8.599 0 0 0-2.919 1.848 6.774 6.774 0 0 0-1.552 2.42 7.35 7.35 0 0 0-.453 2.383 6.097 6.097 0 0 0 1.783 4.702 13.612 13.612 0 0 0 4.397 2.651 59.98 59.98 0 0 0 5.719 1.848 24.836 24.836 0 0 1 5.719 2.273c1.746.97 3.243 2.31 4.397 3.945a11.659 11.659 0 0 1 1.783 6.855 14.925 14.925 0 0 1-1.33 6.291 13.606 13.606 0 0 1-3.566 4.702 16.447 16.447 0 0 1-5.303 2.956 20.565 20.565 0 0 1-6.559 1.025 23.535 23.535 0 0 1-8.786-1.626 14.784 14.784 0 0 1-6.633-5.035l5.422-4.726zm49.971 10.494a4.47 4.47 0 0 1-3.178-1.33 4.348 4.348 0 0 1-1.33-3.187c0-1.201.471-2.347 1.33-3.178a4.204 4.204 0 0 1 3.178-1.33c1.201 0 2.347.48 3.187 1.33a4.341 4.341 0 0 1 1.33 3.178 4.435 4.435 0 0 1-1.33 3.187 4.265 4.265 0 0 1-3.187 1.33zm54.035-48.686h16.86c3.039-.056 6.06.342 8.98 1.173a23.223 23.223 0 0 1 6.67 3.104 20.388 20.388 0 0 1 4.702 4.471 23.447 23.447 0 0 1 2.956 5.192 26.418 26.418 0 0 1 1.552 5.303 24.38 24.38 0 0 1-1.22 13.904 22.413 22.413 0 0 1-5.035 7.696 25.208 25.208 0 0 1-8.315 5.414 29.778 29.778 0 0 1-11.446 2.042h-15.742v-48.299h.038zm6.56 42.173h8.259c2.67.009 5.321-.37 7.88-1.136a19.55 19.55 0 0 0 6.513-3.372 16.592 16.592 0 0 0 4.434-5.608 17.83 17.83 0 0 0 1.626-7.88 24.022 24.022 0 0 0-.758-5.414 16.426 16.426 0 0 0-8.601-10.652 20.563 20.563 0 0 0-9.553-1.931h-9.811c.002 0 .011 35.993.011 35.993zm55.274-42.173h31.18v6.134h-24.621v14.375h22.921v6.134h-22.921v15.493h25.868v6.134h-32.427v-48.27zm51.911 0h16.971a20.026 20.026 0 0 1 7.649 1.247 12.554 12.554 0 0 1 4.739 3.224 10.76 10.76 0 0 1 2.421 4.36c.434 1.506.665 3.049.684 4.619a16.552 16.552 0 0 1-.684 4.619 10.963 10.963 0 0 1-2.421 4.36 13.637 13.637 0 0 1-4.739 3.224 20.049 20.049 0 0 1-7.649 1.247h-10.412v21.323h-6.559v-48.223zm6.559 21.248h8.601c1.266 0 2.531-.111 3.788-.305a9.454 9.454 0 0 0 3.335-1.136 6.078 6.078 0 0 0 2.347-2.347c.64-1.226.94-2.601.868-3.982a8.142 8.142 0 0 0-.868-3.982 6.078 6.078 0 0 0-2.347-2.347 11.195 11.195 0 0 0-3.335-1.136 25.152 25.152 0 0 0-3.788-.305h-8.601v15.54zm54.211-21.248h5.95l20.648 48.225h-7.649l-4.85-11.936H364.68l-4.785 11.936h-7.65l21.331-48.225zm11.742 30.616l-9.017-22.172h-.148l-9.128 22.172h18.293zm31.374-30.616h16.971a20.026 20.026 0 0 1 7.649 1.247 12.561 12.561 0 0 1 4.739 3.224 10.76 10.76 0 0 1 2.421 4.36c.434 1.506.665 3.049.684 4.619a12.121 12.121 0 0 1-.831 4.471 12.487 12.487 0 0 1-2.347 3.899 13.324 13.324 0 0 1-8.675 4.398l13.719 22.006h-8.185l-12.278-21.248h-7.308v21.248h-6.559v-48.224zm6.514 21.248h8.601c1.266 0 2.531-.111 3.788-.305a9.454 9.454 0 0 0 3.335-1.136 6.078 6.078 0 0 0 2.347-2.347c.64-1.226.94-2.601.868-3.982a8.142 8.142 0 0 0-.868-3.982 6.078 6.078 0 0 0-2.347-2.347 11.13 11.13 0 0 0-3.335-1.136 25.152 25.152 0 0 0-3.788-.305h-8.555l-.046 15.54zm54.211-15.114h-15.521v-6.134h37.693v6.134H484.05v42.091h-6.559v-42.137l-.074.046zm38.848-6.134h9.737l15.345 36.566h.268l15.197-36.566h9.728v48.225h-6.559v-39.725h-.148l-16.297 39.725h-4.361l-16.297-39.725h-.148v39.725h-6.559v-48.225h.094zm72.485 0h31.18v6.134h-24.62v14.375h22.921v6.134H595.31v15.493h25.868v6.134H588.75v-48.27zm51.901 0h8.601l26.598 39.725h.148v-39.725h6.559v48.225h-8.315l-26.866-39.725h-.148v39.725h-6.559v-48.225h-.018zm74.601 6.134h-15.53v-6.134h37.665v6.134h-15.539v42.091h-6.559v-42.137l-.037.046zm90.639 43.384a26.079 26.079 0 0 1-10.162-1.931 23.729 23.729 0 0 1-7.954-5.34 25.054 25.054 0 0 1-5.192-8.028 27.564 27.564 0 0 1 0-20.085 24.655 24.655 0 0 1 5.192-8.028 23.335 23.335 0 0 1 7.954-5.34 27.644 27.644 0 0 1 20.325 0 24.075 24.075 0 0 1 7.954 5.34 25.068 25.068 0 0 1 5.192 8.028 27.554 27.554 0 0 1 0 20.085 24.655 24.655 0 0 1-5.192 8.028 23.335 23.335 0 0 1-7.954 5.34 26.261 26.261 0 0 1-10.163 1.931zm0-6.134a17.767 17.767 0 0 0 7.502-1.552 17.46 17.46 0 0 0 5.719-4.13 18.418 18.418 0 0 0 3.695-6.097 22.278 22.278 0 0 0 0-14.929 17.988 17.988 0 0 0-3.695-6.097 17.478 17.478 0 0 0-5.719-4.13 18.891 18.891 0 0 0-15.003 0 17.46 17.46 0 0 0-5.719 4.13 18.338 18.338 0 0 0-3.695 6.097 22.266 22.266 0 0 0 0 14.929 18.434 18.434 0 0 0 3.695 6.097 17.342 17.342 0 0 0 5.719 4.13 17.913 17.913 0 0 0 7.501 1.552zm44.825-43.384h30.348v6.134h-23.789v15.16h22.172v6.134h-22.172v20.879h-6.559v-48.307zm78.536 0h31.18v6.134h-24.62v14.375h22.921v6.134h-22.921v15.493h25.868v6.134h-32.427l-.001-48.27zm51.911 0h8.601l26.598 39.725h.148v-39.725h6.559v48.225h-8.37l-26.865-39.725h-.148v39.725h-6.559v-48.225h.036zm64.531 0h31.18v6.134h-24.63v14.375h22.921v6.134h-22.921v15.493h25.868v6.134h-32.418v-48.27zm51.902 0h16.971a20.034 20.034 0 0 1 7.65 1.247 12.273 12.273 0 0 1 4.739 3.224 10.885 10.885 0 0 1 2.43 4.36c.434 1.506.665 3.049.684 4.619a12.121 12.121 0 0 1-.831 4.471 12.487 12.487 0 0 1-2.347 3.899 13.324 13.324 0 0 1-8.675 4.398l13.71 22.006h-8.185l-12.278-21.248h-7.317v21.248h-6.559v-48.225h.008v.001zm6.513 21.248h8.601c1.266 0 2.531-.111 3.788-.305a9.454 9.454 0 0 0 3.335-1.136 6.338 6.338 0 0 0 2.347-2.347c.64-1.226.94-2.601.868-3.982a8.142 8.142 0 0 0-.868-3.982 6.078 6.078 0 0 0-2.347-2.347 11.13 11.13 0 0 0-3.335-1.136 25.152 25.152 0 0 0-3.788-.305h-8.601v15.54zm86.509.046v23.798a21.914 21.914 0 0 1-4.019 1.894 44.472 44.472 0 0 1-4.619 1.404c-1.62.391-3.266.668-4.924.831a41.224 41.224 0 0 1-4.619.268c-3.75.065-7.474-.63-10.948-2.042a23.448 23.448 0 0 1-13.146-13.617 27.032 27.032 0 0 1-1.746-9.737 26.58 26.58 0 0 1 1.894-10.042 24.655 24.655 0 0 1 5.192-8.028 23.335 23.335 0 0 1 7.954-5.34 26.256 26.256 0 0 1 10.162-1.931 30.302 30.302 0 0 1 10.911 1.663 19.947 19.947 0 0 1 7.086 4.619l-4.619 4.961a17.166 17.166 0 0 0-6.328-3.982 21.762 21.762 0 0 0-7.012-1.136 17.835 17.835 0 0 0-7.502 1.552 17.46 17.46 0 0 0-5.719 4.13 18.338 18.338 0 0 0-3.695 6.097 21.184 21.184 0 0 0-1.284 7.465 20.1 20.1 0 0 0 1.441 7.613 18.704 18.704 0 0 0 3.945 6.097 18.476 18.476 0 0 0 13.34 5.534c2.217 0 4.425-.213 6.596-.647a17.193 17.193 0 0 0 5.266-1.894v-13.451h-10.726v-6.134h17.165l-.046.055zm33.527 6.402l-18.265-27.715h8.37l13.146 21.248 13.562-21.248h7.991l-18.265 27.715v20.611h-6.559V712.51h.02z" fill="#8295a1"/><path d="M0 637.522h1247.934" fill="none" stroke="#8295a1" stroke-miterlimit="10"/></svg>