<svg xmlns="http://www.w3.org/2000/svg" viewBox="0 0 132.6 29.1" class="c-bRnNSD c-bRnNSD-jOYNif-color-black"><path d="M121 0h-3.1v9.1h3.1V0zM128.1 9.1c2.5 0 4.6-2 4.6-4.6s-2-4.6-4.6-4.6c-2.5 0-4.6 2-4.6 4.6s2.1 4.6 4.6 4.6zM9.4 4.6L0 28.6h4.3l2.2-6h10.1l2.3 6h4.4L14 4.6H9.4zM7.9 18.8L11.6 9l3.7 9.8H7.9zM35.5 21.5c0 .5-.1 1-.4 1.5-.2.5-.5.9-.9 1.2-.4.3-.8.6-1.3.8-.5.2-1 .2-1.5.2-2.3 0-3.3-1.7-3.3-3.8V12h-4v10.4c-.1.8.1 1.7.4 2.5.3.8.8 1.5 1.4 2.1.6.6 1.3 1 2.1 1.3.8.3 1.6.4 2.5.3 1.9 0 4.6-.5 5.4-2v1.8h3.7V12.1h-3.9l-.2 9.4zM95.4 23.2v-7.7h3.4V12h-3.4V7h-3.6v2.5c0 .3 0 .7-.1 1-.1.3-.3.6-.5.9-.2.2-.5.4-.8.5-.3.1-.7.2-1 .1H85V7h-3.6v2.5c0 .3 0 .7-.1 1-.1.3-.3.6-.5.9-.2.2-.5.4-.9.5-.3.1-.7.2-1 .1H78v3.5h3.1v8.3c0 3.1 1.9 4.9 4.9 4.9.8 0 1.6-.1 2.4-.4v-3.2c-.4.1-.9.1-1.4.1-1.4 0-2.1-.6-2.1-2.1v-7.7h6.4v8.3c0 3.1 1.9 4.9 5 4.9.8 0 1.6-.1 2.4-.4V25c-.4.1-.9.1-1.4.1-1.3.2-1.9-.4-1.9-1.9zM77.1 17.4c-.3-1.2-.9-2.3-1.7-3.2-.8-.9-1.7-1.6-2.8-2.1-1.1-.5-2.4-.8-3.7-.8-1.2 0-2.4.2-3.5.7-1 .4-2 1.1-2.8 1.9-.8.8-1.4 1.8-1.8 2.8-.9 2.2-.9 4.8 0 7 .4 1.1 1 2 1.8 2.8.8.8 1.7 1.4 2.8 1.9 1.1.5 2.3.7 3.5.7 1 0 2-.1 2.9-.4.9-.3 1.7-.6 2.5-1.1.7-.5 1.4-1.1 1.9-1.9.5-.7.9-1.6 1.2-2.5H73c-.3.7-.8 1.3-1.4 1.8-.7.4-1.6.6-2.4.6-.6 0-1.1-.1-1.7-.3-.5-.2-1-.5-1.4-.9-.8-.8-1.4-1.9-1.6-3h13.1c0-1.3-.2-2.7-.5-4zm-12.5 1.1c.2-1.1.7-2 1.5-2.7.8-.7 1.7-1 2.8-1 .5 0 1 .1 1.5.2.5.2.9.4 1.3.7.4.3.7.7 1 1.2.3.5.5 1.1.5 1.7l-8.6-.1zM116.3 17.4c-.3-1.2-.9-2.3-1.7-3.2-.7-.9-1.7-1.6-2.7-2.1-1.2-.5-2.4-.8-3.7-.8-1.2 0-2.4.2-3.5.7-1 .4-2 1.1-2.8 1.9-.8.8-1.4 1.8-1.8 2.8-.9 2.2-.9 4.8 0 7 .4 1.1 1 2 1.8 2.8.8.8 1.7 1.4 2.8 1.9 1.1.5 2.3.7 3.5.7 1 0 2-.1 2.9-.4.9-.3 1.7-.7 2.5-1.2.7-.5 1.4-1.1 1.9-1.9.5-.7.9-1.6 1.2-2.5h-4.4c-.3.7-.8 1.3-1.4 1.8-.7.4-1.6.6-2.4.6-.6 0-1.1-.1-1.6-.3-.5-.2-1-.5-1.4-.9-.8-.8-1.4-1.9-1.6-3H117c-.2-1.3-.4-2.6-.7-3.9zm-12.5 1.1c.2-1.1.7-2 1.6-2.7.8-.7 1.7-1 2.8-1 .5 0 1 .1 1.5.2s.9.4 1.3.7c.4.3.7.7 1 1.2.3.5.5 1.1.5 1.7l-8.7-.1zM54.2 12.7c-.3-.3-.6-.5-.9-.6-1.1-.5-2.2-.7-3.4-.7h-.1c-1.2 0-2.3.2-3.4.7-1 .5-2 1.1-2.8 1.9-.8.8-1.4 1.8-1.8 2.8-.9 2.2-.9 4.8 0 7 .4 1 1 2 1.8 2.8.8.8 1.7 1.4 2.8 1.9 1.1.4 2.2.7 3.4.7h.1c2.2 0 3.6-.8 4.3-2.2v1.7h4V3.1h-4v9.6zm-1.6 11.7c-.4.4-.8.7-1.3.9-.5.2-1 .3-1.5.3s-1-.1-1.5-.3c-.5-.2-.9-.5-1.3-.9-.8-.8-1.4-1.9-1.6-3-.1-.5-.1-1.1-.1-1.6s.1-.9.2-1.4c.2-1.1.7-2 1.5-2.7.8-.6 1.7-1 2.7-1 1 0 2 .3 2.7 1 .8.7 1.4 1.7 1.5 2.7.1.5.2.9.2 1.4 0 .5 0 1.1-.1 1.6 0 1.1-.5 2.2-1.4 3z"></path></svg>