<svg xmlns="http://www.w3.org/2000/svg" viewBox="0 0 56.3 41.85"><linearGradient id="a" gradientUnits="userSpaceOnUse" x1="-335" y1="412.38" x2="-334.97" y2="412.38" gradientTransform="matrix(26.752 0 0 -26.752 8300.335 11047.87)"><stop offset="0" stop-color="#82929b"/><stop offset=".31" stop-color="#596873"/><stop offset="1" stop-color="#041220"/></linearGradient><path d="M25.376 2.469c-7.387-.002-13.377 5.986-13.378 13.373S17.985 29.22 25.372 29.22s13.377-5.986 13.378-13.373v-.007c0-7.386-5.988-13.372-13.373-13.371h-.001z" opacity=".2" fill="url(#a)"/><path d="M13.599 22.168v2.95c2.362 3 5.783 4.984 9.56 5.545v-8.495c0-6.291-9.56-6.291-9.56 0zm22.816-4.038c0-6.3-9.561-6.3-9.561 0v12.64c3.777-.37 7.132-2.15 9.56-4.796l.001-7.843v-.001z" fill="#159aac"/><path d="M26.858 30.27v3.552h5.741v-5.418a14.393 14.393 0 0 1-5.741 1.865zm-7.968-1.469v5.021h5.744v-3.515c-2.058-.104-4-.631-5.744-1.506z" fill="#094f58"/><g fill="#094f58"><path d="M56.297 5.2c0-3.78-5.745-3.78-5.745 0v28.872h5.745V5.2zm-7.966 7.909c0-3.782-5.743-3.782-5.743 0v20.964h5.743V13.109z"/><path d="M16.282 36.179l.03-9.024c-3.313-2.657-5.44-6.734-5.438-11.312.001-4.61 2.161-8.71 5.516-11.365l.007-2.114h-5.739v33.933a5.59 5.59 0 0 0 5.623 5.554h40.017v-5.672H16.282z"/><path d="M39.874 15.84v.007c0 4.491-2.044 8.503-5.25 11.162v7.064h5.742V14.456c0-.972-.383-1.69-.947-2.163.286 1.137.455 2.32.455 3.547z"/></g><path d="M12.541 22.834L1.299 34.073a4.537 4.537 0 0 0 6.417 6.415l11.24-11.24-6.415-6.414z" fill="#3cb4c4"/><path d="M39.986 15.844h-.108l-1.127-.015v.015h1.127l-1.127-.015v.017c-.002 7.388-5.993 13.377-13.38 13.375-7.39-.002-13.378-5.993-13.376-13.381S17.988 2.463 25.376 2.465c7.386.001 13.373 5.989 13.375 13.375h1.1l-1.1-.005v.005h1.1l-1.1-.005v.088l1.233-.08 1.231-.08-1.2.078 1.207-.007v-.071l-1.2.078 1.207-.007-1.163.007 1.163.006v-.013l-1.163.007 1.163.006v-.007C41.227 7.09 34.133-.002 25.383 0S9.541 7.096 9.543 15.846s7.096 15.842 15.846 15.84c8.748-.002 15.838-7.093 15.84-15.84h-1.123l1.123.015v-.015h-1.123l1.123.015v-.097l-1.231.08h-.012z" fill="#3cb4c4"/></svg>