<svg xmlns="http://www.w3.org/2000/svg" viewBox="0 0 685.1 333.68"><circle cx="69.8" cy="69.8" r="69.8"/><path d="M157.3 69.9v-1.5c0-26.5 17.3-43.8 39.8-43.8 13.5 0 22.7 5.3 29.7 13.5l-14.2 15.1c-3.7-4.4-8.3-8.1-15.1-8.1-10.1 0-17.5 8.9-17.5 23.5v.5c0 15.3 7.6 23.8 17.5 23.8 7.4 0 11.8-3.9 15.7-8.5l14 14.2c-7 8.6-16.5 14.7-30.9 14.7-21.9.2-39-16.6-39-43.4zm105.6-25.6c-18.7 0-32.2 14.3-32.2 33.8v1.8c0 19.6 13.4 33.7 31.9 33.7 18.9 0 32.4-14.3 32.4-33.8V78c0-19.6-13.5-33.7-32.1-33.7zM274 79.5c0 9.2-4.2 15.6-11 15.6s-11.2-6.5-11.2-15.7v-1.1c0-9.2 4-15.6 11-15.6 6.8 0 11.2 6.5 11.2 15.7v1.1zm29.4-33.8h21.5v8.7c3.8-5.4 9.2-10.1 17.5-10.1 8 0 13.6 3.7 16.8 9.9 4.7-5.9 10.7-9.9 19.1-9.9 12.3 0 19.9 8 19.9 21.8v45.8h-21.6V72.8c0-6-2.8-9.3-7.4-9.3-4.5 0-7.7 3.3-7.7 9.3V112H340V72.8c0-6-2.9-9.3-7.5-9.3-4.4 0-7.7 3.3-7.7 9.3V112h-21.4V45.7z" fill="#0088ce"/><path d="M407.6 101.1l5.8-7c7.1 6.6 14.5 10.7 24.1 10.7 10.3 0 17.2-6.3 17.2-14.5v-.1c0-7.1-3.4-11.6-19-17.2-17.8-6.6-24.8-13-24.8-25.1v-.2c0-12.9 10.8-22.7 25.9-22.7 9.9 0 18.1 3.1 25.7 9.7l-5.5 7.1c-6.4-5.5-13.1-8.3-20.6-8.3-9.8 0-16.2 6-16.2 13.4v.2c0 7.5 3.8 11.8 20 17.7 17.4 6.5 23.8 13.5 23.8 24.9v.1c0 13.7-11.3 23.4-26.6 23.4-11 0-20.9-3.8-29.8-12.1zm72.2-3.9V56h-7.7v-7.8h7.7V29.5h8.8v18.6h16.7v7.8h-16.7v39.7c0 6.7 3.7 9.2 9.2 9.2 2.5 0 4.9-.6 7.5-1.7v7.6c-2.8 1.3-5.9 2.2-9.6 2.2-9 .1-15.9-4.3-15.9-15.7zM541 46.8c-16.4 0-28.4 14.3-28.4 32.9v.9c0 18.6 11.9 32.7 28.3 32.6 16.4 0 28.4-14.4 28.4-33v-.7c0-18.6-11.9-32.7-28.3-32.7zm19.5 33.7c0 14.1-8.1 24.9-19.3 24.9-10.9 0-19.4-10.7-19.4-25v-.6c0-14.2 7.9-24.9 19.2-24.9 10.9 0 19.5 10.7 19.5 25v.6zm15.9.2v-.9c0-19.4 12.5-33 28.4-33 9.1 0 15.2 3.8 20.1 8.7l-5.3 6.6c-3.8-3.8-8.3-7.2-15-7.2-10.7 0-19.2 10.1-19.2 24.9v.6c0 15.1 8.8 24.8 19.6 24.8 6.3 0 10.9-3.2 15-7.4l5.1 5.9c-4.8 5.4-11.2 9.6-20.6 9.6-16 0-28.1-13.2-28.1-32.6zm60-57.2h8.8V83l28.3-34.8h10.7L661.8 75l23.3 37h-10.4l-18.9-30-10.5 12.4v17.7h-8.8V23.5z"/><path d="M38.6 70.3V42.9h28.3v11.2h36.7v10.1h14.448c-2.866-24.17-23.436-43-48.248-43C43 21.2 21.2 43 21.2 69.8c0 .168.011.333.013.5H38.6z" fill="none"/><path d="M103.6 54.1H66.9V42.9H38.6v27.4H21.213c.27 26.57 21.955 48.1 48.587 48.1 26.8 0 48.6-21.8 48.6-48.6a49.057 49.057 0 0 0-.352-5.6H103.6V54.1z" fill="#0088ce"/><path d="M23.478 84.5c6.244 19.635 24.645 33.9 46.322 33.9 20.631 0 38.288-12.926 45.328-31.1H111V78l-7.8-4.5-7.7 4.5.1 5h-15v-8.2l-10-9.6-9.7 9.6v14.9h-14v-5.2H23.478z" fill="#dcddde"/><path d="M69.8 13.6c-31 0-56.2 25.2-56.2 56.2S38.8 126 69.8 126c30.9 0 56.1-25.2 56.1-56.2s-25.1-56.2-56.1-56.2zm0 104.8c-26.8 0-48.6-21.8-48.6-48.6S43 21.2 69.8 21.2c26.7 0 48.5 21.8 48.6 48.6 0 26.8-21.8 48.6-48.6 48.6z" fill="#fff"/><path d="M159.9 219.883h33.7c11.5 0 20.2 3.1 25.7 8.7 4.8 4.8 7.5 11.4 7.5 20.1v.6c0 12.7-6.3 20.7-15.3 25.3l17.6 31.1h-24.9l-14.6-26.6h-7.8v26.6h-21.9v-85.8zm32.8 41.7c7.5 0 11.9-4.3 11.9-11.2v-.2c0-7.4-4.7-11-12-11h-10.8v22.4h10.9zm39.6 11.9v-1.3c0-20 12.5-34.2 30-34.2 19.6 0 29.4 15.2 29.4 35.4 0 .9 0 4.4-.1 6.1h-38.4c1.6 7.1 6.4 10.8 12.7 10.8 5.3 0 9.6-2.5 13.6-6.3l10.3 12.3c-6.3 6.6-14.3 10.9-25.4 10.9-18.7 0-32.1-13-32.1-33.7zm39.4-6.2c-.6-8.2-4-12.7-9.3-12.7-5.1 0-8.6 4.3-9.4 12.7h18.7zm23.7 30.8l8.1-14.3c6.5 4.5 13.4 7.2 19.2 7.2 3.7 0 5.4-1.6 5.4-3.7v-.2c0-2.6-3.1-3.8-9.7-6.4-11.6-4.3-20.2-8.9-20.2-21v-.2c0-13.4 10.2-21.3 24.6-21.3 8.2 0 16.9 2.3 24.3 7.1l-7.8 14.6c-5.3-3.3-11.5-5.6-16.3-5.6-3.4 0-5 1.6-5 3.4v.2c0 2.5 3.3 3.8 9.8 6.5 12 4.5 20.1 9.4 20.1 20.7v.2c0 13.9-10.1 21.7-25 21.7-9.1 0-18.9-2.5-27.5-8.9z" fill="#539536"/><path d="M354.9 294.783l5.8-7c7.1 6.6 14.5 10.7 24.1 10.7 10.3 0 17.2-6.3 17.2-14.5v-.1c0-7.1-3.4-11.6-19-17.2-17.8-6.6-24.8-13-24.8-25.1v-.2c0-12.9 10.8-22.7 25.9-22.7 9.9 0 18.1 3.1 25.7 9.7l-5.5 7.1c-6.4-5.5-13.1-8.3-20.6-8.3-9.8 0-16.2 6-16.2 13.4v.2c0 7.5 3.8 11.8 20 17.7 17.4 6.5 23.8 13.5 23.8 24.9v.2c0 13.7-11.3 23.4-26.6 23.4-11.1-.1-20.9-3.9-29.8-12.2zm72.2-3.9v-41.2h-7.7v-7.8h7.7v-18.7h8.8v18.6h16.7v7.8h-16.7v39.7c0 6.7 3.7 9.2 9.2 9.2 2.5 0 4.9-.6 7.5-1.7v7.6c-2.8 1.3-5.9 2.2-9.6 2.2-9.1.1-15.9-4.3-15.9-15.7zm32.8-16.6v-.9c0-18.6 12-32.9 28.4-32.9s28.3 14.1 28.3 32.7v.7c0 18.6-12 33-28.4 33-16.4.1-28.3-14-28.3-32.6zm47.8-.1v-.6c0-14.3-8.6-25-19.5-25-11.3 0-19.2 10.7-19.2 24.9v.6c0 14.3 8.5 25 19.4 25 11.2 0 19.3-10.8 19.3-24.9zm16 .2v-.8c0-19.4 12.5-33 28.4-33 9.1 0 15.2 3.8 20.1 8.7l-5.3 6.6c-3.8-3.8-8.3-7.2-15-7.2-10.7 0-19.2 10.1-19.2 24.9v.6c0 15.1 8.8 24.8 19.6 24.8 6.3 0 10.9-3.2 15-7.4l5.1 5.9c-4.8 5.4-11.2 9.6-20.6 9.6-16-.1-28.1-13.3-28.1-32.7zm60-57.2h8.8v59.4l28.3-34.8h10.7l-22.4 26.8 23.3 37H622l-18.9-30-10.5 12.4v17.7h-8.8v-88.5h-.1z"/><circle cx="69.8" cy="263.88" r="69.8"/><path fill="#dcddde" d="M29.2 299.983l-12.9-35.6h22.3v-27.5H67v11.2h36.7v10.2h17.6l-4.4 32-22.4 20.5-33.2 5.1z"/><path fill="#539536" d="M110.5 299.283l8.7-17.9H111v-9.3l-7.7-4.5-7.7 4.5v5H80.7v-8.2l-10-9.6-9.7 9.6v14.8H47v-5.1H20l18 29 45.3 10.1z"/><path d="M69.8 319.983c-31 0-56.2-25.2-56.2-56.2s25.2-56.2 56.2-56.2 56.2 25.2 56.2 56.2-25.2 56.2-56.2 56.2zm0-104.7c-26.8 0-48.6 21.8-48.6 48.6s21.8 48.6 48.6 48.6 48.6-21.8 48.6-48.6-21.8-48.6-48.6-48.6z" fill="#fff"/></svg>