<svg xmlns="http://www.w3.org/2000/svg" viewBox="0 0 153.37 282.26"><path d="M5.902 197.185c2.72-2.64 6.56-3.725 10.25-4.032a22.094 22.094 0 0 1 11.67 2.239 16.479 16.479 0 0 1 4.593 3.193c-1.522 2.432-2.974 4.91-4.5 7.338a16.745 16.745 0 0 0-5.517-3.609 11.106 11.106 0 0 0-5.673-.852 5.59 5.59 0 0 0-3.407 1.4 3.509 3.509 0 0 0-.214 4.7 7.836 7.836 0 0 0 3.081 1.948c2.77 1.1 5.583 2.075 8.348 3.182a14.3 14.3 0 0 1 6.242 4.554 11.587 11.587 0 0 1 2.243 6.943 13.307 13.307 0 0 1-2.708 8.356 15.464 15.464 0 0 1-8.74 5.515 26.075 26.075 0 0 1-5.42.684 23.792 23.792 0 0 1-15.528-6.151 7.585 7.585 0 0 1-.622-.647 560.644 560.644 0 0 0 5.153-7.6 19.987 19.987 0 0 0 9.684 5.4 8.164 8.164 0 0 0 5.52-.621 3.923 3.923 0 0 0 .531-6.812 15.263 15.263 0 0 0-4.076-1.906 70.654 70.654 0 0 1-8.148-3.234 12 12 0 0 1-5.766-5.747 11.575 11.575 0 0 1-.919-4.97 12.18 12.18 0 0 1 3.923-9.271zm31.25-3.632c9.6.006 19.211-.012 28.816.01-.013 2.79 0 5.581-.008 8.371-6.134.008-12.268 0-18.4.006v8.957h17.344c-.006 2.8.012 5.592-.01 8.389a4431.68 4431.68 0 0 0-17.334 0v10.208c6.327.008 12.653 0 18.98.006.004 2.825.004 5.65 0 8.475-9.792.01-19.585-.006-29.377.008-.022-14.81-.026-29.62-.01-44.43zm34.393.005c9.6-.021 19.209 0 28.816-.01-.006 2.8.011 5.592-.01 8.389-6.133-.01-12.264-.01-18.392 0-.004 2.987-.004 5.974 0 8.959 5.781.006 11.563-.014 17.346.01-.013 2.79 0 5.581-.008 8.371-5.779.008-11.559 0-17.34 0-.004 3.4-.004 6.803 0 10.21h18.971c.015 2.83.015 5.661 0 8.491-9.792-.013-19.585 0-29.377-.008-.009-14.801-.01-29.605-.006-44.412zm34.405-.005c5.01 0 10.021.006 15.031 0 2.645.026 5.281.323 7.866.886a22.077 22.077 0 0 1 9.3 4.492 19.082 19.082 0 0 1 5.036 6.469 23.198 23.198 0 0 1 2.079 10.318c.15 3.986-.75 7.941-2.609 11.47a19.3 19.3 0 0 1-6.994 7.246c-4.405 2.627-9.616 3.492-14.679 3.546-5.007-.004-10.014-.004-15.022 0-.02-14.807-.023-29.616-.008-44.427zm10.406 8.77v26.783a71.37 71.37 0 0 0 7.516-.185c2.132-.24 4.17-1.01 5.928-2.239a12.084 12.084 0 0 0 3.638-4.513 15.15 15.15 0 0 0 1.229-6.261 15.618 15.618 0 0 0-1.57-7.36 11.1 11.1 0 0 0-3.22-3.856 13.64 13.64 0 0 0-8.318-2.37c-1.734.003-3.468-.005-5.204.001h.001z" fill="#005191"/><path d="M.737 246.379a1.741 1.741 0 0 1 1.526-.8c.643.02 1.262.249 1.765.65-.123.2-.254.4-.387.588a2.439 2.439 0 0 0-1.378-.567.868.868 0 0 0-.964.871.83.83 0 0 0 .38.605c.592.4 1.337.513 1.9.956a1.661 1.661 0 0 1-.03 2.418 2.3 2.3 0 0 1-2.23.295 3.32 3.32 0 0 1-1.078-.832c.166-.166.326-.335.493-.5a1.9 1.9 0 0 0 1.713.811c.671-.064 1.222-.989.657-1.513-.576-.5-1.42-.553-2.016-1.033a1.515 1.515 0 0 1-.35-1.949zm65.706-.241a3.165 3.165 0 0 1 4.034.407 31.96 31.96 0 0 0-.52.522 3.395 3.395 0 0 0-1.054-.694 2.11 2.11 0 0 0-2.58.987 2.469 2.469 0 0 0 .873 3.276 2.642 2.642 0 0 0 2.627-.225c-.006-.453-.006-.906-.006-1.359H68.28v-.673c.769-.004 1.538-.004 2.31 0 0 .674.026 1.349 0 2.025.043.3-.225.482-.44.628a3.439 3.439 0 0 1-3.924-.2 3.176 3.176 0 0 1 .218-4.694zm28.713.001a3.238 3.238 0 0 1 3.791.148c-.125.239-.229.488-.337.734a2.224 2.224 0 0 0-2.831-.437 2.465 2.465 0 0 0-.414 3.627 2.322 2.322 0 0 0 3.351-.094c.091.227.187.455.287.682a3.226 3.226 0 0 1-3.076.594 2.5 2.5 0 0 1-1.81-1.95 3.113 3.113 0 0 1 1.039-3.304zm18.717.432a2.957 2.957 0 0 1 2.085-.981 3.874 3.874 0 0 1 2.133.628c-.085.254-.17.509-.247.765a3.453 3.453 0 0 0-1.1-.624 2.12 2.12 0 0 0-2.627 1.251 2.292 2.292 0 0 0 3.768 2.536c.1.216.2.434.306.651a3.1 3.1 0 0 1-4.658-.676 3.355 3.355 0 0 1 .34-3.55zm4.698-.905c.306.01.62.015.931.023.5.879.975 1.773 1.48 2.65.485-.886.985-1.765 1.478-2.65.308-.008.62-.013.933-.023-.588.975-1.168 1.956-1.765 2.925a1.26 1.26 0 0 0-.253.649c-.033.74 0 1.48-.008 2.222h-.771c-.012-.742.023-1.482-.008-2.222a1.368 1.368 0 0 0-.253-.649c-.598-.969-1.176-1.945-1.764-2.925zm-113.891.019c1.349-.004 2.698-.004 4.047 0v.673H7.091v5.107h-.77v-5.107H4.683c-.004-.173-.004-.507-.004-.673zm5.928-.006h.723c.8 1.927 1.582 3.862 2.39 5.787-.3 0-.609-.006-.91 0-.2-.5-.4-1-.57-1.507-.84-.062-1.682-.033-2.525-.039-.2.493-.387.991-.557 1.5-.299.03-.599.056-.9.075.748-1.956 1.592-3.87 2.349-5.816zm-.655 3.567h1.995c-.3-.854-.64-1.692-.973-2.532-.365.832-.702 1.68-1.022 2.532zm4.655-3.559a71.2 71.2 0 0 0 .8-.023c1.1 1.505 2.2 3.012 3.326 4.5.042-1.5 0-2.993.025-4.488h.76c.007 1.939.013 3.877 0 5.816-.36-.042-.822.029-1.013-.36-1.044-1.4-2.056-2.835-3.118-4.224-.013 1.517 0 3.033-.006 4.552h-.77a1009.8 1009.8 0 0 1-.004-5.773zm6.356-.001c1.251.008 2.652-.175 3.725.613a3.059 3.059 0 0 1-.22 4.714 7.069 7.069 0 0 1-3.505.447v-5.774zm.771.669v4.436a3.789 3.789 0 0 0 2.3-.4 2.329 2.329 0 0 0 0-3.646 3.766 3.766 0 0 0-2.3-.391v.001zm6.797-.676h.721c.8 1.927 1.582 3.862 2.39 5.787-.306 0-.609-.006-.909 0-.2-.5-.4-1-.569-1.505-.842-.066-1.684-.035-2.526-.04-.2.493-.389.992-.557 1.5-.3.03-.6.056-.9.075.749-1.957 1.59-3.871 2.35-5.817zm-.657 3.567h1.995c-.3-.854-.64-1.692-.973-2.534a51.16 51.16 0 0 0-1.022 2.534zm4.565 2.222c-.01-1.93-.01-3.858 0-5.787a10.129 10.129 0 0 1 2.569.137 1.6 1.6 0 0 1 .815 2.247c-.164.476-.671.653-1.062.9.557.807 1.044 1.659 1.571 2.488-.306 0-.611.01-.911.019-.543-.836-1.033-1.705-1.594-2.53l-.621.023v2.5l-.767.003zm.767-5.116c-.004.645-.004 1.291 0 1.937.61.05 1.222-.026 1.8-.225a1.38 1.38 0 0 0 .052-1.357c-.485-.502-1.239-.324-1.855-.355h.003zm4.05 5.11a488.6 488.6 0 0 1 0-5.781c1.337.008 2.927-.193 3.972.836a3.15 3.15 0 0 1-.3 4.392c-1.087.718-2.45.538-3.672.553zm.767-5.109a819.922 819.922 0 0 0 0 4.436c.666.073 1.34 0 1.973-.216a2.223 2.223 0 0 0 1.037-2.868 2.005 2.005 0 0 0-1.758-1.335c-.419-.034-.839-.018-1.255-.016l.003-.001zm7.029-.668c1.124-.004 2.247-.004 3.372 0v.673h-2.6v1.734h2.41v.673c-.8.004-1.6.004-2.4 0-.01.675-.014 1.35-.009 2.027h2.6v.673c-1.123.004-2.247.004-3.372 0v-5.78zm4.629.002a71.2 71.2 0 0 0 .8-.023c1.1 1.5 2.2 3.012 3.326 4.5.042-1.5 0-2.993.025-4.488h.759c.008 1.939.014 3.877 0 5.816-.36-.044-.821.029-1.012-.36-1.044-1.4-2.054-2.835-3.118-4.224-.014 1.517 0 3.035-.006 4.552h-.771a983.02 983.02 0 0 1-.003-5.773zm6.462 5.777c-.011-1.93-.011-3.858 0-5.785h3.367v.673h-2.6c-.004.578-.004 1.156 0 1.734h2.413c-.008.225-.013.451-.017.678-.8-.008-1.6-.008-2.4 0-.004.673-.004 1.347 0 2.022h2.6v.673c-1.12.005-2.245.001-3.363.005zm4.624.003c-.01-1.93-.01-3.858 0-5.787.858-.063 1.72-.018 2.567.135a1.607 1.607 0 0 1 .817 2.249c-.162.476-.671.653-1.062.9.555.809 1.045 1.661 1.571 2.49-.307.004-.611.01-.913.017-.542-.836-1.033-1.7-1.59-2.528l-.622.023v2.5l-.768.001zm.767-5.117c-.004.645-.004 1.291 0 1.937a4.39 4.39 0 0 0 1.8-.225c.252-.413.271-.927.05-1.357-.485-.501-1.237-.323-1.853-.354l.003-.001zm9.548-.684l.915.023c.5.883.983 1.769 1.472 2.656.491-.888 1-1.767 1.486-2.656l.917-.023c-.63 1.149-1.393 2.224-1.983 3.394-.07.8-.01 1.6-.027 2.405h-.77c-.013-.742.02-1.482-.009-2.222a1.667 1.667 0 0 0-.314-.755c-.569-.942-1.14-1.872-1.687-2.822zm7.605 5.798c-.011-1.93-.011-3.858 0-5.785h3.367v.673h-2.6c-.004.578-.004 1.156 0 1.734h2.413c-.008.225-.013.451-.017.678-.8-.008-1.6-.008-2.4 0-.004.673-.004 1.347 0 2.022h2.6v.673c-1.12.005-2.242.001-3.363.005zm4.628 0c-.01-1.93-.01-3.858 0-5.785h3.174v.673h-2.407c-.004.642-.004 1.284 0 1.927h2.22c-.008.225-.013.451-.017.678-.734-.008-1.47-.008-2.2 0 0 .834 0 1.671-.008 2.505l-.762.002zm4.33-5.779c1.06-.004 2.12-.004 3.18 0v.673h-2.409v1.927h2.214v.673h-2.208c-.012.836-.01 1.673-.008 2.509h-.77c-.004-1.93-.003-3.857.001-5.782zm4.429-.004h.771v5.781h-.77c-.003-1.927-.003-3.854 0-5.781zm8.007 5.783c-.01-1.93-.01-3.858 0-5.785h.76c.01 1.93.01 3.858 0 5.785h-.76zm2.309 0c-.011-1.93-.011-3.858 0-5.785h3.367v.673h-2.6c-.004.578-.004 1.156 0 1.734h2.413c-.01.225-.016.451-.017.678-.8-.008-1.6-.008-2.4 0v2.022h2.6v.673c-1.12.005-2.242.001-3.363.005zm4.719-5.777c.264-.006.528-.014.8-.023 1.106 1.5 2.207 3.012 3.328 4.5.042-1.5 0-2.993.025-4.488h.76a593.44 593.44 0 0 1 0 5.816c-.36-.042-.822.029-1.013-.36-1.044-1.4-2.054-2.835-3.118-4.224-.013 1.517 0 3.035-.006 4.552h-.77a854.42 854.42 0 0 1-.006-5.773zm19.075-.002c1.251.008 2.65-.175 3.725.611a3.061 3.061 0 0 1-.22 4.716 7.069 7.069 0 0 1-3.505.447v-5.774zm.771.669v4.436a3.779 3.779 0 0 0 2.3-.4 2.329 2.329 0 0 0 0-3.646 3.775 3.775 0 0 0-2.3-.39zm6.714-.692c.245.017.493.039.744.062.757 1.931 1.57 3.837 2.353 5.756a41.931 41.931 0 0 0-.925-.029c-.19-.513-.4-1.019-.6-1.528-.834 0-1.669-.006-2.5.008-.189.511-.382 1.019-.576 1.53-.287 0-.574 0-.856.01.764-1.947 1.581-3.87 2.36-5.809zm.33 1.021c-.324.859-.676 1.705-1 2.563.665 0 1.33 0 2-.006a57.861 57.861 0 0 0-1.001-2.557H134zm2.303-.998c1.349-.004 2.698-.004 4.047 0v.673h-1.636v5.107h-.77v-5.107h-1.637c-.004-.173-.004-.507-.004-.673zm5.927-.006h.723c.8 1.927 1.582 3.862 2.39 5.785h-.91c-.2-.5-.4-1-.57-1.505-.84-.064-1.684-.035-2.525-.04-.2.493-.389.992-.557 1.5-.3.03-.6.056-.9.075.748-1.955 1.592-3.869 2.35-5.815zm-.655 3.567h1.995c-.3-.854-.642-1.694-.975-2.534a53.37 53.37 0 0 0-1.02 2.534z" fill="#6b7f89"/><path d="M87.75 259.009a11.6 11.6 0 0 1 9.984 3.266 11.258 11.258 0 0 1 3.074 6.541c.5 3.299-.376 6.658-2.422 9.293a12.466 12.466 0 0 1-2.081 1.95 12.142 12.142 0 0 1-11.106 1.341 10.853 10.853 0 0 1-5.864-5.126 12.6 12.6 0 0 1 1.4-13.49 11.215 11.215 0 0 1 7.015-3.775zm-.075 1.634a9.46 9.46 0 0 0-2.744.908 9.3 9.3 0 0 0-4.849 6.529 10.958 10.958 0 0 0 1.9 9 9.66 9.66 0 0 0 7.585 3.49 10.114 10.114 0 0 0 5.822-1.954 9.222 9.222 0 0 0 3.261-4.737 11.393 11.393 0 0 0-1.1-9.1 9.34 9.34 0 0 0-7.593-4.267c-.763-.034-1.528.01-2.282.131zM.159 259.167c1.927.013 3.854 0 5.781.008a7.108 7.108 0 0 1 4.841 1.8 5.993 5.993 0 0 1 1.22 6.888 5.927 5.927 0 0 1-3.5 3.008c-2.108.667-4.346.383-6.518.445 0 3.5-.006 7 0 10.5-.613.006-1.224.008-1.835.006.011-7.558-.003-15.106.011-22.655zm1.823 1.64v8.869h3.563a6.1 6.1 0 0 0 3.505-.923 4.49 4.49 0 0 0 .1-6.97 5.943 5.943 0 0 0-3.411-.983c-1.252.007-2.505.005-3.757.007zm35.067-1.733c.333 0 .667.01 1 .021 3.224 7.576 6.429 15.157 9.68 22.719h-2.07a549.563 549.563 0 0 1-2.783-6.747c-3.39-.008-6.78 0-10.169-.008-.241.041-.638-.094-.732.22-.913 2.174-1.813 4.355-2.723 6.531h-1.869c3.226-7.577 6.471-15.147 9.666-22.736zm.389 2.742a7352.191 7352.191 0 0 0-4.708 11.624c3.14-.015 6.28-.015 9.42 0-.91-2.372-1.91-4.708-2.837-7.071-.65-1.506-1.186-3.059-1.87-4.553h-.005zm8.1-2.641c5.1-.01 10.208 0 15.313-.008 0 .547.006 1.093.006 1.642-2.247-.004-4.495-.004-6.745 0v21.006c-.613 0-1.224-.002-1.835-.006.01-7 .01-14 0-21h-6.743c.004-.547 0-1.091.004-1.634zm18.602-.008c3.849.008 7.698.008 11.547 0 0 .547.006 1.093.008 1.64h-9.732v8.869h9.055v1.632c-3.02.008-6.038 0-9.057 0 0 3.5-.006 7 0 10.5-.613.006-1.224.008-1.835.006.014-7.55 0-15.098.014-22.647zm41.33.002c1.9 0 3.795-.006 5.693 0a7.354 7.354 0 0 1 4.937 1.89 6.1 6.1 0 0 1 1.455 5.573 5.334 5.334 0 0 1-2.9 3.8 8.97 8.97 0 0 1-2.448.827c1.987 3.051 3.947 6.119 5.922 9.177.287.475.598.935.931 1.378-.765-.006-1.53 0-2.293-.006-2.18-3.511-4.417-6.986-6.593-10.5-.962-.006-1.92 0-2.877 0v10.5c-.613 0-1.224-.002-1.835-.006.014-7.54.002-15.085.008-22.633zm1.827 1.634v8.869c1.287 0 2.575.01 3.864 0a4.98 4.98 0 0 0 3.88-1.688 4.743 4.743 0 0 0 .764-3.7 3.626 3.626 0 0 0-1.23-2.278 5.322 5.322 0 0 0-3.612-1.206c-1.223.007-2.445.005-3.666.007v-.004zm33.601-1.644c.671.017 1.345.015 2.018 0 .133.788.187 1.588.27 2.384.694 6.756 1.359 13.517 2.068 20.271-.603 0-1.205-.003-1.806-.008-.576-6.527-1.289-13.041-1.888-19.566a8.212 8.212 0 0 0-.58 1.243c-2.519 6.086-5.078 12.154-7.6 18.24a2.52 2.52 0 0 1-.335.536 10525.33 10525.33 0 0 1-8.406-20.084c-.158 1.093-.216 2.2-.337 3.293-.509 5.446-1.05 10.89-1.534 16.34h-1.8c.813-7.545 1.51-15.1 2.33-22.644.684 0 1.37-.008 2.056.035 2.513 6.454 5.167 12.854 7.722 19.292 2.613-6.438 5.201-12.892 7.822-19.332zM16.817 281.807c.012-7.545 0-15.091.008-22.636h1.825v21h8.088c0 .547.006 1.093.006 1.642-3.307-.006-6.618.007-9.927-.006zm128.73-22.534c.965-.006 1.932-.006 2.9 0l-.008.281h-1.245c-.035 1.339.027 2.679-.027 4.016l-.173.075-.17-.075c-.056-1.339.006-2.679-.027-4.016h-1.245l-.005-.281zm3.661.036c.333-.229.449.181.561.422.428 1.081.848 2.166 1.3 3.238.484-1.208.948-2.426 1.453-3.627.1-.033.312-.1.416-.137.118 1.484.287 2.962.432 4.444l-.36-.156c-.1-1.218-.218-2.434-.357-3.648-.513 1.3-1.1 2.575-1.584 3.887-.56-1.318-1.095-2.646-1.661-3.96-.04 1.266-.2 2.526-.333 3.785l-.34.079c.192-1.436.273-2.887.473-4.327z" fill="#00a8e4"/><g transform="translate(111.803 155.489)"><path d="M-2.297-155.489h5.7v18.473h4.77v9.238h6.467v9.238c3.44.009 6.883-.015 10.322.012-.006 20.115-.006 40.23 0 60.344-1.851 0-3.7-.006-5.552.009.006 2.765.006 5.532 0 8.3 1.851.015 3.7.009 5.552.009-.006 8.57-.004 17.141.006 25.713h-5.552a900.603 900.603 0 0 0 0 5.694h5.694v8.006c-1.7 0-3.39-.006-5.087.009.01 2.356.01 4.71 0 7.064 1.7.012 3.39.009 5.087.009v8.007c-2.827 0-5.651.012-8.475-.012.009-1.845.006-3.686 0-5.528-1.386-.006-2.77-.006-4.154 0v-4.619c-2 0-4.006-.009-6.011.009.006 1.533.008 3.07.006 4.61-3.7.006-7.394-.015-11.089.012.006 2.2 0 4.4 0 6.6-2.408.025-4.816 0-7.224.015-.025-2.208-.006-4.419-.012-6.627h-6.947c.055-1.949 0-3.9.025-5.845-1.7-.015-3.39-.012-5.087-.009v-23.86h4.154c.006-1.641.006-3.282 0-4.921h-4.154v-82.997h10.162v-9.238h6.618c.006-3.073.006-6.148 0-9.223 1.592-.015 3.184-.015 4.779-.012.005-6.161.005-12.321.002-18.48zM4.635-51.712a632.027 632.027 0 0 0 0 4.77c1.59.006 3.18.006 4.77 0v-4.77c-1.592-.003-3.181 0-4.77 0zm-19.721 7.1c.018 3.64 0 7.277.012 10.917 3.692.006 7.385.006 11.08 0 .012-3.64-.006-7.277.009-10.917a868.414 868.414 0 0 0-11.101-.005v.005zm26.175 1.848c.012 2.762.012 5.525 0 8.29 2.824.028 5.648.006 8.475.012v-8.314c-2.824 0-5.648-.021-8.475.006v.006zm-7.535 7.843v3.689c1.281.006 2.563.006 3.846 0 .006-1.232.006-2.462 0-3.689a289.97 289.97 0 0 0-3.846-.005v.005zm-.468 7.554c.01 2.147.01 4.294 0 6.442 2.211.025 4.419.006 6.63.012v-6.476c-2.214.007-4.422-.011-6.63.016v.006zm-23.715.924c.018 2.716 0 5.429.012 8.145 2.818.009 5.635-.006 8.453.012.028-2.725.006-5.447.012-8.17-2.826.001-5.65-.02-8.477.007v.006zm31.77 10.159a38.41 38.41 0 0 0 0 3.677c1.267.021 2.533.021 3.8 0a105.8 105.8 0 0 0 0-3.677 92.546 92.546 0 0 0-3.799-.005l-.001.005zM-.61-10.763c1.641.022 3.286.012 4.93.012.006-1.592.006-3.182 0-4.77-1.638-.006-3.276 0-4.915-.006-.018 1.584-.005 3.17-.014 4.759l-.001.005zm-11.683-.437a251.715 251.715 0 0 0 0 5.685h5.682c.006-1.894 0-3.788 0-5.682a195.69 195.69 0 0 0-5.682-.009v.006zm-55.153-84.545c13.386 8.847 26.656 17.87 40.042 26.717.028 7.877 0 15.751.012 23.625h-8.462c-.022 3.03-.006 6.06-.009 9.09h8.477c-.022 13.5.015 27-.018 40.5-1.638 0-3.273 0-4.912-.006-.006-1.484-.009-2.966.006-4.447-1.7-.031-3.394-.009-5.09-.018V-3.36c-2.208 0-4.416-.009-6.627.009.006 1.019 0 2.039.006 3.058-2.667.019-5.336.019-8.007 0 0-1.019 0-2.039.006-3.055a217.42 217.42 0 0 0-4.939 0c.006 1.019.006 2.039.006 3.058-3.492.018-6.987.025-10.479 0 .004-31.821 0-63.64-.012-95.455zm15.727 57.739a632.027 632.027 0 0 0 0 4.77h4.77v-4.77a632.027 632.027 0 0 0-4.77 0zm-10.32 5.851v4.613c1.589.006 3.179.006 4.77 0 .006-1.54.006-3.078 0-4.613a632.027 632.027 0 0 0-4.77 0zm16.774 3.243c.018 2.2 0 4.4.012 6.605 2.257 0 4.514.012 6.775-.006-.006-2.2 0-4.407-.006-6.612-2.26.007-4.521-.015-6.78.013zm-7.526 7.7a112.997 112.997 0 0 0 0 3.8c1.267.059 2.533.059 3.8 0a43.54 43.54 0 0 0 0-3.8 104.39 104.39 0 0 0-3.795-.005l-.005.005zm-.48 14.144c2.211.025 4.42.006 6.63.012v-6.618c-2.2-.009-4.407 0-6.612-.006-.025 2.2.003 4.402-.018 6.607v.005zm16.333-4.142a900.603 900.603 0 0 0 0 5.694h5.694v-5.699c-1.9-.006-3.798-.006-5.694 0v.005zm-25.1 1.386c-.006.92-.006 1.842 0 2.765.921.006 1.845.006 2.765 0 .006-.924.006-1.846 0-2.765-.913-.014-1.842-.014-2.762-.005l-.003.005zM-107.6-60.356c5.54-4.1 11-8.3 16.56-12.37 6.544 4.89 13.106 9.762 19.628 14.677.086.08.253.24.34.32.128.973.164 1.955.107 2.935-.01 8.829-.01 17.657 0 26.486h-5.85v8.314h5.85c-.006 7.957.015 15.914-.012 23.872-2.408-.015-4.816.009-7.227-.018 0-1.377 0-2.756.006-4.133-2.208-.025-4.416-.009-6.624-.012v-3.079h-4.927v3.079h-5.7v-5.226a414.43 414.43 0 0 0-6.168 0c.01 1.743.006 3.483.006 5.226H-107v-4h-4v-15.863h3.076c.006-1.18.006-2.359 0-3.538h-3.079v-34.117c1.096-.902 2.263-1.715 3.403-2.553zm16.773 32.513a378.022 378.022 0 0 0 0 3.689c1.281.006 2.563.006 3.846 0v-3.689a352.37 352.37 0 0 0-3.847 0h.001zm-17.094 7.7v6.618h6.775v-6.618c-2.258-.007-4.517-.008-6.776-.002l.001.002zm12.013 5.389c-.01 1.127-.01 2.254 0 3.381 1.127.006 2.254.006 3.381 0 .01-1.127.01-2.254 0-3.381-1.127-.01-2.255-.011-3.382-.002l.001.002zm15.394.77v3.689c1.281.006 2.563.006 3.846 0 .006-1.232.006-2.462 0-3.689a368.119 368.119 0 0 0-3.847-.002l.001.002zm-8.92 2.316a112.997 112.997 0 0 0 0 3.8 43.54 43.54 0 0 0 3.8 0 43.54 43.54 0 0 0 0-3.8 106.322 106.322 0 0 0-3.802-.002l.001.002zm-15.084 15.222c2.041.012 4.084.012 6.128 0 .031 2 .012 4.009.015 6.014h-6.155c0-2.005-.019-4.009.012-6.014zM-111 8.642c1.08 0 2.158.006 3.24.015v3.363c-1.082.009-2.16.015-3.24.012v-3.39zm87.162 1.995c2 .015 3.991 0 5.986.012.01 2-.006 3.991.012 5.986-2 .031-4.009.009-6.014.015.007-2.004-.015-4.008.016-6.013zm-36.208.487c1.438-.025 2.88-.018 4.317-.015.006 1.386.006 2.77 0 4.154-1.432.006-2.864 0-4.3.006-.014-1.383-.008-2.766-.017-4.145zm46.987 2.284c1.118.01 2.237.01 3.357 0a90.781 90.781 0 0 1 0 3.406c-1.12-.012-2.24-.012-3.357 0a87.496 87.496 0 0 1 0-3.406z" fill="#005191"/><path d="M19.41-58.169c1.851-.015 3.7-.009 5.552-.009h2.3v8.314h-2.3c-1.851 0-3.7.006-5.552-.009.003-2.765.003-5.53 0-8.296zm-14.775 6.46h4.77v4.77c-1.592.006-3.182.006-4.77 0a574.57 574.57 0 0 1 0-4.77zm-40.492 6.303c2.82.01 5.641.01 8.462 0h.761c.012 3.027 0 6.057.006 9.087h-9.238c.01-3.027-.009-6.057.01-9.087zm20.771.785c3.701-.021 7.401-.021 11.1 0-.015 3.64 0 7.277-.009 10.917-3.692.006-7.385.006-11.08 0-.01-3.637.007-7.273-.01-10.917zM11.09-42.77c2.826-.028 5.65-.006 8.477-.012v8.314c-2.827-.006-5.65.015-8.475-.012.01-2.762.008-5.525-.003-8.29zm-62.809 4.765c1.589-.006 3.179-.006 4.77 0v4.77h-4.77a565.995 565.995 0 0 1 0-4.77zm27.249 2.457h4.766c.006 1.641.006 3.282 0 4.921h-4.766v-4.921zm28.024.622c1.281-.006 2.563-.006 3.846 0 .006 1.229.006 2.458 0 3.689-1.281.006-2.563.006-3.846 0v-3.689zm-65.592 2.771c1.589-.006 3.179-.006 4.77 0 .006 1.533.006 3.071 0 4.613-1.589.006-3.179.006-4.77 0v-4.613zm16.774 3.242c2.26-.028 4.521-.006 6.781-.012.01 2.2 0 4.407.006 6.612-2.26.018-4.518.009-6.775.006-.009-2.202.006-4.404-.012-6.606zm-31.555.607h8.472v8.308h-8.472v-8.308zm-14.008.463c1.281-.006 2.563-.006 3.846 0v3.689c-1.284.006-2.566.006-3.846 0a338.528 338.528 0 0 1 0-3.689zm93.913.47c2.208-.028 4.416-.009 6.627-.012v6.467c-2.21-.006-4.419.012-6.63-.012.012-2.15.013-4.298.003-6.443zm-23.715.924c2.827-.028 5.651-.006 8.478-.012-.006 2.722.015 5.444-.012 8.17-2.818-.018-5.635 0-8.453-.012-.013-2.717.005-5.43-.013-8.146zm40.045 2.304c1.851-.006 3.7 0 5.552 0h2.294c.006 1.9 0 3.8 0 5.7h-7.846a820.454 820.454 0 0 1 0-5.7zm-127.338 4c2.257-.006 4.516-.006 6.775 0v6.618h-6.775v-6.618zM-.61-10.768c.01-1.589 0-3.175.015-4.764 1.638 0 3.276 0 4.915.006.006 1.59.006 3.18 0 4.77-1.644 0-3.289.009-4.93-.012zm-79.905-3.218c1.281-.006 2.563-.006 3.846 0 .006 1.229.006 2.458 0 3.689-1.281.006-2.563.006-3.846 0v-3.689zm27.244 6.911c.022-2.2-.006-4.407.018-6.612 2.2.006 4.407 0 6.612.006v6.618c-2.21-.004-4.419.014-6.63-.012zm16.334-4.139c1.897-.006 3.795-.006 5.694 0v5.694h-5.694a818.73 818.73 0 0 1 0-5.694zm56.96.776c1.7-.015 3.39-.009 5.087-.009h2.156v7.083H25.11c-1.7 0-3.39 0-5.087-.009.006-2.357.006-4.712 0-7.065zm-45.416 3.685h1.54c1.7 0 3.39-.006 5.087.009-.028 1.946.031 3.9-.025 5.845-.012.154-.037.465-.046.622a343.785 343.785 0 0 0-3.932-.009h-2.624v-6.467zm-76.222 1.237a411.74 411.74 0 0 1 6.168 0c-.006 1.743 0 3.483 0 5.226v.613h-6.165V-.29c.003-1.739.006-3.479-.003-5.226zm108.088 0c2-.018 4.006-.009 6.011-.009V.326H6.476V-.903c.002-1.536.001-3.074-.003-4.613zM-89.75-3.365h4.927v4.779h-4.92v-1.7c-.013-1.028-.007-2.054-.007-3.079zm32.787.004c1.647-.015 3.294-.015 4.939 0-.006 1.016-.006 2.035-.006 3.055V1.4h-4.927V-.306c0-1.012 0-2.031-.006-3.055zm12.933.001c2.211-.018 4.419-.009 6.627-.009v6.62h-6.621V-.303c-.003-1.014 0-2.034-.006-3.057z" fill="#fff"/><path d="M-52.79-21.216c1.267-.021 2.533-.021 3.8 0a41.021 41.021 0 0 1 0 3.8 43.462 43.462 0 0 1-3.8 0 108.907 108.907 0 0 1 0-3.8zm63.931 4.926a102.42 102.42 0 0 1 3.8 0 105.8 105.8 0 0 1 0 3.677c-1.267.021-2.533.021-3.8 0a39.28 39.28 0 0 1 0-3.677zm-100.576 4.62c1.267-.021 2.533-.021 3.8 0a41.021 41.021 0 0 1 0 3.8 43.462 43.462 0 0 1-3.8 0 109.402 109.402 0 0 1 0-3.8zM-22.773-.282c1.31 0 2.621 0 3.932.009a32.117 32.117 0 0 0-.092 3.529h-3.843c-.004-1.182-.003-2.361.003-3.538zm-29.263 3.393c2.313-.018 4.622-.006 6.935-.009 0 2.313.01 4.622-.009 6.935-2.306-.012-4.613 0-6.916-.009-.01-2.308.002-4.611-.01-6.917zM-95.604 9.26h3.846c0 1.281.006 2.565 0 3.846h-3.846V9.26zm92.54.616H1.09v4.154h-4.154c-.007-1.385-.007-2.77 0-4.154zm-71.75.924h3.846v3.846h-3.846c-.007-1.28-.007-2.563 0-3.846zm92.847 4.767c2.356.01 4.71.01 7.064 0 .018 2.313.006 4.622.01 6.935h-7.084c.01-2.315-.008-4.625.01-6.935zM-111 18.499h4v4h-4v-4z" fill="#00a8e4"/><path d="M-95.909-14.757c1.127-.01 2.254-.01 3.381 0 .01 1.127.01 2.254 0 3.381-1.127.006-2.254.006-3.38 0a218.991 218.991 0 0 1 0-3.381zm83.615 3.55a256.51 256.51 0 0 1 5.685 0v5.682c-1.894.006-3.788 0-5.682 0a214.39 214.39 0 0 1-.003-5.682z" fill="#9db2c0"/><ellipse cx="-60.65" cy="-8.45" rx="1.95" ry="1.96" fill="#9db2c0"/><path d="M5.55 6.498c2.105-.018 4.212-.006 6.318-.009 0 2.106.01 4.213-.009 6.319-2.1-.012-4.2 0-6.3-.006-.01-2.104.002-4.204-.01-6.304zm-45.72 3.689c2.207 0 4.418-.009 6.626.009-.012 2.2 0 4.407-.006 6.612-2.2 0-4.41-.006-6.612.006-.02-2.214-.009-4.422-.009-6.627zm-46.809 4.311c1.9 0 3.8-.009 5.7.009-.012 1.894 0 3.791-.006 5.688-1.9 0-3.794-.006-5.688.006-.018-1.903-.006-3.803-.006-5.703z" fill="#9db2c0"/><path d="M-87.289 4.025h4.154c.006 1.333.006 2.667 0 4h-4.154a784.315 784.315 0 0 1 0-4z" fill="#58666f"/><circle cx="-45.1" cy="18.5" fill="#58666f" r="2.39"/><path d="M-8.456 19.272c1.13-.006 2.257-.006 3.387 0v3.23h-3.387a511.418 511.418 0 0 1 0-3.23z" fill="#58666f"/></g></svg>