<svg xmlns="http://www.w3.org/2000/svg" viewBox="0 0 298.445 171.238"><path style="fill:#fff" d="M128.654 97.414h2.221v2.187h-2.221z"/><path style="fill:#005191;fill-rule:evenodd" d="M15.132 80.385.116 91.614v7.566h2.43v2.73H.116v11.812h3.096v3.048h26.937V91.614L15.132 80.385zm17.78 36.385h30.033V65.133L32.912 45.046v71.724zM78.34 13.985h3.617V0h4.18v13.985h3.616v6.954h4.889v6.888h7.743l.053 88.447h-36.73V27.827h7.742v-6.888h4.89v-6.954Z"/><path style="fill:#9eb3c0" d="M87.89 121.991h4.668v4.597H87.89z"/><path style="fill:#005191" d="M96.245 114.396h6.192v6.097h-6.192zm-22.389 12.808h2.43v2.393h-2.43zm-73.74-3.642h2.43v2.393H.116z"/><path style="fill:#53626f" d="M77.396 131.535h2.43v2.393h-2.43zm-28.904-1.777h2.43v2.393h-2.43z"/><path style="fill:#9eb3c0" d="M11.493 106.008h2.43v2.393h-2.43z"/><path style="fill:#005191" d="M74.847 116.048h5.31v5.229h-5.31zm-50.008-1.405h5.31v5.229h-5.31zm40.869 10.454h4.427v4.359h-4.427zm-60.632-5.321h4.427v4.359H5.076z"/><path style="fill:#3ea6dd" d="M81.371 124.493h3.011v2.965h-3.011zm-81.255 6.47h3.011v2.965H.116z"/><path style="fill:#53626f" d="M17.962 120.072h3.011v2.965h-3.011z"/><path style="fill:#005191" d="M59.401 116.581h3.544v3.49h-3.544z"/><path style="fill:#3ea6dd" d="M66.535 116.654h2.773v2.731h-2.773zm-54.818 7.407h2.773v2.731h-2.773zm15.659 1.162h2.773v2.731h-2.773z"/><path style="fill:#005191" d="M38.543 125.37h3.163v3.115h-3.163z"/><path style="fill:#9eb3c0" d="M53.426 124.758h4.925v4.849h-4.925z"/><path style="fill:#3ea6dd" d="M44.53 119.442h5.177v5.098H44.53zm52.73 9.388h5.177v5.098H97.26z"/><path style="fill:#fff" d="M98.279 73.306h5.857v6.1h-5.857zm-6.178 11.596h6.193v6.097h-6.193zm6.62 24.258h5.436v5.229h-5.436zm-10.151 3.738h4.427v4.359H88.57zm-81.28 0h4.427v4.359H7.29zm75.985-7.516h3.544v3.49h-3.544zm3.862-27.251h3.544v3.49h-3.544zm-1.105 18.333h4.87v4.795h-4.87zm12.247 2.423h5.881v4.142h-5.881z"/><path style="fill:#3ea6dd" d="M92.101 104.762h2.773v2.731h-2.773zm-75.721 3.56h2.773v2.731H16.38z"/><path style="fill:#fff" d="M86.364 90.751h2.773v2.73h-2.773zm-70.985 5.32h2.773v2.73h-2.773zm7.777 10.422h2.773v2.73h-2.773z"/><path style="fill:#9eb3c0" d="M37.036 109.688h1.972v1.941h-1.972z"/><path style="fill:#fff" d="M72.306 83.439h8.293v8.167h-8.293zm-4.08 13.662h6.193v6.097h-6.193zm-42.297-1.288h6.193v6.097h-6.193zm39.308-5.442h3.544v3.49h-3.544zm-.663 21.62h4.87v4.795h-4.87z"/><path style="fill:#9eb3c0" d="M74.404 108.664h4.207v4.142h-4.207zm-56.137 19.345h4.207v4.142h-4.207z"/><path style="fill:#fff" d="M56.688 82.953h6.808v6.704h-6.808zm-6.981 12.311h4.963v4.886h-4.963zM2.546 101.91h4.963v4.886H2.546zm38.336 12.619h3.544v3.49h-3.544zm-24.692 0h3.544v3.49H16.19zm28.553-26.036h3.544v3.49h-3.544zm-1.105 18.333h4.87v4.795h-4.87zm-6.602-13.96h3.421v3.368h-3.421zm18.849 15.798h4.207v4.142h-4.207zm-5.364 5.909h4.945v4.87h-4.945z"/><path style="fill:#3ea6dd" d="M43.97 101.113h2.773v2.73H43.97z"/><path d="M148.277 77.67c-3.78 3.009-8.717 4.4-14.426 4.4-7.715 0-14.581-4.012-18.9-8.024l6.172-9.1c3.858 4.011 9.8 6.712 13.887 6.712 4.012 0 7.1-1.929 7.1-5.478 0-3.626-3.934-5.015-6.249-5.863s-6.326-2.237-8.1-3.009a20.782 20.782 0 0 1-6.326-3.857c-2.315-2.161-4.166-5.246-4.166-10.261a14.992 14.992 0 0 1 5.554-11.65c3.009-2.545 7.87-4.243 14.041-4.243s13.27 2.932 16.9 6.558l-5.323 8.718c-3.086-3.086-7.87-5.4-11.881-5.4s-6.944 1.543-6.944 4.784 3.009 4.474 5.4 5.4c2.314.926 6.249 2.314 7.946 3.009a21.341 21.341 0 0 1 7.406 4.32 13.924 13.924 0 0 1 4.166 10.261 16.119 16.119 0 0 1-6.257 12.723Zm46.523 3.472h-35.18V27.91h34.48v9.952h-22.06V48.74h20.83v9.952h-20.83v12.343h22.76Zm41.352 0h-35.179V27.91h34.485v9.952h-22.064V48.74h20.83v9.952h-20.83v12.343h22.758Zm44.748-6.326c-4.4 3.7-11.263 6.326-20.521 6.326h-18.053V27.91h18.053c9.258 0 16.124 2.623 20.521 6.4 4.475 3.7 8.641 9.875 8.641 20.213s-4.166 16.512-8.641 20.293Zm-8.717-32.788c-2.238-2.083-5.941-3.781-11.11-3.781h-6.326v32.326h6.326c5.169 0 8.872-1.7 11.11-3.858 2.237-2.083 4.706-5.632 4.706-12.189s-2.469-10.338-4.706-12.498Z" style="fill:#005191"/><path d="M127.583 119.346c-1.577 1.38-3.706 1.893-6.27 1.893h-4.1v12.7h-2.129v-27.21h6.229c2.564 0 4.693.513 6.27 1.892a7.032 7.032 0 0 1 0 10.725Zm-1.656-9.463a7.566 7.566 0 0 0-4.534-1.222h-4.18v10.646h4.18a7.559 7.559 0 0 0 4.534-1.223 5.045 5.045 0 0 0 1.892-4.1 4.991 4.991 0 0 0-1.892-4.101Zm21.012 24.052h-11.828v-27.206h2.129V132h9.7Zm25.35 0h-2.483l-3.352-8.162h-12.972l-3.391 8.162h-2.247l11.631-27.284h1.183Zm-6.663-10.135-5.678-13.919-5.677 13.919Zm22.313-15.139h-8.083v25.274h-2.128v-25.274h-8.083v-1.932h18.294Zm17.861 0h-11.673v10.685h10.961v1.933h-10.961v12.656H192v-27.206h13.8Zm16.752 25.748c-7.373 0-13.8-5.364-13.8-14.038s6.427-14.037 13.8-14.037c7.413 0 13.8 5.364 13.8 14.037s-6.387 14.038-13.8 14.038Zm0-26.182c-6.191 0-11.553 4.456-11.553 12.1 0 7.571 5.4 12.065 11.553 12.065 6.229 0 11.592-4.494 11.592-12.065 0-7.605-5.363-12.1-11.592-12.1Zm35.52 25.708h-2.719l-8.044-12.617h-3.47v12.617h-2.129v-27.206h6.309c5.126 0 8.477 2.76 8.477 7.3s-3.273 6.7-6.7 7.215Zm-5.835-24.13c-1.459-1.1-3.233-1.144-5.4-1.144h-3v10.725h3c2.168 0 3.942-.04 5.4-1.1a4.814 4.814 0 0 0 2.011-4.258 4.7 4.7 0 0 0-2.011-4.223Zm37.297 24.13H287.4l-2.326-23.618-10.055 24.092h-.2l-10.094-24.131-2.247 23.657h-2.129l2.76-27.206h2.445l9.344 23.223 9.384-23.223h2.484Z" style="fill:#3ea6dd"/><path d="M119.153 97.011a2.64 2.64 0 0 1-1.71.546 2.923 2.923 0 0 1-2.255-1.173l.577-.658a2.356 2.356 0 0 0 1.77 1 1.221 1.221 0 0 0 1.365-1.174c0-.728-.779-1.012-1.132-1.153s-.85-.334-1.114-.465a2.263 2.263 0 0 1-.7-.5 1.678 1.678 0 0 1-.456-1.214 1.741 1.741 0 0 1 .638-1.346 2.452 2.452 0 0 1 1.608-.515 2.72 2.72 0 0 1 2 .9l-.516.667a2.122 2.122 0 0 0-1.538-.748c-.687 0-1.214.323-1.214.971s.476.89.9 1.062l1.285.536a2.718 2.718 0 0 1 .789.567 1.794 1.794 0 0 1 .425 1.173 1.944 1.944 0 0 1-.722 1.524Zm6.215-5.736h-1.963v6.161h-.98v-6.161h-1.973v-.82h4.916Zm5.972 6.161h-1.093l-.718-1.821h-2.994l-.719 1.821h-1.032l2.843-7h.86Zm-2.084-2.636-1.224-3.135-1.224 3.135Zm9.038 2.636h-.961l-4.026-5.565s.02.942.02 1.852v3.713h-.972v-6.981h1.033l3.955 5.484s-.01-.861-.01-1.78v-3.7h.961Zm6.501-.91a3.848 3.848 0 0 1-2.61.91h-2.1v-6.981h2.1a3.848 3.848 0 0 1 2.61.911 3.617 3.617 0 0 1 0 5.16Zm-.749-4.583a2.659 2.659 0 0 0-1.861-.648h-1.123v5.291h1.123a2.663 2.663 0 0 0 1.861-.647 2.82 2.82 0 0 0 0-4Zm8.806 5.493h-1.093l-.718-1.821h-2.994l-.719 1.821H146.3l2.843-7H150Zm-2.084-2.636-1.224-3.135-1.225 3.135Zm7.832 2.636h-1.185l-1.82-3.005h-.749v3.005h-.982v-6.981h1.973a2.681 2.681 0 0 1 1.68.486 1.947 1.947 0 0 1-.911 3.389Zm-1.863-5.929a1.863 1.863 0 0 0-1.173-.253h-.718v2.368h.718a1.924 1.924 0 0 0 1.173-.243 1.051 1.051 0 0 0 .446-.941 1.037 1.037 0 0 0-.442-.931Zm7.545 5.019a3.846 3.846 0 0 1-2.61.91h-2.1v-6.981h2.1a3.846 3.846 0 0 1 2.61.911 3.617 3.617 0 0 1 0 5.16Zm-.749-4.583a2.659 2.659 0 0 0-1.861-.648h-1.123v5.291h1.123a2.663 2.663 0 0 0 1.861-.647 2.82 2.82 0 0 0 0-4Zm9.627 5.493h-4.168v-6.981h4.088v.82h-3.106v2.084h2.933v.819h-2.933v2.429h3.186Zm7.378 0h-.961l-4.026-5.565s.02.942.02 1.852v3.713h-.971v-6.981h1.032l3.955 5.484s-.01-.861-.01-1.78v-3.7h.961Zm5.954 0h-4.168v-6.981h4.088v.82h-3.106v2.084h2.933v.819h-2.933v2.429h3.186Zm6.174 0h-1.184l-1.82-3.005h-.749v3.005h-.981v-6.981h1.968a2.677 2.677 0 0 1 1.68.486 1.946 1.946 0 0 1-.91 3.389Zm-1.861-5.929a1.866 1.866 0 0 0-1.173-.253h-.719v2.368h.719a1.927 1.927 0 0 0 1.173-.243 1.053 1.053 0 0 0 .445-.941 1.039 1.039 0 0 0-.445-.931Zm8.958 4.917a3.806 3.806 0 0 1-2.964 1.133 3.6 3.6 0 0 1-.011-7.2 3.506 3.506 0 0 1 2.823 1.215l-.668.616a2.687 2.687 0 0 0-2.155-.991 2.515 2.515 0 0 0-2.539 2.752 2.551 2.551 0 0 0 2.6 2.752 2.517 2.517 0 0 0 1.962-.638v-1.551h-1.881v-.8h2.833Zm6.419-5.969-2.428 4.057v2.924h-.982v-2.924l-2.427-4.057h1.1l1.811 3.207 1.821-3.207Zm7.411 6.981h-4.168v-6.981h4.087v.82h-3.106v2.084h2.934v.819h-2.934v2.429h3.187Zm5.314-6.161h-2.893V93.6h2.721v.819h-2.721v3.015h-.982v-6.979h3.875Zm5.235 0h-2.894V93.6h2.722v.819h-2.722v3.015h-.981v-6.979h3.875Zm2.339 6.161h-.981v-6.981h.981Zm7.499-.91a3.274 3.274 0 0 1-2.549 1.031 3.6 3.6 0 1 1 2.478-6.282l-.415.789a2.763 2.763 0 0 0-2.022-.85 2.724 2.724 0 0 0 0 5.443 2.764 2.764 0 0 0 2.084-.85Zm2.22.91h-.981v-6.981h.981Zm5.94 0h-4.168v-6.981h4.087v.82h-3.106v2.084h2.934v.819h-2.934v2.429h3.187Zm7.379 0h-.961l-4.027-5.565s.021.942.021 1.852v3.713h-.972v-6.981h1.032l3.955 5.484s-.009-.861-.009-1.78v-3.7h.961Zm7.511-.91a3.275 3.275 0 0 1-2.55 1.031 3.6 3.6 0 1 1 2.479-6.282l-.415.789a2.766 2.766 0 0 0-2.023-.85 2.724 2.724 0 0 0 0 5.443 2.764 2.764 0 0 0 2.084-.85Zm6.298-6.071-2.428 4.057v2.924h-.981v-2.924l-2.428-4.057h1.1l1.81 3.207 1.822-3.207Zm7.958 6.071a3.846 3.846 0 0 1-2.61.91h-2.1v-6.981h2.1a3.846 3.846 0 0 1 2.61.911 3.617 3.617 0 0 1 0 5.16Zm-.749-4.583a2.659 2.659 0 0 0-1.861-.648h-1.123v5.291h1.123a2.663 2.663 0 0 0 1.861-.647 2.82 2.82 0 0 0 0-4Zm8.806 5.493h-1.093l-.718-1.821h-2.994l-.719 1.821h-1.032l2.843-7h.86Zm-2.084-2.636-1.224-3.135-1.224 3.135Zm6.407-3.525H281.7v6.161h-.98v-6.161h-1.97v-.82h4.916Zm5.972 6.161h-1.093l-.718-1.821h-2.994l-.719 1.821h-1.032l2.843-7h.86Zm-2.084-2.636-1.224-3.14-1.225 3.14Z" style="fill:#9eb3c0"/><path d="M292.844 107.082h-1.436v4.49h-.378v-4.49h-1.43v-.343h3.249Zm5.601 4.49h-.378l-.414-4.2-1.785 4.28h-.035l-1.793-4.287-.4 4.2h-.378l.49-4.833h.434l1.66 4.126 1.667-4.126h.441Z" style="fill:#3ea6dd"/><path d="M8.428 166.519a4.895 4.895 0 0 1-.883 3.37 4.194 4.194 0 0 1-3.323 1.349A4.149 4.149 0 0 1 .9 169.889a4.819 4.819 0 0 1-.9-3.37v-6.55h1.573v6.405a4.055 4.055 0 0 0 .514 2.488 2.526 2.526 0 0 0 2.135.979 2.544 2.544 0 0 0 2.134-.979 4.08 4.08 0 0 0 .514-2.488v-6.405h1.558Zm6.534 4.686a1 1 0 1 1 0-2.005 1 1 0 1 1 0 2.005Zm12.457-.834a4.192 4.192 0 0 1-2.713.867 4.634 4.634 0 0 1-3.579-1.863l.915-1.043a3.744 3.744 0 0 0 2.809 1.589 1.937 1.937 0 0 0 2.167-1.861c0-1.156-1.236-1.606-1.8-1.83s-1.348-.53-1.766-.738a3.582 3.582 0 0 1-1.107-.788 2.656 2.656 0 0 1-.723-1.925 2.757 2.757 0 0 1 1.012-2.136 3.885 3.885 0 0 1 2.552-.818 4.315 4.315 0 0 1 3.178 1.428l-.818 1.06a3.368 3.368 0 0 0-2.441-1.188c-1.09 0-1.925.514-1.925 1.541s.754 1.412 1.428 1.686l2.038.85a4.3 4.3 0 0 1 1.252.9 2.849 2.849 0 0 1 .675 1.862 3.083 3.083 0 0 1-1.154 2.407Zm7.369.834a1 1 0 1 1 1.06-1 .982.982 0 0 1-1.06 1Zm20.724-1.605a6.1 6.1 0 0 1-4.142 1.444h-3.339v-11.075h3.339a6.1 6.1 0 0 1 4.142 1.445 5.738 5.738 0 0 1 0 8.187Zm-1.188-7.273a4.23 4.23 0 0 0-2.954-1.027h-1.781v8.4h1.781a4.225 4.225 0 0 0 2.954-1.028 4.168 4.168 0 0 0 1.317-3.162 4.215 4.215 0 0 0-1.317-3.182Zm14.545 8.718h-6.614v-11.076h6.485v1.3h-4.928v3.307h4.656v1.3h-4.656v3.853h5.057Zm10.916-5.538a4.009 4.009 0 0 1-2.681.786h-1.556v4.752H73.99v-11.076h3.11a4.009 4.009 0 0 1 2.681.787 3.16 3.16 0 0 1 0 4.751Zm-1.2-3.837a2.617 2.617 0 0 0-1.6-.432h-1.437v3.788h1.429a2.73 2.73 0 0 0 1.6-.417 1.782 1.782 0 0 0 .675-1.478 1.75 1.75 0 0 0-.671-1.461Zm15.537 9.375h-1.733l-1.14-2.889H86.5l-1.14 2.889h-1.64l4.51-11.108h1.37Zm-3.307-4.189-1.942-4.977-1.942 4.977Zm15.267 4.189H104.2l-2.89-4.767h-1.187v4.767h-1.554v-11.076h3.131a4.235 4.235 0 0 1 2.664.771 3.089 3.089 0 0 1-1.444 5.378Zm-2.953-9.406a2.956 2.956 0 0 0-1.862-.4h-1.14v3.755h1.14a3.072 3.072 0 0 0 1.862-.384 1.678 1.678 0 0 0 .706-1.493 1.647 1.647 0 0 0-.706-1.478Zm14.014-.369h-3.115v9.775h-1.557v-9.775h-3.13v-1.3h7.8Zm16.326 9.775h-1.541l-.723-8.748h-.048l-3.386 8.845h-.883L123.5 162.3h-.048l-.706 8.748h-1.541l1-11.076h1.926l3.194 8.556h.033l3.194-8.556h1.91Zm11.767 0h-6.613v-11.076h6.485v1.3h-4.927v3.307h4.655v1.3h-4.655v3.853h5.055Zm14.545 0h-1.525l-6.389-8.829s.032 1.493.032 2.938v5.891h-1.541v-11.076H152l6.276 8.7s-.016-1.364-.016-2.825v-5.875h1.525Zm12.363-9.775h-3.115v9.775h-1.557v-9.775h-3.13v-1.3h7.8Zm16.056 9.968a5.715 5.715 0 1 1 5.715-5.714 5.5 5.5 0 0 1-5.715 5.714Zm0-10.081a4.34 4.34 0 1 0 4.125 4.335 4.054 4.054 0 0 0-4.125-4.335Zm16.885.113h-4.591v3.691h4.318v1.3h-4.318v4.783h-1.557v-11.075h6.148Zm18.015 9.775h-6.615v-11.076h6.486v1.3h-4.928v3.307h4.657v1.3h-4.655v3.853h5.055Zm14.542 0h-1.525l-6.389-8.829s.032 1.493.032 2.938v5.891h-1.541v-11.076h1.637l6.277 8.7s-.016-1.364-.016-2.825v-5.875h1.525Zm12.282 0h-6.614v-11.076h6.49v1.3h-4.928v3.307h4.655v1.3h-4.655v3.853h5.057Zm12.633 0h-1.878l-2.89-4.767H256.6v4.767h-1.558v-11.076h3.131a4.237 4.237 0 0 1 2.664.771 3.089 3.089 0 0 1-1.444 5.378Zm-2.953-9.406a2.959 2.959 0 0 0-1.863-.4H256.6v3.755h1.139a3.076 3.076 0 0 0 1.863-.384 1.678 1.678 0 0 0 .706-1.493 1.647 1.647 0 0 0-.708-1.478Zm17.047 7.801a6.032 6.032 0 0 1-4.7 1.8 5.715 5.715 0 0 1-.015-11.429 5.567 5.567 0 0 1 4.478 1.926l-1.059.979a4.264 4.264 0 0 0-3.419-1.573c-2.28 0-4.03 1.638-4.03 4.366a4.045 4.045 0 0 0 4.125 4.366c2.3 0 3.115-1.011 3.115-1.011v-2.455h-2.986v-1.269h4.494Zm13.021-9.471-3.853 6.438v4.638h-1.556v-4.638l-3.853-6.438h1.749l2.874 5.089 2.889-5.089Z" style="fill:#53626f"/><path style="fill:none;stroke:#9eb3c0;stroke-miterlimit:10;stroke-width:.75px" d="M.116 146.91h289.409"/></svg>