<svg xmlns="http://www.w3.org/2000/svg" xmlns:xlink="http://www.w3.org/1999/xlink" viewBox="0 0 240 55"><path d="M29.8 14.2h.1l3.8 18.1H22.2l7.6-18.1zM24.6 1.8 0 54h13.1l4.3-10.2h18.8L38.3 54h12.4l-12-52.2H24.6zM86 34H53.8l1.8-12.1h32.3L86 34zm7.5-20.1H56.8l1.8-12.1h36.7l-1.8 12.1zm-4.2 27.9H52.6L50.8 54h36.7l1.8-12.2z" fill="#231f20"/><defs><path id="a" d="M0 .8h239.9V55H0z"/></defs><clipPath id="b"><use xlink:href="#a"/></clipPath><g fill="#231f20"><path d="M129.7 40.6c-3.5 1.6-8.7 1.9-11.3 1.9-8.3 0-13.7-5.6-13.5-14 .3-8.8 7-15.2 16.1-15.2 4.3 0 8.1 1.4 11.5 4.3L135 5.1C129.8 2 125.5.8 120 .8c-15 0-27.4 12.5-28 28.3-.5 15.3 9.4 26 24.1 26 2.6 0 8.1-.3 11.6-1.9l2-12.6zm39.8-10.9c1.9-8.8-1.4-15.7-8.1-17.1-7.3-1.5-14 4.1-16 13.4-1.9 8.8 1.4 15.7 8.1 17.1 7.3 1.5 14-4.1 16-13.4M160.9.9c14 1 22.6 12.4 21 27.5-1.6 15.7-14.2 27.3-28.5 26.3-14-1-22.6-12.4-21-27.5C134 11.5 146.7-.1 160.9.9" clip-path="url(#b)"/><path d="m227.2 1.8-15.1 29.4L206 1.8h-11.7L178.1 54H191l8.9-30.6 5.5 30.6h6.6l15.3-30.6-.2 30.6h12.8L239 1.8z"/></g></svg>