<svg version="1.1" id="Layer_1" xmlns="http://www.w3.org/2000/svg" x="0" y="0" viewBox="0 0 402.2 74.7" style="enable-background:new 0 0 402.2 74.7" xml:space="preserve"><style>.st0{fill:#40424b}</style><path class="st0" d="M93.9 54.8H81.5V23.4h11.6c3.5 0 6.3.7 8.4 2.2 2.1 1.5 3.2 3.7 3.2 6.7 0 1.9-1 3.8-3.1 5.6 1.4.9 2.5 1.9 3.3 3.2.8 1.3 1.2 2.7 1.2 4.3 0 3.1-1.1 5.5-3.4 7-2.2 1.6-5.1 2.4-8.8 2.4zm-1.3-25.6h-3.8v6.5h3.1c1.6 0 2.9-.3 3.9-.8s1.5-1.3 1.5-2.4c0-2.2-1.6-3.3-4.7-3.3zM94 41.5h-5.2V49h5c1.5 0 2.7-.3 3.6-.9.9-.6 1.3-1.5 1.3-2.7 0-1.2-.4-2.2-1.3-2.9-.8-.7-2-1-3.4-1zm23.3-.1v13.4H110v-20l4.8-2.4.9 3.2c1.1-.8 2.3-1.6 3.7-2.2 1.4-.7 2.7-1 3.8-1l1.4 5.8c-1.1 0-2.3.3-3.7.9-1.2.6-2.5 1.4-3.6 2.3zm12.1-2.1-1.3-5.9c1-.6 1.8-.7 3.6-1.1 1.8-.4 3.4-.6 4.8-.6 1.9 0 3.5.4 5 1.1 1.4.7 2.6 1.8 3.4 3.1.8 1.3 1.2 2.9 1.2 4.6v14.3h-4l-1.7-2.4c-1.7 1.9-3.5 2.9-5.5 2.9-2.7 0-4.8-.7-6.2-2-1.4-1.3-2.1-3.2-2.1-5.5s.8-4 2.3-5.1c1.5-1.1 3.7-1.7 6.3-1.7h3.5c-.1-1-.4-1.7-.9-2.3-.6-.5-1.3-.8-2.3-.8-.9 0-1.9.1-3.1.4-1.1.3-2.1.6-3 1zm3.2 8.5c0 .6.2 1 .6 1.4.4.4.9.6 1.6.6 1.4 0 2.7-.6 3.9-1.8v-2.7h-3.5c-.8 0-1.4.2-1.9.7-.4.5-.7 1.1-.7 1.8zm25.2-8.3v15.3h-7.3V33.1l5.1-.7.7 2.4c1.4-.9 2.8-1.7 4.4-2.2 1.6-.6 3.1-.9 4.5-.9 2.8 0 4.8.8 6 2.4 1.2 1.6 1.9 3.8 1.9 6.5v14.3h-7.3V41.1c0-1.1-.2-1.9-.7-2.6-.5-.6-1.2-.9-2.1-.9-1.3 0-3 .6-5.2 1.9zm41.3 15.3h-3.7L194 53c-.9.7-1.9 1.3-3 1.7-1.1.4-2.2.6-3.3.6-3.5 0-6.3-1-8.3-3.1-2.1-2-3.1-4.9-3.1-8.7 0-3.7 1-6.7 3.1-8.8 2.1-2.1 4.9-3.2 8.6-3.2 1.3 0 2.5.3 3.8.9V22.1l7.3.1v32.6zM185 48c.8 1.1 2 1.6 3.5 1.6 1 0 2.1-.4 3.3-1.3v-9.6c-1.1-.8-2.3-1.2-3.5-1.2-1.4 0-2.5.6-3.3 1.7-.8 1.1-1.2 2.6-1.2 4.4-.1 1.8.4 3.3 1.2 4.4zm37.7-12v18.8h-7.2V23.4h6.9l13.3 19v-19h7.2v31.5H236L222.7 36zm46 7.4v2.2h-14.4c.7 2.6 2.7 3.9 5.9 3.9 2.1 0 4.2-.6 6.3-1.8l2 5c-1 .8-2.3 1.4-3.9 1.9-1.5.5-3.2.7-5 .7-4.1 0-7.3-1-9.7-3.1-2.4-2.1-3.5-4.9-3.5-8.6 0-2.4.5-4.5 1.5-6.3 1-1.8 2.4-3.2 4.1-4.2 1.8-1 3.8-1.5 6.1-1.5s4.2.5 5.8 1.6c1.6 1 2.8 2.5 3.5 4.2.9 1.8 1.3 3.8 1.3 6zm-14.4-1.9h7.6c-.2-1.1-.6-2.1-1.2-2.8-.6-.7-1.5-1-2.6-1-1 0-1.9.3-2.6 1-.7.7-1.1 1.6-1.2 2.8zm49.8-9.1-7.3 22.4h-6.4l-3.8-12.7-3.7 12.7h-6.4L270 34.7l6.5-3.2 3.4 13.7 3.1-12.9h7.3l3.4 12.9 3.1-12.9h7.3zm25.3 22.4H317V23.4h11.6c3.5 0 6.3.7 8.4 2.2 2.1 1.5 3.2 3.7 3.2 6.7 0 1.9-1 3.8-3.1 5.6 1.4.9 2.5 1.9 3.3 3.2.8 1.3 1.2 2.7 1.2 4.3 0 3.1-1.1 5.5-3.4 7-2.2 1.6-5.2 2.4-8.8 2.4zM328 29.2h-3.8v6.5h3.1c1.6 0 2.9-.3 3.9-.8s1.5-1.3 1.5-2.4c.1-2.2-1.5-3.3-4.7-3.3zm1.5 12.3h-5.2V49h5c1.5 0 2.7-.3 3.6-.9.9-.6 1.3-1.5 1.3-2.7 0-1.2-.4-2.2-1.3-2.9-.8-.7-2-1-3.4-1zm38.4 8.4c-1.1 1.8-2.5 3.1-4.4 4-1.9.9-4 1.4-6.4 1.4-2.4 0-4.6-.5-6.4-1.4-1.9-.9-3.3-2.3-4.3-4-1-1.8-1.5-3.9-1.5-6.4 0-2.4.5-4.5 1.6-6.3 1.1-1.8 2.5-3.2 4.4-4.1 1.9-1 4-1.4 6.4-1.4 2.4 0 4.6.5 6.5 1.4 1.9.9 3.3 2.3 4.3 4.1 1 1.8 1.6 3.9 1.6 6.4-.2 2.4-.7 4.5-1.8 6.3zm-7.2-2.1c.9-1 1.3-2.4 1.3-4.2s-.4-3.1-1.3-4.3c-.9-1.1-2-1.7-3.5-1.7s-2.7.5-3.6 1.6c-.9 1.1-1.3 2.5-1.3 4.2s.4 3.2 1.3 4.2c.9 1.1 2.1 1.6 3.5 1.6 1.5.2 2.7-.4 3.6-1.4zm21 1.2-3.7 5.8h-8.1l7.4-11.3-6.2-8.9 6.1-3 4.5 7 4-6.3h8l-7.6 11.8 7.3 10.6h-8l-3.7-5.7zM37.9 37.3l22.3-4.9-18.8-2.2z"/><path class="st0" d="m67.2 29.5-8.6-10.7c-.3-.4-1-.8-1.6-.8l-2.9-.1c-.5 0-.7-.4-.5-.9l1.1-1.7c.3-.5.3-1.2-.1-1.6l-2.8-3.5c-.3-.4-1.1-.8-1.6-.8H25.6c-.5 0-1.3.3-1.6.8L8.6 29.5c-.3.4-.5 1.2-.4 1.7l5.5 24c.1.5.6 1.2 1.1 1.4L37 67.3c.5.2 1.3.2 1.8 0L61 56.6c.5-.2 1-.9 1.1-1.4l5.5-24c.1-.5-.1-1.3-.4-1.7zM47.8 16.9l-3.3 6.9 9.5.9 6.2 7.8-4.4 19.3-17.9 8.6-7.2-3.5L20 51.7l-4.4-19.3L28 16.9h19.8z"/></svg>