<svg height="207.02" viewBox="0 0 70 30" width="483.046" xmlns="http://www.w3.org/2000/svg"><path d="M16.032 26.252h.449l1.947 2.364v-2.364h.314v2.875h-.314l-2.097-2.57v2.57h-.3zm4.365 0h.389l1.339 2.875h-.355l-.52-1.158h-1.301l-.545 1.158h-.352zm.72 1.432-.525-1.159-.527 1.161zm1.707-1.126h-1.136v-.306h2.589v.306H23.14v2.569h-.316zm1.768-.306h.317v2.875h-.317zm2.291-.073c.888 0 1.53.571 1.53 1.528 0 1.018-.778 1.491-1.53 1.491-.757 0-1.532-.473-1.532-1.491 0-.957.645-1.528 1.532-1.528m0 2.708c.635 0 1.207-.371 1.207-1.245 0-.642-.45-1.169-1.207-1.169-.76 0-1.21.527-1.21 1.169 0 .874.566 1.245 1.21 1.245m1.973-2.635h.45l1.947 2.364v-2.364h.315v2.875h-.315l-2.095-2.57v2.57h-.302zm6.404 0h.319v2.568h2.06v.307h-2.38zm4.198 0h.319v2.568h2.064v.307h-2.383zm5.952-.001h1.513c.299 0 1.017 0 1.017.75 0 .397-.236.521-.401.605.158.079.489.237.489.713 0 .776-.736.808-1.282.808H45.41zm.317 1.227h1.11c.369 0 .784-.068.784-.47 0-.459-.424-.465-.891-.465h-1.003zm0 1.341h1.226c.379 0 .75-.072.75-.51 0-.4-.288-.54-.714-.54h-1.262zm4.143-2.64c.886 0 1.53.571 1.53 1.528 0 1.018-.776 1.491-1.53 1.491-.757 0-1.531-.473-1.531-1.491 0-.957.64-1.528 1.53-1.528m0 2.708c.636 0 1.208-.371 1.208-1.245 0-.642-.448-1.169-1.207-1.169s-1.21.527-1.21 1.169c0 .874.565 1.245 1.21 1.245m1.97-2.635h1.514c.416 0 1.028.098 1.028.804 0 .599-.508.773-.825.788l.864 1.283h-.392l-.842-1.271H52.16v1.271h-.32zm.32 1.294h1.12c.459 0 .802-.073.802-.494 0-.42-.343-.494-.802-.494h-1.12zm6.313-.988h-1.136v-.306h2.589v.306h-1.134v2.569h-.32zm3.016-.379c.888 0 1.529.571 1.529 1.528 0 1.018-.774 1.491-1.53 1.491-.757 0-1.532-.473-1.532-1.491 0-.957.64-1.528 1.533-1.528m0 2.708c.636 0 1.208-.371 1.208-1.245 0-.642-.451-1.169-1.208-1.169-.76 0-1.21.527-1.21 1.169 0 .874.565 1.245 1.21 1.245m1.974-2.635h1.509c.417 0 1.028.098 1.028.804 0 .599-.507.773-.822.788l.863 1.283h-.394l-.84-1.271H63.78v1.271h-.317zm.317 1.294h1.123c.455 0 .795-.073.795-.494 0-.42-.34-.494-.795-.494H63.78zm3.7.42-1.348-1.714h.414l1.093 1.402 1.09-1.402h.415l-1.346 1.714v1.161h-.318zm-24.108-1.714h.387l1.342 2.875h-.355l-.522-1.158h-1.305l-.54 1.158h-.352zm.72 1.432-.527-1.159-.52 1.159zm11.957-1.432h.387l1.34 2.875h-.354l-.523-1.158h-1.295l-.548 1.158h-.351zm.719 1.432-.524-1.159-.527 1.159zm-23.546-1.432h.387l1.34 2.875h-.355l-.521-1.158h-1.297l-.548 1.158h-.352zm.72 1.432-.526-1.159-.524 1.159zm-2.556-5.348c0 1.087.879 1.976 1.958 1.976a1.97 1.97 0 0 0 1.957-1.976 1.97 1.97 0 0 0-1.957-1.979 1.971 1.971 0 0 0-1.958 1.979m.986 0c0-.645.399-1.091.972-1.091.572 0 .972.446.972 1.091 0 .641-.4 1.088-.972 1.088-.573 0-.972-.447-.972-1.088M.695 19.235v4.951h1.067v-1.85h.86c.746 0 2.13 0 2.13-1.545 0-1.556-1.384-1.556-2.13-1.556zm2.123.98c.589 0 .87.086.87.569 0 .485-.281.572-.87.572H1.762v-1.141zm5.724 3.838c-.02-.039-.053-.157-.053-.529v-1.757c0-.455 0-1.403-1.73-1.403-.87 0-1.445.303-1.69.881l.925.225c.073-.121.259-.269.77-.269.52 0 .783.125.783.369v.071c-.888.057-2.762.207-2.762 1.509 0 .91.868 1.154 1.38 1.154.622 0 1.095-.243 1.392-.414.009.081.023.162.034.224l.015.072h1.002zm-.995-.98c-.324.201-.752.421-1.267.421-.176 0-.312-.044-.387-.13a.363.363 0 0 1-.092-.259v-.012c.007-.184.087-.374.647-.511a5.528 5.528 0 0 1 1.099-.165zm4.255-.149c-.116.262-.434.505-.955.505-.736 0-1-.594-1-1.151 0-.504.373-1.038 1.062-1.038.47 0 .747.246.858.461l.914-.24c-.196-.587-.79-1.1-1.824-1.097-1.29.008-1.966.951-1.966 1.88 0 1.31.743 2.06 2.035 2.06.987 0 1.552-.563 1.789-1.142zm1.435-2.904h.944v-.9h-.944zm0 4.165h.944V20.48h-.944zm2.958-3.736c0-.148.034-.227.107-.323.138-.181.649-.215.997-.18l.27-.841-.066-.012c-.371-.055-.822-.04-.851-.04h-.008c-.19 0-.761.065-1.11.433-.19.194-.283.466-.283.796v.318h-.623v.875h.623v2.711h.944v-2.711h.918l.285-.875h-1.203zm1.717.032h.944v3.705h-.944zm0-1.362h.944v.9h-.944zm4.333 3.8c-.114.267-.431.51-.955.51-.738 0-.998-.594-.998-1.151 0-.504.37-1.038 1.06-1.038.47 0 .749.246.859.461l.915-.239c-.196-.587-.791-1.102-1.823-1.098-1.292.008-1.968.95-1.968 1.88 0 1.31.742 2.06 2.037 2.06.986 0 1.553-.563 1.787-1.142zm7.715-3.684v3.305l-2.548-3.305h-1.06v4.95h1.02v-3.43l2.673 3.43h.933v-4.95zm6.773 1.617v-.371h-.944v3.704h.944v-1.619c.007-.274-.021-1.164.556-1.237.34-.045.559.066.559.066v-.937s-.256-.069-.373-.069c-.43 0-.615.264-.742.463m2.076-1.246v.861h-.6v.942h.6v1.782c0 .767.38 1.113 1.228 1.113.267 0 .447-.026.804-.073l.114-.02v-.909l-.108.03a2.837 2.837 0 0 1-.637.097c-.316 0-.458-.133-.458-.43v-1.59h.878l.288-.942h-1.166v-1.146zm2.761-.657v5.237h.943V21.7c.185-.237.424-.461.976-.461.389 0 .628.15.628.901v2.046h.944v-2.347c0-.963-.48-1.475-1.391-1.475-.572 0-.92.207-1.157.435V18.66zm8.788 1.6s-.696 1.873-.83 2.243a826.21 826.21 0 0 0-.826-2.243h-.805s-.68 1.864-.812 2.241c-.133-.377-.817-2.241-.817-2.241h-.996l1.389 3.637h.846s.662-1.914.79-2.295l.796 2.295h.859l1.376-3.637zm6.859 1.278c-.467-.068-.711-.107-.711-.297 0-.157.176-.338.664-.338.452 0 .709.166.866.326l.73-.541c-.538-.554-1.263-.617-1.58-.617-1.308 0-1.66.758-1.66 1.21 0 .706.48 1.073 1.6 1.223.832.118.937.146.937.324 0 .258-.38.35-.7.35-.513 0-.886-.17-1.106-.499l-.746.556c.28.357.703.779 1.778.779 1.116 0 1.755-.456 1.755-1.246 0-.981-.971-1.112-1.827-1.23m2.645-2.221v.861h-.596v.942h.596v1.782c0 .767.379 1.113 1.227 1.113.27 0 .449-.026.809-.073l.11-.02v-.909l-.105.03a2.829 2.829 0 0 1-.638.097c-.314 0-.46-.133-.46-.43v-1.59h1.023l.146-.942h-1.17v-1.146zm-6.702.766c-1.341 0-1.94.983-1.94 1.959 0 1.181.803 1.977 1.996 1.977.975 0 1.453-.522 1.653-.841l-.86-.454c-.09.202-.355.438-.818.438-.533-.022-.852-.292-.963-.785h2.88v-.099c0-1.382-.707-2.183-1.947-2.195m-.897 1.467c.139-.401.42-.608.877-.608.502 0 .787.199.91.608z" fill="#7f7e82"/><path d="M34.846 7.85c.05.011 1.023.465 2.376 1.247-.347.005-.55.013-.574.018a.422.422 0 0 0-.405.453.43.43 0 0 0 .446.399c.042-.007.769-.052 1.886-.048a34.36 34.36 0 0 1 1.789 1.217c-.407.171-.646.284-.67.304-.244.115-.364.368-.266.555.097.186.357.244.593.134.024-.023.403-.206 1.032-.473.21.161.418.33.626.499.46.359.9.734 1.324 1.113-.402.304-.633.498-.654.527-.254.212-.32.553-.143.743.173.19.5.183.745-.022.02-.027.282-.256.74-.613a38.615 38.615 0 0 1 1.614 1.648c-.261.275-.411.448-.426.479-.288.319-.303.765-.044.979.26.211.676.137.95-.17.01-.027.128-.163.333-.39.728.824 1.17 1.367 1.22 1.334.07-.041-.281-.691-.943-1.634a62.999 62.999 0 0 1 4.043-3.938c.977.423 1.578.742 1.588.716.045-.052-.475-.428-1.367-.913a61.34 61.34 0 0 1 4.143-3.372c1.442-.038 2.389.003 2.389-.037.012-.05-.781-.169-2.03-.226.42-.306.847-.606 1.282-.9a46.632 46.632 0 0 1 2.402-1.612c2.05-.651 3.477-.981 3.459-1.036-.004-.063-.95.058-2.406.388C64.502 2.465 68.693.812 68.642.705c-.04-.169-5.793 1.764-11.342 5.2-1.666.496-3.568 1.172-5.416 2.049-.386.172-.772.352-1.152.537-.771.073-1.565.178-2.36.328a32.09 32.09 0 0 0-4.09.937c-1.792-.376-3.584-.543-4.981-.613-2.075-1.467-3.843-2.371-3.927-2.392-.225-.107-.527.059-.66.368-.131.311-.077.632.132.731m10.827 7.322a28.169 28.169 0 0 0-1.43-1.697 52.711 52.711 0 0 1 3.338-2.332c.629.195 1.215.405 1.746.611a62.618 62.618 0 0 0-3.654 3.418m9.863-8.132c-.652.424-1.295.863-1.914 1.31-.35.001-.712.009-1.092.023a38.198 38.198 0 0 1 3.006-1.333m-3.971 1.813a39.744 39.744 0 0 1 1.55-.134 62.194 62.194 0 0 0-3.484 2.774c-.471-.22-.993-.448-1.555-.664a44.074 44.074 0 0 1 3.489-1.976m-3.092.494c.313-.068.627-.131.945-.188-.815.434-1.594.883-2.312 1.321-.488-.16-.998-.309-1.52-.436a30.532 30.532 0 0 1 2.887-.697m-4.076 1.061c.077.015.156.027.233.043.649.097 1.282.233 1.892.391a50.087 50.087 0 0 0-2.904 1.966 24.33 24.33 0 0 0-1.382-1.308c-.081-.077-.164-.152-.247-.227a39.097 39.097 0 0 1 2.408-.865m-1.478-.223c-.58.193-1.1.381-1.55.55-.314-.266-.633-.52-.951-.767.777.04 1.626.107 2.5.217" fill="#d29431"/></svg>