<svg xmlns="http://www.w3.org/2000/svg" viewBox="0 0 135.49 91.08"><g transform="translate(-72.54 -269.818)"><path d="M144.459 294.499h2.961l7.066 17.422h-4.04l-1.4-3.691h-6.308l-1.353 3.691h-3.943l7.017-17.422zm1.378 5.069l-1.973 5.414h3.97l-1.997-5.414zm18.308-.812c-.3-.4-.71-.704-1.181-.874a3.98 3.98 0 0 0-1.411-.283c-.27.002-.538.036-.8.1a2.916 2.916 0 0 0-.779.308c-.24.134-.444.324-.595.554a1.49 1.49 0 0 0-.23.837c-.026.468.18.919.55 1.206.422.308.89.55 1.386.714.558.2 1.161.394 1.8.591a7.137 7.137 0 0 1 1.8.837c.568.37 1.042.868 1.386 1.452.4.748.59 1.59.55 2.436a5.948 5.948 0 0 1-.5 2.535 5.08 5.08 0 0 1-1.366 1.8 5.66 5.66 0 0 1-2 1.058 8.569 8.569 0 0 1-5.336-.172 7.284 7.284 0 0 1-2.522-1.673l2.547-3a3.839 3.839 0 0 0 3.117 1.649c.297 0 .594-.038.882-.111.282-.069.552-.18.8-.332a1.8 1.8 0 0 0 .574-.566 1.5 1.5 0 0 0 .217-.812c.02-.48-.188-.941-.562-1.243a5.04 5.04 0 0 0-1.411-.775 41.318 41.318 0 0 0-1.837-.64 8.012 8.012 0 0 1-1.837-.861 4.553 4.553 0 0 1-1.411-1.427 4.325 4.325 0 0 1-.563-2.348 5.544 5.544 0 0 1 .517-2.461 5.27 5.27 0 0 1 1.378-1.772 5.838 5.838 0 0 1 1.985-1.07 7.621 7.621 0 0 1 2.317-.357 8.541 8.541 0 0 1 2.662.418c.868.285 1.66.764 2.317 1.4l-2.444 2.882zm13.169 0c-.3-.4-.71-.704-1.181-.874a3.98 3.98 0 0 0-1.411-.283c-.27.002-.538.036-.8.1a2.913 2.913 0 0 0-.779.308c-.24.134-.444.324-.595.554a1.49 1.49 0 0 0-.23.837c-.026.468.18.919.55 1.206.422.308.89.55 1.386.714.558.2 1.161.394 1.8.591a7.137 7.137 0 0 1 1.8.837c.568.37 1.042.868 1.386 1.452.4.748.59 1.59.55 2.436a5.948 5.948 0 0 1-.5 2.535 5.08 5.08 0 0 1-1.366 1.8 5.66 5.66 0 0 1-2 1.058 8.569 8.569 0 0 1-5.336-.172 7.284 7.284 0 0 1-2.522-1.673l2.547-3a3.839 3.839 0 0 0 3.117 1.649c.297 0 .594-.038.882-.111.282-.069.552-.18.8-.332a1.8 1.8 0 0 0 .574-.566 1.5 1.5 0 0 0 .217-.812c.02-.48-.188-.941-.562-1.243a5.04 5.04 0 0 0-1.411-.775 41.318 41.318 0 0 0-1.837-.64 8.012 8.012 0 0 1-1.837-.861 4.553 4.553 0 0 1-1.411-1.427 4.324 4.324 0 0 1-.562-2.338 5.544 5.544 0 0 1 .517-2.461 5.27 5.27 0 0 1 1.378-1.772 5.838 5.838 0 0 1 1.985-1.07 7.621 7.621 0 0 1 2.317-.357 8.541 8.541 0 0 1 2.662.418c.868.285 1.66.764 2.317 1.4l-2.445 2.872zm4.36-4.257h11.036v3.543h-7.456v3.248h7.04v3.543h-7.04v3.543h7.87v3.543h-11.45v-17.42zm17.458 3.396h-4.634v-3.4h12.85v3.4h-4.634v14.026h-3.58l-.002-14.026zm-61.944 22.265c-.33-.407-.77-.71-1.267-.874a4.543 4.543 0 0 0-1.513-.283c-.29.002-.579.035-.861.1a3.298 3.298 0 0 0-.837.308 1.824 1.824 0 0 0-.64.554 1.4 1.4 0 0 0-.246.837c-.024.477.2.932.591 1.206.458.31.96.551 1.489.714.6.2 1.244.397 1.932.591a7.96 7.96 0 0 1 1.932.837 4.58 4.58 0 0 1 1.489 1.452c.428.738.633 1.584.591 2.436a5.6 5.6 0 0 1-.541 2.535 5.142 5.142 0 0 1-1.464 1.8 6.231 6.231 0 0 1-2.141 1.058 9.818 9.818 0 0 1-5.721-.172 7.892 7.892 0 0 1-2.707-1.673l2.731-3c.39.521.9.94 1.489 1.218a4.25 4.25 0 0 0 1.858.431 4.2 4.2 0 0 0 .947-.111c.302-.067.592-.179.861-.332.245-.14.456-.333.615-.566.16-.24.24-.524.234-.812a1.473 1.473 0 0 0-.6-1.243 5.557 5.557 0 0 0-1.513-.775 46.5 46.5 0 0 0-1.969-.64 8.843 8.843 0 0 1-1.969-.861 4.744 4.744 0 0 1-1.513-1.427 4.084 4.084 0 0 1-.6-2.338 5.234 5.234 0 0 1 .554-2.461 5.338 5.338 0 0 1 1.476-1.772 6.418 6.418 0 0 1 2.129-1.07 8.714 8.714 0 0 1 2.485-.357 9.77 9.77 0 0 1 2.854.418 6.59 6.59 0 0 1 2.485 1.4l-2.64 2.872zm16.907.271a3.764 3.764 0 0 0-1.39-1.058 4.626 4.626 0 0 0-1.907-.369 4.772 4.772 0 0 0-3.6 1.587 5.448 5.448 0 0 0-1.058 1.784 6.8 6.8 0 0 0 0 4.491 5.6 5.6 0 0 0 1.046 1.772 4.74 4.74 0 0 0 1.563 1.169 4.52 4.52 0 0 0 1.932.418 4.329 4.329 0 0 0 2.092-.492 4.162 4.162 0 0 0 1.5-1.378l3.2 2.387a6.66 6.66 0 0 1-2.805 2.288 8.68 8.68 0 0 1-3.494.738 10.731 10.731 0 0 1-3.765-.64 8.619 8.619 0 0 1-2.978-1.833 8.311 8.311 0 0 1-1.956-2.891 10.589 10.589 0 0 1 0-7.579 8.312 8.312 0 0 1 1.956-2.891 8.619 8.619 0 0 1 2.978-1.833 10.732 10.732 0 0 1 3.765-.64 9.22 9.22 0 0 1 1.538.135 8.31 8.31 0 0 1 1.575.431 7.02 7.02 0 0 1 1.489.787 5.92 5.92 0 0 1 1.28 1.206l-2.961 2.411zm4.526 4.183a9.84 9.84 0 0 1 .7-3.79 8.311 8.311 0 0 1 1.956-2.891 8.618 8.618 0 0 1 2.977-1.833 11.4 11.4 0 0 1 7.53 0 8.62 8.62 0 0 1 2.977 1.833 8.3 8.3 0 0 1 1.956 2.891 10.59 10.59 0 0 1 0 7.579 8.311 8.311 0 0 1-1.956 2.891 8.618 8.618 0 0 1-2.977 1.833 11.4 11.4 0 0 1-7.53 0 8.618 8.618 0 0 1-2.977-1.833 8.31 8.31 0 0 1-1.956-2.891 9.838 9.838 0 0 1-.7-3.789zm3.986 0c-.01.768.12 1.53.381 2.252.242.66.616 1.263 1.1 1.772a4.998 4.998 0 0 0 1.71 1.169 6.137 6.137 0 0 0 4.454 0 4.999 4.999 0 0 0 1.71-1.169 5.156 5.156 0 0 0 1.1-1.772 6.8 6.8 0 0 0 0-4.491 5.134 5.134 0 0 0-1.1-1.784 4.998 4.998 0 0 0-1.71-1.169 6.137 6.137 0 0 0-4.454 0 4.999 4.999 0 0 0-1.71 1.169 5.134 5.134 0 0 0-1.1 1.784 6.327 6.327 0 0 0-.381 2.239zm16.926-8.711h6.74c.847-.004 1.693.082 2.522.258a5.982 5.982 0 0 1 2.092.861 4.29 4.29 0 0 1 1.427 1.624 5.5 5.5 0 0 1 .529 2.547 5.113 5.113 0 0 1-.96 3.137 4.32 4.32 0 0 1-2.805 1.636l4.429 7.358h-4.6l-3.642-6.964h-1.892v6.964h-3.84v-17.421zm3.839 7.21h2.264c.345 0 .711-.012 1.1-.037a3.431 3.431 0 0 0 1.046-.221c.306-.119.574-.319.775-.578.223-.324.332-.714.308-1.107a1.839 1.839 0 0 0-.271-1.058 1.8 1.8 0 0 0-.689-.6 3.059 3.059 0 0 0-.96-.283 7.818 7.818 0 0 0-1.058-.074h-2.514l-.001 3.958zm12.254-7.21h11.836v3.54h-8v3.248h7.554v3.552h-7.554v3.543h8.44v3.543h-12.276v-17.426z" fill="#005191"/><path d="M143.669 284.877h1.5c.201 0 .402.017.6.049.192.029.376.097.541.2.164.105.298.25.39.422.111.221.163.467.152.714.005.252-.079.498-.238.693-.178.21-.427.35-.7.39v.022c.163.012.323.054.472.123.139.065.264.156.369.267.106.113.187.248.238.394.14.406.109.851-.086 1.234a1.337 1.337 0 0 1-.435.447 1.757 1.757 0 0 1-.57.221 2.905 2.905 0 0 1-.574.057h-1.669v-5.233h.01zm.488 2.26h1.012a1.69 1.69 0 0 0 .611-.094 1.07 1.07 0 0 0 .369-.226.664.664 0 0 0 .176-.283 1.034 1.034 0 0 0-.049-.73.766.766 0 0 0-.246-.287 1.02 1.02 0 0 0-.361-.15 2.14 2.14 0 0 0-.435-.045h-1.079v1.817l.002-.002zm0 2.526h1.112c.234.01.468-.024.689-.1.151-.055.288-.143.4-.258a.812.812 0 0 0 .189-.328c.03-.101.047-.206.049-.312a1.043 1.043 0 0 0-.111-.5.958.958 0 0 0-.287-.336 1.249 1.249 0 0 0-.4-.189 1.73 1.73 0 0 0-.455-.057h-1.189l.003 2.08zm7.877-1.558c0 .27-.031.538-.094.8-.06.246-.168.478-.32.681-.158.201-.36.363-.591.472a2.02 2.02 0 0 1-.9.176c-.31.01-.617-.05-.9-.176a1.611 1.611 0 0 1-.591-.472 1.769 1.769 0 0 1-.32-.681 3.219 3.219 0 0 1-.094-.8v-3.228h.488v3.1c0 .201.018.402.053.6.032.207.1.407.2.591.103.183.25.338.427.451a1.616 1.616 0 0 0 1.468 0c.179-.11.326-.266.427-.451.102-.183.17-.383.2-.591.033-.198.05-.399.053-.6v-3.1h.488l.006 3.228zm1.333-3.228h.488v5.225h-.488v-5.225zm1.919 0h.488v4.782h2.436v.443h-2.924v-5.225zm3.625 0h1.62c.39-.009.78.048 1.152.168.285.093.551.236.787.422.2.16.368.355.5.574.111.19.2.39.267.6.052.17.087.344.107.521.012.109.019.218.02.328 0 .066-.008.172-.02.328a2.718 2.718 0 0 1-.374 1.121c-.13.22-.3.415-.5.574a2.561 2.561 0 0 1-.787.427 3.499 3.499 0 0 1-1.152.164h-1.62v-5.227zm.488 4.786h1c.327.003.653-.04.968-.127.284-.078.55-.212.783-.394.226-.181.406-.413.525-.677a2.547 2.547 0 0 0 0-1.944c-.12-.264-.3-.496-.525-.677a2.237 2.237 0 0 0-.783-.394 3.502 3.502 0 0 0-.968-.127h-1v4.34zm5.049-4.786h.488v5.225h-.488v-5.225zm1.919 0h.627l3.183 4.577h.016v-4.577h.488v5.225h-.627l-3.183-4.577h-.016v4.577h-.488v-5.225zm10.057 4.889a3.352 3.352 0 0 1-.947.365c-.329.07-.664.107-1 .107a2.876 2.876 0 0 1-1.1-.205 2.455 2.455 0 0 1-.853-.57 2.545 2.545 0 0 1-.554-.869 3.016 3.016 0 0 1-.2-1.1 2.9 2.9 0 0 1 .2-1.1 2.527 2.527 0 0 1 1.407-1.439 2.8 2.8 0 0 1 1.1-.205c.7-.03 1.381.231 1.882.722l-.353.369a1.765 1.765 0 0 0-.668-.467 2.063 2.063 0 0 0-.427-.131 2.265 2.265 0 0 0-1.354.127 2.058 2.058 0 0 0-1.143 1.218 2.713 2.713 0 0 0 0 1.813c.192.548.606.99 1.14 1.218.29.122.604.182.919.176.265.002.53-.02.792-.066a2.12 2.12 0 0 0 .673-.242v-1.755h-1.255v-.443h1.743v2.481l-.002-.004zm3.35-4.889h3.195v.443h-2.711v1.862h2.539v.443h-2.539v2.042h2.826v.443h-3.314v-5.233h.004zm4.376 0h.627l3.183 4.577h.016v-4.577h.488v5.225h-.627l-3.183-4.577h-.016v4.577h-.488v-5.225zm5.746 0h3.195v.443h-2.711v1.862h2.539v.443h-2.539v2.042h2.826v.443h-3.314v-5.233h.004zm4.376 0h1.374a3.816 3.816 0 0 1 .665.053c.144.027.285.067.422.119.143.053.274.134.386.238a1.245 1.245 0 0 1 .39.964 1.31 1.31 0 0 1-.131.619 1.184 1.184 0 0 1-.324.394c-.129.1-.275.177-.431.226a2.827 2.827 0 0 1-.451.1l1.522 2.51h-.554l-1.468-2.481h-.906v2.481h-.494v-5.223zm.488 2.3h1.034c.212.006.423-.025.623-.094a1 1 0 0 0 .373-.238.73.73 0 0 0 .18-.3.91.91 0 0 0 0-.591.806.806 0 0 0-.18-.3 1.027 1.027 0 0 0-.373-.238c-.2-.07-.411-.102-.623-.094h-1.034v1.855zm8.202 2.589a3.355 3.355 0 0 1-.947.365c-.329.07-.664.107-1 .107a2.876 2.876 0 0 1-1.1-.205 2.455 2.455 0 0 1-.853-.57 2.546 2.546 0 0 1-.554-.869 3.016 3.016 0 0 1-.2-1.1 2.9 2.9 0 0 1 .2-1.1 2.527 2.527 0 0 1 1.407-1.439 2.8 2.8 0 0 1 1.1-.205c.7-.03 1.381.231 1.882.722l-.353.369a1.765 1.765 0 0 0-.668-.467 2.063 2.063 0 0 0-.427-.131 2.265 2.265 0 0 0-1.354.127 2.056 2.056 0 0 0-1.143 1.218 2.713 2.713 0 0 0 0 1.813c.192.548.606.99 1.14 1.218.29.122.604.182.919.176.265.002.53-.02.792-.066a2.12 2.12 0 0 0 .673-.242v-1.755h-1.255v-.443h1.741v2.481-.004zm2.588-1.912l-1.919-2.973h.582l1.579 2.48 1.616-2.481h.545l-1.919 2.973v2.252h-.484v-2.251zM87.435 332.915h-14.6v-12.267l7.3-5.475 7.3 5.475v12.267zm14.371 0H88.727V293.58l13.079 8.514v30.821z" fill="#8295a1"/><path d="M120.741 282.835h-3.7v-3.248h-2.333v-3.244h-1.874v-6.525h-1.826v6.525h-1.878v3.244h-2.329v3.248h-3.7v50.08h17.643l-.003-50.08z" fill="#3ba6dd"/><path d="M74.123 355.529v3.2c0 .169.023.337.066.5.045.173.12.337.221.484.106.15.245.273.406.361.392.186.847.186 1.239 0 .161-.088.3-.211.406-.361.102-.147.177-.31.221-.484.043-.163.065-.331.066-.5v-3.2h.71v3.314a2.18 2.18 0 0 1-.156.833c-.098.241-.243.46-.427.644a1.849 1.849 0 0 1-.644.422 2.219 2.219 0 0 1-1.591 0 1.889 1.889 0 0 1-.644-.422 1.982 1.982 0 0 1-.427-.644 2.166 2.166 0 0 1-.156-.833v-3.314h.71zm6.045 5.27a.484.484 0 0 1-.344-.144.471.471 0 0 1-.144-.345c0-.13.051-.254.144-.344a.455.455 0 0 1 .344-.144c.13 0 .254.052.345.144a.47.47 0 0 1 .144.344.48.48 0 0 1-.144.345.468.468 0 0 1-.345.144zm2.961-1.136c.12.186.291.334.492.427a1.5 1.5 0 0 0 .615.135c.25-.002.494-.08.7-.221a.833.833 0 0 0 .246-.275.707.707 0 0 0 .094-.377.56.56 0 0 0-.193-.459 1.701 1.701 0 0 0-.476-.267 8.32 8.32 0 0 0-.619-.205 2.637 2.637 0 0 1-.619-.275 1.505 1.505 0 0 1-.476-.476 1.49 1.49 0 0 1-.193-.808 1.378 1.378 0 0 1 .416-.96 1.68 1.68 0 0 1 .55-.357c.257-.101.532-.15.808-.144.278 0 .554.04.82.119.272.086.512.253.685.48l-.574.525a.935.935 0 0 0-.377-.332 1.222 1.222 0 0 0-.554-.127 1.319 1.319 0 0 0-.492.078.93.93 0 0 0-.316.2.733.733 0 0 0-.168.262.793.793 0 0 0-.049.258.66.66 0 0 0 .193.509c.139.125.3.222.476.287.203.077.41.144.619.2.216.056.424.139.619.246.189.105.351.25.476.427.14.222.207.48.193.742.002.235-.047.467-.144.681-.09.196-.222.37-.386.509-.17.141-.364.25-.574.32-.23.075-.469.113-.71.111a2.547 2.547 0 0 1-.951-.176 1.6 1.6 0 0 1-.718-.545l.587-.512zm5.409 1.136a.484.484 0 0 1-.344-.144.471.471 0 0 1-.144-.345c0-.13.051-.254.144-.344a.455.455 0 0 1 .344-.144c.13 0 .254.052.345.144a.47.47 0 0 1 .144.344.48.48 0 0 1-.144.345.462.462 0 0 1-.345.144zm5.849-5.27h1.825c.329-.006.656.037.972.127.257.073.5.186.722.336.194.133.366.296.509.484.13.173.238.362.32.562.076.185.132.377.168.574a2.64 2.64 0 0 1-.132 1.505 2.425 2.425 0 0 1-.545.833 2.729 2.729 0 0 1-.9.586c-.395.154-.816.23-1.239.221h-1.704v-5.228h.004zm.71 4.565h.894c.289.001.576-.04.853-.123.256-.076.495-.2.705-.365.202-.165.366-.372.48-.607a1.93 1.93 0 0 0 .176-.853 2.6 2.6 0 0 0-.082-.586 1.778 1.778 0 0 0-.931-1.153 2.226 2.226 0 0 0-1.034-.209h-1.062l.001 3.896zm5.983-4.565h3.375v.664h-2.665v1.556h2.481v.664h-2.481v1.677h2.8v.664h-3.51v-5.225zm5.619 0h1.837c.282-.01.563.037.828.135.196.075.371.195.513.349.123.135.213.296.262.472.047.163.072.33.074.5-.001.17-.026.338-.074.5-.05.176-.14.337-.262.472-.144.152-.32.27-.513.349a2.17 2.17 0 0 1-.828.135h-1.127v2.308h-.71v-5.22zm.71 2.3h.931c.137 0 .274-.012.41-.033.127-.018.25-.06.361-.123a.658.658 0 0 0 .254-.254.838.838 0 0 0 .094-.431.881.881 0 0 0-.094-.431.658.658 0 0 0-.254-.254 1.212 1.212 0 0 0-.361-.123 2.732 2.732 0 0 0-.41-.033h-.931v1.682zm5.868-2.3h.644l2.235 5.22h-.828l-.525-1.292h-2.489l-.518 1.292h-.828l2.309-5.22zm1.271 3.314l-.976-2.4h-.016l-.988 2.4h1.98zm3.396-3.314h1.837c.282-.01.563.037.828.135.196.075.371.195.513.349.123.135.213.296.262.472.047.163.072.33.074.5.001.166-.03.33-.09.484a1.352 1.352 0 0 1-.254.422 1.442 1.442 0 0 1-.939.476l1.485 2.382h-.886l-1.329-2.3h-.791v2.3h-.71v-5.22zm.705 2.3h.931c.137 0 .274-.012.41-.033.127-.018.25-.06.361-.123a.658.658 0 0 0 .254-.254.838.838 0 0 0 .094-.431.881.881 0 0 0-.094-.431.658.658 0 0 0-.254-.254 1.206 1.206 0 0 0-.361-.123 2.732 2.732 0 0 0-.41-.033h-.926l-.005 1.682zm5.868-1.636h-1.68v-.664h4.08v.664h-1.682v4.556h-.71v-4.561l-.008.005zm4.205-.664h1.054l1.661 3.958h.029l1.645-3.958h1.053v5.22h-.71v-4.3h-.016l-1.764 4.3h-.472l-1.764-4.3h-.016v4.3h-.71v-5.22h.01zm7.846 0h3.375v.664h-2.665v1.556h2.481v.664h-2.481v1.677h2.8v.664h-3.51v-5.225zm5.618 0h.931l2.879 4.3h.016v-4.3h.71v5.22h-.9l-2.908-4.3h-.016v4.3h-.71v-5.22h-.002zm8.075.664h-1.681v-.664h4.077v.664h-1.682v4.556h-.71v-4.561l-.004.005zm9.811 4.696a2.822 2.822 0 0 1-1.1-.209 2.568 2.568 0 0 1-.861-.578 2.712 2.712 0 0 1-.562-.869 2.983 2.983 0 0 1 0-2.174 2.67 2.67 0 0 1 .562-.869c.244-.25.537-.447.861-.578a2.992 2.992 0 0 1 2.2 0c.323.133.616.33.861.578.241.25.432.546.562.869a2.982 2.982 0 0 1 0 2.174 2.67 2.67 0 0 1-.562.869c-.244.25-.537.447-.861.578-.35.142-.723.213-1.1.209zm0-.664c.28.004.557-.054.812-.168a1.89 1.89 0 0 0 .619-.447c.175-.192.311-.416.4-.66a2.411 2.411 0 0 0 0-1.616 1.948 1.948 0 0 0-.4-.66 1.89 1.89 0 0 0-.619-.447 2.045 2.045 0 0 0-1.624 0 1.89 1.89 0 0 0-.619.447 1.986 1.986 0 0 0-.4.66 2.41 2.41 0 0 0 0 1.616c.089.244.225.468.4.66.174.19.384.342.619.447.255.114.532.171.812.168zm4.852-4.696h3.285v.664h-2.575v1.641h2.4v.664h-2.4v2.26h-.71v-5.229zm8.501 0h3.375v.664h-2.665v1.556h2.481v.664h-2.481v1.677h2.8v.664h-3.51v-5.225zm5.619 0h.931l2.879 4.3h.016v-4.3h.71v5.22h-.906l-2.908-4.3h-.016v4.3h-.71v-5.22h.004zm6.985 0h3.375v.664h-2.666v1.556h2.481v.664h-2.481v1.677h2.8v.664h-3.509v-5.225zm5.618 0h1.837c.282-.01.563.037.828.135.196.074.372.194.513.349.123.135.213.296.263.472.047.163.072.33.074.5.001.166-.03.33-.09.484a1.352 1.352 0 0 1-.254.422 1.442 1.442 0 0 1-.939.476l1.484 2.382h-.886l-1.329-2.3h-.792v2.3h-.71v-5.22h.001zm.705 2.3h.931c.137 0 .274-.012.41-.033.127-.018.25-.06.361-.123a.686.686 0 0 0 .254-.254.838.838 0 0 0 .094-.431.881.881 0 0 0-.094-.431.658.658 0 0 0-.254-.254 1.206 1.206 0 0 0-.361-.123 2.733 2.733 0 0 0-.41-.033h-.931v1.682zm9.364.005v2.576a2.37 2.37 0 0 1-.435.205c-.164.06-.33.11-.5.152a3.91 3.91 0 0 1-.533.09 4.467 4.467 0 0 1-.5.029 3.008 3.008 0 0 1-1.185-.221 2.538 2.538 0 0 1-1.423-1.474 2.927 2.927 0 0 1-.189-1.054 2.878 2.878 0 0 1 .205-1.087 2.67 2.67 0 0 1 .562-.869c.244-.25.537-.447.861-.578.35-.142.723-.213 1.1-.209a3.28 3.28 0 0 1 1.181.18c.288.11.55.28.767.5l-.5.537a1.858 1.858 0 0 0-.685-.431 2.354 2.354 0 0 0-.759-.123 1.93 1.93 0 0 0-.812.168 1.89 1.89 0 0 0-.619.447 1.986 1.986 0 0 0-.4.66 2.293 2.293 0 0 0-.139.808c-.002.282.051.562.156.824.098.246.243.47.427.66a2 2 0 0 0 1.444.599c.24 0 .479-.023.714-.07.2-.037.393-.106.57-.205v-1.456h-1.161v-.664h1.858l-.005.006zm3.629.693l-1.977-3h.906l1.423 2.3 1.468-2.3h.865l-1.977 3v2.231h-.71v-2.231h.002z" fill="#8295a1"/><path fill="none" stroke="#8295a1" stroke-miterlimit="10" d="M72.84 350.41h135.08"/><path fill="none" d="M72.79 338.03h13.85v8.13H72.79zm15.12 0h13.85v8.13H87.91zm15.11 0h13.85v8.13h-13.85zm15.11 0h13.85v8.13h-13.85zm15.12 0h13.85v8.13h-13.85z"/><path fill="none" d="M72.79 337.88h134.78v8.21H72.79z"/><path fill="none" d="M148.36 338.03h13.85v8.13h-13.85zm15.11 0h13.85v8.13h-13.85zm15.12 0h13.85v8.13h-13.85zm15.11 0h13.85v8.13H193.7z"/><linearGradient id="a" gradientUnits="userSpaceOnUse" x1="-163.26" y1="670.47" x2="-162.26" y2="670.47" gradientTransform="matrix(134.764 0 0 -8.129 22074.318 5792.33)"><stop offset="0" stop-color="#fff"/><stop offset="1" stop-color="#3ba6dd"/></linearGradient><path d="M72.79 338.034h13.854v8.129H72.79v-8.129zm15.117 8.129h13.854v-8.129H87.907v8.129zm15.113 0h13.854v-8.129H103.02v8.129zm15.113 0h13.854v-8.129h-13.854v8.129zm15.113 0H147.1v-8.129h-13.854v8.129zm15.113 0h13.854v-8.129h-13.854v8.129zm15.113 0h13.854v-8.129h-13.854v8.129zm30.228-8.129v8.129h13.854v-8.129H193.7zm-15.113 8.129h13.854v-8.129h-13.856l.002 8.129z" fill="url(#a)" stroke="#8295a1" stroke-width=".5" stroke-miterlimit="10"/></g></svg>