<svg xmlns="http://www.w3.org/2000/svg" viewBox="0 0 189.2 52.78"><path d="M89.258 13.597h2.106c1.002 0 1.745-.25 2.228-.752.483-.5.725-1.167.725-1.996 0-.802-.24-1.427-.718-1.873s-1.137-.67-1.976-.67c-.757 0-1.39.207-1.9.622-.51.415-.766.955-.766 1.62h-3.95c0-1.039.28-1.97.84-2.795s1.344-1.47 2.351-1.935c1.007-.465 2.117-.697 3.33-.697 2.105 0 3.754.504 4.949 1.51 1.194 1.007 1.79 2.395 1.79 4.163 0 .912-.278 1.75-.833 2.516a5.42 5.42 0 0 1-2.188 1.764c1.121.401 1.957 1.003 2.51 1.804.55.802.826 1.75.826 2.844 0 1.769-.645 3.186-1.934 4.252-1.29 1.067-2.997 1.6-5.12 1.6-1.988 0-3.612-.525-4.875-1.573-1.262-1.047-1.893-2.433-1.893-4.156h3.951c0 .747.28 1.359.84 1.832s1.252.711 2.072.711c.939 0 1.675-.248 2.208-.745s.8-1.155.8-1.976c0-1.987-1.094-2.98-3.281-2.98h-2.092v-3.09zM105.684 9.5a6.368 6.368 0 0 0-.83-.064c-.872 0-1.444.295-1.714.885v5.647h-2.305v-8.63h2.177l.063 1.03c.463-.792 1.104-1.188 1.922-1.188.256 0 .495.035.718.103l-.031 2.217zm.597 2.09c0-1.345.302-2.416.906-3.214s1.428-1.196 2.476-1.196c.84 0 1.534.313 2.081.941V3.72h2.313v12.249h-2.081l-.112-.917c-.575.718-1.313 1.076-2.217 1.076-1.016 0-1.83-.4-2.445-1.2-.613-.8-.92-1.912-.92-3.337zm2.305.172c0 .808.14 1.43.423 1.86.281.432.692.648 1.229.648.712 0 1.214-.301 1.506-.904v-3.41c-.287-.601-.784-.902-1.49-.902-1.112 0-1.668.902-1.668 2.708zM88.294 43.04v5.26h-3.076V33.37h5.824c1.121 0 2.108.206 2.958.616.852.41 1.506.993 1.964 1.748.458.756.687 1.615.687 2.579 0 1.463-.5 2.616-1.502 3.46-1.002.845-2.387 1.267-4.158 1.267h-2.697zm0-2.492h2.748c.814 0 1.434-.191 1.862-.574.426-.383.64-.93.64-1.64 0-.732-.215-1.323-.646-1.774s-1.025-.683-1.784-.697h-2.82v4.685zm16.591 7.752a3.288 3.288 0 0 1-.297-.994c-.718.799-1.651 1.2-2.8 1.2-1.087 0-1.987-.315-2.702-.944s-1.071-1.422-1.071-2.379c0-1.176.435-2.078 1.308-2.707.87-.629 2.13-.946 3.778-.953h1.364v-.637c0-.511-.132-.922-.395-1.23-.263-.307-.678-.461-1.245-.461-.5 0-.891.12-1.175.36-.284.239-.426.567-.426.984h-2.963c0-.643.198-1.238.595-1.786.396-.545.957-.975 1.681-1.286.725-.311 1.538-.466 2.44-.466 1.368 0 2.453.343 3.257 1.03.802.687 1.205 1.653 1.205 2.896v4.81c.007 1.053.153 1.85.44 2.39v.173h-2.994zm-2.45-2.06c.437 0 .84-.098 1.21-.293.369-.194.642-.456.82-.784v-1.908h-1.107c-1.484 0-2.274.513-2.37 1.538l-.01.175c0 .37.13.673.39.912.26.24.616.36 1.067.36zm13.515-6.256a8.221 8.221 0 0 0-1.067-.082c-1.121 0-1.856.38-2.205 1.139v7.26h-2.963V37.205h2.799l.082 1.323c.595-1.019 1.419-1.528 2.472-1.528.328 0 .635.044.922.133l-.04 2.85zm5.485-5.506v2.728h1.897v2.173h-1.897v5.537c0 .41.079.705.236.882s.458.267.902.267c.328 0 .619-.024.871-.071v2.245a6.099 6.099 0 0 1-1.793.266c-2.078 0-3.138-1.049-3.18-3.148v-5.978h-1.62v-2.174h1.62v-2.727h2.964zm7.69 9.629l2.051-6.901h3.179l-4.46 12.817-.246.584c-.663 1.45-1.757 2.174-3.282 2.174-.43 0-.868-.065-1.312-.194V50.34l.451.01c.56 0 .98-.086 1.256-.256.277-.172.494-.455.651-.851l.349-.912-3.887-11.126h3.19l2.06 6.901zm22.447-8.244h-4.574V48.3h-3.076V35.863h-4.511V33.37h12.16v2.492zm-1.037 6.787c0-1.1.212-2.081.636-2.942s1.034-1.529 1.83-2c.797-.472 1.722-.707 2.775-.707 1.497 0 2.718.458 3.665 1.374.947.916 1.475 2.16 1.585 3.732l.02.759c0 1.702-.475 3.067-1.426 4.096-.95 1.029-2.224 1.543-3.824 1.543s-2.877-.512-3.83-1.538c-.954-1.025-1.43-2.42-1.43-4.183v-.134zm2.964.21c0 1.056.199 1.861.595 2.419.397.558.964.838 1.702.838.718 0 1.278-.277 1.682-.827s.604-1.433.604-2.645c0-1.033-.201-1.835-.604-2.403-.404-.568-.971-.852-1.702-.852-.725 0-1.286.282-1.682.847-.397.565-.595 1.44-.595 2.624zm8.911-.21c0-1.1.211-2.081.635-2.942s1.034-1.529 1.83-2c.797-.472 1.722-.707 2.775-.707 1.497 0 2.718.458 3.665 1.374.947.916 1.475 2.16 1.585 3.732l.02.759c0 1.702-.475 3.067-1.426 4.096-.95 1.029-2.224 1.543-3.824 1.543s-2.877-.512-3.83-1.538c-.954-1.025-1.43-2.42-1.43-4.183v-.134zm2.963.21c0 1.056.199 1.861.595 2.419.397.558.964.838 1.702.838.718 0 1.278-.277 1.682-.827s.604-1.433.604-2.645c0-1.033-.201-1.835-.604-2.403-.404-.568-.971-.852-1.702-.852-.725 0-1.286.282-1.682.847-.396.565-.595 1.44-.595 2.624zm12.499 5.44H174.9V32.55h2.973V48.3zm8.45-3.066c0-.361-.18-.648-.539-.856-.358-.209-.934-.394-1.727-.558-2.639-.555-3.958-1.675-3.958-3.363 0-.985.408-1.807 1.226-2.467.816-.66 1.884-.99 3.204-.99 1.408 0 2.534.332 3.379.996.843.663 1.265 1.524 1.265 2.584h-2.963c0-.424-.136-.775-.41-1.052-.273-.277-.701-.415-1.282-.415-.5 0-.885.113-1.158.338-.274.226-.41.513-.41.86 0 .329.155.595.466.796.31.202.835.376 1.574.523.738.147 1.36.313 1.866.497 1.565.575 2.348 1.57 2.348 2.984 0 1.012-.434 1.83-1.302 2.456-.869.626-1.99.938-3.364.938-.93 0-1.755-.166-2.475-.497-.722-.332-1.287-.786-1.698-1.364a3.167 3.167 0 0 1-.615-1.871h2.81c.027.526.222.93.584 1.21s.848.42 1.456.42c.567 0 .996-.108 1.287-.322.29-.216.436-.498.436-.847z" fill="#454444"/><path d="M40.676 25.403l2.063 2.065a2.716 2.716 0 0 0 3.831 0l15.35-15.35a2.716 2.716 0 0 0 0-3.83L54.9 1.265a2.715 2.715 0 0 0-3.83 0L35.72 16.621a2.711 2.711 0 0 0 0 3.826l2.067 2.067-2.614 2.614-8.359-7.987C28.745 9.857 24.405 2.386 17.121.456a13.645 13.645 0 0 0-8.562.52l-.786.313.6.6 7.647 7.65a8.004 8.004 0 0 1-.86 2.117c-.022.036-.046.07-.068.1-.142.237-.3.468-.468.695-.26.342-.542.667-.845.972a9.03 9.03 0 0 1-4.246 2.433l-7.59-7.59-.595-.594-.319.777c-2.865 6.964.457 14.931 7.42 17.796a13.634 13.634 0 0 0 10.188.076l7.495 7.847-7.126 7.125-3.18.476-3.567 4.73 4.061 4.057-.119.092.318.441 4.953-3.766.471-3.183 7.014-7.016.055.06-.01.008.454.455 11.69 12.238c2.3 2.3 6.624 1.718 8.928-.584l.235-.232c2.3-2.3 2.886-6.623.585-8.929l-11.11-10.607.008-.009-1.562-1.56-.043.043-.058-.055 2.547-2.549zm2.411 19.322a2.633 2.633 0 1 1 0 .004v-.004z" fill="#b4b2b2"/></svg>