<svg xmlns="http://www.w3.org/2000/svg" viewBox="0 0 49.68 42.47"><path d="M46.403 6.353v34.072h-6.1V6.353a3.064 3.064 0 1 1 6.1 0zM12.555 28.846v11.578h-6.1V28.846a3.064 3.064 0 1 1 6.1 0zm8.462-2.86v14.445h-6.1V25.989a3.064 3.064 0 1 1 6.1 0v-.003zm8.465-8.708v23.15h-6.1v-23.15a3.064 3.064 0 1 1 6.1 0zm8.458-1.585v24.74h-6.1v-24.74a3.064 3.064 0 1 1 6.1 0z" fill="#107e8f"/><path fill="none" stroke="#0096df" stroke-width="3.11" stroke-miterlimit="10" stroke-dasharray="2.49" d="M1.169 23.589l47.98-.04"/><path d="M1.175 0v41.293h48.5" fill="none" stroke="#094f58" stroke-width="2.35" stroke-miterlimit="10"/></svg>