<?xml version="1.0" encoding="utf-8"?>
<!-- Generator: Adobe Illustrator 18.1.1, SVG Export Plug-In . SVG Version: 6.00 Build 0)  -->
<!DOCTYPE svg PUBLIC "-//W3C//DTD SVG 1.1//EN" "http://www.w3.org/Graphics/SVG/1.1/DTD/svg11.dtd">
<svg version="1.1" id="Layer_1" xmlns="http://www.w3.org/2000/svg" xmlns:xlink="http://www.w3.org/1999/xlink" x="0px" y="0px"
	 viewBox="99 94.3 601 422.3" enable-background="new 99 94.3 601 422.3" xml:space="preserve">
<g>
	<polygon fill="#16B1B8" points="225.3,395.8 314.7,395.8 314.7,373 314.7,366.7 314.7,299.9 285.8,299.9 285.8,366.9 225.3,366.9 
		225.3,357.2 196.2,381.3 225.3,405.5 	"/>
	<polygon fill="#16B1B8" points="506.3,299.9 477.6,299.9 477.6,367 477.6,373.3 477.6,396.1 567.2,396.1 567.2,405.8 596.3,381.7 
		567.2,357.5 567.2,367.2 506.3,367.2 	"/>
	<polygon fill="#16B1B8" points="333.8,299.9 333.8,417.2 177.4,417.2 177.4,407.5 148.3,431.6 177.4,455.8 177.4,446.1 
		362.5,446.8 362.5,299.9 	"/>
	<polygon fill="#16B1B8" points="643.5,432.1 615,408.3 615,417.2 458.6,417.2 458.6,299.9 429.5,299.9 429.5,447.1 614.5,446.6 
		614.5,456.3 	"/>
	<polygon fill="#16B1B8" points="411.5,299.9 382.6,299.9 382.6,487.6 372.9,487.6 397,516.6 421.2,487.6 411.5,487.6 	"/>
	<polygon fill="#16B1B8" points="614.5,408 615,408.3 615,408 	"/>
</g>
<path fill="#3E3A36" d="M272.2,291.4h2.2c0,0,0,0,0.2,0h0.2h87.9l0,0c8,0,15.1,0,20.1,0l0,0H515c14.3-0.9,37.6-7.6,37.6-52.4
	c0-49.8-40.1-51.2-40.1-51.2c-3.4-18.7-29.8-16-29.8-16c0-41.5-13.9-77.5-78.9-77.5s-71.9,47.8-71.9,47.8h-22.1
	c-43.5,0-39.4,47.8-39.4,47.8c-25.7,0-48.5,12.2-48.5,54.4C221.9,281.7,262.2,290.5,272.2,291.4z"/>
</svg>
